<svg width="12" height="16" viewBox="0 0 12 16" xmlns="http://www.w3.org/2000/svg"><title>locked-padlock</title><path d="M11.132 6.458h-.303V5c0-2.698-2.085-4.95-4.691-5a10.276 10.276 0 0 0-.285 0c-2.605.049-4.69 2.302-4.69 5v1.458H.859c-.467 0-.849.495-.849 1.107v7.315c0 .611.382 1.111.85 1.111h10.272c.468 0 .85-.5.85-1.111V7.565c0-.612-.382-1.107-.85-1.107zm-4.174 4.757v2.21a.466.466 0 0 1-.453.468H5.486a.466.466 0 0 1-.453-.468v-2.21a1.333 1.333 0 0 1-.378-.946c0-.7.527-1.303 1.198-1.33.072-.004.214-.004.285 0 .671.027 1.199.63 1.199 1.33 0 .37-.14.704-.379.946zm1.87-4.757H3.163V5c0-1.607 1.272-2.936 2.833-2.936 1.56 0 2.832 1.329 2.832 2.936v1.458z" fill="#FFF" fill-rule="evenodd"/></svg>