<svg xmlns="http://www.w3.org/2000/svg" width="512" height="512" viewBox="0 0 512 512"><path fill="#FFF" d="M291.979 36.571c13.7.001 27.755 9.314 31.932 30.953 15.014 77.789-21.428 136.022-21.428 136.022h78.915c23.254 0 43.554 18.84 43.554 42.088 0 23.237-15.852 42.088-31.011 42.088 3.729 6.288 5.906 13.591 5.906 21.424 0 17.859-11.134 33.089-26.848 39.203 4.188 6.55 6.65 14.294 6.65 22.641 0 20.572-14.754 37.669-34.248 41.344 3.561 6.179 5.627 13.325 5.627 20.963 0 23.237-18.847 42.088-42.089 42.088l-44.656.044c-132.125 0-107.246-45.839-177.239-45.839V255.955c44.717 0 83.611-2.371 122.615-64.023 27.323-43.185 44.898-70.349 52.25-128.784 2.089-16.604 15.89-26.577 30.07-26.577M291.982 0c-15.691 0-30.955 5.517-42.981 15.534-12.939 10.78-21.24 26.068-23.378 43.049-6.239 49.588-20.297 71.806-45.819 112.137l-1.049 1.658c-29.738 47.006-53.065 47.006-91.711 47.006-20.198 0-36.571 16.374-36.571 36.571V429.59c0 20.199 16.374 36.571 36.571 36.571 18.742 0 24.462 3.68 36.997 11.738 10.701 6.88 25.357 16.305 48.295 23.24 24.166 7.309 54.243 10.86 91.947 10.86l44.691-.041c43.34 0 78.627-35.287 78.627-78.659 0-.535-.006-1.071-.016-1.609 17.635-14.551 28.638-36.542 28.638-60.696 0-2.92-.162-5.824-.484-8.705a80.115 80.115 0 0 0 6.571-8.203c9.232-13.23 14.111-28.768 14.111-44.934 0-.941-.018-1.877-.052-2.814 15.244-14.561 25.155-36.57 25.155-60.701 0-21.252-8.658-41.219-24.383-56.222-15.165-14.471-34.961-22.438-55.742-22.438h-25.241c9.106-34.951 10.388-71.55 3.663-106.382-3.492-18.088-11.862-33.365-24.212-44.175A66.213 66.213 0 0 0 291.982 0z"/></svg>