<svg width="19" height="31" viewBox="0 0 19 31" xmlns="http://www.w3.org/2000/svg"><title>hand-finger-pressing-a-circular-ring-button</title><path d="M11.185 11.18a4.343 4.343 0 0 0 1.195-3.004c0-2.387-1.913-4.328-4.265-4.328-2.351 0-4.264 1.941-4.264 4.328a4.34 4.34 0 0 0 1.195 3.005.365.365 0 0 1-.009.51.352.352 0 0 1-.502-.01A5.064 5.064 0 0 1 3.14 8.177c0-2.785 2.232-5.05 4.976-5.05 2.744 0 4.976 2.265 4.976 5.05 0 1.315-.495 2.56-1.394 3.506a.352.352 0 0 1-.503.01.363.363 0 0 1-.01-.511zM2.86 13.9a.365.365 0 0 0 .006-.51A7.47 7.47 0 0 1 .769 8.175C.77 4.066 4.065.721 8.115.721c4.05 0 7.346 3.345 7.346 7.455a7.468 7.468 0 0 1-2.096 5.213.364.364 0 0 0 .006.51.352.352 0 0 0 .502-.005 8.192 8.192 0 0 0 2.298-5.718C16.171 3.667 12.557 0 8.115 0 3.673 0 .059 3.667.059 8.176c0 2.15.816 4.181 2.298 5.718a.352.352 0 0 0 .502.005zm14.837 15.476l-.408 1.333a.358.358 0 0 1-.342.255l-7.601-.011a.366.366 0 0 1-.235-.637c-.002 0 .06-.07.055-.193-.005-.122-.08-.384-.524-.77-.139-.132-3.12-3.003-4.39-5.248-.35-.5-2.946-4.291-2.324-5.958.147-.395.453-.66.887-.768a1.75 1.75 0 0 1 .595-.106c1.14 0 1.986 1.136 2.604 1.966.136.183.307.413.436.556.055-.252.115-.819.11-2.088l.001-.04c.002-.02.19-1.92.2-7.988a.348.348 0 0 1-.195-.107 2.118 2.118 0 0 1-.522-1.396c0-1.16.93-2.105 2.073-2.105 1.143 0 2.073.944 2.073 2.105 0 .458-.153.894-.422 1.257l.024.232c.07.701.144 1.618.223 2.59.104 1.276.238 2.929.343 3.691.31-.16.752-.332 1.23-.332.527 0 1.236.208 1.762 1.14a2.75 2.75 0 0 1 .984-.198c.624 0 1.45.26 1.934 1.456.439.079 1.408.334 2.04 1.1.442.538.633 1.213.567 2.008.055.498.496 4.98-1.178 8.256zM6.753 8.176c0 .146.027.29.07.426.219-1.306.77-1.6 1.22-1.6.607 0 1.17.573 1.427 1.1-.04-.728-.629-1.309-1.355-1.309-.752 0-1.362.62-1.362 1.383zm11.404 12.993a.389.389 0 0 1 0-.078c.056-.61-.078-1.117-.399-1.509-.625-.764-1.772-.877-1.784-.879a.361.361 0 0 1-.308-.243c-.269-.792-.706-1.177-1.335-1.177-.512 0-.965.258-.97.26a.358.358 0 0 1-.504-.167c-.308-.696-.724-1.035-1.271-1.035-.634 0-1.235.454-1.24.46a.354.354 0 0 1-.32.06c-.331-.1-.366-.11-.727-4.547-.082-1.001-.176-2.165-.256-2.903a6.033 6.033 0 0 0-.095-.68.372.372 0 0 1-.05-.12c-.073-.35-.546-.883-.856-.883-.203 0-.472.366-.567 1.398 0 6.285-.18 8.361-.203 8.597.008 1.98-.13 2.511-.371 2.758a.509.509 0 0 1-.37.16c-.374 0-.66-.384-1.092-.964C4.912 18.97 4.191 18 3.407 18c-.121 0-.246.024-.369.07a.486.486 0 0 1-.042.013c-.274.064-.358.205-.402.321-.372.999 1.182 3.777 2.25 5.294l.019.03c1.212 2.154 4.226 5.057 4.256 5.086.499.433.758.88.76 1.319 0 .032 0 .063-.003.093l6.805.01.34-1.107a.361.361 0 0 1 .024-.061c1.652-3.198 1.118-7.852 1.112-7.899z" fill="#474747" fill-rule="evenodd" opacity=".2"/></svg>