<svg xmlns="http://www.w3.org/2000/svg" width="200" height="200" viewBox="0 0 200 200"><path fill="#4099FF" d="M146.094 0H53.906C24.141 0 0 24.141 0 53.906v92.188C0 175.859 24.141 200 53.906 200h92.188C175.859 200 200 175.859 200 146.094V53.906C200 24.141 175.859 0 146.094 0zm2.578 78.242l.078 2.93c0 30.078-22.891 64.766-64.766 64.766-12.852 0-24.805-3.789-34.883-10.234 1.797.195 3.594.312 5.43.312 10.664 0 20.508-3.633 28.281-9.727-9.961-.195-18.359-6.797-21.25-15.82a22.29 22.29 0 0 0 4.297.43c2.109 0 4.043-.273 5.957-.781-10.391-2.07-18.301-11.289-18.301-22.305v-.273a23.013 23.013 0 0 0 10.371 2.852 22.733 22.733 0 0 1-10.088-18.945c0-4.18 1.147-8.086 3.101-11.445 11.211 13.787 28.016 22.85 46.921 23.787a22.755 22.755 0 0 1-.582-5.195c0-12.578 10.197-22.773 22.775-22.773a22.761 22.761 0 0 1 16.603 7.188 45.276 45.276 0 0 0 14.453-5.508 22.913 22.913 0 0 1-9.999 12.578c4.609-.547 8.984-1.797 13.086-3.594-3.047 4.57-6.914 8.593-11.484 11.757z"/></svg>