<svg xmlns="http://www.w3.org/2000/svg" viewBox="0 0 478.165 478.165" width="512" height="512"><path d="M376.893 349.758h-26.16l.12-15.301c0-6.654 5.479-12.372 12.253-12.372h1.634c7.013 0 12.612 5.718 12.612 12.372l-.459 15.301zm-98.402-32.695c-6.654 0-12.034 4.562-12.034 10.041v74.016c0 5.379 5.379 10.041 12.034 10.041s12.133-4.662 12.133-10.041v-74.016c0-5.479-5.478-10.041-12.133-10.041zm159.807-41.441v140.899c0 33.85-29.188 61.643-65.15 61.643H105.117c-35.962 0-65.25-27.793-65.25-61.643V275.622c0-33.85 29.308-61.404 65.25-61.404h268.031c35.962 0 65.15 27.554 65.15 61.404zm-315.31 156.32v-148.49h33.272v-22.055l-88.6-.12v21.717h27.674v148.968h27.654v-.02zm99.578-126.315h-27.674v79.156c0 11.675.697 17.274 0 19.386-2.331 6.077-12.373 12.612-16.337.697-.697-2.331-.12-8.408-.12-19.386v-79.853h-27.674l.12 78.678c0 11.914-.239 21.019.12 24.984.578 7.232.359 15.64 7.013 20.541 12.492 8.866 36.42-1.395 42.377-14.245v16.337h22.175V305.627zm88.6 90.811v-66.186c0-24.984-18.788-40.166-44.37-19.844l.12-49.032h-27.793v169.629l22.653-.458 2.211-10.5c28.969 26.599 47.179 8.389 47.179-23.609zm86.747-8.866l-20.78.239v14.484c0 6.077-5.14 11.217-11.436 11.217h-3.965c-6.296 0-11.317-5.14-11.317-11.217v-30.822h47.518v-17.851c0-12.851-.458-26.16-1.395-33.511-3.507-23.689-36.659-27.315-53.475-15.301-5.379 3.746-9.344 8.746-11.675 15.64-2.331 6.774-3.507 16.118-3.507 28.012v39.349c.1 65.37 79.356 56.025 70.032-.239zm-106.591-213.64c1.514 3.507 3.746 6.296 6.654 8.408 3.028 2.092 6.894 3.267 11.436 3.267 3.965 0 7.471-1.175 10.619-3.507 3.028-2.212 5.599-5.479 7.83-9.922l-.697 10.978h30.941V51.721h-24.287v102.267c0 5.599-4.562 10.041-10.281 10.041-5.479 0-10.161-4.562-10.161-10.041V51.721h-25.223v88.6c0 11.217.239 18.788.458 22.653.38 3.726 1.436 7.472 2.711 10.958zm-93.501-74.235c0-12.612 1.056-22.414 3.148-29.527 1.992-7.013 5.838-12.731 11.317-17.035 5.479-4.303 12.373-6.415 20.9-6.415 7.113 0 13.309 1.514 18.449 4.084 5.021 2.909 8.986 6.415 11.675 10.858 3.028 4.443 4.901 8.986 5.838 13.668 1.056 4.662 1.514 11.914 1.514 21.358v33.392c0 12.133-.359 21.139-1.514 26.857-.817 5.718-2.809 10.978-5.957 15.879-3.028 4.901-7.013 8.527-11.914 10.858-4.782 2.57-10.38 3.626-16.815 3.626-7.013 0-12.851-1.056-17.752-3.028-5.021-2.092-8.746-5.021-11.436-9.105-2.69-3.965-4.662-8.986-5.718-14.584-1.175-5.838-1.753-14.484-1.753-26.04V99.697h.018zm24.167 52.18c0 7.471 5.599 13.428 12.253 13.428 6.774 0 12.253-5.957 12.253-13.428V81.945c0-7.352-5.599-13.428-12.253-13.428-6.774 0-12.253 6.077-12.253 13.428v69.932zm-85.572 35.364h29.188l.12-100.753L200.052.219h-31.758l-18.33 63.974L131.396 0H99.877l36.54 86.508-.001 100.733z" fill="#D80027"/></svg>