<svg id="Calque_1" data-name="Calque 1" xmlns="http://www.w3.org/2000/svg" viewBox="0 0 11.97 15.99"><defs><style>.cls-1{fill:#c6c6c6;}</style></defs><title>locked-padlock-grey</title><g id="Welcome"><g id="HOME-Copy-2"><g id="Group"><g id="locked-padlock"><path id="Shape" class="cls-1" d="M11.13,6.46h-.3V5A4.91,4.91,0,0,0,6.14,0H5.85A4.91,4.91,0,0,0,1.16,5V6.46H.86A1,1,0,0,0,0,7.57v7.31A1,1,0,0,0,.86,16H11.13A1,1,0,0,0,12,14.88V7.57a1,1,0,0,0-.85-1.11ZM7,11.22v2.21a.47.47,0,0,1-.45.47h-1A.47.47,0,0,1,5,13.43V11.22a1.33,1.33,0,0,1-.38-.95,1.3,1.3,0,0,1,1.2-1.33h.28a1.3,1.3,0,0,1,1.2,1.33,1.33,1.33,0,0,1-.38.95ZM8.83,6.46H3.16V5A2.9,2.9,0,0,1,6,2.06,2.9,2.9,0,0,1,8.83,5V6.46Z" transform="translate(-0.01)"/></g></g></g></g></svg>