<?xml version="1.0" encoding="UTF-8"?>
<svg width="12px" height="16px" viewBox="0 0 12 16" version="1.1" xmlns="http://www.w3.org/2000/svg" xmlns:xlink="http://www.w3.org/1999/xlink">
    <!-- Generator: Sketch 40.3 (33839) - http://www.bohemiancoding.com/sketch -->
    <title>locked-padlock</title>
    <desc>Created with Sketch.</desc>
    <defs></defs>
    <g id="Welcome" stroke="none" stroke-width="1" fill="none" fill-rule="evenodd">
        <g id="HOME-Copy-2" transform="translate(-95.000000, -463.000000)" fill="#FFFFFF">
            <g id="Group" transform="translate(84.000000, 456.000000)">
                <g id="locked-padlock" transform="translate(11.000000, 7.000000)">
                    <path d="M11.13216,6.45792197 L10.828672,6.45792197 L10.828672,4.99958932 C10.828672,2.30229158 8.74384,0.0490841889 6.138048,0.000985626283 C6.066848,-0.000328542094 5.924576,-0.000328542094 5.853408,0.000985626283 C3.247552,0.0490841889 1.162752,2.30229158 1.162752,4.99958932 L1.162752,6.45792197 L0.859232,6.45792197 C0.39152,6.45792197 0.010016,6.95342916 0.010016,7.56540452 L0.010016,14.8798029 C0.010016,15.4910883 0.39152,15.9912279 0.859264,15.9912279 L11.13216,15.9912279 C11.599872,15.9912279 11.981408,15.4910883 11.981408,14.8798029 L11.981408,7.56540452 C11.981408,6.95346201 11.599904,6.45792197 11.13216,6.45792197 L11.13216,6.45792197 Z M6.958144,11.2151786 L6.958144,13.4253142 C6.958144,13.6783901 6.751776,13.8925667 6.505088,13.8925667 L5.4864,13.8925667 C5.23968,13.8925667 5.033312,13.6783901 5.033312,13.4253142 L5.033312,11.2151786 C4.794048,10.9733717 4.654752,10.6390144 4.654752,10.2691417 C4.654752,9.56822998 5.182464,8.96594661 5.85344,8.9381191 C5.924544,8.93516222 6.066976,8.93516222 6.13808,8.9381191 C6.809056,8.96594661 7.336768,9.56822998 7.336768,10.2691417 C7.336704,10.6390144 7.197408,10.9733717 6.958144,11.2151786 L6.958144,11.2151786 Z M8.828352,6.45792197 L6.138048,6.45792197 L5.853408,6.45792197 L3.163104,6.45792197 L3.163104,4.99958932 C3.163104,3.39285421 4.434912,2.06432854 5.995712,2.06432854 C7.556512,2.06432854 8.828384,3.39285421 8.828384,4.99958932 L8.828384,6.45792197 L8.828352,6.45792197 Z" id="Shape"></path>
                </g>
            </g>
        </g>
    </g>
</svg>