<?xml version="1.0" encoding="utf-8"?>
<!-- Generator: Adobe Illustrator 16.0.0, SVG Export Plug-In . SVG Version: 6.00 Build 0)  -->
<!DOCTYPE svg PUBLIC "-//W3C//DTD SVG 1.1//EN" "http://www.w3.org/Graphics/SVG/1.1/DTD/svg11.dtd">
<svg version="1.1" id="Capa_1" xmlns="http://www.w3.org/2000/svg" xmlns:xlink="http://www.w3.org/1999/xlink" x="0px" y="0px"
	 width="792px" height="792px" viewBox="0 0 792 792" enable-background="new 0 0 792 792" xml:space="preserve">
<g>
	<g>
		<rect x="216" y="432" fill="#FFFFFF" width="360" height="36"/>
		<rect x="216" y="540" fill="#FFFFFF" width="360" height="36"/>
		<rect x="216" y="108" fill="#FFFFFF" width="216" height="36"/>
		<rect x="216" y="648" fill="#FFFFFF" width="360" height="36"/>
		<rect x="216" y="324" fill="#FFFFFF" width="360" height="36"/>
		<path fill="#FFFFFF" d="M666.54,792c0,0,17.46,0,17.46-17.604V158.4L526.896,0H125.46c0,0-17.46,0-17.46,17.604V774.36
			C108,792,125.46,792,125.46,792H666.54z M144,36h360v108c0,36,36,36,36,36h108v576H144V36z"/>
		<rect x="216" y="216" fill="#FFFFFF" width="360" height="36"/>
	</g>
</g>
</svg>
