<?xml version="1.0" encoding="utf-8"?>
<!-- Generator: Adobe Illustrator 16.0.0, SVG Export Plug-In . SVG Version: 6.00 Build 0)  -->
<!DOCTYPE svg PUBLIC "-//W3C//DTD SVG 1.1//EN" "http://www.w3.org/Graphics/SVG/1.1/DTD/svg11.dtd">
<svg version="1.1" id="Capa_1" xmlns="http://www.w3.org/2000/svg" xmlns:xlink="http://www.w3.org/1999/xlink" x="0px" y="0px"
	 width="512px" height="512px" viewBox="0 0 512 512" enable-background="new 0 0 512 512" xml:space="preserve">
<g>
	<g>
		<g>
			<g>
				<path fill="#FFFFFF" d="M291.979,36.571c13.7,0.001,27.755,9.314,31.932,30.953c15.014,77.789-21.428,136.022-21.428,136.022
					h78.915c23.254,0,43.554,18.84,43.554,42.088c0,23.237-15.852,42.088-31.011,42.088c3.729,6.288,5.906,13.591,5.906,21.424
					c0,17.859-11.134,33.089-26.848,39.203c4.188,6.55,6.65,14.294,6.65,22.641c0,20.572-14.754,37.669-34.248,41.344
					c3.561,6.179,5.627,13.325,5.627,20.963c0,23.237-18.847,42.088-42.089,42.088l-44.656,0.044
					c-132.125,0-107.246-45.839-177.239-45.839V255.955c44.717,0,83.611-2.371,122.615-64.023
					c27.323-43.185,44.898-70.349,52.25-128.784C263.998,46.544,277.799,36.571,291.979,36.571 M291.982,0L291.982,0
					c-15.691,0-30.955,5.517-42.981,15.534c-12.939,10.78-21.24,26.068-23.378,43.049c-6.239,49.588-20.297,71.806-45.819,112.137
					l-1.049,1.658c-29.738,47.006-53.065,47.006-91.711,47.006c-20.198,0-36.571,16.374-36.571,36.571V429.59
					c0,20.199,16.374,36.571,36.571,36.571c18.742,0,24.462,3.68,36.997,11.738c10.701,6.88,25.357,16.305,48.295,23.24
					c24.166,7.309,54.243,10.86,91.947,10.86l44.691-0.041c43.34,0,78.627-35.287,78.627-78.659c0-0.535-0.006-1.071-0.016-1.609
					c17.635-14.551,28.638-36.542,28.638-60.696c0-2.92-0.162-5.824-0.484-8.705c2.355-2.572,4.55-5.312,6.571-8.203
					c9.232-13.23,14.111-28.768,14.111-44.934c0-0.941-0.018-1.877-0.052-2.814c15.244-14.561,25.155-36.57,25.155-60.701
					c0-21.252-8.658-41.219-24.383-56.222c-15.165-14.471-34.961-22.438-55.742-22.438h-25.241
					c9.106-34.951,10.388-71.55,3.663-106.382c-3.492-18.088-11.862-33.365-24.212-44.175C323.519,5.831,308.022,0.001,291.982,0
					L291.982,0z"/>
			</g>
		</g>
	</g>
</g>
</svg>
