<?xml version="1.0" encoding="UTF-8"?>
<svg width="19px" height="31px" viewBox="0 0 19 31" version="1.1" xmlns="http://www.w3.org/2000/svg" xmlns:xlink="http://www.w3.org/1999/xlink">
    <!-- Generator: Sketch 40.3 (33839) - http://www.bohemiancoding.com/sketch -->
    <title>hand-finger-pressing-a-circular-ring-button</title>
    <desc>Created with Sketch.</desc>
    <defs></defs>
    <g id="Welcome" stroke="none" stroke-width="1" fill="none" fill-rule="evenodd" opacity="0.200000003">
        <g id="HOME-Copy-2" transform="translate(-151.000000, -128.000000)" fill="#474747">
            <g id="LEGENDE" transform="translate(40.000000, 75.000000)">
                <g id="hand-finger-pressing-a-circular-ring-button" transform="translate(111.000000, 53.000000)">
                    <g id="Capa_1">
                        <path d="M11.1853794,11.180894 C11.9553987,10.37012 12.3802412,9.303224 12.3802412,8.17594 C12.3802412,5.789002 10.4674116,3.84772 8.11538264,3.84772 C5.76353698,3.84772 3.85052412,5.789002 3.85052412,8.17594 C3.85052412,9.302852 4.27481672,10.37012 5.04575241,11.180894 C5.18174598,11.3243 5.17832476,11.55277 5.03701608,11.691092 C4.96798071,11.758486 4.87927331,11.792462 4.79056592,11.792462 C4.69721543,11.792462 4.60472026,11.755262 4.53501286,11.681854 C3.63547588,10.735982 3.14000965,9.49065 3.14000965,8.17594 C3.14000965,5.391272 5.37186817,3.125916 8.11617685,3.125916 C10.8603023,3.125916 13.0923441,5.391272 13.0923441,8.17594 C13.0923441,9.49065 12.5972444,10.735982 11.6977074,11.681854 C11.5618971,11.825694 11.3372572,11.829104 11.1950932,11.691092 C11.0529293,11.552336 11.0484695,11.3243 11.1853794,11.180894 L11.1853794,11.180894 Z M2.85934727,13.89947 C2.99937299,13.760156 3.00218328,13.531748 2.86490675,13.389086 C1.51376849,11.988072 0.76940836,10.13669 0.76940836,8.176002 C0.76940836,4.06565 4.06465595,0.72137 8.11501608,0.72137 C12.1651929,0.72137 15.4605016,4.06565 15.4605016,8.176002 C15.4605016,10.137062 14.7164469,11.988444 13.3649421,13.389458 C13.2276656,13.53181 13.229926,13.760156 13.3705627,13.899532 C13.4397814,13.968228 13.5297717,14.002576 13.6190289,14.002576 C13.7109132,14.002576 13.803164,13.966368 13.8731158,13.894448 C15.3555434,12.357716 16.1713215,10.326596 16.1713215,8.176064 C16.1713826,3.667486 12.5572894,0 8.11501608,0 C3.67255949,0 0.0586495177,3.667486 0.0586495177,8.17594 C0.0586495177,10.326534 0.875038585,12.35722 2.35673312,13.894014 C2.49400965,14.036118 2.71944373,14.038598 2.85934727,13.89947 L2.85934727,13.89947 Z M17.6959035,29.37622 L17.2877395,30.70891 C17.2416141,30.860624 17.1025048,30.96404 16.9458617,30.96404 L16.9454952,30.96404 L9.34463987,30.952756 C9.19490032,30.952756 9.06190032,30.858392 9.00948232,30.716722 C8.95681994,30.575176 8.99646945,30.415526 9.1091865,30.315768 C9.10808682,30.315768 9.16985209,30.246762 9.16484244,30.122886 C9.15964952,30.001304 9.08450482,29.739292 8.64102894,29.3539 C8.50246945,29.220662 5.52191318,26.35031 4.25190675,24.105166 C3.90110932,23.604206 1.3047074,19.813774 1.92669775,18.146966 C2.07381029,17.752088 2.37994855,17.487038 2.81432154,17.379468 C3.0101865,17.30885 3.21014469,17.273014 3.40894212,17.273014 C4.54949196,17.273014 5.39545016,18.40935 6.01298071,19.238786 C6.14897428,19.422244 6.32046302,19.65214 6.44881994,19.795298 C6.50441479,19.54271 6.56416399,18.976402 6.55817685,17.706766 C6.55817685,17.693932 6.55854341,17.680354 6.56000965,17.666714 C6.5622701,17.647804 6.74970418,15.74738 6.76070096,9.679378 C6.68836656,9.66425 6.61786495,9.632196 6.56501929,9.571808 C6.22815113,9.186726 6.04273312,8.691222 6.04273312,8.175506 C6.04273312,7.015362 6.97257235,6.07135 8.1157492,6.07135 C9.25892605,6.07135 10.1887653,7.015362 10.1887653,8.175506 C10.1887653,8.633624 10.03591,9.070042 9.76716077,9.433052 C9.77473633,9.50646 9.78237299,9.582782 9.79080386,9.665056 C9.86057235,10.365966 9.93547267,11.283318 10.0143441,12.254362 C10.1177138,13.53057 10.2524244,15.183614 10.3573215,15.945966 C10.6675531,15.785138 11.109135,15.614142 11.5875563,15.614142 C12.1139357,15.614142 12.8229839,15.82178 13.3489968,16.753144 C13.5937974,16.658346 13.9457556,16.556046 14.3325981,16.556046 C14.9568489,16.556046 15.7834405,16.815392 16.2670547,18.011744 C16.7060096,18.091042 17.6750707,18.345862 18.3064084,19.112616 C18.74909,19.649846 18.9395177,20.32453 18.8740868,21.119556 C18.9290096,21.618408 19.3702862,26.100016 17.6959035,29.37622 L17.6959035,29.37622 Z M6.75275884,8.17594 C6.75275884,8.322384 6.77951768,8.465108 6.82362701,8.602004 C7.04197428,7.29616 7.59382958,7.001474 8.04341479,7.001474 C8.65013183,7.001474 9.21206752,7.575098 9.47006431,8.101788 C9.43078135,7.374466 8.8413537,6.793402 8.11501608,6.793402 C7.36338585,6.79303 6.75275884,7.413526 6.75275884,8.17594 L6.75275884,8.17594 Z M18.1571576,21.169156 C18.154164,21.143116 18.154164,21.117076 18.1564244,21.090974 C18.2126302,20.480894 18.0790193,19.973548 17.7583408,19.58239 C17.1330514,18.817868 15.9857203,18.704656 15.9738071,18.703478 C15.8331704,18.690272 15.7119614,18.595164 15.6662026,18.460004 C15.3972701,17.667582 14.9604534,17.282872 14.3310707,17.282872 C13.8192315,17.282872 13.3661029,17.540668 13.3616431,17.543334 C13.2745852,17.593926 13.1685884,17.605272 13.0729775,17.573156 C12.977,17.541412 12.8981286,17.470484 12.8571961,17.376802 C12.549164,16.679922 12.1332412,16.340906 11.5860289,16.340906 C10.9517588,16.340906 10.3513344,16.795428 10.3453473,16.800326 C10.2542572,16.871316 10.1348199,16.893574 10.025463,16.860342 C9.69476527,16.760708 9.65981994,16.750168 9.29930868,12.314006 C9.21744373,11.312954 9.12293248,10.148718 9.04296141,9.410608 C9.03831833,9.386614 9.03459164,9.36417 9.0349582,9.340176 C9.00257878,9.04983 8.97282637,8.831466 8.94771704,8.731398 C8.92450161,8.695004 8.90812862,8.654022 8.89859807,8.610436 C8.82455305,8.261748 8.35193569,7.727742 8.04219293,7.727742 C7.83948553,7.727742 7.57049196,8.094348 7.47524759,9.126462 C7.47488103,15.411154 7.29520579,17.487038 7.27235691,17.722576 C7.28036013,19.703042 7.14235048,20.234258 6.90054341,20.48077 C6.79809003,20.585364 6.67046624,20.64042 6.53099035,20.64042 C6.15654984,20.64042 5.87124437,20.25726 5.43931511,19.677374 C4.91238585,18.969148 4.19124116,18.000398 3.40704823,18.000398 C3.28577814,18.000398 3.16133119,18.023834 3.0381672,18.069838 C3.02442122,18.074798 3.0101254,18.07889 2.99558521,18.082672 C2.72237621,18.146842 2.6382508,18.288016 2.59438585,18.404328 C2.22220579,19.402528 3.77605145,22.18112 4.8431672,23.69764 C4.8504373,23.707064 4.85636334,23.717604 4.86253376,23.728578 C6.07511254,25.881652 9.08908682,28.784802 9.11902251,28.813508 C9.61766559,29.246888 9.87749518,29.694714 9.87975563,30.132558 C9.87975563,30.165046 9.87828939,30.195984 9.87602894,30.22624 L16.6809614,30.236408 L17.0206399,29.128778 C17.0269936,29.108008 17.0346913,29.08761 17.0448328,29.068018 C18.697283,25.87012 18.1634502,21.215904 18.1571576,21.169156 L18.1571576,21.169156 Z" id="Shape"></path>
                    </g>
                </g>
            </g>
        </g>
    </g>
</svg>