<?xml version="1.0" encoding="utf-8"?>
<!-- Generator: Adobe Illustrator 16.0.0, SVG Export Plug-In . SVG Version: 6.00 Build 0)  -->
<!DOCTYPE svg PUBLIC "-//W3C//DTD SVG 1.1//EN" "http://www.w3.org/Graphics/SVG/1.1/DTD/svg11.dtd">
<svg version="1.1" id="Calque_1" xmlns="http://www.w3.org/2000/svg" xmlns:xlink="http://www.w3.org/1999/xlink" x="0px" y="0px"
	 width="200px" height="200px" viewBox="0 0 200 200" enable-background="new 0 0 200 200" xml:space="preserve">
<g>
	<path fill="#4099FF" d="M146.094,0H53.906C24.141,0,0,24.141,0,53.906v92.188C0,175.859,24.141,200,53.906,200h92.188
		C175.859,200,200,175.859,200,146.094V53.906C200,24.141,175.859,0,146.094,0z M148.672,78.242l0.078,2.93
		c0,30.078-22.891,64.766-64.766,64.766c-12.852,0-24.805-3.789-34.883-10.234c1.797,0.195,3.594,0.312,5.43,0.312
		c10.664,0,20.508-3.633,28.281-9.727c-9.961-0.195-18.359-6.797-21.25-15.82c1.406,0.273,2.812,0.43,4.297,0.43
		c2.109,0,4.043-0.273,5.957-0.781c-10.391-2.07-18.301-11.289-18.301-22.305v-0.273c3.125,1.719,6.66,2.734,10.371,2.852
		c-6.094-4.062-10.088-11.055-10.088-18.945c0-4.18,1.147-8.086,3.101-11.445C68.11,73.789,84.915,82.852,103.82,83.789
		c-0.391-1.68-0.582-3.398-0.582-5.195c0-12.578,10.197-22.773,22.775-22.773c6.523,0,12.462,2.773,16.603,7.188
		c5.195-1.016,10.039-2.891,14.453-5.508c-1.719,5.312-5.312,9.766-9.999,12.578c4.609-0.547,8.984-1.797,13.086-3.594
		C157.109,71.055,153.242,75.078,148.672,78.242z"/>
</g>
</svg>
