<?xml version="1.0" encoding="iso-8859-1"?>
<!-- Generator: Adobe Illustrator 18.1.1, SVG Export Plug-In . SVG Version: 6.00 Build 0)  -->
<svg xmlns="http://www.w3.org/2000/svg" xmlns:xlink="http://www.w3.org/1999/xlink" version="1.1" id="Capa_1" x="0px" y="0px" viewBox="0 0 478.165 478.165" style="enable-background:new 0 0 478.165 478.165;" xml:space="preserve" width="512px" height="512px">
<g>
	<path id="YouTube_2_" d="M376.893,349.758h-26.16l0.12-15.301c0-6.654,5.479-12.372,12.253-12.372h1.634   c7.013,0,12.612,5.718,12.612,12.372L376.893,349.758z M278.491,317.063c-6.654,0-12.034,4.562-12.034,10.041v74.016   c0,5.379,5.379,10.041,12.034,10.041s12.133-4.662,12.133-10.041v-74.016C290.624,321.625,285.146,317.063,278.491,317.063z    M438.298,275.622v140.899c0,33.85-29.188,61.643-65.15,61.643H105.117c-35.962,0-65.25-27.793-65.25-61.643V275.622   c0-33.85,29.308-61.404,65.25-61.404h268.031C409.11,214.218,438.298,241.772,438.298,275.622z M122.988,431.942v-148.49h33.272   v-22.055l-88.6-0.12v21.717h27.674v148.968h27.654V431.942z M222.566,305.627h-27.674v79.156c0,11.675,0.697,17.274,0,19.386   c-2.331,6.077-12.373,12.612-16.337,0.697c-0.697-2.331-0.12-8.408-0.12-19.386v-79.853h-27.674l0.12,78.678   c0,11.914-0.239,21.019,0.12,24.984c0.578,7.232,0.359,15.64,7.013,20.541c12.492,8.866,36.42-1.395,42.377-14.245v16.337h22.175   V305.627L222.566,305.627z M311.166,396.438v-66.186c0-24.984-18.788-40.166-44.37-19.844l0.12-49.032h-27.793v169.629   l22.653-0.458l2.211-10.5C292.956,446.646,311.166,428.436,311.166,396.438z M397.913,387.572l-20.78,0.239   c0,0.697,0,1.634,0,2.809v11.675c0,6.077-5.14,11.217-11.436,11.217h-3.965c-6.296,0-11.317-5.14-11.317-11.217v-1.395v-12.851   v-16.576h47.518v-17.851c0-12.851-0.458-26.16-1.395-33.511c-3.507-23.689-36.659-27.315-53.475-15.301   c-5.379,3.746-9.344,8.746-11.675,15.64c-2.331,6.774-3.507,16.118-3.507,28.012v39.349   C327.981,453.181,407.237,443.836,397.913,387.572z M291.322,173.932c1.514,3.507,3.746,6.296,6.654,8.408   c3.028,2.092,6.894,3.267,11.436,3.267c3.965,0,7.471-1.175,10.619-3.507c3.028-2.212,5.599-5.479,7.83-9.922l-0.697,10.978h30.941   V51.721h-24.287v102.267c0,5.599-4.562,10.041-10.281,10.041c-5.479,0-10.161-4.562-10.161-10.041V51.721h-25.223v88.6   c0,11.217,0.239,18.788,0.458,22.653C288.991,166.7,290.047,170.446,291.322,173.932z M197.821,99.697   c0-12.612,1.056-22.414,3.148-29.527c1.992-7.013,5.838-12.731,11.317-17.035c5.479-4.303,12.373-6.415,20.9-6.415   c7.113,0,13.309,1.514,18.449,4.084c5.021,2.909,8.986,6.415,11.675,10.858c3.028,4.443,4.901,8.986,5.838,13.668   c1.056,4.662,1.514,11.914,1.514,21.358v33.392c0,12.133-0.359,21.139-1.514,26.857c-0.817,5.718-2.809,10.978-5.957,15.879   c-3.028,4.901-7.013,8.527-11.914,10.858c-4.782,2.57-10.38,3.626-16.815,3.626c-7.013,0-12.851-1.056-17.752-3.028   c-5.021-2.092-8.746-5.021-11.436-9.105c-2.69-3.965-4.662-8.986-5.718-14.584c-1.175-5.838-1.753-14.484-1.753-26.04V99.697   H197.821z M221.988,151.877c0,7.471,5.599,13.428,12.253,13.428c6.774,0,12.253-5.957,12.253-13.428V81.945   c0-7.352-5.599-13.428-12.253-13.428c-6.774,0-12.253,6.077-12.253,13.428V151.877z M136.416,187.241h29.188l0.12-100.753   l34.328-86.269h-31.758l-18.33,63.974L131.396,0H99.877l36.54,86.508C136.416,86.508,136.416,187.241,136.416,187.241z" fill="#D80027"/>
</g>
<g>
</g>
<g>
</g>
<g>
</g>
<g>
</g>
<g>
</g>
<g>
</g>
<g>
</g>
<g>
</g>
<g>
</g>
<g>
</g>
<g>
</g>
<g>
</g>
<g>
</g>
<g>
</g>
<g>
</g>
</svg>
