<?xml version="1.0" encoding="UTF-8" standalone="no"?>
<svg width="204px" height="24px" viewBox="0 0 204 24" version="1.1" xmlns="http://www.w3.org/2000/svg" xmlns:xlink="http://www.w3.org/1999/xlink">
    <!-- Generator: Sketch 40.3 (33839) - http://www.bohemiancoding.com/sketch -->
    <title>Group 3</title>
    <desc>Created with Sketch.</desc>
    <defs></defs>
    <g id="Page-1" stroke="none" stroke-width="1" fill="none" fill-rule="evenodd">
        <g id="COOKIE-4.0" transform="translate(-78.000000, -559.000000)" fill="#E82D3A">
            <g id="Group-3" transform="translate(78.000000, 559.000000)">
                <path d="M73.0909091,0.218181818 C69.8727273,0.218181818 67.3090909,1.69090909 67.3090909,3.43636364 C67.3090909,5.23636364 69.9272727,6.65454545 73.0909091,6.65454545 L73.8545455,6.65454545 C77.0727273,6.65454545 79.6363636,8.12727273 79.6363636,9.87272727 C79.6363636,11.6181818 77.0181818,13.0909091 73.8545455,13.0909091 L38.1272727,13.0909091 C34.9090909,13.0909091 32.3454545,14.5636364 32.3454545,16.3090909 C32.3454545,18.1090909 34.9636364,19.5272727 38.1272727,19.5272727 L81.0545455,19.5272727 L168.763636,19.5272727 C171.981818,19.5272727 174.545455,18.0545455 174.545455,16.3090909 C174.545455,14.5090909 171.927273,13.0909091 168.763636,13.0909091 L158.836364,13.0909091 C155.618182,13.0909091 153.054545,11.6181818 153.054545,9.87272727 C153.054545,8.12727273 155.672727,6.65454545 158.836364,6.65454545 L197.781818,6.65454545 C201,6.65454545 203.563636,5.18181818 203.563636,3.43636364 C203.563636,1.63636364 200.945455,0.218181818 197.781818,0.218181818 L194.890909,0.218181818 L89.6727273,0.218181818 L73.0909091,0.218181818 Z" id="path-1_110_"></path>
                <path d="M4.25454545,23.5090909 C1.90909091,23.5090909 0,22.1454545 0,20.4 C0,18.7090909 1.90909091,17.2909091 4.25454545,17.2909091 L17.2363636,17.2909091 C19.5818182,17.2909091 21.4909091,18.6545455 21.4909091,20.4 C21.4909091,22.0909091 19.5818182,23.5090909 17.2363636,23.5090909 L4.25454545,23.5090909 L4.25454545,23.5090909 Z" id="path-2_110_"></path>
            </g>
        </g>
    </g>
</svg>