<svg id="Layer_1" data-name="Layer 1" xmlns="http://www.w3.org/2000/svg" viewBox="0 0 485.99 486"><defs><style>.cls-1,.cls-10{fill:#b97850;}.cls-2{fill:#3f352f;}.cls-3,.cls-4{fill:#a5694b;}.cls-10,.cls-3,.cls-5,.cls-7,.cls-8,.cls-9{stroke:#3f352f;stroke-miterlimit:10;stroke-width:11px;}.cls-5,.cls-6{fill:#734b46;}.cls-7{fill:#644141;}.cls-8{fill:#c98850;}.cls-9{fill:#925f4a;}</style></defs><title>cookie</title><path class="cls-1" d="M263,502.4A236.82,236.82,0,0,1,90.4,428.1,236.38,236.38,0,0,1,25.9,251.3c3.3-58.2,28.2-113.1,70.2-154.7A236.91,236.91,0,0,1,251.5,27.8c3.8-.2,7.7-.3,11.6-.3a236.87,236.87,0,0,1,67.4,9.8,13.94,13.94,0,0,1,9,8.4,12.94,12.94,0,0,1-1.4,11.9,129.87,129.87,0,0,0-21.5,71.5,131.51,131.51,0,0,0,16.3,63.7,125.86,125.86,0,0,0,43.6,46c5.2,3.2,5.4,8.9,3.5,12.8-1.6,3.2-1.1,5.2,2,7.3l18.6,12.8a7.65,7.65,0,0,0,4.1,1.3,7.1,7.1,0,0,0,4.4-1.5l13.5-10.2a5.07,5.07,0,0,0,.6-.7l.4-.5,5-1.9a129.49,129.49,0,0,0,18.4,1.5c15,0,27.5-1.9,38.1-5.8a12.43,12.43,0,0,1,4.5-.9c6.8,0,10.9,6.2,10.9,12.1A237.29,237.29,0,0,1,263,502.4Z" transform="translate(-20.01 -21.9)"/><path class="cls-2" d="M263,32.9a230.58,230.58,0,0,1,65.8,9.5,8,8,0,0,1,4.6,12A135,135,0,0,0,311,128.9c0,48,24.6,90.7,62.5,114.3a4.26,4.26,0,0,1,1.5,5.7c-2.8,5.7-1.4,10.6,3.8,14.2l18.6,12.8a12.81,12.81,0,0,0,7.2,2.3,13,13,0,0,0,7.7-2.6l13.5-10.2a11.9,11.9,0,0,0,1.9-2,135.6,135.6,0,0,0,19.2,1.5c13.9,0,27.6-1.6,40-6.1a6.61,6.61,0,0,1,2.6-.5c4,0,5.4,4.2,5.4,6.6,0,128.1-103.9,232-232,232-132.6,0-239.2-111.2-231.6-245.4C38,134.1,134.2,38.8,251.7,33.2c3.8-.2,7.6-.3,11.3-.3m0-11h0c-3.9,0-7.9.1-11.8.3-59.6,2.9-116,27.9-159,70.4S23.7,191.4,20.4,250.9A243.08,243.08,0,0,0,486.9,359.5,241.2,241.2,0,0,0,506,264.9c0-8.7-6.1-17.6-16.4-17.6a18.12,18.12,0,0,0-6.4,1.2c-10,3.7-21.8,5.5-36.2,5.5a119.24,119.24,0,0,1-17.7-1.4l-9.9,3.8c-.2.2-.3.4-.4.5l-.1.1-13.1,9.9a1.86,1.86,0,0,1-1.1.4,2.24,2.24,0,0,1-1-.3L385,254.1c-.1-.1-.2-.1-.2-.2a.1.1,0,0,1,.1-.1,15.28,15.28,0,0,0-5.5-20,119.86,119.86,0,0,1-41.7-44,126.36,126.36,0,0,1-15.6-61,124,124,0,0,1,20.6-68.5,18.52,18.52,0,0,0,1.9-16.8A19.25,19.25,0,0,0,332,31.7a251.18,251.18,0,0,0-69-9.8Z" transform="translate(-20.01 -21.9)"/><path class="cls-3" d="M123,264.3C123,152.4,202.9,55,308,32.9a229.9,229.9,0,0,0-48-5c-128.1,0-233,108-233,236.4S132.9,500.9,261,500.9a229.9,229.9,0,0,0,48-5C203.9,473.7,123,376.3,123,264.3Z" transform="translate(-20.01 -21.9)"/><path class="cls-4" d="M132.5,264.3c0-110.2,77.9-203.9,183-225.7-15.5-3.2-29.5-6.9-46-6.9-128.1,0-233,106.3-233,232.7s105.9,232.8,234,232.8c16.5,0,32.5-3.7,48-6.9C213.4,468.4,132.5,374.5,132.5,264.3Z" transform="translate(-20.01 -21.9)"/><path class="cls-5" d="M223.5,257.1l-8,23.9a16.06,16.06,0,0,0,8,19.4L248.8,313a16,16,0,0,0,18.5-3l15-15a15.89,15.89,0,0,0,2.4-19.5L271.8,254a16.08,16.08,0,0,0-13.7-7.8H238.7A16,16,0,0,0,223.5,257.1Z" transform="translate(-20.01 -21.9)"/><path class="cls-5" d="M135,153.1l7.6,24a16,16,0,0,0,17.9,11l27.9-4.6a16,16,0,0,0,13.2-13.3l3.3-21a15.93,15.93,0,0,0-9.5-17.2l-23.1-9.9a16.08,16.08,0,0,0-15.7,1.8l-15.7,11.4A16,16,0,0,0,135,153.1Z" transform="translate(-20.01 -21.9)"/><path class="cls-5" d="M305.7,129.3l-20.2,15a16.15,16.15,0,0,0-4.6,20.5l13.4,24.9a16.12,16.12,0,0,0,16.8,8.2l20.9-3.7a16,16,0,0,0,13.2-14.6l1.8-25a15.94,15.94,0,0,0-6.8-14.2l-15.9-11.2A15.6,15.6,0,0,0,305.7,129.3Z" transform="translate(-20.01 -21.9)"/><path class="cls-5" d="M94.1,287l5.3,19.4a12.8,12.8,0,0,0,13.9,9.3l22.4-2.8a12.86,12.86,0,0,0,11-10.2l3.3-16.6a12.76,12.76,0,0,0-7.1-14.1l-18.1-8.6a12.89,12.89,0,0,0-12.6.9l-12.9,8.6A13,13,0,0,0,94.1,287Z" transform="translate(-20.01 -21.9)"/><path class="cls-5" d="M375.3,334.9l-24.5-5.7a15.92,15.92,0,0,0-18.5,9.8l-10.2,26.4a16,16,0,0,0,4.7,18.1L343.2,397a15.93,15.93,0,0,0,19.7.5l20.2-14.9a15.84,15.84,0,0,0,6.4-14.4l-1.8-19.3A15.94,15.94,0,0,0,375.3,334.9Z" transform="translate(-20.01 -21.9)"/><path class="cls-6" d="M190.4,440.5A16.69,16.69,0,0,1,174.2,428l-4.3-16.4a16.82,16.82,0,0,1,7-18.3l18.8-12.4a16.52,16.52,0,0,1,9.2-2.7,16.92,16.92,0,0,1,12.6,5.7L230.8,399a16.75,16.75,0,0,1,1.9,19.5l-7.8,13.4a16.51,16.51,0,0,1-14.3,8.3Z" transform="translate(-20.01 -21.9)"/><path class="cls-2" d="M204.9,382.2a12.84,12.84,0,0,1,9.6,4.3l13.3,15.1a13,13,0,0,1,1.5,14.9l-7.8,13.4a12.64,12.64,0,0,1-10.9,6.3l-20,.3h-.2a12.64,12.64,0,0,1-12.3-9.5l-4.3-16.4a12.84,12.84,0,0,1,5.3-13.9L198,384.3a12.42,12.42,0,0,1,6.9-2.1m0-8a20.87,20.87,0,0,0-11.4,3.4L174.7,390a20.71,20.71,0,0,0-8.7,22.7l4.3,16.4a20.86,20.86,0,0,0,20.1,15.5h.3l20-.3A21.06,21.06,0,0,0,228.4,434l7.8-13.4a20.67,20.67,0,0,0-2.4-24.2l-13.3-15.1a20.65,20.65,0,0,0-15.6-7.1Z" transform="translate(-20.01 -21.9)"/><path class="cls-7" d="M160,177.1l-7.6-24a16,16,0,0,1,5.9-17.8L174,123.9a10.91,10.91,0,0,1,1.1-.6l-2.8-1.2a16.08,16.08,0,0,0-15.7,1.8l-15.7,11.4a16.1,16.1,0,0,0-5.9,17.8l7.6,24a16,16,0,0,0,17.9,11l8-1.3A15.76,15.76,0,0,1,160,177.1Z" transform="translate(-20.01 -21.9)"/><path class="cls-7" d="M311.7,189.6l-13.4-24.9a16.06,16.06,0,0,1,4.6-20.5l20.2-15c.3-.2.6-.3.9-.5a15.78,15.78,0,0,0-18.2.5l-20.2,15a16.15,16.15,0,0,0-4.6,20.5l13.4,24.9a16.12,16.12,0,0,0,16.8,8.2l7.7-1.3A16.52,16.52,0,0,1,311.7,189.6Z" transform="translate(-20.01 -21.9)"/><path class="cls-7" d="M360.6,397l-16.4-13.5a16,16,0,0,1-4.7-18.1L349.7,339a16.08,16.08,0,0,1,7.4-8.4l-6.3-1.4a15.92,15.92,0,0,0-18.5,9.8l-10.2,26.4a16,16,0,0,0,4.7,18.1L343.2,397a15.91,15.91,0,0,0,19,.9A6.08,6.08,0,0,1,360.6,397Z" transform="translate(-20.01 -21.9)"/><path class="cls-7" d="M240.9,300.4a16.06,16.06,0,0,1-8-19.4l8-23.9a16,16,0,0,1,15.2-10.9H238.7a16,16,0,0,0-15.2,10.9l-8,23.9a16.06,16.06,0,0,0,8,19.4L248.8,313a16,16,0,0,0,15.6-.9Z" transform="translate(-20.01 -21.9)"/><path class="cls-7" d="M116.7,306.4,111.4,287a12.83,12.83,0,0,1,5.3-14l11.7-7.8-3.6-1.7a12.89,12.89,0,0,0-12.6.9L99.3,273A12.83,12.83,0,0,0,94,287l5.3,19.4a12.8,12.8,0,0,0,13.9,9.3l10.4-1.3A12.57,12.57,0,0,1,116.7,306.4Z" transform="translate(-20.01 -21.9)"/><path class="cls-7" d="M195.4,427l-4.3-16.4a12.84,12.84,0,0,1,5.3-13.9l16.9-11.1a12.65,12.65,0,0,0-15.4-1.3L179,396.7a12.54,12.54,0,0,0-5.3,13.9L178,427a12.73,12.73,0,0,0,12.5,9.5l16-.2A12.7,12.7,0,0,1,195.4,427Z" transform="translate(-20.01 -21.9)"/><path class="cls-8" d="M247,208.9h0a8,8,0,0,1-8-8v-16a8,8,0,0,1,8-8h0a8,8,0,0,1,8,8v16A8,8,0,0,1,247,208.9Z" transform="translate(-20.01 -21.9)"/><path class="cls-9" d="M178.3,244.2h0a8,8,0,0,1-11.3,0l-11.3-11.3a8,8,0,0,1,0-11.3h0a8,8,0,0,1,11.3,0l11.3,11.3A8,8,0,0,1,178.3,244.2Z" transform="translate(-20.01 -21.9)"/><path class="cls-8" d="M177.1,351.8h0a8,8,0,0,1-4.5-10.4l5.9-14.9a8,8,0,0,1,10.4-4.5h0a8,8,0,0,1,4.5,10.4l-5.9,14.9A8,8,0,0,1,177.1,351.8Z" transform="translate(-20.01 -21.9)"/><path class="cls-9" d="M271.5,374.9h0a8,8,0,0,1-9.6-5.9l-3.7-15.6a8,8,0,0,1,5.9-9.6h0a8,8,0,0,1,9.6,5.9l3.7,15.6A8,8,0,0,1,271.5,374.9Z" transform="translate(-20.01 -21.9)"/><path class="cls-9" d="M295.6,443.9h0a7.91,7.91,0,0,1,4.4-10.4l14.8-6a7.91,7.91,0,0,1,10.4,4.4h0a7.91,7.91,0,0,1-4.4,10.4l-14.8,6A8,8,0,0,1,295.6,443.9Z" transform="translate(-20.01 -21.9)"/><path class="cls-9" d="M248.9,97.1h0a8.05,8.05,0,0,1,9.7-5.9L274.2,95a8.05,8.05,0,0,1,5.9,9.7h0a8.05,8.05,0,0,1-9.7,5.9l-15.6-3.8A8,8,0,0,1,248.9,97.1Z" transform="translate(-20.01 -21.9)"/><path class="cls-9" d="M102.9,383.5h0a7.94,7.94,0,0,1-4.8-10.2l5.4-15.1a7.94,7.94,0,0,1,10.2-4.8h0a7.94,7.94,0,0,1,4.8,10.2l-5.4,15.1A7.94,7.94,0,0,1,102.9,383.5Z" transform="translate(-20.01 -21.9)"/><path class="cls-8" d="M91.4,195.2h0a8.1,8.1,0,0,1,9.7,5.9l3.8,15.5a8.1,8.1,0,0,1-5.9,9.7h0a8.1,8.1,0,0,1-9.7-5.9l-3.8-15.5A8.18,8.18,0,0,1,91.4,195.2Z" transform="translate(-20.01 -21.9)"/><path class="cls-9" d="M315.7,268.2h0a8,8,0,0,1,0-11.3L327,245.6a8,8,0,0,1,11.3,0h0a8,8,0,0,1,0,11.3L327,268.2A8,8,0,0,1,315.7,268.2Z" transform="translate(-20.01 -21.9)"/><path class="cls-9" d="M422,299.2h0a8,8,0,0,1,11.3,0l11.3,11.3a8,8,0,0,1,0,11.3h0a8,8,0,0,1-11.3,0L422,310.6A8.15,8.15,0,0,1,422,299.2Z" transform="translate(-20.01 -21.9)"/><path class="cls-8" d="M424.1,362.7h0a8.07,8.07,0,0,1,4.4,10.4l-6.1,14.8a8.07,8.07,0,0,1-10.4,4.4h0a8.07,8.07,0,0,1-4.4-10.4l6.1-14.8A8,8,0,0,1,424.1,362.7Z" transform="translate(-20.01 -21.9)"/><path class="cls-10" d="M415.2,167.3l5.4,27.2a8,8,0,0,0,9.2,6.3l32.8-5.5a8,8,0,0,0,6.6-8.9l-5.4-43.5a8,8,0,0,0-12.4-5.7L418.6,159A8.05,8.05,0,0,0,415.2,167.3Z" transform="translate(-20.01 -21.9)"/><path class="cls-10" d="M390.6,133.5l57.5-25.6a7.93,7.93,0,0,0,4.2-10.1L433.7,48.1a8.05,8.05,0,0,0-10-4.8L386.5,55.7a8,8,0,0,0-4.9,4.6L368.2,93.9a7.55,7.55,0,0,0,0,5.9l11.7,29.3A7.93,7.93,0,0,0,390.6,133.5Z" transform="translate(-20.01 -21.9)"/><path class="cls-3" d="M380.8,168.9h8.5a8,8,0,0,1,7.8,9.6l-3.7,18.7a8,8,0,0,1-12.3,5.1l-9-6a8.11,8.11,0,0,1-3.2-9.2l4.2-12.7A8.17,8.17,0,0,1,380.8,168.9Z" transform="translate(-20.01 -21.9)"/><path class="cls-3" d="M407,232.9v1.4a7.94,7.94,0,0,0,6.4,7.8l24,4.8a8,8,0,0,0,9.6-7.8v-6.2a8,8,0,0,0-8-8H415A8,8,0,0,0,407,232.9Z" transform="translate(-20.01 -21.9)"/><path class="cls-3" d="M395.3,123.9,383.6,94.6a7.55,7.55,0,0,1,0-5.9L397,55.1a8.2,8.2,0,0,1,4.2-4.2l-14.7,4.9a8,8,0,0,0-4.9,4.6L368.2,93.9a7.55,7.55,0,0,0,0,5.9l11.7,29.3a8,8,0,0,0,10.7,4.3l11-4.9A7.45,7.45,0,0,1,395.3,123.9Z" transform="translate(-20.01 -21.9)"/><path class="cls-3" d="M434.4,192.9l-6.8-33.8a9.44,9.44,0,0,1,1.2-6.8l-10.2,6.8a8,8,0,0,0-3.4,8.2l5.4,27.2a8,8,0,0,0,9.2,6.3l9.1-1.5A9.94,9.94,0,0,1,434.4,192.9Z" transform="translate(-20.01 -21.9)"/></svg>