<?xml version="1.0" encoding="utf-8"?>
<!-- Generator: Adobe Illustrator 19.1.0, SVG Export Plug-In . SVG Version: 6.00 Build 0)  -->
<svg version="1.1" id="Calque_1" xmlns="http://www.w3.org/2000/svg" xmlns:xlink="http://www.w3.org/1999/xlink" x="0px" y="0px"
	 viewBox="0 0 478.6 339.2" style="enable-background:new 0 0 478.6 339.2;" xml:space="preserve">
<style type="text/css">
	.st0{fill:none;}
	.st1{fill:#B97850;}
	.st2{fill:#925F4A;}
	.st3{fill:#3F352F;}
	.st4{fill:#A5694B;}
	.st5{fill:#734B46;}
	.st6{fill:#644141;}
	.st7{fill:#C98850;}
</style>
<g>
	<path class="st0" d="M491.3,3.6c0.1,0.7,0.1,1.3,0.1,2v0C491.4,4.9,491.4,4.3,491.3,3.6z"/>
	<path class="st0" d="M500.2,59c-5.7,3.3-9.1,9.2-9.2,15.5C491.1,68.2,494.5,62.3,500.2,59z"/>
	<path class="st0" d="M483.4,223.9c1.9,1.8,3.5,3.9,4.5,6.4c0.9,2.2,1.3,4.5,1.3,6.8c0-2.3-0.4-4.6-1.3-6.8
		C486.9,227.8,485.3,225.6,483.4,223.9z"/>
	<path class="st0" d="M463.3,9.6l10.4,0c0.2,0,0.4,0,0.5,0c-0.1,0-0.3,0-0.4,0L463.3,9.6z"/>
	<path class="st0" d="M485.6,158.2c-1.1,7.5-5.1,14.1-10.9,18.4c-0.1,0.1-0.1,0.1-0.2,0.2c-0.5,0.4-1,0.7-1.5,1
		c-0.3,0.2-0.6,0.4-0.9,0.6c-0.3,0.2-0.6,0.4-0.9,0.5c-0.5,0.3-1.1,0.6-1.6,0.8c-0.1,0.1-0.2,0.1-0.3,0.2c-2.8,1.3-5.8,2.1-9,2.4
		c0,0-0.1,0-0.1,0c0,0,0.1,0.1,0.1,0.1c3.2-0.3,6.2-1.2,9-2.4c0.1-0.1,0.2-0.1,0.3-0.2c0.5-0.3,1.1-0.5,1.6-0.8
		c0.3-0.2,0.6-0.3,0.9-0.5c0.3-0.2,0.6-0.4,0.9-0.6c0.5-0.3,1-0.7,1.5-1c0.1-0.1,0.1-0.1,0.2-0.2
		C480.5,172.3,484.5,165.8,485.6,158.2l0.2-1.2l1.8-8.8l-1.8,8.8L485.6,158.2z"/>
	<path class="st1" d="M486.4,18c1.1-1.1,2-2.3,2.8-3.6c0.6-1,1.1-2,1.5-3c-0.4,1.1-0.9,2.1-1.5,3C488.4,15.8,487.4,16.9,486.4,18z"
		/>
	<path class="st2" d="M473.2,233l-0.1-0.1c-1-0.4-2.1-0.4-3.1,0c-1,0.4-1.8,1.2-2.3,2.3l-8.5,20.1c-0.5,1.1-0.5,2.2-0.1,3.2
		c0.4,1,1.2,1.9,2.3,2.3c1.1,0.4,2.3,0.5,3.3,0c0.7-0.3,1.7-0.9,2.2-2.2l8.5-20.1c0.5-1.1,0.5-2.2,0.1-3.2
		C475,234.2,474.2,233.4,473.2,233z"/>
	<path class="st3" d="M489.2,14.5c1.5-2.6,2.4-5.6,2.4-8.8c0,0,0,0,0,0c0,0.1,0,0.1,0,0.2C491.6,9,490.7,11.9,489.2,14.5z"/>
	<path class="st3" d="M490.9,9.8c0.2-0.7,0.3-1.3,0.4-2C491.2,8.5,491.1,9.2,490.9,9.8z"/>
	<path class="st3" d="M489,14.5c0.8-1.4,1.5-3,1.9-4.6C490.5,11.5,489.8,13,489,14.5c-2.2,3.7-5.7,6.5-9.8,7.8
		C483.3,20.9,486.8,18.1,489,14.5z"/>
	<g>
		<path class="st0" d="M324.1,318.3c-0.2,0.8-0.2,1.7-0.2,2.5c0-0.8,0-1.5,0.2-2.3l5.9-28.3h0l1.5-7.3l-1.5,7.2L324.1,318.3z"/>
		<path class="st0" d="M374.3,328.6c0-1.3-0.2-2.6-0.6-3.9l-0.1-0.3l0.1,0.3C374.1,326,374.3,327.3,374.3,328.6z"/>
		<path class="st0" d="M293.8,339.2c-0.1-0.5-0.1-1-0.1-1.6C293.7,338.2,293.7,338.7,293.8,339.2z"/>
		<path class="st0" d="M310.5,320.9c0.2,7.3,3.6,14.5,9.4,18.3C314.1,335.5,310.7,328.2,310.5,320.9z"/>
		<path class="st0" d="M310.5,319.5l-1.6,7.8l1.6-7.7C310.5,319.5,310.5,319.5,310.5,319.5z"/>
		<path class="st0" d="M307.3,339.2c-0.1-0.5-0.2-1.2-0.2-1.9C307.1,338,307.1,338.7,307.3,339.2z"/>
		<path class="st0" d="M463.3,9.6l10.4,0c0.2,0,0.4,0,0.5,0c-0.1,0-0.3,0-0.4,0L463.3,9.6z"/>
		<path class="st0" d="M474.7,176.7c-0.1,0.1-0.1,0.1-0.2,0.2c-0.5,0.4-1,0.7-1.5,1c-0.3,0.2-0.6,0.4-0.9,0.6
			c-0.3,0.2-0.6,0.4-0.9,0.5c-0.5,0.3-1.1,0.6-1.6,0.8c-0.1,0.1-0.2,0.1-0.3,0.2c-2.8,1.3-5.8,2.1-9,2.4c0,0-0.1,0-0.1,0
			c0,0,0.1,0.1,0.1,0.1c3.2-0.3,6.2-1.2,9-2.4c0.1-0.1,0.2-0.1,0.3-0.2c0.5-0.3,1.1-0.5,1.6-0.8c0.3-0.2,0.6-0.3,0.9-0.5
			c0.3-0.2,0.6-0.4,0.9-0.6c0.5-0.3,1-0.7,1.5-1C474.6,176.8,474.6,176.7,474.7,176.7c1.3-1,2.6-2.2,3.7-3.4v0
			C477.3,174.5,476,175.7,474.7,176.7z"/>
		<path class="st0" d="M289.6,339.2c-0.1-0.5-0.1-1.1-0.1-1.7C289.5,338.1,289.6,338.7,289.6,339.2z"/>
		<path class="st0" d="M473.2,233l-0.1-0.1c-1-0.4-2.1-0.4-3.1,0c-1,0.4-1.8,1.2-2.3,2.3l-8.5,20.1c-0.5,1.1-0.5,2.2-0.1,3.2
			c0.4,1,1.2,1.9,2.3,2.3c1.1,0.4,2.3,0.5,3.3,0c0.7-0.3,1.7-0.9,2.2-2.2l8.5-20.1c0.5-1.1,0.5-2.2,0.1-3.2
			C475,234.2,474.2,233.4,473.2,233z"/>
		<path class="st0" d="M327.5,328.4c0.5,0.5,1.1,0.9,1.7,1.2l16.8,9.6l-16.8-9.6C328.6,329.2,328,328.8,327.5,328.4z"/>
		<path class="st0" d="M28.1,335.6c1.1,1.2,2.3,2.3,3.4,3.5c0.1,0.1,0.1,0.1,0.2,0.2c-1.3-1.2-2.5-2.5-3.7-3.7
			C28.1,335.5,28.1,335.5,28.1,335.6z"/>
		<path class="st0" d="M102,269.3l-4.2,20.8c-0.3,1.7-0.4,3.4-0.4,5.1c0-1.7,0.1-3.4,0.4-5.1L102,269.3c1.7-8.3,7.5-15.1,15.5-18
			l8.1-2.9l0,0l-8.1,2.9C109.5,254.2,103.7,260.9,102,269.3z"/>
		<path class="st0" d="M27.9,335.4c-10.7-11.1-20.4-23.6-29.3-36.5c8.9,12.9,18.6,25.5,29.4,36.6C28,335.4,28,335.4,27.9,335.4z"/>
		<path class="st0" d="M322.7,283.4l8.7-0.6L322.7,283.4c-11.1,0.6-20,8.2-22.3,18.8l-6.1,29.1l6.1-29
			C302.7,291.7,311.6,284.1,322.7,283.4z"/>
		<path class="st0" d="M385,339.7L385,339.7c1.3-0.1,2.7-0.3,4-0.5h0C387.7,339.4,386.4,339.5,385,339.7z"/>
		<path class="st0" d="M447.8,5.2C447.8,5.2,447.8,5.3,447.8,5.2c0.1-1.6,1.1-3.1,2.6-3.7c-0.3,0.1-0.5,0.2-0.7,0.4
			C448.6,2.6,447.8,3.8,447.8,5.2z"/>
		<path class="st0" d="M283.8,121.4l0.4,0.1c5,1.2,9,4.9,10.6,9.6c0.2,0.4,0.3,0.9,0.4,1.3c-0.1-0.5-0.2-0.9-0.4-1.3
			c-1.6-4.7-5.6-8.4-10.6-9.6L283.8,121.4l-32.8-8.2c-1.3-0.3-2.6-0.4-3.9-0.4c0,0,0,0,0,0c1.3,0,2.6,0.1,3.9,0.4L283.8,121.4z"/>
		<path class="st0" d="M434.6,5.6c0.1,4.9,2,9.3,5.1,12.5c3.2,3.2,7.5,5.1,12.3,5.1c-4.8,0-9.1-2-12.3-5.1
			C436.6,14.9,434.6,10.4,434.6,5.6z"/>
		<path class="st0" d="M452,23.2c-4.8,0-9.2-2-12.3-5.1C442.8,21.2,447.2,23.2,452,23.2z"/>
		<path class="st0" d="M396.7,98.1c-8,5.5-12.4,14.6-12.3,23.8C384.3,112.6,388.8,103.6,396.7,98.1z"/>
		<path class="st0" d="M447.8,5.3C447.8,5.3,447.8,5.3,447.8,5.3c0-0.1,0-0.1,0-0.1c0-1.4,0.8-2.6,1.9-3.3c-1.2,0.7-2,2-2,3.4
			c0,0,0,0,0,0c0,0,0,0,0,0c0,0.7,0.2,1.3,0.6,1.8C448,6.6,447.8,6,447.8,5.3z"/>
		<path class="st0" d="M477.5,22.7c-1.1,0.2-2.4,0.4-3.6,0.4l-21.7,0.2c0,0,0,0,0,0h0l21.8-0.1c1.6,0,2.6-0.2,4.6-0.6v-0.1
			C477.7,22.5,477.9,22.6,477.5,22.7z"/>
		<path class="st0" d="M446.7,263.5c-0.9-2.2-1.3-4.5-1.3-6.8C445.4,259,445.8,261.3,446.7,263.5z"/>
		<path class="st0" d="M9.3,91.2l-4.2,26.2c0,0.1,0,0.2,0,0.3c-0.2,1.3-0.3,2.6-0.3,3.9c0-1.3,0.1-2.6,0.3-3.9c0-0.1,0-0.2,0-0.3
			L9.3,91.2c1.7-10,8.2-18.3,17.5-22l11.2-4.5c0,0,0,0,0,0l-11.2,4.5C17.5,73,11,81.2,9.3,91.2z"/>
		<path class="st0" d="M106,128L106,128l3.6-5c3.6-5,5.4-10.8,5.4-16.7c0,5.9-1.8,11.7-5.4,16.7L106,128z"/>
		<path class="st0" d="M87.1,154.4C87.1,154.4,87.1,154.4,87.1,154.4L87.1,154.4c-4.7,6.6-11.9,10.6-19.5,11.6c0,0,0,0,0,0
			C75.2,165,82.4,161,87.1,154.4L87.1,154.4C87.1,154.4,87.1,154.4,87.1,154.4l0.1-0.1l18.9-26.2l0,0l-18.9,26.2L87.1,154.4z"/>
		<path class="st0" d="M233.9,120C233.9,120,233.9,120,233.9,120c0.3-0.3,0.5-0.6,0.8-0.8C234.4,119.4,234.1,119.7,233.9,120z"/>
		<path class="st0" d="M230.2,129.7c0-0.3,0-0.6,0-0.9c0-0.1,0-0.2,0-0.3C230.2,128.9,230.2,129.3,230.2,129.7z"/>
		<path class="st0" d="M289.5,192.1l-36.6,12.3c-3,1-6,1.5-9,1.5c-10.6,0-20.5-5.9-25.5-15.8L203,159.2c-1.9-3.9-2.9-8-3-12.1
			c0.1,4.2,1,8.3,3,12.2l15.4,30.9c5,9.9,14.9,16,25.5,16c0,0,0,0,0,0c3,0,6-0.7,9-1.6L289.5,192.1z"/>
		<path class="st0" d="M286,108.1l-31.8-8c-2-0.5-4-0.7-6-0.8c2,0.1,4,0.3,5.9,0.8L286,108.1z"/>
		<path class="st0" d="M308.7,168.2c-1.2,10.4-7.8,19.3-17.5,23.3C300.9,187.5,307.6,178.6,308.7,168.2l1.9-8.2l0.1-0.3L308.7,168.2
			z"/>
		<path class="st0" d="M270.2,0.2L270.2,0.2c5.7,1,11.5,1.6,17.2,2.1C281.7,1.9,276,1.2,270.2,0.2z"/>
		<path class="st1" d="M478.7,265.4C478.7,265.3,478.6,265.3,478.7,265.4c-3.1,5.6-9.3,9-15.5,9c-2.3,0-4.7-0.2-6.9-1.2h0
			c-4.4-2-7.8-5.4-9.6-9.8c-0.9-2.2-1.3-4.6-1.3-6.8c0-2.3,0.5-4.6,1.5-6.8l8.5-20c1.8-4.3,5.2-7.7,9.6-9.5
			c4.4-1.8,9.3-1.7,13.6,0.2c0,0,0.1,0,0.1-0.1l0-47.2c0,0,0-0.1-0.1,0c-1,1.2-2.5,2.3-3.8,3.3c-0.1,0.1-0.2,0.1-0.3,0.2
			c-0.4,0.3-0.9,0.7-1.4,1c-0.3,0.2-0.6,0.4-0.9,0.6c-0.3,0.2-0.7,0.4-1,0.6c-0.5,0.3-1.1,0.6-1.6,0.8c-0.1,0.1-0.2,0.1-0.3,0.2
			c-2.8,1.3-5.8,2.1-9,2.4c0,0-0.1,0-0.1,0l0,0c0,0,0,0,0,0l-28.8,2.8c-0.9,0.1-1.8,0.2-2.7,0.2c-10.6,0-20.2-5.8-25.2-15.1
			c-0.3-0.6-0.6-1.3-0.9-1.9l-15.6-35.3c-1.6-3.6-2.4-7.4-2.5-11.2c-0.1-9.2,4.4-17.3,12.3-22.8c0.4-0.3,0.7-0.5,1.1-0.7l22.4-14.3
			l-0.1,0.4l6.8-4.2c10.3-6.6,23.8-5.8,33.4,2l18.3,15c0,0,0.1,0,0.1,0V22.4c0,0,0,0-0.1,0c-2,0.4-3,0.7-4.6,0.7l-21.8,0.2
			c0,0,0,0,0,0c0,0,0,0,0,0h0c0,0,0,0,0,0h0h-0.1H452c-4.9,0-9.2-2.1-12.3-5.3c-3.2-3.2-5.1-7.7-5.1-12.5c0,0,0.1,0,0.1,0v0v0
			c0,0,0,0,0,0s0,0,0,0c0-1.8,0.3-4,0.8-5.1c0,0,0-0.1,0-0.1h-29.9c-0.4,0-0.9,1-1.4,1.6c-2.4,2.4-5.6,4-9.2,4.7L364.6,12
			c-8.5,1.5-14.6-1.8-17.4-10c-0.2-0.5-0.4-0.9-0.8-1.4c-0.1-0.1-0.2-0.3-0.3-0.3h-16.3c0,0,0,0,0,0c-10.4,2-20.9,2.5-31.4,2.4
			c-2.3,0-4.6-0.2-6.8-0.2c-1.1,0-2.3-0.1-3.4-0.1c-6-0.4-12-1-18-2c0,0,0,0,0,0h-15.5c0,0,0,0,0,0l-4.8,6.7l-8,11.4
			c-5.5,7.7-14.3,12-23.4,12c-2.7,0-5.4-0.4-8.1-1.2l-37-11c-9-2.8-15.7-9.9-18.7-17.9c0,0,0,0,0,0H37.2c0,0,0,0,0,0
			c-0.4,4-0.7,9.2-0.9,13.9C36,19.8,35.9,25.4,36,31c0.1,5.6,0.3,11.2,0.6,16.7c0.4,5.6,0.9,12.1,1.5,17.7c0,0,0,0,0,0l20.6-8.3
			c12-4.9,25.1-1.8,32.7,8.8l17,23.4c3.2,4.4,6,9.4,6.4,14.6c0.1,0.7,0.1,1.5,0.1,2.2c0,5.9-1.8,11.7-5.4,16.7l-3.6,5l0.1,0l0,0l0,0
			L87.2,154l-0.1,0.1c0,0,0,0,0,0l0,0c-4.7,6.6-11.8,10.6-19.4,11.6c0,0,0,0,0,0.1c1.8,3.7,3.7,7.4,5.6,11c2,3.7,4,7.3,6.1,10.9
			c3.2,5.4,6.5,10.7,10,15.9s7.2,10.4,11.1,15.4c7.7,10.1,15.1,20.8,24.2,30.1h2l0,0l16.8-6.3c10.5-3.8,21.2-0.9,27.3,8.4l12.8,19.2
			c4.7,7.1,6.3,16,2.8,23.5l1.1-0.4c0,0-2.7,3.2-2.7,3.2c0,0,0,0.1,0,0.1c32.3,19.6,68.9,32.7,104.9,39.6c0,0,0-1,0.1-1
			c0-1.4,0.2-1.8,0.5-3.2l6.2-31c1.2-5.4,3.8-10.3,7.7-14.3c5.8-5.8,13.8-8.8,21.9-8.2l27.4,1.7c12.3,0.7,22.6,9.2,25.7,21l5.4,20.4
			c1.5,5.8,1.1,12.3-1.1,17.3h1.7c0,0,0,0,0,0c4-0.4,8.9-0.5,12.8-1c28-3.9,54.8-11.2,80.8-22.6c0,0,0-1,0-1V265.4z M142,205.2
			h-21.4c-10.5,0-18.9-8.6-18-19c0.8-9,8.3-16,17.5-16h21.4c10.5,0,18.9,8.6,18,19C158.8,198.2,151.2,205.2,142,205.2z M189.9,91.6
			L189.9,91.6c-3.4,3.4-7.9,5.2-12.5,5.2s-9-1.7-12.5-5.1l-15.1-15.1c-7.4-7.4-7.3-18.5,0.7-25.2c6.9-5.9,16.3-6.6,22.9,0l15.4,15.4
			C195.8,73.6,196.8,84.7,189.9,91.6z M267.6,288.6c-1.7,4.4-5.1,7.8-9.3,9.7c-2.2,1-4.6,1.5-7,1.5c-2.2,0-4.4-0.4-6.5-1.3
			c-4.4-1.7-7.8-5.1-9.7-9.3l-8.7-20.1c-1.9-4.3-1-9.1,0.8-13.5c1.7-4.4,4.1-6.8,8.3-8.7c4.3-1.9,8.1-2,12.5-0.2
			c4.4,1.7,7.8,4.1,9.7,8.3l8.7,20.1C268.3,279.4,269.4,284.2,267.6,288.6z M310.6,159.5l-1.9,8.5c0,0,0,0,0,0
			c-1.2,10.4-7.8,19.3-17.6,23.3c-0.6,0.2-1.1,0.5-1.7,0.7l-36.6,11.4c-3,1-6.1,1.6-9.1,1.6c0,0,0,1,0,1c0,0,0-1,0-1
			c-10.6,0-20.5-5-25.5-15L203,159.1c-1.9-3.9-1.9-7.1-2-11.2c-0.1-6.9,1.2-13.7,5.8-19.1c0.5-0.6,1-1.1,1.5-1.7l19.7-18.7
			c0.1-0.1,0.2-0.2,0.3-0.3c5.2-5.1,11.2-7.9,18.5-8c0.5,0,0.9,0,1.4,0c2,0.1,4,0.3,6,0.8l31.8,8l1.3,0.3l0,0
			c0.6,0.1,1.2,0.3,1.8,0.5c1.7,0.5,3.4,1.3,4.9,2.1c3.4,1.9,5.4,3.4,7.8,6.5c2.8,3.7,5.8,8,6.5,12.7c0.3,1.6,0.4,3.2,0.4,4.8V161
			c0,0,0-0.9,0.1-1l1.9,0.4l-0.1-0.7L310.6,159.5z M305.3,84.2c-8.6-1.6-14.7-9.4-14.7-18.2V46c0-8.8,6.1-16.6,14.7-18.2
			c11.1-2.1,21.3,6.5,21.3,17.3v21.8C326.7,77.7,316.4,86.3,305.3,84.2z M374.7,226.8l-0.1,0.1c-3.3,5.4-9.1,8.3-15,8.3
			c-3.1,0-6.3-0.8-9.2-2.6l-18.6-11.5c-8.3-5.2-10.8-15-5.7-23.2c5.1-8.3,16-10.8,24.2-5.7l17.5,10.4c3.9,2.3,7.7,6,8.8,10.5
			C377.9,217.7,377.1,222.7,374.7,226.8z"/>
		<path class="st3" d="M-1.3,331.8v4.4c1,1.1,2,1.9,2.9,2.9h3.5C2.9,337.2,0.7,334.5-1.3,331.8z"/>
		<path class="st3" d="M293.2,2.6c1.8,0.1,3.5,0.1,5.3,0.1c10.5,0.1,21-0.7,31.4-2.5h-59.7c5.7,1,11.5,1.6,17.2,2.1
			C289.4,2.4,291.3,2.5,293.2,2.6z"/>
		<path class="st3" d="M347.3,2.2c2.8,8.2,8.9,11.6,17.4,10l30.3-5.6c3.6-0.7,6.8-2.3,9.2-4.7c0.5-0.5,1-1.1,1.4-1.7h-59.4
			c0.1,0.1,0.2,0.3,0.3,0.4C346.8,1.2,347.1,1.7,347.3,2.2z"/>
		<path class="st4" d="M28,335.5c-10.8-11.1-20.4-23.7-29.4-36.6v10.9c7.7,10.4,15.7,20.4,24.5,29.4h8.6
			C30.5,338,29.3,336.7,28,335.5z"/>
		<path class="st4" d="M31.6,339c-1.2-1.1-2.3-2.3-3.4-3.5C29.3,336.8,30.4,337.9,31.6,339z"/>
		<path class="st3" d="M-1.3,331.8c2.1,2.6,4.2,5.4,6.4,7.4h18c-8.7-9-16.8-19-24.5-29.4V331.8z"/>
		<path class="st4" d="M478.7,314.8c-26,11.4-53.9,19.1-81.9,23c-3.9,0.5-7.9,1-11.8,1.4h4c30.6-3.7,60.6-11.8,89.6-24.2V314.8z"/>
		<path class="st4" d="M389,339.2h89.6V315C449.7,327.5,419.6,335.5,389,339.2z"/>
		<path class="st4" d="M478.4,315c-28.6,12.4-58.8,20.5-89.4,24.2h0C419.6,335.5,449.8,327.5,478.4,315L478.4,315z"/>
		<path class="st4" d="M478.7,314.8c-26,11.4-53.8,19.1-81.7,23C424.9,333.9,452.7,326.2,478.7,314.8L478.7,314.8z"/>
		<path class="st4" d="M0.5,301.1c-0.6-0.9-1.3-1.8-1.9-2.7v0.5c8.9,12.8,18.5,25.4,29.3,36.5C17.9,325,8.9,313.1,0.5,301.1z"/>
		<path class="st4" d="M289.5,337.5c0-0.5,0-1.1,0-1.6c-36.4-6.9-71.7-20.2-104-39.8l-1.9,2.5c-0.1,0.1-0.2,0.2-0.2,0.3l-18.9,24.3
			c-0.6,0.8-1.2,1.5-1.9,2.2c-4.6,4.7-10.9,7.2-17.3,7.2c-4.1,0-8.1-1-11.9-3.1l-23.9-13.6c-7-4.1-11.4-11.2-12-18.9
			c-0.1-0.6-0.1-1.1-0.1-1.7c0-1.7,0.1-3.4,0.4-5.1l4.2-20.8c1.7-8.3,7.5-15.1,15.5-18l8.1-2.9c-9.1-9.3-16.5-19-24.2-29.1
			c-3.9-5.1-7.5-10.2-11.1-15.4s-6.9-10.5-10-15.9c-2.1-3.6-4.1-7.2-6.1-10.9s-3.8-7.3-5.6-11.1c0,0,0-1,0-1
			c-1.3,0.2-3.5,1.2-4.8,1.2c0,0,0,0,0,0c0,0,0,0,0,0c-0.2,0-0.4,0-0.6,0c-4.3-0.1-8.5-1.1-12.5-3.1l-30.5-15.8
			c-6.2-3.2-10.8-8.4-13.3-14.6c-1.4-3.5-2.2-7.3-2.1-11.1c0-1.3,0.1-2.6,0.3-3.9c0-0.1,0-0.2,0-0.3l4.2-26.2
			c1.7-10,8.2-18.3,17.5-22l11.2-4.5c-0.6-5.6-1.1-11.1-1.5-16.7C36.2,42.4,36,36.8,36,31.2c-0.1-5.7,0-11.3,0.3-17
			c0.2-4.7,0.5-9.3,0.9-14H-1.3v298.2c0.6,0.9,1.2,1.8,1.9,2.7C9,313.1,18,325,28,335.5c1.2,1.3,2.5,2.5,3.7,3.7h257.9
			C289.6,338.7,289.5,338.1,289.5,337.5z M64.9,250.1l-0.1,0.1c-3.4,5.4-9.1,8.4-15,8.4c-3.1,0-6.2-0.8-9.1-2.5L22,244.8
			c-8.2-5.1-10.8-15.9-6-24.2l0.1-0.2c5.1-8.3,15.8-10.9,24.1-5.9L59,225.9C67.3,231.1,69.9,241.7,64.9,250.1z"/>
		<path class="st4" d="M89.4,203.9c3.5,5.2,7.2,10.4,11.1,15.4C96.6,214.2,92.9,209.1,89.4,203.9z"/>
		<path class="st4" d="M73.2,177.1c2,3.7,4,7.3,6.1,10.9C77.2,184.3,75.2,180.7,73.2,177.1z"/>
		<path class="st4" d="M125.6,248.4c-9.1-9.3-17.5-19-25.2-29.1C108.1,229.4,116.5,239.1,125.6,248.4L125.6,248.4z"/>
		<path class="st4" d="M28,335.5c0,0,0.1,0.1,0.1,0.1C28.1,335.5,28.1,335.5,28,335.5c0,0-0.1-0.1-0.1-0.1
			C28,335.4,28,335.4,28,335.5z"/>
		<path class="st4" d="M31.7,339.2L31.7,339.2c-0.1-0.1-0.1-0.1-0.2-0.2C31.6,339.1,31.7,339.2,31.7,339.2z"/>
		<path class="st4" d="M28.1,335.6c0,0-0.1-0.1-0.1-0.1c1.2,1.3,2.5,2.5,3.7,3.7c-0.1-0.1-0.1-0.1-0.2-0.2
			C30.4,337.9,29.3,336.8,28.1,335.6z"/>
		<path class="st4" d="M28,335.5C18,325,9,313.1,0.5,301.1c8.4,11.9,17.4,23.9,27.4,34.2C28,335.4,28,335.4,28,335.5z"/>
		<path class="st5" d="M295.7,136.1c0-0.4,0-0.9-0.1-1.3c0-0.3-0.1-0.6-0.1-1c-0.1-0.5-0.2-0.9-0.3-1.4c-0.1-0.5-0.2-0.9-0.4-1.3
			c-1.6-4.7-5.6-8.4-10.6-9.6l-0.4-0.1l-32.8-8.2c-1.3-0.3-2.6-0.4-3.9-0.4c-3.4,0-6.8,1.3-9.4,3.4c-0.4,0.3-0.7,0.6-1.1,1l-1.9,2v0
			h0c-0.3,0.2-0.5,0.5-0.8,0.8c-2.2,2.5-3.4,5.6-3.6,8.8c-0.1,1.4,0,2.9,0.3,4.3c0.3,1.1,0.7,2.3,1.2,3.4l10.5,21.1l4.8,9.7
			c1.4,2.8,3.5,4.9,6,6.4c2.1,1.2,4.5,1.9,6.9,2c1.3,0.1,2.6-0.1,3.9-0.3c0.5-0.1,1-0.2,1.5-0.4l30.2-10.1V136.1z"/>
		<path class="st3" d="M291.2,191.5c9.7-4,16.4-12.9,17.5-23.3l1.9-8.5l-2,0.6v-24.2c0-1.6-0.1-3.3-0.4-4.8
			c-0.8-4.7-2.7-9.1-5.5-12.7c-2.4-3-5.3-5.6-8.8-7.5c-1.6-0.8-3.2-1.5-4.9-2.1c-0.6-0.2-1.2-0.3-1.8-0.5l0,0l-1.3-0.3l-31.8-8
			c-2-0.5-3.9-0.7-5.9-0.8c-0.5,0-0.9,0-1.4,0c-7.2,0.1-14.2,2.9-19.5,8c-0.1,0.1-0.2,0.2-0.3,0.3l-18.7,18.7
			c-0.5,0.5-1.1,1.1-1.5,1.7c-4.6,5.4-7,12.2-6.8,19.1c0.1,4.1,1,8.3,3,12.1l15.4,32.8c5,9.9,14.9,13.8,25.5,13.8c3,0,6-0.5,9-1.5
			l36.6-12.3l-36.6,12.5c-3,1-6,1.6-9,1.6c0,0,0,0,0,0c3,0,6-0.7,9.1-1.6l36.6-12.4C290.1,192,290.7,191.7,291.2,191.5
			c9.7-3.9,16.4-12.9,17.6-23.2l1.9-8.5l-0.1,0.3l-1.9,8.2C307.6,178.6,300.9,187.5,291.2,191.5z M248.7,191.7
			c-7.2,2.4-14.9-0.9-18.4-7.6L215,153.3c-2.8-5.7-1.8-12.5,2.5-17.1c0.5,2.1,1.2,4.3,2.2,6.3l15.4,30.8c4.5,8.8,12.8,14.4,22,15.6
			L248.7,191.7z M265.5,174.9c-0.5,0.2-1,0.3-1.5,0.4c-1.3,0.3-2.6,0.4-3.9,0.3c-2.5-0.1-4.8-0.8-6.9-2c-2.5-1.4-4.6-3.6-6-6.4
			l-4.8-9.7l-10.5-21.1c-0.5-1.1-0.9-2.2-1.2-3.4c-0.3-1.4-0.4-2.9-0.3-4.3c0,0.3,0,0.6,0,0.9c0-0.4,0-0.8,0.1-1.2
			c0,0.1,0,0.2,0,0.3c0.2-3.2,1.5-6.3,3.6-8.8c0,0,0,0,0,0c0.2-0.3,0.5-0.6,0.8-0.8c-0.3,0.3-0.5,0.6-0.8,0.8
			c0.2-0.3,0.5-0.5,0.8-0.8h0v0l1.9-2c0.3-0.3,0.7-0.7,1.1-1c2.6-2.2,6-3.4,9.4-3.4c0,0,0,0,0,0c0,0,0,0,0,0c1.3,0,2.6,0.1,3.9,0.4
			l32.8,8.2l0.4,0.1c5,1.2,9,4.9,10.6,9.6c0.2,0.4,0.3,0.9,0.4,1.3c0.1,0.5,0.2,0.9,0.3,1.4c0,0.3,0.1,0.6,0.1,1
			c0,0.4,0.1,0.9,0.1,1.3v28.7L265.5,174.9z"/>
		<path class="st3" d="M247.1,112.8c-3.4,0-6.8,1.3-9.4,3.4C240.3,114,243.7,112.8,247.1,112.8C247.1,112.8,247.1,112.8,247.1,112.8
			z"/>
		<path class="st5" d="M43.1,118.6l30.6,15.9c3.1,1.7,6.6,2.1,10.2,1.3l14.7-20.5c3.8-5.3,3.8-12.4-0.1-17.8L81.5,74
			c-2.9-4-7.5-6.3-12.2-6.3c-1.9,0-3.8,0.4-5.6,1.1L39,78.8l-3.8,23.9C34.2,109.2,37.4,115.6,43.1,118.6z"/>
		<path class="st3" d="M9.3,91.2l-4.2,26.2c0,0.1,0,0.2,0,0.3c-0.2,1.3-0.3,2.6-0.3,3.9c-0.1,3.9,0.7,7.6,2.1,11.1
			c2.5,6.2,7.1,11.4,13.3,14.6l30.5,15.8c4,2.1,8.2,3.1,12.5,3.1c0.2,0,0.4,0,0.6,0c0,0,0,0,0,0c0,0,0,0,0,0c1.3,0,2.6-0.1,3.8-0.2
			c7.6-1,14.8-5,19.5-11.6l0,0c0,0,0,0,0,0l0.1-0.1l18.9-26.2l0,0l-0.1,0l0,0l3.6-5c3.6-5,5.4-10.8,5.4-16.7c0-0.7,0-1.5-0.1-2.2
			c-0.4-5.1-2.2-10.2-5.4-14.6l-17-23.4c-7.5-10.6-21.7-14.7-33.7-9.8l-20.6,8.3l-11.2,4.5C17.5,73,11,81.2,9.3,91.2z M35.2,102.7
			L39,78.8l24.7-9.9c1.8-0.7,3.7-1.1,5.6-1.1c4.7,0,9.4,2.2,12.2,6.3l17.1,23.4c3.9,5.3,3.9,12.5,0.1,17.8L84,135.7
			c-3.6,0.8-7.2,0.4-10.2-1.3l-30.6-15.9C37.4,115.6,34.2,109.2,35.2,102.7z M37,130.5l30.4,15.8c2.2,1.2,4.5,2,6.8,2.6
			c-4.6,4.4-11.5,5.4-17.4,2.4l-30.4-15.8c-5.9-3.1-9.1-9.5-8-15.9l4.1-26.1c0.2-1.4,0.6-2.7,1.2-4l-1.8,11.2
			C20.1,112.8,26.1,124.8,37,130.5z"/>
		<path class="st5" d="M133,287.5l23.8,13.6c2.1,1.2,4.6,1.5,7.1,1l8.9-11.4c2.8-3.7,3-8.8,0.5-12.7l-12.8-19.2
			c-2-3.1-5.4-4.8-8.9-4.8c-1.2,0-2.5,0.2-3.7,0.6l-17,6l-3,15.2C126.9,280.4,129.1,285.2,133,287.5z"/>
		<path class="st3" d="M102,269.3l-4.2,20.8c-0.3,1.7-0.4,3.4-0.4,5.1c0,0.6,0.1,1.1,0.1,1.7c0.6,7.7,5,14.8,12,18.9l23.9,13.6
			c3.7,2.1,7.8,3.1,11.9,3.1c6.4,0,12.7-2.5,17.3-7.2c0.7-0.7,1.3-1.4,1.9-2.2l18.9-24.3c0.1-0.1,0.2-0.2,0.2-0.4l1.9-2.6
			c0,0,0,0,0.1,0l1.8-2.3l-1.1,0.4c3.4-7.5,2.9-16.4-1.8-23.5l-12.8-19.2c-6.1-9.3-17.8-13.2-28.3-9.4l-17.8,6.3l-8.1,2.9
			C109.5,254.2,103.7,260.9,102,269.3z M127.9,276l3-15.2l17-6c1.2-0.4,2.5-0.6,3.7-0.6c3.5,0,6.9,1.7,8.9,4.8l12.8,19.2
			c2.6,3.9,2.4,9-0.5,12.7l-8.9,11.4c-2.5,0.5-5,0.2-7.1-1L133,287.5C129.1,285.2,126.9,280.4,127.9,276z M126.4,299.1l23.8,13.6
			c1.3,0.8,2.7,1.4,4.1,1.8l-0.5,0.6c-3.2,4.2-9.2,5.3-13.8,2.7l-23.8-13.6c-4-2.3-6.1-7-5.2-11.5l3.2-16
			C113.7,285.7,118.3,294.4,126.4,299.1z"/>
		<path class="st3" d="M183.6,298.5c-0.1,0.1-0.2,0.2-0.2,0.4l-18.9,24.3c-0.6,0.8-1.2,1.5-1.9,2.2c-4.6,4.7-10.9,7.2-17.3,7.2
			c-4.1,0-8.1-1-11.9-3.1l-23.9-13.6c-7-4.1-11.4-11.2-12-18.9c-0.1-0.6-0.1-1.1-0.1-1.7c0,0.6,0.1,1.1,0.1,1.7
			c0.6,7.7,5,14.8,12,18.9l23.9,13.6c3.7,2.1,7.8,3.1,11.9,3.1c6.4,0,12.7-2.5,17.3-7.2c0.7-0.7,1.3-1.4,1.9-2.2l18.9-24.3
			C183.5,298.8,183.6,298.7,183.6,298.5l1.9-2.4l0.1-0.1c0,0,0,0-0.1,0L183.6,298.5z"/>
		<path class="st5" d="M431.5,146.1c2.6,6,8.7,9.6,15.3,9l26.1-2.5l4.6-30.2c0.8-5.3-1.2-10.6-5.3-13.9l-20.4-16.9
			c-2.8-2.3-6.2-3.4-9.6-3.4c-2.8,0-5.6,0.8-8,2.3l-0.1,0l-19.3,12c-0.4,2.8,0,5.7,1.1,8.2L431.5,146.1z"/>
		<path class="st5" d="M373.8,324.7l-0.1-0.3l-5.3-19.9c-2-7.2-8.4-12.5-15.8-12.9l-22.6-1.4l0,0.1h0l-5.9,28.3
			c-0.2,0.8-0.2,1.6-0.2,2.4c0.1,2.9,1.4,5.6,3.6,7.5c0.5,0.4,1.1,0.9,1.7,1.2l16.8,9.6h24.9c2.4-3,3.5-6.8,3.4-10.6
			C374.3,327.3,374.1,326,373.8,324.7z"/>
		<path class="st3" d="M384.4,322l-4.4-20.2c-3.1-11.8-14.4-21.4-26.7-22l-27.4-1.7c-8.1-0.6-16.1,2.4-21.9,8.2
			c-4,4-6.6,9.9-7.7,15.3l-6.2,30.1c-0.3,1.4-0.5,2.9-0.6,4.3c0,0,0,0,0,0c0,0.6,0,1.1,0,1.6c0,0.6,0,1.2,0.1,1.7h4.1
			c-0.1-0.5-0.1-1-0.1-1.6c0-1.7,0.1-3.5,0.5-5.4l0.2-1l6.1-29.1c2.2-10.6,11.2-18.2,22.3-18.9l8.7-0.5l-1.5,7.2l22.6,1.4
			c7.4,0.5,13.8,5.6,15.8,12.9l5.3,20l0.1,0.3c0.3,1.3,0.5,2.6,0.6,3.9c0.1,3.9-1.1,7.6-3.4,10.6h12.4
			C385.5,334.2,385.9,327.8,384.4,322z"/>
		<path class="st3" d="M289.6,335.9C289.6,335.9,289.6,335.9,289.6,335.9c0.1-1.4,0.3-2.9,0.6-4.3l6.2-30.1
			c1.2-5.4,3.8-10.3,7.7-14.3c5.8-5.8,13.8-8.8,21.9-8.2l27.4,1.7c12.3,0.7,22.6,9.3,25.7,21l5.4,20.2l-5.4-20.3
			c-3.1-11.8-13.4-20.3-25.7-21l-27.4-1.7c-8.1-0.6-16.1,2.4-21.9,8.2c-4,4-6.6,8.9-7.7,14.3l-6.1,30.1c-0.3,1.4-0.5,2.7-0.5,4.1
			c0,0,0,0,0,0h0C289.6,335.7,289.6,335.8,289.6,335.9z"/>
		<path class="st3" d="M289.5,337.5c0-0.5,0-1.1,0-1.6h0C289.5,336.5,289.5,337,289.5,337.5z"/>
		<path class="st3" d="M289.6,335.9c0-0.1,0-0.2,0-0.2h0C289.6,335.7,289.6,335.8,289.6,335.9L289.6,335.9z"/>
		<path class="st3" d="M352.6,291.5c7.4,0.5,13.8,5.7,15.8,12.9l5.3,19.9l-5.3-20C366.4,297.1,360,292,352.6,291.5l-22.6-1.5l0,0
			L352.6,291.5z"/>
		<path class="st3" d="M374.3,328.6c0.1,3.9-1.1,7.6-3.4,10.6C373.3,336.2,374.5,332.5,374.3,328.6z"/>
		<path class="st6" d="M21.9,100.6l1.8-11.2c-0.6,1.2-1,2.6-1.2,4l-4.1,26.1c-1.1,6.4,2.2,12.8,8,15.9l30.4,15.8
			c5.9,3.1,12.8,2,17.4-2.4c-2.4-0.5-4.7-1.4-6.8-2.6L37,130.5C26.1,124.8,20.1,112.8,21.9,100.6z"/>
		<path class="st6" d="M177.3,5.2l36.9,11.1c5.2,1.5,10.7,0.2,14.6-3.4c-0.6-0.1-1.2-0.3-1.7-0.5l-0.1,0l-37-11.1
			C189,1,188,0.6,186.9,0.2h-17.1C171.8,2.5,174.3,4.3,177.3,5.2z"/>
		<path class="st3" d="M173.4,18.2l37,11.1c2.7,0.8,5.4,1.2,8.1,1.2c9.1,0,17.9-4.3,23.4-12.1l8-11.5l4.8-6.8h-18.5h-1.8h-47.4
			c1,0.4,2.1,0.8,3.1,1.1l37,11.1l0.1,0c0.6,0.2,1.2,0.3,1.7,0.5c-3.9,3.6-9.5,4.9-14.6,3.4L177.3,5.2c-3-0.9-5.5-2.7-7.4-5h-15.2
			C157.6,8.6,164.4,15.5,173.4,18.2z"/>
		<path class="st6" d="M448,168.4c-12.3,1.1-23.8-5.7-28.8-16.9l-15.6-35.3c-0.7-1.6-1.3-3.3-1.7-5.1c-4.1,4.4-5.4,10.8-2.8,16.4
			l15.6,35.4c2.6,6,8.8,9.6,15.3,9l28.8-2.8c2.5-0.2,4.8-1.1,6.8-2.4L448,168.4z"/>
		<path class="st3" d="M469.3,179.9c0.1-0.1,0.2-0.1,0.3-0.2c0.5-0.3,1.1-0.5,1.6-0.8c0.3-0.2,0.6-0.3,0.9-0.5
			c0.3-0.2,0.6-0.4,0.9-0.6c0.5-0.3,1-0.7,1.5-1c0.1-0.1,0.3-0.1,0.3-0.2c1.3-1,2.8-2.2,3.8-3.4v-77l-18.3-15.1
			c-9.6-7.8-23-8.6-33.3-2l-6.8,4.2l0.1-0.4l-22.4,14.3c-0.4,0.2-0.7,0.5-1.1,0.7c-8,5.5-12.4,14.6-12.3,23.8
			c0,3.8,0.8,7.6,2.5,11.2l15.6,35.3c0.3,0.7,0.6,1.3,0.9,1.9c4.9,9.3,14.6,15.1,25.2,15.1c0.9,0,1.8-0.1,2.7-0.2l28.8-2.9
			c0,0,0,0,0,0l0,0.1c0,0,0.1,0,0.1,0C463.4,182,466.5,181.2,469.3,179.9z M414.7,102.6l19.3-12l0.1,0c2.5-1.6,5.3-2.3,8-2.3
			c3.4,0,6.8,1.1,9.6,3.4l20.4,16.9c4.1,3.3,6.1,8.6,5.3,13.9l-4.6,30.2l-26.1,2.5c-6.5,0.6-12.6-3-15.3-9l-15.6-35.4
			C414.7,108.2,414.4,105.4,414.7,102.6z M458.8,169.1l-28.8,2.8c-6.5,0.6-12.6-3-15.3-9l-15.6-35.4c-2.5-5.6-1.3-12.1,2.8-16.4
			c0.4,1.7,1,3.4,1.7,5.1l15.6,35.3c4.9,11.3,16.5,18,28.8,16.9l17.5-1.7C463.6,168,461.3,168.9,458.8,169.1z"/>
		<path class="st6" d="M235.1,173.3l-15.4-30.8c-1-2-1.8-4.2-2.2-6.3c-4.3,4.6-5.4,11.4-2.5,17.1l15.3,30.8
			c3.4,6.8,11.1,10,18.4,7.6l8.4-2.8C247.9,187.7,239.6,182.1,235.1,173.3z"/>
		<path class="st6" d="M114.3,276.7l-3.2,16c-0.9,4.5,1.2,9.2,5.2,11.5l23.8,13.6c4.6,2.6,10.5,1.4,13.8-2.7l0.5-0.6
			c-1.4-0.5-2.8-1.1-4.1-1.8l-23.8-13.6C118.3,294.4,113.7,285.7,114.3,276.7z"/>
		<path class="st6" d="M310.5,320.9c0-0.4,0-0.9,0-1.3l-1.6,7.7l-1.6,7.8c-0.2,0.7-0.2,1.5-0.2,2.3c0,0.8,0.1,1.4,0.2,1.9h12.6
			C314.1,335.4,310.7,328.2,310.5,320.9z"/>
		<path class="st3" d="M327.5,328.4c-2.2-1.9-3.5-4.6-3.6-7.5c0-0.8,0-1.7,0.2-2.5L330,290l1.5-7.2l-8.7-0.4
			c-11.1,0.7-20,8.3-22.3,18.9l-6.1,30l-0.2,1c-0.4,1.8-0.5,3.7-0.5,5.3c0,0.6,0,1.1,0.1,1.6h13.5c-0.1-0.5-0.2-1.2-0.2-1.9
			c0-0.8,0.1-1.6,0.2-2.4l1.6-7.7l1.6-7.8c0,0,0,0.1,0,0.1l0,0c0,0.4,0,0.9,0,1.3c0.2,7.3,3.6,14.6,9.4,18.3H346l-16.8-9.6
			C328.6,329.3,328,328.8,327.5,328.4z"/>
		<path class="st3" d="M327.5,328.4c-2.2-1.9-3.5-4.6-3.6-7.5C324,323.8,325.3,326.5,327.5,328.4z"/>
		<path class="st3" d="M294.4,331.3l-0.2,1c-0.4,1.8-0.5,3.7-0.5,5.4c0-1.7,0.1-3.5,0.5-5.3L294.4,331.3z"/>
		<path class="st3" d="M308.9,327.2l-1.6,7.7c-0.2,0.8-0.2,1.6-0.2,2.4c0-0.7,0.1-1.5,0.2-2.3L308.9,327.2z"/>
		<path class="st3" d="M310.5,320.9c0-0.4,0-0.9,0-1.3l0,0C310.5,320,310.5,320.5,310.5,320.9z"/>
		<path class="st7" d="M165,60.9c-0.8-0.8-1.8-1.2-3-1.2c-1.1,0-2.2,0.4-3,1.2c-0.8,0.8-1.2,1.8-1.2,3c0,1.1,0.4,2.2,1.2,3
			l15.4,15.4c1.6,1.6,4.4,1.6,6,0c1.6-1.6,1.6-4.4,0-6L165,60.9z"/>
		<path class="st3" d="M174.5,51.5c-6.9-6.9-18-6.9-24.9,0c-6.9,6.9-6.9,18,0,24.9L165,91.8c3.4,3.4,7.9,5.1,12.5,5.1
			s9-1.7,12.5-5.1v0c6.9-6.9,6.9-18,0-24.9L174.5,51.5z M180.4,82.3c-1.6,1.6-4.4,1.6-6,0L159,66.9c-0.8-0.8-1.2-1.8-1.2-3
			c0-1.1,0.4-2.2,1.2-3c0.8-0.8,1.8-1.2,3-1.2c1.1,0,2.2,0.4,3,1.2l15.4,15.4C182,78,182,80.7,180.4,82.3z"/>
		<path class="st2" d="M142,183.2h-21.8c-2.3,0-4.2,1.7-4.2,4s1.9,4,4.2,4H142c2.3,0,4.2-1.7,4.2-4S144.3,183.2,142,183.2z"/>
		<path class="st3" d="M142,170.2h-21.8c-9.7,0-17.6,7.8-17.6,17.5s7.9,17.5,17.6,17.5H142c9.7,0,17.6-7.8,17.6-17.5
			S151.7,170.2,142,170.2z M142,191.2h-21.8c-2.3,0-4.2-1.7-4.2-4s1.9-4,4.2-4H142c2.3,0,4.2,1.7,4.2,4S144.3,191.2,142,191.2z"/>
		<path class="st7" d="M246.5,260.6c-0.4-1-1.3-1.8-2.4-2.3c-0.4-0.1-0.9-0.3-1.6-0.3c-0.5,0-1,0.1-1.6,0.3c-1,0.5-1.9,1.3-2.3,2.4
			c-0.2,0.6-0.6,1.8,0,3.2l8.7,20.1c0.4,1,1.3,1.8,2.4,2.3c0.6,0.2,1.8,0.6,3.2,0l0,0c1-0.5,1.9-1.3,2.3-2.4c0.2-0.6,0.6-1.8,0-3.2
			L246.5,260.6z"/>
		<path class="st3" d="M258.7,255.3c-1.9-4.3-5.3-7.6-9.7-9.3c-4.4-1.8-9.2-1.7-13.5,0.2c-4.3,1.9-7.6,5.3-9.3,9.7
			c-1.8,4.4-1.7,9.2,0.2,13.5l8.7,20.1c1.9,4.3,5.3,7.6,9.7,9.3c2.1,0.8,4.3,1.3,6.5,1.3c2.4,0,4.7-0.5,7-1.5
			c4.3-1.9,7.6-5.3,9.3-9.7c1.8-4.4,1.7-9.2-0.2-13.5L258.7,255.3z M255.2,283.9c-0.4,1.1-1.2,1.9-2.3,2.4l0,0
			c-1.3,0.6-2.6,0.3-3.2,0c-1.1-0.4-1.9-1.2-2.4-2.3l-8.7-20.1c-0.6-1.4-0.3-2.6,0-3.2c0.4-1.1,1.2-1.9,2.3-2.4
			c0.6-0.2,1.1-0.3,1.6-0.3c0.7,0,1.2,0.2,1.6,0.3c1.1,0.4,1.9,1.2,2.4,2.3l8.7,20.1C255.7,282.1,255.4,283.3,255.2,283.9z"/>
		<path class="st2" d="M362,214.4l-0.1-0.1l-18.6-11.5c-0.7-0.4-1.4-0.6-2.2-0.6c-0.3,0-0.6,0-1,0.1c-1.1,0.3-2,0.9-2.6,1.9
			c-1.2,2-0.6,4.5,1.4,5.7l18.6,11.5c2,1.2,4.4,0.6,5.7-1.3c0.6-1,0.8-2.3,0.5-3.4C363.5,216,363.1,215.1,362,214.4z"/>
		<path class="st3" d="M368.8,202.9l-18.5-11.4c-8.2-5.1-19-2.5-24.2,5.7c-5.1,8.2-2.5,19,5.7,24.2l18.6,11.5c2.9,1.8,6,2.6,9.2,2.6
			c5.9,0,11.7-3,15-8.3l0.1-0.1c2.4-4.1,3.1-9.1,2-13.6C375.5,208.9,372.7,205.2,368.8,202.9z M363.2,220.1c-1.3,2-3.8,2.6-5.7,1.3
			L338.9,210c-2-1.3-2.6-3.8-1.4-5.7c0.6-1,1.5-1.7,2.6-1.9c0.3-0.1,0.6-0.1,1-0.1c0.8,0,1.5,0.2,2.2,0.6l18.6,11.5l0.1,0.1
			c1.1,0.6,1.5,1.6,1.7,2.3C364,217.9,363.8,219.1,363.2,220.1z"/>
		<path class="st3" d="M478.5,220.6c-4.3-1.9-9.1-1.9-13.5-0.2c-4.4,1.8-7.9,5.2-9.7,9.5l-8.5,20c-0.9,2.2-1.4,4.5-1.5,6.8
			c0,2.3,0.4,4.6,1.3,6.8c1.8,4.4,5.2,7.7,9.6,9.7h0c2.2,1,4.7,1.3,6.9,1.3c6.3,0,12.5-3.4,15.5-9.1v-44.8
			C478.7,220.6,478.5,220.6,478.5,220.6z M475.4,238.5l-8.5,20.1c-0.5,1.3-1.5,1.9-2.2,2.2c-1,0.4-2.2,0.4-3.3,0
			c-1-0.4-1.8-1.2-2.3-2.3c-0.4-1-0.4-2.1,0.1-3.2l8.5-20.1c0.4-1,1.2-1.8,2.3-2.3c1-0.4,2.1-0.4,3.1,0l0.1,0.1
			c1,0.4,1.8,1.2,2.3,2.3C475.9,236.3,475.9,237.4,475.4,238.5z"/>
		<path class="st7" d="M51.9,237.3l-18.6-11.2c-2-1.2-4.6-0.6-5.8,1.4c-1.1,2.1-0.5,4.7,1.5,5.9l18.6,11.2c2,1.2,4.6,0.6,5.9-1.4
			C54.6,241.1,54,238.6,51.9,237.3z"/>
		<path class="st3" d="M59,225.9l-18.7-11.3c-8.4-5-19-2.4-24.1,5.9l-0.1,0.2c-4.8,8.3-2.2,19.1,6,24.2l18.7,11.3
			c2.9,1.7,6,2.5,9.1,2.5c5.9,0,11.6-3,15-8.4l0.1-0.1C69.9,241.7,67.3,231.1,59,225.9z M53.4,243.2c-1.3,2-3.9,2.6-5.9,1.4
			L29,233.4c-2-1.2-2.6-3.9-1.5-5.9c1.3-2,3.9-2.6,5.8-1.4l18.6,11.2C54,238.6,54.6,241.1,53.4,243.2z"/>
		<path class="st2" d="M308.7,41.1c-2.3,0-4,1.9-4,4.2v21.8c0,2.3,1.7,4.2,4,4.2c2.3,0,4-1.9,4-4.2V45.3
			C312.7,43,310.9,41.1,308.7,41.1z"/>
		<path class="st3" d="M326.7,45.3c0-9.7-8.3-17.6-18-17.6c-9.7,0-18,7.9-18,17.6v21.8c0,9.7,8.3,17.6,18,17.6c9.7,0,18-7.9,18-17.6
			V45.3z M312.7,67.1c0,2.3-1.7,4.2-4,4.2c-2.3,0-4-1.9-4-4.2V45.3c0-2.3,1.7-4.2,4-4.2c2.3,0,4,1.9,4,4.2V67.1z"/>
		<path class="st2" d="M451.1,1.3c-0.2,0.1-0.5,0.1-0.7,0.2c0,0,0,0,0,0c-1.5,0.6-2.6,2.1-2.6,3.8c0,0.9,0.3,1.6,0.8,2.3
			c0.1,0.2,0.3,0.3,0.4,0.5c0.4,0.4,0.8,0.6,1.3,0.8c0.2,0.1,0.5,0.2,0.7,0.2c0.1,0,0.1,0,0.2,0c0.3,0.1,0.7,0.1,1,0.1h0
			c-0.3,0-0.7,0-1-0.1c-0.1,0-0.1,0-0.2,0c-0.3-0.1-0.5-0.1-0.7-0.2c-0.4-0.1-0.7-0.3-1-0.5c0.8,0.8,1.8,1.3,2.9,1.3l10.5,0l0.3,0
			l0.3,0l10.5-0.1c0.1,0,0.3,0,0.4,0c1.2-0.2,2.2-0.8,2.8-1.8c0.5-0.7,0.6-1.5,0.6-2.4c0,0.9-0.3,1.7-0.8,2.4
			c0.5-0.7,0.8-1.5,0.8-2.4c0,0,0,0,0,0c0-2.3-1.6-4.2-3.8-4.2H452c-0.3,0-0.5,0-0.8,0.1C451.2,1.3,451.2,1.3,451.1,1.3z"/>
		<path class="st2" d="M449.3,8.3c-0.1-0.1-0.2-0.2-0.2-0.3c-0.1-0.1-0.3-0.3-0.4-0.5c-0.5-0.7-0.8-1.4-0.8-2.3c0,0,0,0,0,0.1
			c0,0.7,0.2,1.3,0.4,1.8c0.1,0.1,0.2,0.3,0.3,0.4C448.8,7.9,449,8.1,449.3,8.3z"/>
		<path class="st3" d="M434.7,5.6C434.7,5.6,434.7,5.6,434.7,5.6L434.7,5.6L434.7,5.6c0,0-0.1,0-0.1,0c0.1,4.9,2,9.3,5.2,12.5
			c3.2,3.2,7.4,5.1,12.3,5.1h0.1h0.1c0,0,0,0,0,0h-0.1h0.1h0l21.7-0.2c1.2,0,2.5-0.1,3.7-0.4c0.4-0.1,0.2-0.2,1.2-0.3V0.2h-43.2
			C435,1.9,434.7,3.7,434.7,5.6C434.7,5.6,434.7,5.6,434.7,5.6z M447.7,5.3C447.7,5.3,447.7,5.3,447.7,5.3c0-1.4,0.8-2.7,2-3.4
			c0.4-0.3,0.9-0.5,1.5-0.6c0,0,0.1,0,0.1,0c0.3,0,0.5-0.1,0.8-0.1h21.8c2.3,0,3.8,1.9,3.8,4.2c0,0,0,0,0,0c0,0.9-0.3,1.7-0.8,2.4
			c0.5-0.7,0.8-1.5,0.8-2.4c0,0.9-0.1,1.7-0.6,2.4c-0.7,0.9-1.7,1.6-2.8,1.8c-0.2,0-0.3,0-0.5,0l-10.4,0l-0.3,0l-0.3,0l-10.5,0
			c-1.5,0-2.8-0.7-3.5-1.9c-0.1-0.2-0.3-0.4-0.4-0.7C447.9,6.6,447.7,6.1,447.7,5.3C447.7,5.3,447.7,5.3,447.7,5.3z"/>
		<path class="st3" d="M450.4,1.5c0.2-0.1,0.4-0.2,0.7-0.2c0,0,0,0,0,0c-0.5,0.1-1,0.3-1.5,0.6C449.9,1.8,450.2,1.6,450.4,1.5
			C450.4,1.5,450.4,1.5,450.4,1.5z"/>
		<path class="st3" d="M452,1.2c-0.3,0-0.5,0-0.8,0.1c0,0,0,0,0,0C451.5,1.2,451.8,1.2,452,1.2z"/>
		<path class="st3" d="M451.3,1.3C451.3,1.3,451.3,1.3,451.3,1.3c-0.1,0-0.1,0-0.1,0c0,0,0,0,0,0C451.2,1.3,451.2,1.3,451.3,1.3z"/>
		<polygon class="st3" points="452.2,23.2 452.1,23.2 452.2,23.2 		"/>
		<path class="st3" d="M448.5,7.6c-0.1-0.1-0.2-0.3-0.3-0.4c0.1,0.2,0.2,0.5,0.4,0.7c0.8,1.1,2.1,1.8,3.5,1.9
			c-1.1,0-2.1-0.6-2.9-1.3C449,8.1,448.8,7.9,448.5,7.6z"/>
		<path class="st3" d="M450.3,8.9c-0.5-0.2-0.9-0.5-1.3-0.8c0.1,0.1,0.2,0.2,0.2,0.3C449.6,8.6,449.9,8.7,450.3,8.9z"/>
		<path class="st3" d="M449,8c-0.1-0.1-0.3-0.3-0.4-0.5C448.8,7.8,448.9,7.9,449,8z"/>
		<path class="st3" d="M452.2,9.2c-0.3,0-0.7,0-1-0.1C451.5,9.2,451.8,9.2,452.2,9.2L452.2,9.2z"/>
	</g>
</g>
</svg>
