<?xml version="1.0" encoding="utf-8"?>
<!-- Generator: Adobe Illustrator 19.1.0, SVG Export Plug-In . SVG Version: 6.00 Build 0)  -->
<svg version="1.1" id="Layer_1" xmlns="http://www.w3.org/2000/svg" xmlns:xlink="http://www.w3.org/1999/xlink" x="0px" y="0px"
	 viewBox="-167 116.1 527.4 516.9" style="enable-background:new -167 116.1 527.4 516.9;" xml:space="preserve">
<style type="text/css">
	.st0{fill:#B97850;}
	.st1{fill:#3F352F;}
	.st2{fill:#A5694B;stroke:#3F352F;stroke-width:11;stroke-miterlimit:10;}
	.st3{fill:#A5694B;}
	.st4{fill:#734B46;stroke:#3F352F;stroke-width:11;stroke-miterlimit:10;}
	.st5{fill:#734B46;}
	.st6{fill:#644141;stroke:#3F352F;stroke-width:11;stroke-miterlimit:10;}
	.st7{fill:#C98850;stroke:#3F352F;stroke-width:11;stroke-miterlimit:10;}
	.st8{fill:#925F4A;stroke:#3F352F;stroke-width:11;stroke-miterlimit:10;}
	.st9{fill:#B97850;stroke:#3F352F;stroke-width:11;stroke-miterlimit:10;}
</style>
<g>
	<g>
		<g>
			<g>
				<path class="st0" d="M96,618.5c-33.2,0-65.4-6.7-95.6-20c-29.1-12.8-55.1-31.1-77-54.3c-21.9-23.2-38.7-50.1-49.9-79.8
					c-11.6-30.9-16.5-63.6-14.6-97c3.3-58.2,28.2-113.1,70.2-154.7c42-41.6,97.2-66,155.4-68.8c3.8-0.2,7.7-0.3,11.6-0.3
					c22.8,0,45.5,3.3,67.4,9.8c4.1,1.2,7.5,4.4,9,8.4c1.5,4,1,8.3-1.4,11.9c-14,21.3-21.5,46-21.5,71.5c0,22.4,5.6,44.4,16.3,63.7
					c10.5,18.9,25.5,34.8,43.6,46c5.2,3.2,5.4,8.9,3.5,12.8c-1.6,3.2-1.1,5.2,2,7.3l18.6,12.8c1.2,0.8,2.7,1.3,4.1,1.3
					c1.6,0,3.1-0.5,4.4-1.5l13.5-10.2c0.1-0.1,0.4-0.4,0.6-0.7l0.4-0.5l5-1.9c7,1,12.9,1.5,18.4,1.5c15,0,27.5-1.9,38.1-5.8
					c1.5-0.6,3.1-0.9,4.5-0.9c6.8,0,10.9,6.2,10.9,12.1c0,63.4-24.7,123.1-69.6,167.9C219.1,593.8,159.4,618.5,96,618.5z"/>
				<path class="st1" d="M96,149c22.9,0,44.9,3.3,65.8,9.5c5.1,1.5,7.5,7.5,4.6,12c-14.1,21.4-22.4,47-22.4,74.5
					c0,48,24.6,90.7,62.5,114.3c2.7,1.7,2.1,4.4,1.5,5.7c-2.8,5.7-1.4,10.6,3.8,14.2l18.6,12.8c2.2,1.5,4.7,2.3,7.2,2.3
					c2.7,0,5.4-0.9,7.7-2.6l13.5-10.2c0.8-0.6,1.3-1.3,1.9-2c6.3,0.9,12.7,1.5,19.2,1.5c13.9,0,27.6-1.6,40-6.1
					c1-0.4,1.8-0.5,2.6-0.5c4,0,5.4,4.2,5.4,6.6c0,128.1-103.9,232-232,232c-132.6,0-239.2-111.2-231.6-245.4
					C-129,250.2-32.8,154.9,84.7,149.3C88.5,149.1,92.3,149,96,149 M96,138L96,138c-3.9,0-7.9,0.1-11.8,0.3
					c-59.6,2.9-116,27.9-159,70.4c-43,42.6-68.5,98.8-71.8,158.3c-1.9,34.2,3.1,67.6,15,99.2c11.4,30.4,28.6,57.9,51,81.7
					c22.5,23.8,49,42.5,78.8,55.6C29.1,617.1,62,624,96,624c32.8,0,64.6-6.4,94.6-19.1c28.9-12.2,54.9-29.8,77.2-52.1
					s39.8-48.3,52.1-77.2c12.7-30,19.1-61.8,19.1-94.6c0-8.7-6.1-17.6-16.4-17.6c-2.1,0-4.3,0.4-6.4,1.2c-10,3.7-21.8,5.5-36.2,5.5
					c-5.3,0-10.9-0.4-17.7-1.4l-9.9,3.8c-0.2,0.2-0.3,0.4-0.4,0.5c0,0-0.1,0.1-0.1,0.1l-13.1,9.9c-0.4,0.3-0.8,0.4-1.1,0.4
					c-0.3,0-0.6-0.1-1-0.3L218,370.2c-0.1-0.1-0.2-0.1-0.2-0.2c0,0,0-0.1,0.1-0.1c3.6-7.3,1.3-15.7-5.5-20
					c-17.3-10.7-31.7-25.9-41.7-44c-10.2-18.5-15.6-39.5-15.6-61c0-24.4,7.1-48,20.6-68.5c3.3-5,4-11.1,1.9-16.8
					c-2.1-5.7-6.8-10.1-12.6-11.8C142.6,141.4,119.4,138,96,138L96,138z"/>
			</g>
		</g>
	</g>
	<g>
		<g>
			<path class="st2" d="M-44,380.4c0-111.9,79.9-209.3,185-231.4c-15.5-3.3-31.5-5-48-5c-128.1,0-233,108-233,236.4
				C-140,508.9-34.1,617,94,617c16.5,0,32.5-1.7,48-5C36.9,589.8-44,492.4-44,380.4z"/>
		</g>
	</g>
	<g>
		<g>
			<path class="st3" d="M-34.5,380.4c0-110.2,77.9-203.9,183-225.7c-15.5-3.2-29.5-6.9-46-6.9c-128.1,0-233,106.3-233,232.7
				c0,126.4,105.9,232.8,234,232.8c16.5,0,32.5-3.7,48-6.9C46.4,584.5-34.5,490.6-34.5,380.4z"/>
		</g>
	</g>
	<g>
		<g>
			<path class="st4" d="M56.5,373.2l-8,23.9c-2.5,7.6,0.9,15.8,8,19.4l25.3,12.6c6.2,3.1,13.6,1.9,18.5-3l15-15
				c5.2-5.2,6.2-13.2,2.4-19.5l-12.9-21.5c-2.9-4.8-8.1-7.8-13.7-7.8H71.7C64.8,362.3,58.7,366.7,56.5,373.2z"/>
		</g>
	</g>
	<g>
		<g>
			<path class="st4" d="M-32,269.2l7.6,24c2.4,7.6,10,12.3,17.9,11l27.9-4.6c6.8-1.1,12.1-6.5,13.2-13.3l3.3-21
				c1.2-7.2-2.8-14.4-9.5-17.2l-23.1-9.9c-5.2-2.2-11.1-1.5-15.7,1.8l-15.7,11.4C-31.7,255.5-34.1,262.6-32,269.2z"/>
		</g>
	</g>
	<g>
		<g>
			<path class="st4" d="M138.7,245.4l-20.2,15c-6.4,4.7-8.3,13.5-4.6,20.5l13.4,24.9c3.3,6.1,10.1,9.3,16.8,8.2l20.9-3.7
				c7.2-1.3,12.7-7.3,13.2-14.6l1.8-25c0.4-5.6-2.2-11-6.8-14.2l-15.9-11.2C151.8,241.2,144.3,241.3,138.7,245.4z"/>
		</g>
	</g>
	<g>
		<g>
			<path class="st4" d="M-72.9,403.1l5.3,19.4c1.7,6.1,7.6,10.1,13.9,9.3l22.4-2.8c5.5-0.7,9.9-4.8,11-10.2l3.3-16.6
				c1.2-5.8-1.8-11.6-7.1-14.1l-18.1-8.6c-4.1-1.9-8.8-1.6-12.6,0.9l-12.9,8.6C-72.2,392.1-74.4,397.8-72.9,403.1z"/>
		</g>
	</g>
	<g>
		<g>
			<path class="st4" d="M208.3,451l-24.5-5.7c-7.8-1.8-15.7,2.4-18.5,9.8l-10.2,26.4c-2.5,6.4-0.6,13.7,4.7,18.1l16.4,13.5
				c5.7,4.7,13.8,4.9,19.7,0.5l20.2-14.9c4.5-3.3,7-8.8,6.4-14.4l-1.8-19.3C220,458.2,215.1,452.5,208.3,451z"/>
		</g>
	</g>
	<g>
		<g>
			<g>
				<path class="st5" d="M23.4,556.6c-7.6,0-14.3-5.1-16.2-12.5l-4.3-16.4c-1.8-7,1-14.4,7-18.3L28.7,497c2.7-1.8,5.9-2.7,9.2-2.7
					c4.8,0,9.4,2.1,12.6,5.7l13.3,15.1c4.8,5.4,5.5,13.3,1.9,19.5L57.9,548c-2.9,5.1-8.4,8.3-14.3,8.3L23.4,556.6z"/>
				<path class="st1" d="M37.9,498.3c3.6,0,7.1,1.5,9.6,4.3l13.3,15.1c3.6,4.1,4.2,10.1,1.5,14.9L54.5,546
					c-2.3,3.9-6.4,6.3-10.9,6.3l-20,0.3c-0.1,0-0.1,0-0.2,0c-5.8,0-10.9-3.9-12.3-9.5l-4.3-16.4c-1.4-5.3,0.8-10.9,5.3-13.9
					l18.9-12.4C33.1,499,35.5,498.3,37.9,498.3 M37.9,490.3c-4.1,0-8,1.2-11.4,3.4L7.7,506.1c-7.5,4.9-11,14-8.7,22.7l4.3,16.4
					c2.4,9.1,10.7,15.5,20.1,15.5l0.3,0l20-0.3c7.3-0.1,14-4.1,17.7-10.3l7.8-13.4c4.5-7.7,3.6-17.5-2.4-24.2l-13.3-15.1
					C49.6,492.9,43.9,490.3,37.9,490.3L37.9,490.3z"/>
			</g>
		</g>
	</g>
	<g>
		<g>
			<path class="st6" d="M-7,293.2l-7.6-24c-2.1-6.6,0.3-13.7,5.9-17.8L7,240c0.3-0.2,0.7-0.4,1.1-0.6l-2.8-1.2
				c-5.2-2.2-11.1-1.5-15.7,1.8l-15.7,11.4c-5.6,4-7.9,11.2-5.9,17.8l7.6,24c2.4,7.6,10,12.3,17.9,11l8-1.3
				C-2.5,301-5.7,297.6-7,293.2z"/>
		</g>
	</g>
	<g>
		<g>
			<path class="st6" d="M144.7,305.7l-13.4-24.9c-3.8-7-1.8-15.7,4.6-20.5l20.2-15c0.3-0.2,0.6-0.3,0.9-0.5
				c-5.6-3.7-12.9-3.5-18.2,0.5l-20.2,15c-6.4,4.7-8.3,13.5-4.6,20.5l13.4,24.9c3.3,6.1,10.1,9.3,16.8,8.2l7.7-1.3
				C148.9,311.1,146.4,308.8,144.7,305.7z"/>
		</g>
	</g>
	<g>
		<g>
			<path class="st6" d="M193.6,513.1l-16.4-13.5c-5.3-4.4-7.2-11.7-4.7-18.1l10.2-26.4c1.4-3.7,4.1-6.6,7.4-8.4l-6.3-1.4
				c-7.8-1.8-15.7,2.4-18.5,9.8l-10.2,26.4c-2.5,6.4-0.6,13.7,4.7,18.1l16.4,13.5c5.4,4.5,13.1,4.8,19,0.9
				C194.6,513.7,194,513.5,193.6,513.1z"/>
		</g>
	</g>
	<g>
		<g>
			<path class="st6" d="M73.9,416.5c-7.1-3.6-10.5-11.8-8-19.4l8-23.9c2.2-6.5,8.3-10.9,15.2-10.9H71.7c-6.9,0-13,4.4-15.2,10.9
				l-8,23.9c-2.5,7.6,0.9,15.8,8,19.4l25.3,12.6c5.1,2.5,10.9,2,15.6-0.9L73.9,416.5z"/>
		</g>
	</g>
	<g>
		<g>
			<path class="st6" d="M-50.3,422.5l-5.3-19.4c-1.4-5.3,0.7-11,5.3-14l11.7-7.8l-3.6-1.7c-4.1-1.9-8.8-1.6-12.6,0.9l-12.9,8.6
				c-4.6,3-6.7,8.7-5.3,14l5.3,19.4c1.7,6.1,7.6,10.1,13.9,9.3l10.4-1.3C-46.6,429-49.3,426.2-50.3,422.5z"/>
		</g>
	</g>
	<g>
		<g>
			<path class="st6" d="M28.4,543.1l-4.3-16.4c-1.4-5.3,0.8-10.9,5.3-13.9l16.9-11.1c-4.3-3.8-10.5-4.5-15.4-1.3l-18.9,12.4
				c-4.6,3-6.8,8.6-5.3,13.9l4.3,16.4c1.5,5.7,6.7,9.6,12.5,9.5l16-0.2C34.3,551.9,29.8,548.3,28.4,543.1z"/>
		</g>
	</g>
	<g>
		<g>
			<path class="st7" d="M80,325L80,325c-4.4,0-8-3.6-8-8v-16c0-4.4,3.6-8,8-8l0,0c4.4,0,8,3.6,8,8v16C88,321.4,84.4,325,80,325z"/>
		</g>
	</g>
	<g>
		<g>
			<path class="st8" d="M11.3,360.3L11.3,360.3c-3.1,3.1-8.2,3.1-11.3,0L-11.3,349c-3.1-3.1-3.1-8.2,0-11.3l0,0
				c3.1-3.1,8.2-3.1,11.3,0L11.3,349C14.4,352.1,14.4,357.2,11.3,360.3z"/>
		</g>
	</g>
	<g>
		<g>
			<path class="st7" d="M10.1,467.9L10.1,467.9c-4.1-1.6-6.1-6.3-4.5-10.4l5.9-14.9c1.6-4.1,6.3-6.1,10.4-4.5l0,0
				c4.1,1.6,6.1,6.3,4.5,10.4l-5.9,14.9C18.9,467.5,14.2,469.5,10.1,467.9z"/>
		</g>
	</g>
	<g>
		<g>
			<path class="st8" d="M104.5,491L104.5,491c-4.3,1-8.6-1.6-9.6-5.9l-3.7-15.6c-1-4.3,1.6-8.6,5.9-9.6l0,0c4.3-1,8.6,1.6,9.6,5.9
				l3.7,15.6C111.5,485.6,108.8,489.9,104.5,491z"/>
		</g>
	</g>
	<g>
		<g>
			<path class="st8" d="M128.6,560L128.6,560c-1.7-4.1,0.3-8.8,4.4-10.4l14.8-6c4.1-1.7,8.8,0.3,10.4,4.4l0,0
				c1.7,4.1-0.3,8.8-4.4,10.4l-14.8,6C134.9,566.1,130.3,564.1,128.6,560z"/>
		</g>
	</g>
	<g>
		<g>
			<path class="st8" d="M81.9,213.2L81.9,213.2c1-4.3,5.4-6.9,9.7-5.9l15.6,3.8c4.3,1,6.9,5.4,5.9,9.7l0,0c-1,4.3-5.4,6.9-9.7,5.9
				l-15.6-3.8C83.5,221.8,80.8,217.5,81.9,213.2z"/>
		</g>
	</g>
	<g>
		<g>
			<path class="st8" d="M-64.1,499.6L-64.1,499.6c-4.2-1.5-6.3-6.1-4.8-10.2l5.4-15.1c1.5-4.2,6.1-6.3,10.2-4.8l0,0
				c4.2,1.5,6.3,6.1,4.8,10.2l-5.4,15.1C-55.3,498.9-59.9,501.1-64.1,499.6z"/>
		</g>
	</g>
	<g>
		<g>
			<path class="st7" d="M-75.6,311.3L-75.6,311.3c4.3-1,8.6,1.6,9.7,5.9l3.8,15.5c1,4.3-1.6,8.6-5.9,9.7l0,0c-4.3,1-8.6-1.6-9.7-5.9
				l-3.8-15.5C-82.5,316.7-79.8,312.4-75.6,311.3z"/>
		</g>
	</g>
	<g>
		<g>
			<path class="st8" d="M148.7,384.3L148.7,384.3c-3.1-3.1-3.1-8.2,0-11.3l11.3-11.3c3.1-3.1,8.2-3.1,11.3,0l0,0
				c3.1,3.1,3.1,8.2,0,11.3L160,384.3C156.9,387.4,151.8,387.4,148.7,384.3z"/>
		</g>
	</g>
	<g>
		<g>
			<path class="st8" d="M255,415.3L255,415.3c3.1-3.1,8.2-3.1,11.3,0l11.3,11.3c3.1,3.1,3.1,8.2,0,11.3l0,0c-3.1,3.1-8.2,3.1-11.3,0
				L255,426.7C251.9,423.5,251.9,418.5,255,415.3z"/>
		</g>
	</g>
	<g>
		<g>
			<path class="st7" d="M257.1,478.8L257.1,478.8c4.1,1.7,6,6.4,4.4,10.4l-6.1,14.8c-1.7,4.1-6.4,6-10.4,4.4l0,0
				c-4.1-1.7-6-6.4-4.4-10.4l6.1-14.8C248.4,479.1,253,477.1,257.1,478.8z"/>
		</g>
	</g>
	<g>
		<g>
			<path class="st9" d="M248.2,283.4l5.4,27.2c0.8,4.2,4.9,7,9.2,6.3l32.8-5.5c4.2-0.7,7.2-4.6,6.6-8.9l-5.4-43.5
				c-0.7-5.9-7.4-9-12.4-5.7l-32.8,21.8C248.9,277,247.5,280.2,248.2,283.4z"/>
		</g>
	</g>
	<g>
		<g>
			<path class="st9" d="M223.6,249.6l57.5-25.6c3.9-1.7,5.7-6.2,4.2-10.1l-18.6-49.7c-1.5-4-5.9-6.1-10-4.8l-37.2,12.4
				c-2.2,0.7-4,2.4-4.9,4.6L201.2,210c-0.8,1.9-0.8,4,0,5.9l11.7,29.3C214.6,249.5,219.4,251.5,223.6,249.6z"/>
		</g>
	</g>
	<g>
		<g>
			<path class="st2" d="M213.8,285h8.5c5,0,8.8,4.6,7.8,9.6l-3.7,18.7c-1.1,5.6-7.5,8.2-12.3,5.1l-9-6c-3-2-4.3-5.8-3.2-9.2
				l4.2-12.7C207.3,287.2,210.3,285,213.8,285z"/>
		</g>
	</g>
	<g>
		<g>
			<path class="st2" d="M240,349v1.4c0,3.8,2.7,7.1,6.4,7.8l24,4.8c5,1,9.6-2.8,9.6-7.8V349c0-4.4-3.6-8-8-8h-24
				C243.6,341,240,344.6,240,349z"/>
		</g>
	</g>
	<g>
		<g>
			<path class="st2" d="M228.3,240l-11.7-29.3c-0.8-1.9-0.8-4,0-5.9l13.4-33.6c0.8-1.9,2.3-3.3,4.2-4.2l-14.7,4.9
				c-2.2,0.7-4,2.4-4.9,4.6L201.2,210c-0.8,1.9-0.8,4,0,5.9l11.7,29.3c1.7,4.2,6.5,6.2,10.7,4.3l11-4.9
				C231.8,244.3,229.4,242.7,228.3,240z"/>
		</g>
	</g>
	<g>
		<g>
			<path class="st2" d="M267.4,309l-6.8-33.8c-0.5-2.4,0-4.8,1.2-6.8l-10.2,6.8c-2.7,1.8-4,5-3.4,8.2l5.4,27.2
				c0.8,4.2,4.9,7,9.2,6.3l9.1-1.5C269.6,314,268,311.7,267.4,309z"/>
		</g>
	</g>
</g>
</svg>
