<?xml version="1.0" encoding="utf-8"?>
<!-- Generator: Adobe Illustrator 19.1.0, SVG Export Plug-In . SVG Version: 6.00 Build 0)  -->
<svg version="1.1" id="Capa_1" xmlns="http://www.w3.org/2000/svg" xmlns:xlink="http://www.w3.org/1999/xlink" x="0px" y="0px"
	 viewBox="-143 145 512 512" style="enable-background:new -143 145 512 512;" xml:space="preserve">
<style type="text/css">
	.st0{fill:none;stroke:#E82D3A;stroke-width:16;stroke-linecap:round;stroke-linejoin:round;stroke-miterlimit:10;}
	.st1{fill:#3F352F;stroke:#3F352F;stroke-width:6;stroke-miterlimit:10;}
</style>
<path class="st0" d="M162.4,402.7c0,0-19.7,43.3-15.7,75.4c3.9,32.1,18.4,70.1,13.1,88.5c-5.2,18.4-17.7,51.1-17.7,51.1"/>
<path class="st0" d="M62.6,399.6c0,0,9.2,47.8-3.3,78.1c0,0-8,18.4-2.9,33"/>
<g>
	<path class="st1" d="M360.8,161.9c-4.5,0-8.2,3.7-8.2,8.2v64.8c0,15.1-4.6,29.1-12.4,40.7h-141c-22.7-21-53-33.8-86.3-33.8
		s-63.6,12.8-86.3,33.8h-141c-7.8-11.7-12.4-25.7-12.4-40.7v-64.8c0-4.5-3.7-8.2-8.2-8.2s-8.2,3.7-8.2,8.2v64.8
		c0,49.5,40.3,89.7,89.7,89.7h47c-5.2,13.9-8,28.9-8,44.5c0,38.2,16.7,73.7,46.1,98c3.6,42.9,8.3,98.4,10.4,126.3
		c2,25.7,24.5,46.7,50.2,46.7c0,0,41.3,0,41.3,0c25.8,0,48.2-21,50.2-46.7c2.1-27.9,6.8-83.4,10.4-126.3
		c29.3-24.3,46.1-59.8,46.1-98c0-15.7-2.8-30.7-8-44.5h47c49.5,0,89.7-40.3,89.7-89.7v-64.8C369,165.5,365.3,161.9,360.8,161.9z
		 M191.8,377.3c-3.1,6.8-10,11.6-18,11.6c-8,0-14.8-4.7-18-11.6H191.8z M145.9,361c-4.5,0-8.2,3.7-8.2,8.2
		c0,19.9,16.2,36.1,36.1,36.1c17.1,0,31.4-11.9,35.1-27.9h14.7c-2.3,31.2-17.4,59.7-42.3,79.3c-1.8,1.4-2.9,3.5-3.1,5.7
		c-3.7,43.4-8.5,101.1-10.7,129.9c-1.1,14.3-11.6,26.5-25,30.3l6-74.9c0.4-4.5-3-8.4-7.5-8.8c-4.5-0.4-8.4,3-8.8,7.5l-6.2,77.4H99.9
		l-6.2-77.4c-0.4-4.5-4.3-7.9-8.8-7.5c-4.5,0.4-7.9,4.3-7.5,8.8l6,74.9c-13.4-3.8-23.9-16-25-30.3c-2.2-28.7-7-86.5-10.7-129.9
		c-0.2-2.3-1.3-4.3-3.1-5.7c-24.9-19.5-40.1-48.1-42.3-79.3H17c3.7,16,18.1,27.9,35.1,27.9c19.9,0,36.1-16.2,36.1-36.1
		c0-4.5-3.7-8.2-8.2-8.2H2.3c4-54.7,47.8-98.5,102.5-102.5v24.2c0,4.5,3.7,8.2,8.2,8.2c4.5,0,8.2-3.7,8.2-8.2v-24.2
		c54.7,4,98.5,47.8,102.5,102.5L145.9,361L145.9,361z M34.2,377.3h35.9c-3.1,6.8-10,11.6-18,11.6S37.3,384.1,34.2,377.3z
		 M11.8,291.9c-3.9,5.2-7.5,10.6-10.6,16.3h-54.5c-17.5,0-33.5-6.1-46.1-16.3H11.8z M214.2,291.9h111.2
		c-12.6,10.2-28.7,16.3-46.1,16.3h-54.5C221.7,302.5,218.1,297.1,214.2,291.9z"/>
	<path class="st1" d="M113,307.2c-4.5,0-8.2,3.7-8.2,8.2v251.9c0,4.5,3.7,8.2,8.2,8.2c4.5,0,8.2-3.7,8.2-8.2V315.3
		C121.2,310.8,117.5,307.2,113,307.2z"/>
</g>
</svg>
