<?xml version="1.0" encoding="utf-8"?>
<!-- Generator: Adobe Illustrator 21.0.0, SVG Export Plug-In . SVG Version: 6.00 Build 0)  -->
<svg version="1.1" id="Capa_1" xmlns="http://www.w3.org/2000/svg" xmlns:xlink="http://www.w3.org/1999/xlink" x="0px" y="0px"
	 viewBox="0 0 512 512" style="enable-background:new 0 0 512 512;" xml:space="preserve">
<style type="text/css">
	.st0{fill:#E82D3A;}
</style>
<path class="st0" d="M274.8,12C271.4,4.7,264.1,0,256,0s-15.4,4.7-18.8,12c-51.9,112.9-144,258.2-144,337.3
	C93.3,439.1,166.1,512,256,512s162.7-72.9,162.7-162.7C418.7,270.2,326.7,124.9,274.8,12z M249,460.2c-60.1,0-109-48.9-109-109
	c0-12,9.7-21.7,21.7-21.7s21.7,9.7,21.7,21.7c0,36.2,29.4,65.6,65.6,65.6c12,0,21.7,9.7,21.7,21.7C270.8,450.4,261,460.2,249,460.2z
	"/>
</svg>
