<?xml version="1.0" encoding="utf-8"?>
<!-- Generator: Adobe Illustrator 19.1.0, SVG Export Plug-In . SVG Version: 6.00 Build 0)  -->
<svg version="1.1" id="Layer_1" xmlns="http://www.w3.org/2000/svg" xmlns:xlink="http://www.w3.org/1999/xlink" x="0px" y="0px"
	 viewBox="-203.9 108.9 633.8 525.2" style="enable-background:new -203.9 108.9 633.8 525.2;" xml:space="preserve">
<style type="text/css">
	.st0{fill:#F9B233;}
	.st1{fill:#E30613;}
	.st2{fill:#86CBED;}
	.st3{fill:#FFFFFF;}
	.st4{fill:#575756;}
	.st5{fill:#1D1D1B;}
</style>
<g>
	<path class="st0" d="M335.5,131.6c-35.4,0-78.6,74-78.6,109.4s42.6,106.8,78,106.8h16l0.7-216.2H335.5z"/>
	<rect x="8.9" y="257" class="st0" width="152" height="24"/>
</g>
<circle class="st1" cx="208.9" cy="241" r="16"/>
<rect x="48.9" y="313" class="st2" width="104" height="96"/>
<polygon class="st1" points="152.9,281 48.9,281 16.9,281 16.9,313 16.9,377 -135.1,377 -135.1,409 72.9,409 56.9,377 55.7,377 
	51.2,313 152.9,313 "/>
<rect x="-135.1" y="409" class="st0" width="424.1" height="160"/>
<circle class="st1" cx="144.9" cy="481" r="24"/>
<rect x="264.9" y="409" class="st3" width="24" height="128"/>
<circle class="st4" cx="240.9" cy="569" r="56"/>
<circle class="st3" cx="240.9" cy="569" r="16"/>
<circle class="st4" cx="8.9" cy="529" r="96"/>
<circle class="st1" cx="8.9" cy="529" r="48"/>
<circle class="st3" cx="8.9" cy="529" r="24"/>
<g>
	<path class="st5" d="M8.9,584.9c-30.8,0-55.9-25.1-55.9-55.9c0-30.8,25.1-55.9,55.9-55.9s55.9,25.1,55.9,55.9S39.7,584.9,8.9,584.9
		z M8.9,488.9c-22.1,0-40.2,18-40.2,40.2s18,40.2,40.2,40.2S49,551.2,49,529C49,506.9,31,488.9,8.9,488.9z"/>
	<path class="st5" d="M8.9,560.9C-8.7,560.9-23,546.6-23,529c0-17.6,14.3-31.9,31.9-31.9s31.9,14.3,31.9,31.9
		C40.7,546.6,26.4,560.9,8.9,560.9z M8.9,512.9c-8.9,0-16.1,7.2-16.1,16.1c0,8.9,7.2,16.1,16.1,16.1S25,537.9,25,529
		C25,520.1,17.8,512.9,8.9,512.9z"/>
	<path class="st5" d="M240.9,592.9c-13.2,0-23.9-10.7-23.9-23.9c0-13.2,10.7-23.9,23.9-23.9s23.9,10.7,23.9,23.9
		C264.8,582.2,254.1,592.9,240.9,592.9z M240.9,560.9c-4.5,0-8.1,3.7-8.1,8.1c0,4.5,3.7,8.1,8.1,8.1c4.5,0,8.1-3.7,8.1-8.1
		C249.1,564.5,245.4,560.9,240.9,560.9z"/>
	<rect x="288.9" y="233.1" class="st5" width="16" height="15.7"/>
</g>
<g>
	<rect x="-15.1" y="401.1" class="st3" width="16" height="15.7"/>
	<rect x="-47.1" y="401.1" class="st3" width="16" height="15.7"/>
	<rect x="-79.1" y="401.1" class="st3" width="16" height="15.7"/>
</g>
<rect x="8.9" y="249.1" class="st5" width="152" height="15.7"/>
<g>
	
		<rect x="81.1" y="333.7" transform="matrix(0.7072 0.707 -0.707 0.7072 269.9415 38.1504)" class="st3" width="15.7" height="22.6"/>
	
		<rect x="101" y="336.7" transform="matrix(0.7071 0.7071 -0.7071 0.7071 289.9902 29.9115)" class="st3" width="15.7" height="56.6"/>
</g>
<g>
	<polygon class="st5" points="-79.3,325.7 -97.6,307.4 -108.7,318.5 -95,332.2 -95,345.1 -103.1,345.1 -103.1,360.8 -71.1,360.8 
		-71.1,345.1 -79.3,345.1 	"/>
	<polygon class="st5" points="-23.3,345.1 -23.3,325.7 -41.6,307.4 -52.7,318.5 -39,332.2 -39,345.1 -47.1,345.1 -47.1,360.8 
		-15.1,360.8 -15.1,345.1 	"/>
	<path class="st5" d="M364.8,347.3V119.1h-23.9c-37,0-87.5,78.1-91.4,114h-18.1c-3.3-9.3-12.1-16-22.5-16
		c-13.2,0-23.9,10.7-23.9,23.9c0,6.8,2.9,12.9,7.4,17.3l-31.7,126.9V273.1H9v96h-152v207.7h59.7c17.3,33.3,52.1,56,92.2,56
		s74.8-22.8,92.2-56h76.5c3.9,31.5,30.8,56,63.4,56c35.2,0,63.9-28.6,63.9-63.9c0-11.7-3.2-22.6-8.6-32h0.6V401.1h-24h-7.9h-92
		l34.1-136.4c0.6,0,1.2,0.1,1.8,0.1c10.4,0,19.3-6.7,22.5-16h18.1c3.9,35.9,54.5,114,91.4,114l48,0.4l0.1-15.7L364.8,347.3z
		 M152.5,482.9l3.4-13.7c3.1,2.9,5.1,7.1,5.1,11.8c0,8.9-7.2,16.1-16.1,16.1c-8.9,0-16.1-7.2-16.1-16.1c0-7.4,5.1-13.7,11.9-15.6
		l-3.4,13.7L152.5,482.9z M96.7,536.5l-15.5-2.7l-2.7,15.5L94,552c-1.3,4.9-3.1,9.6-5.2,14.1l-13.7-7.9l-7.9,13.6l13.6,7.9
		c-2.9,4.1-6.1,8-9.6,11.5l-10.1-12.1l-12,10.1l10.1,12.1c-4.1,2.9-8.4,5.4-13,7.5L40.9,594l-14.8,5.4l5.4,14.8
		c-4.8,1.3-9.7,2.1-14.8,2.6v-16.5H1v16.5c-5.1-0.5-10-1.3-14.8-2.6l5.4-14.8l-14.8-5.4l-5.4,14.8c-4.6-2.1-8.9-4.7-13-7.5
		l10.1-12.1l-12-10.1l-10.1,12.1c-3.5-3.5-6.7-7.4-9.6-11.5l13.6-7.9l-7.9-13.6l-13.7,7.9c-2.1-4.5-3.8-9.2-5.2-14.1l15.5-2.7
		l-2.7-15.5l-15.5,2.7c-0.2-2.5-0.3-5-0.3-7.5s0.1-5,0.3-7.5l15.5,2.7l2.7-15.5l-15.5-2.7c1.3-4.9,3.1-9.6,5.2-14.1l13.7,7.9
		l7.9-13.6l-13.6-7.9c2.9-4.1,6.1-8,9.6-11.5l10.1,12.1l12-10.1l-10.1-12.1c4.1-2.9,8.4-5.4,13-7.5l5.4,14.8l14.8-5.4l-5.4-14.8
		c4.8-1.3,9.7-2.1,14.8-2.6V457h15.7v-15.8c5.1,0.4,10,1.3,14.8,2.6l-5.4,14.8l14.8,5.4l5.4-14.8c4.6,2.1,8.9,4.7,13,7.5l-10.1,12.1
		l12,10.1l10.1-12.1c3.5,3.5,6.7,7.4,9.6,11.5l-13.6,7.9l7.9,13.6l13.7-7.9c2.1,4.5,3.8,9.2,5.2,14.1l-15.5,2.7l2.7,15.5l15.5-2.7
		c0.2,2.5,0.3,5,0.3,7.5S96.9,534,96.7,536.5z M272.8,416.9h8.3v102.6c-2.6-2.1-5.4-4-8.3-5.7V416.9z M265.4,527.6l-10,11.9l12,10.1
		l9.9-11.8c3.8,4.5,6.9,9.7,8.9,15.3l-15.3,2.7l2.7,15.5l15.3-2.7c0,0.2,0,0.3,0,0.5c0,6-1.1,11.7-3.1,16.9l-13.4-7.7l-7.9,13.6
		l13.4,7.7c-3.8,4.6-8.4,8.5-13.6,11.4l-5.3-14.5l-14.8,5.4l5.3,14.6c-2.9,0.5-5.8,0.8-8.9,0.8s-6-0.3-8.9-0.8l5.3-14.6l-14.8-5.4
		l-5.3,14.5c-5.2-2.9-9.8-6.8-13.6-11.4l13.4-7.7l-7.9-13.6l-13.4,7.7c-2-5.3-3.1-11-3.1-16.9c0-0.2,0-0.3,0-0.5l15.3,2.7l2.7-15.5
		l-15.3-2.7c2-5.7,5-10.9,8.9-15.3l9.9,11.8l12-10.1l-10-11.9c5-3,10.7-5.1,16.7-6.1V537h15.7v-15.5
		C254.8,522.5,260.4,524.6,265.4,527.6z M257.1,416.9v16.3h-24.1v15.7h24.1v24.3h-24.1v15.7h24.1v18.4c-5.2-1.3-10.6-2.1-16.1-2.1
		c-32.6,0-59.5,24.5-63.4,56h-69.9c3.3-10.1,5.1-20.9,5.1-32.2c0-57.3-46.6-103.9-103.9-103.9S-95,471.7-95,529
		c0,11.2,1.8,22,5.1,32.1h-37.4V416.9h32.2v-15.7h-32.2v-16.3h152v-96H145v16.3H41v49.5L61,401.1H16.9v15.7h136l-8.1,32.3
		c-17.5,0.1-31.7,14.3-31.7,31.9c0,17.6,14.3,31.9,31.9,31.9c17.6,0,31.9-14.3,31.9-31.9c0-12.1-6.8-22.7-16.8-28l9-36.1
		L257.1,416.9L257.1,416.9z M145,320.8v80.3h-67l-21.3-49.8v-30.5H145z M208.9,249.1c-4.5,0-8.1-3.7-8.1-8.1s3.7-8.1,8.1-8.1
		c4.5,0,8.1,3.7,8.1,8.1C217.1,245.5,213.4,249.1,208.9,249.1z M265.3,248.8h15.6v-15.7h-15.6c3.8-27.3,47.3-98.3,75.6-98.3h8.1
		v212.4l-8.1-0.1C312.6,347.1,269.2,276.1,265.3,248.8z"/>
</g>
</svg>
