<?xml version="1.0" encoding="utf-8"?>
<!-- Generator: Adobe Illustrator 21.0.0, SVG Export Plug-In . SVG Version: 6.00 Build 0)  -->
<svg version="1.1" id="Layer_1" xmlns="http://www.w3.org/2000/svg" xmlns:xlink="http://www.w3.org/1999/xlink" x="0px" y="0px"
	 viewBox="0 0 512 512" style="enable-background:new 0 0 512 512;" xml:space="preserve">
<style type="text/css">
	.st0{fill:#00A4D4;}
	.st1{fill:#00B4D7;}
	.st2{fill:#0592C2;}
	.st3{fill:#009EC5;}
	.st4{fill:#FFFFFF;}
	.st5{fill:#00ABD5;}
	.st6{fill:#E7ECED;}
	.st7{fill:#595E62;}
	.st8{fill:#AFB6BB;}
	.st9{fill:#7E8488;}
	.st10{fill:#0092CA;}
	.st11{fill:#959BA0;}
	.st12{fill:#707679;}
	.st13{fill:#99A0A4;}
	.st14{fill:#686E71;}
</style>
<g>
	<rect x="234.2" y="328.5" class="st0" width="49.6" height="84.2"/>
	<polygon class="st1" points="293.4,412.7 293.4,428 285.7,428 232.3,428 224.7,428 224.7,412.7 234.2,412.7 283.8,412.7 	"/>
	<rect x="234.2" y="328.5" class="st2" width="25.1" height="84.2"/>
	<polygon class="st3" points="234.2,412.7 224.7,412.7 224.7,428 232.3,428 259.3,428 259.3,412.7 	"/>
	<g>
		<rect x="243.8" y="373.6" class="st4" width="30.5" height="5.7"/>
		<rect x="243.8" y="387" class="st4" width="7.6" height="5.7"/>
		<rect x="255.3" y="387" class="st4" width="7.6" height="5.7"/>
		<rect x="266.7" y="387" class="st4" width="7.6" height="5.7"/>
	</g>
	<path d="M288.6,430.9h7.6v-21h-9.5v-81.4H281v81.3h-43.9v-81.3h-5.7v81.3h-9.6v21h7.6 M227.6,425.1v-9.6h62.9v9.6H227.6z
		 M235.3,430.9h47.6"/>
</g>
<g>
	<rect x="142.1" y="270" class="st5" width="108" height="54"/>
	<rect x="142.1" y="192" class="st5" width="108" height="54"/>
</g>
<g>
	<rect x="301.1" y="291" class="st6" width="30" height="60"/>
	<rect x="331.1" y="291" class="st6" width="30" height="60"/>
</g>
<rect x="274.1" y="225" class="st7" width="63" height="24"/>
<polygon class="st8" points="349.1,93 349.1,117 337.1,117 253.1,117 241.1,117 241.1,93 "/>
<g>
	<polygon class="st9" points="337.1,117 337.1,225 274.1,225 274.1,165 253.1,165 253.1,117 	"/>
	<polygon class="st9" points="388.1,249 388.1,351 361.1,351 361.1,291 331.1,291 301.1,291 301.1,351 274.1,351 274.1,249 
		337.1,249 	"/>
</g>
<path class="st8" d="M274.1,249v102h-156V129l36,33v-33l36,33v-33l36,36h27h21v60V249z M250.1,324v-54h-108v54L250.1,324L250.1,324z
	 M250.1,246v-54h-108v54H250.1z"/>
<g>
	<path class="st10" d="M162.9,192h-20.8v54h108v-13C212.4,229.2,180.5,213.7,162.9,192z"/>
	<path class="st10" d="M162.9,270h-20.8v54h108v-13C212.4,307.2,180.5,291.7,162.9,270z"/>
</g>
<polygon class="st11" points="142.1,324 142.1,270 196.1,270 196.1,246 142.1,246 142.1,192 194.4,192 194.6,133.5 190.1,129 
	190.1,162 154.1,129 154.1,162 118.1,129 118.1,351 196.1,351 196.1,324 "/>
<polygon class="st12" points="274.1,249 274.1,351 301.1,351 301.1,291 331.1,291 331.1,249 "/>
<polygon class="st13" points="295.1,93 241.1,93 241.1,117 253.1,117 295.1,117 "/>
<polygon class="st14" points="253.1,117 253.1,165 274.1,165 274.1,225 295.1,225 295.1,117 "/>
<g>
	<rect x="268.1" y="133.5" class="st4" width="54" height="9"/>
	<rect x="292.1" y="151.5" class="st4" width="30" height="9"/>
	<rect x="307.1" y="169.5" class="st4" width="15" height="9"/>
	<rect x="295.1" y="265.5" class="st4" width="36" height="9"/>
	<rect x="355.1" y="265.5" class="st4" width="12" height="9"/>
	<rect x="337.1" y="265.5" class="st4" width="12" height="9"/>
</g>
<path d="M341.6,244.5v-123h12v-33h-117v33h12v39h-20.6l-42.4-42.4v33.6l-36-33v33l-36-33v236.7h279v-111H341.6z M278.6,229.5h54v15
	h-54L278.6,229.5L278.6,229.5z M245.6,97.5h99v15h-99V97.5z M269.6,346.5h-147V139.3l36,33v-33l35.9,32.7l0.1-32.1l29.6,29.6h45.4
	L269.6,346.5L269.6,346.5z M257.6,160.5v-39h75v99h-54v-60H257.6z M305.6,346.5v-51h21v51H305.6z M356.6,346.5h-21v-51h21V346.5z
	 M383.6,346.5h-18v-60h-69v60h-18v-93h105V346.5z"/>
<path d="M137.6,250.5h117v-63h-117V250.5z M146.6,196.5h99v45h-99V196.5z"/>
<path d="M137.6,328.5h117v-63h-117V328.5z M146.6,274.5h99v45h-99V274.5z"/>
<g>
	<polygon class="st4" points="164.6,225 155.6,225 155.6,205.5 205.1,205.5 205.1,214.5 164.6,214.5 	"/>
	<rect x="214.1" y="205.5" class="st4" width="12" height="9"/>
	<polygon class="st4" points="164.6,303 155.6,303 155.6,283.5 205.1,283.5 205.1,292.5 164.6,292.5 	"/>
	<rect x="214.1" y="283.5" class="st4" width="12" height="9"/>
</g>
</svg>
