<svg xmlns="http://www.w3.org/2000/svg" viewBox="0 0 279 342.4"><defs><style>.cls-1{fill:#00a4d4;}.cls-2{fill:#00b4d7;}.cls-3{fill:#0592c2;}.cls-4{fill:#009ec5;}.cls-5{fill:#fff;}.cls-6{fill:#00abd5;}.cls-7{fill:#e7eced;}.cls-8{fill:#595e62;}.cls-9{fill:#afb6bb;}.cls-10{fill:#7e8488;}.cls-11{fill:#0092ca;}.cls-12{fill:#959ba0;}.cls-13{fill:#707679;}.cls-14{fill:#99a0a4;}.cls-15{fill:#686e71;}</style></defs><title>factory-pipe</title><g id="Calque_2" data-name="Calque 2"><g id="Layer_1" data-name="Layer 1"><rect class="cls-1" x="120.6" y="240" width="49.6" height="84.2"/><polygon class="cls-2" points="179.8 324.2 179.8 339.5 172.1 339.5 118.7 339.5 111.1 339.5 111.1 324.2 120.6 324.2 170.2 324.2 179.8 324.2"/><rect class="cls-3" x="120.6" y="240" width="25.1" height="84.2"/><polygon class="cls-4" points="120.6 324.2 111.1 324.2 111.1 339.5 118.7 339.5 145.7 339.5 145.7 324.2 120.6 324.2"/><rect class="cls-5" x="130.2" y="285.1" width="30.5" height="5.7"/><rect class="cls-5" x="130.2" y="298.5" width="7.6" height="5.7"/><rect class="cls-5" x="141.7" y="298.5" width="7.6" height="5.7"/><rect class="cls-5" x="153.1" y="298.5" width="7.6" height="5.7"/><path d="M175,342.4h7.6v-21h-9.5V240h-5.7v81.3H123.5V240h-5.7v81.3h-9.6v21h7.6m-1.8-5.7V327h62.9v9.6Zm7.7,5.8h47.6"/><rect class="cls-6" x="28.5" y="181.5" width="108" height="54"/><rect class="cls-6" x="28.5" y="103.5" width="108" height="54"/><rect class="cls-7" x="187.5" y="202.5" width="30" height="60"/><rect class="cls-7" x="217.5" y="202.5" width="30" height="60"/><rect class="cls-8" x="160.5" y="136.5" width="63" height="24"/><polygon class="cls-9" points="235.5 4.5 235.5 28.5 223.5 28.5 139.5 28.5 127.5 28.5 127.5 4.5 235.5 4.5"/><polygon class="cls-10" points="223.5 28.5 223.5 136.5 160.5 136.5 160.5 76.5 139.5 76.5 139.5 28.5 223.5 28.5"/><polygon class="cls-10" points="274.5 160.5 274.5 262.5 247.5 262.5 247.5 202.5 217.5 202.5 187.5 202.5 187.5 262.5 160.5 262.5 160.5 160.5 223.5 160.5 274.5 160.5"/><path class="cls-9" d="M160.5,160.5v102H4.5V40.5l36,33v-33l36,33v-33l36,36h48v84Zm-24,75v-54H28.5v54Zm0-78v-54H28.5v54Z"/><path class="cls-11" d="M49.3,103.5H28.5v54h108v-13C98.8,140.7,66.9,125.2,49.3,103.5Z"/><path class="cls-11" d="M49.3,181.5H28.5v54h108v-13C98.8,218.7,66.9,203.2,49.3,181.5Z"/><polygon class="cls-12" points="28.5 235.5 28.5 181.5 82.5 181.5 82.5 157.5 28.5 157.5 28.5 103.5 80.8 103.5 81 45 76.5 40.5 76.5 73.5 40.5 40.5 40.5 73.5 4.5 40.5 4.5 262.5 82.5 262.5 82.5 235.5 28.5 235.5"/><polygon class="cls-13" points="160.5 160.5 160.5 262.5 187.5 262.5 187.5 202.5 217.5 202.5 217.5 160.5 160.5 160.5"/><polygon class="cls-14" points="181.5 4.5 127.5 4.5 127.5 28.5 139.5 28.5 181.5 28.5 181.5 4.5"/><polygon class="cls-15" points="139.5 28.5 139.5 76.5 160.5 76.5 160.5 136.5 181.5 136.5 181.5 28.5 139.5 28.5"/><rect class="cls-5" x="154.5" y="45" width="54" height="9"/><rect class="cls-5" x="178.5" y="63" width="30" height="9"/><rect class="cls-5" x="193.5" y="81" width="15" height="9"/><rect class="cls-5" x="181.5" y="177" width="36" height="9"/><rect class="cls-5" x="241.5" y="177" width="12" height="9"/><rect class="cls-5" x="223.5" y="177" width="12" height="9"/><path d="M228,156V33h12V0H123V33h12V72H114.4L72,29.6V63.2l-36-33v33L0,30.2V266.9H279v-111H228Zm-63-15h54v15H165V141ZM132,9h99V24H132Zm24,249H9V50.8l36,33v-33L80.9,83.5,81,51.4,110.6,81H156V258ZM144,72V33h75v99H165V72Zm48,186V207h21v51Zm51,0H222V207h21Zm27,0H252V198H183v60H165V165H270Z"/><path d="M24,162H141V99H24Zm9-54h99v45H33Z"/><path d="M24,240H141V177H24Zm9-54h99v45H33Z"/><polygon class="cls-5" points="51 136.5 42 136.5 42 117 91.5 117 91.5 126 51 126 51 136.5"/><rect class="cls-5" x="100.5" y="117" width="12" height="9"/><polygon class="cls-5" points="51 214.5 42 214.5 42 195 91.5 195 91.5 204 51 204 51 214.5"/><rect class="cls-5" x="100.5" y="195" width="12" height="9"/></g></g></svg>