<svg width="668" height="127" viewBox="0 0 668 127" xmlns="http://www.w3.org/2000/svg"><g fill="none" fill-rule="evenodd"><path d="M171.6 46.894v-.12 5.752-5.632z"/><path fill="#A67C52" d="M159.4 85.71h12v1.213h12.8l-1.6-5.729h-11.2v-1.456h-10.3zM155.3 99.983h22.3v1.262h10.8l-1.7-5.777H166v-1.384h-9zM178.4 66.605c-2.2.122-4.4.194-6.8.194-2.3 0-4.6-.072-6.8-.194l-1.3 4.637h7.9v1.31h8.7l-1.7-5.947zM148.3 124.184H195l-3.3-11.457H166v-1.433h-14z"/><path fill="#C69C6D" d="M177.6 102.798h-23.1l-2.5 8.496h14v-1.383h24.9l-2.5-8.666h-10.8zM171.4 88.525h-12.8l-1.6 5.559h9v-1.432h19.9l-1.7-5.729h-12.8zM181.8 78.378l-1.7-5.801h-8.7v1.505h-8.7l-1.6 5.656h10.3v-1.36z"/><path d="M165.6 51.045h-5.8v2.064c3.6-.389 7.6-.607 11.8-.607v-5.753h-5.8c0-3.981-13.3-7.21-29.7-7.21H83c-6.6 0-11.9 1.311-11.9 2.889h-5.7c-.1.146-.1.316-.1.485v.971h70.9c16.2.025 29.4 3.229 29.4 7.161z" fill="#39B54A"/><path d="M260.3 39.564h-53.2c-16.4 0-29.7 3.228-29.7 7.21h-5.8v5.752c4.2 0 8.2.219 11.8.607V51.07h-5.8c0-3.933 13.2-7.137 29.4-7.137h71v-1.456h-5.8c0-1.627-5.4-2.913-11.9-2.913z" fill="#8CC63F"/><path d="M235.8 53.984h6.9v-.05h-6.9v.05zM278 53.934h-10.2l.2.024h16v-4.102l25.3 4.102h21.5c-2.8-4.102-17.5-7.233-35.1-7.233H278v7.209zM190.1 54.284c.1-.1.1-.25.2-.35h-1.1c.3.1.6.2.9.35z" fill="#39B54A"/><path d="M190.2 53.934c2.6-2.452 11.8-4.272 22.8-4.272 10.9 0 20.1 1.82 22.8 4.272h6.9V49.88l25.1 4.054H278v-7.21h-70.9c-9.8 0-17.8 1.942-17.8 4.321h-5.8v2.064c2 .218 3.9.485 5.7.8h1v.025z" fill="#39B54A"/><path d="M65.3 46.725H47.6c-17.6 0-32.3 3.13-35.1 7.233H34l25.3-4.102v4.102h16.1l.2-.024H65.4v-7.21h-.1zM100.6 53.984h6.9v-.05h-6.9v.05zM153.2 54.284c.3-.1.6-.25.9-.35H153c.1.1.2.2.2.35z" fill="#8CC63F"/><path d="M136.2 46.725H65.3v7.209h10.2l25.1-4.054v4.054h6.9c2.6-2.452 11.8-4.272 22.8-4.272 10.9 0 20.1 1.82 22.8 4.272h1.1c1.8-.316 3.7-.583 5.7-.801V51.07H154c0-2.404-8-4.345-17.8-4.345z" fill="#8CC63F"/><path d="M130.3 58.255c6.6 0 11.9-1.31 11.9-2.889h-23.9c.1 1.578 5.4 2.889 12 2.889zM118.4 55.366h23.9c0-.534-.6-1.02-1.6-1.432H120c-1.1.413-1.6.898-1.6 1.432zM130.3 52.453c-4.4 0-8.3.583-10.3 1.457h20.7c-2.1-.85-6-1.457-10.4-1.457zM213 58.255c6.6 0 11.9-1.287 11.9-2.889H201c.1 1.578 5.4 2.889 12 2.889zM201.1 55.366H225c0-.534-.6-1.02-1.6-1.432h-20.7c-1.1.413-1.6.898-1.6 1.432zM213 52.453c-4.4 0-8.3.583-10.3 1.457h20.7c-2.1-.85-6-1.457-10.4-1.457z" fill="#C7B299"/><path d="M153.8 59.663c0 2.379 8 4.32 17.8 4.32s17.8-1.941 17.8-4.32c0-2.38-8-4.321-17.8-4.321s-17.8 1.942-17.8 4.32z" fill="#998675"/><path d="M85 38.156h62.2c13.5 0 24.4 2.646 24.4 5.923v2.67c.3-4.758 16.3-8.618 36-8.618h52.9c9.6 0 17.4 1.894 17.4 4.224v.073h5.8c0-3.156-10.6-5.705-23.5-5.705H207c-12 0-22.7 1.238-30.3 3.229v-4.734h-11.6v4.418c-7.5-1.796-17.7-2.913-29-2.913H83c-13 0-23.5 2.574-23.5 5.705h5.9c1-2.403 9.4-4.272 19.6-4.272z" fill="#3F352F"/><path d="M83 39.564h53.2c16.4 0 29.7 3.228 29.7 7.21h5.8v-2.671c0-3.277-10.9-5.923-24.4-5.923H85c-10.2 0-18.6 1.893-19.6 4.297h5.7c0-1.627 5.3-2.913 11.9-2.913zM260.6 38.156h-52.9c-19.7 0-35.7 3.835-36 8.617h5.8c0-3.98 13.3-7.21 29.7-7.21h53.2c6.6 0 11.9 1.311 11.9 2.89h5.7v-.074c0-2.33-7.8-4.223-17.4-4.223zM171.5 52.526h.1v1.408h-.1zM183.5 54.687v-.753h-11.7c4.2 0 8.2.267 11.7.753zM159.8 54.687c3.5-.486 7.5-.777 11.7-.777h-11.7v.777z" fill="#3F352F"/><path d="M295.7 43.909H278v1.408h17.7c22.8 0 41.4 4.49 41.4 10.05h-29.6l-17.7-2.865v2.864h-23.6l-8.9-1.432h-8.9v1.432h-17.7c0 2.38-7.9 4.297-17.7 4.297-9.8 0-17.7-1.918-17.7-4.297h-8c4.9 1.044 8 2.598 8 4.297 0 3.18-10.6 5.729-23.6 5.729-13.1 0-23.6-2.574-23.6-5.73 0-1.723 3.1-3.252 8-4.296h-8c0 2.38-7.9 4.297-17.7 4.297-9.8 0-17.7-1.918-17.7-4.297H95v-1.432h-8.9l-8.9 1.432H53.6v-2.864l-17.7 2.864H6.4c0-5.534 18.5-10.05 41.4-10.05h17.7V43.91H47.8c-26 0-47.2 5.146-47.2 11.457v1.408h37.1l10.2-1.65v1.65h31.2l10.2-1.65v1.65h18.4c2.6 2.476 11.8 4.297 22.8 4.297 4.4 0 8.5-.292 12-.801.7 2.039 5 3.86 11.3 5.049l-16.9 58.89h-29.5V127h129.1v-2.816h-29.8l-16.9-58.89c6.3-1.189 10.6-2.985 11.3-5.049 3.5.51 7.6.801 12 .801 11 0 20.2-1.82 22.8-4.296h18.3V55.1l10.2 1.65h31.2V55.1l10.2 1.65h37.1v-1.408c0-6.287-21.2-11.433-47.2-11.433zM195.3 94.084h-3.4l2.1 7.16h1.3l5.9 10.05H197l4.2 14.347h-59.1l4.2-14.347h-4.2l5.9-10.05h1.3l2.1-7.16H148l5.3-6.384 2.3-7.962h-1.7l2.6-3.18 3.3-11.166h23.6l3.3 11.166 2.6 3.18h-1.7l2.3 7.962 5.4 6.384z" fill="#3F352F"/><path fill="#3F352F" d="M171.4 86.923v-1.214h-12l1.7-5.971h-5.5l-2.3 7.962.6-.777zM171.4 72.577v-1.311h-7.9l1.3-4.636c2.2.12 4.4.194 6.8.194 2.3 0 4.6-.073 6.8-.194l1.7 5.947h3.3l3.3 3.98-3.3-11.165h-23.6l-3.3 11.166 3.3-3.981h11.6zM177.6 99.983h-22.3l1.7-5.9h-5.6l-2.1 7.162h28.3zM166 112.727h25.7l3.3 11.457h-46.7l3.7-12.89h-5.7l-4.2 14.347h59.1l-4.2-14.347h-31zM171.4 79.738v1.456h11.2l1.6 5.729h5.2l.6.777-2.3-7.962zM166 95.468h20.7l1.7 5.777h5.6l-2.1-7.161H166z"/><path fill="#3F352F" d="M148 101.245l-5.9 10.05h4.2l3-10.05zM201.2 111.294l-5.9-10.05H194l3 10.05z"/><path fill="#3F352F" d="M190.9 109.91H166v1.384h31l-3-10.05h-5.6zM154.5 102.798h23.1v-1.553h-28.3l-3 10.05h5.7zM195.3 94.084L190 87.7l1.9 6.384zM148 94.084h3.4l1.9-6.384z"/><path fill="#3F352F" d="M158.6 88.525h12.8v-1.602h-17.5l-.6.777-1.9 6.384h5.6zM184.2 86.923l1.7 5.729H166v1.432h25.9L190 87.7l-.6-.777zM153.9 79.738h1.7l.9-3.18zM189.4 79.738l-2.7-3.18 1 3.18z"/><path fill="#3F352F" d="M162.7 74.082h8.7v-1.505h-11.6l-3.3 3.98-.9 3.18h5.5zM180.1 72.577l1.7 5.801h-10.4v1.36h16.3l-1-3.18-3.2-3.981zM171.6 53.934l.1-1.408c-4.2 0-8.2.219-11.8.607v.801h11.7zM86 53.934h8.8v-1.432zM136.2 45.317c13.1 0 23.6 2.573 23.6 5.728h5.8c0-3.932-13.2-7.136-29.4-7.136H65.3v1.408h70.9zM248.4 53.934h8.9l-8.9-1.432z"/><path d="M171.7 53.934h11.7v-.801c-3.6-.388-7.6-.607-11.8-.607l.1 1.408zM177.7 51.045h5.8c0-3.18 10.6-5.728 23.6-5.728H278v-1.408h-70.9c-16.2 0-29.4 3.204-29.4 7.136z" fill="#3F352F"/><path d="M295.7 46.725c17.6 0 32.3 3.13 35.1 7.233h-21.5L284 49.856v4.102h-16.1l-.2-.024h-10.4l8.9 1.432h23.6v-2.864l17.7 2.864H337c0-5.534-18.5-10.05-41.4-10.05H278v1.409h17.7zM242.7 53.958h-6.9v-.024h-6.1c.7.437 1 .922 1 1.432h17.7v-1.432h-5.8v.024h.1zM190.2 53.934c-.1.049-.1.121-.2.17-.3-.049-.6-.121-.9-.17h-5.7v.777c1.4.194 2.6.412 3.8.655h8c0-.51.4-.995 1-1.432h-6z" fill="#3F352F"/><path d="M183.5 51.045h5.8c0-2.379 8-4.32 17.8-4.32H278v-1.408h-70.9c-13.1 0-23.6 2.573-23.6 5.728z" fill="#3F352F"/><path d="M213 49.637c-10.9 0-20.1 1.821-22.8 4.273h6c2.4-1.675 9-2.865 16.7-2.865 7.7 0 14.3 1.19 16.7 2.865h6.1c-2.6-2.452-11.8-4.273-22.7-4.273zM189.1 53.934c-1.8-.316-3.7-.583-5.7-.801v.801h5.7zM242.7 49.856v4.078h5.7v-1.432l8.9 1.432h10.5zM159.8 53.934h-5.7c-.3.049-.6.121-.9.17-.1-.049-.1-.121-.2-.17h-6c.7.437 1 .922 1 1.432h8c1.2-.243 2.4-.485 3.8-.655v-.777zM75.3 53.958H59.2v-4.102l-25.3 4.102H12.4c2.8-4.102 17.5-7.233 35.1-7.233h17.7v-1.408H47.5c-22.8 0-41.4 4.49-41.4 10.05h29.5l17.7-2.865v2.864h23.6l8.9-1.432H75.3v.024zM107.5 53.934v.024h-6.9v-.024h-5.8v1.432h17.7c0-.51.4-.995 1-1.432h-6zM159.8 53.934v-.801c-2 .218-3.9.485-5.7.801h5.7z" fill="#3F352F"/><path d="M136.2 46.725c9.8 0 17.8 1.941 17.8 4.32h5.8c0-3.18-10.6-5.728-23.6-5.728H65.3v1.408h70.9z" fill="#3F352F"/><path d="M130.3 49.637c-10.9 0-20.1 1.821-22.8 4.273h6.1c2.4-1.675 9-2.865 16.7-2.865 7.7 0 14.3 1.19 16.7 2.865h6c-2.6-2.452-11.8-4.273-22.7-4.273zM100.6 49.856l-25.1 4.078H86l8.8-1.432v1.432h5.8zM130.3 58.255c-6.6 0-11.9-1.287-11.9-2.889h-5.8c0 2.38 7.9 4.297 17.7 4.297 9.8 0 17.7-1.918 17.7-4.297h-5.8c0 1.578-5.3 2.889-11.9 2.889zM119.9 53.934h-6.4c-.7.437-1 .922-1 1.432h5.8c.1-.534.6-1.02 1.6-1.432zM140.6 53.934c1 .413 1.6.922 1.6 1.432h5.8c0-.51-.4-.995-1-1.432h-6.4z" fill="#3F352F"/><path d="M130.3 51.045c-7.7 0-14.3 1.19-16.7 2.865h6.4c2.1-.874 5.9-1.457 10.3-1.457s8.3.583 10.3 1.457h6.4c-2.4-1.65-9-2.865-16.7-2.865zM213 58.255c-6.6 0-11.9-1.287-11.9-2.889h-5.8c0 2.38 7.9 4.297 17.7 4.297 9.8 0 17.7-1.918 17.7-4.297h-5.8c0 1.578-5.3 2.889-11.9 2.889zM202.6 53.934h-6.4c-.7.437-1 .922-1 1.432h5.8c.1-.534.6-1.02 1.6-1.432zM223.3 53.934c1 .413 1.6.922 1.6 1.432h5.8c0-.51-.4-.995-1-1.432h-6.4zM213 51.045c-7.7 0-14.3 1.19-16.7 2.865h6.4c2.1-.874 5.9-1.457 10.3-1.457s8.3.583 10.3 1.457h6.4c-2.4-1.65-9-2.865-16.7-2.865zM183.5 54.687c-3.5-.486-7.5-.777-11.7-.777h-.2c-4.3 0-8.3.291-11.7.777v.655H156c-4.9 1.044-8 2.597-8 4.297 0 3.18 10.6 5.728 23.6 5.728 13.1 0 23.6-2.573 23.6-5.728 0-1.724-3.1-3.253-8-4.297h-3.8v-.655h.1zm6 4.976c0 2.379-8 4.32-17.8 4.32s-17.8-1.941-17.8-4.32c0-2.38 8-4.321 17.8-4.321s17.8 1.942 17.8 4.32z" fill="#3F352F"/><path fill="#3F352F" d="M171.5 53.91h.1v.1h-.1zM171.6 53.934zM183.5 55.366h3.8c-1.2-.243-2.4-.485-3.8-.655v.655zM159.8 54.687a60.5 60.5 0 0 0-3.8.655h3.8v-.655z"/><g><path d="M589.2 95.543H502v-2.736h79.1l-8.1-2.736h-96.3v-2.715H614.6l-50.3-15.491H502v-2.737h53.3l-8.9-2.736h-69.8v-2.736h101.5l-87.7-24.131-87.6 24.152H459.8v2.737h-25.3l-68 20.942h93.3v2.736h-51.9L336 114.374h308.9l-55.7-18.83zM408.1 84.038l-10.4-1.573 41.4-12.755 10.4 1.573-41.4 12.755zm-32.2 26.975l-10.7-1.465 47.7-16.095 10.7 1.466-47.7 16.094z" fill="#51AA5B"/><path fill="#95E49C" d="M424.4 86.89l-10.406-7.282 8.93-12.764 10.407 7.281z"/><path fill="#B84B41" d="M479.8 117.089H501v7.175h-21.2z"/><path fill="#95E49C" d="M394.657 113.698l-10.705-6.833 10.27-16.09 10.705 6.832z"/><path d="M564.4 120.687h-12.7v3.577H539v-5.408h-12.7v5.408h-12.7v-7.175H668l-80-27.018h50.7l-76.9-23.679H604L490.4 35.086 376.8 66.414H419l-76.9 23.678h50.7l-80 26.997h154.3v7.175h-69.9V127h186.3v-2.736h-19.2v-3.577h.1zm-57 4.956h-33.9v-9.911H324.4l80-27.019h-50.1l76.9-23.678h-41.3l100.6-27.751 100.6 27.75h-41.3l76.9 23.68h-50.1l80 27.018H507.4v9.91z" fill="#3F352F"/><path fill="#3F352F" d="M564.3 120.666h.1v.1h-.1zM576.5 88.713h50.1l-76.9-23.678H591l-100.6-27.73-100.6 27.751h41.3l-76.9 23.679h50.1l-80 27.018h332.1l-79.9-27.04zm-109.3 25.661H336l71.9-24.282h51.9v-2.736h-93.4l68-20.942h25.3v-2.737h-57l87.7-24.152L578 63.677H476.5v2.737h69.8l8.9 2.736H502v2.736h62.2l50.3 15.492H476.6v2.736H573l8.1 2.736H502v2.693h87.2l55.8 18.831H467.2z"/><path d="M473.5 125.643h33.9v-9.911h-33.9v9.91zm6.3-8.554H501v7.175h-21.2v-7.175z" fill="#3F352F"/></g><g><path d="M354.8 95.536h-71.5v-2.734h64.9l-6.6-2.733h-79v-2.734h113l-41.3-15.509h-51v-2.733H327l-7.3-2.734h-57.1V63.65h83.3L274 39.47 202 63.65H248.7v2.734H228l-55.8 20.95h76.5v2.734h-42.5l-59 24.288h253.4l-45.8-18.821zM206.3 84.023l-8.5-1.577 34-12.775 8.5 1.577-34 12.775zM180 110.992l-8.8-1.472 39.1-16.113 8.8 1.472-39.1 16.113z" fill="#5DC660"/><path fill="#95E49C" d="M218.872 86.212l-8.521-5.963 8.936-12.772 8.521 5.962z"/><path fill="#B84B41" d="M265.2 117.09h17.4v7.176h-17.4z"/><path fill="#95E49C" d="M194.35 113.052l-8.766-5.596 10.281-16.107 8.767 5.595z"/><path d="M334.5 120.691h-10.4v3.602h-10.4v-5.442h-10.4v5.415h-10.4v-7.176h126.6L353.9 90.07h41.6l-63.1-23.684H367l-93.1-31.359-93.2 31.333h34.6l-63.1 23.683h41.6l-65.6 27.022h126.6v7.176h-57.3V127h152.8v-2.734h-15.8v-3.575zm-46.7 4.942H260v-9.91H137.7l65.6-27.021h-41.1l63.1-23.684h-33.9l82.5-27.757 82.5 27.757h-33.9l63.1 23.684h-41.2l65.6 27.021H287.8v9.91z" fill="#3F352F"/><path fill="#3F352F" d="M334.4 120.665h.1v.1h-.1zM344.4 88.702h41.1l-63.1-23.684h33.9l-82.4-27.757-82.5 27.757h33.9l-63.1 23.684h41.1l-65.6 27.021H410l-65.6-27.021zm-89.6 25.655H147.2l59-24.288h42.5v-2.734h-76.5l55.8-20.95h20.7v-2.734H202l71.9-24.182 71.9 24.182h-83.3v2.734h57.2l7.3 2.734h-43.7v2.734h51l41.3 15.508h-113v2.734h79l6.6 2.734h-64.9v2.733h71.5l45.7 18.847H254.8v-.052zM260 125.633h27.8v-9.91H260v9.91zm5.2-8.543h17.4v7.176h-17.4v-7.176z"/></g><g><path d="M361 16.123v-.174 7.988-7.814z"/><path fill="#A67C52" d="M344.4 69.875h16.3v1.662h17.4l-2.3-7.913h-15.1v-2.01h-14zM338.9 89.595H369v1.785h14.6l-2.2-8.011h-28.1v-1.91h-12.1zM370.2 43.433a154.717 154.717 0 0 1-18.4 0l-1.8 6.424h10.6v1.811h11.8l-2.2-8.235zM329.4 123.106h63.2l-4.5-15.85h-34.8v-1.985h-18.8z"/><path fill="#C69C6D" d="M369 93.489h-31.2l-3.3 11.782h18.8v-1.91H387l-3.4-11.98H369zM360.7 73.77h-17.4l-2.1 7.689h12.1v-1.985h27l-2.2-7.937h-17.4zM374.7 59.73l-2.2-8.062h-11.8v2.084h-11.8l-2.2 7.863h14V59.73z"/><path d="M352.9 21.903H345v2.852c4.9-.546 10.3-.843 16-.843v-7.987h-7.9c0-5.482-18-9.972-40.2-9.972H241c-8.9 0-16.2 1.786-16.2 4.018h-7.7c-.1.224-.1.447-.1.67v1.364h96c22 .025 39.9 4.44 39.9 9.898z" fill="#39B54A"/><path d="M481 6.003h-72c-22.1 0-40.2 4.465-40.2 9.971H361v7.963c5.7 0 11.1.297 16 .843v-2.853h-7.9c0-5.457 17.9-9.897 39.9-9.897h96v-2.009h-7.8c0-2.232-7.3-4.018-16.2-4.018z" fill="#8CC63F"/><path d="M447.9 25.932h9.3v-.036h-9.3v.036zM505 25.871h-13.8l.2.025h21.8v-5.655l34.2 5.655h29.1c-3.8-5.655-23.6-9.996-47.5-9.996h-24v9.971zM386 26.234c.1-.109.2-.218.2-.363h-1.5c.4.11.8.254 1.3.363z" fill="#39B54A"/><path d="M386.2 25.871c3.6-3.398 16-5.928 30.8-5.928s27.3 2.505 30.8 5.928h9.3v-5.63l34 5.63H505V15.9h-96c-13.3 0-24.2 2.679-24.2 6.003H377v2.852c2.7.298 5.3.67 7.7 1.116h1.5z" fill="#39B54A"/><path d="M217 15.925h-24c-23.9 0-43.8 4.34-47.5 9.996h29.1l34.2-5.656v5.656h21.8l.2-.025H217v-9.971zM264.8 25.932h9.3v-.036h-9.3v.036zM336.1 26.234c.4-.109.8-.218 1.2-.363h-1.5c.1.11.2.254.3.363z" fill="#8CC63F"/><path d="M313 15.925h-96v9.971h13.8l34-5.63v5.63h9.3c3.6-3.398 16-5.928 30.8-5.928s27.3 2.53 30.8 5.928h1.5c2.4-.446 5-.818 7.7-1.116v-2.853H337c.1-3.323-10.7-6.002-24-6.002z" fill="#8CC63F"/><path d="M305 31.874c8.9 0 16.2-1.786 16.2-4.018h-32.4c0 2.207 7.3 4.018 16.2 4.018z" fill="#C7B299"/><path d="M288.8 27.856h32.3c0-.72-.8-1.39-2.1-1.985h-28c-1.4.596-2.2 1.265-2.2 1.985z" fill="#C7B299"/><path d="M305 23.862c-6 0-11.2.819-14 2.034h28c-2.8-1.215-8-2.034-14-2.034zM417 31.874c8.9 0 16.2-1.786 16.2-4.018h-32.3c0 2.207 7.2 4.018 16.1 4.018z" fill="#C7B299"/><path d="M400.9 27.856h32.3c0-.72-.8-1.39-2.1-1.985h-28c-1.5.596-2.2 1.265-2.2 1.985z" fill="#C7B299"/><path d="M417 23.862c-6 0-11.2.819-14 2.034h28c-2.8-1.215-8-2.034-14-2.034z" fill="#C7B299"/><path d="M336.8 33.809c0 3.299 10.8 6.003 24.2 6.003 13.4 0 24.2-2.68 24.2-6.003 0-3.324-10.8-6.003-24.2-6.003-13.3.025-24.2 2.704-24.2 6.003z" fill="#998675"/><path d="M243.6 4.043h84.3c18.3 0 33.1 3.671 33.1 8.21v3.696c.4-6.598 22-11.906 48.7-11.906h71.7c13 0 23.6 2.63 23.6 5.854v.1h7.9c0-4.366-14.3-7.913-31.9-7.913h-72c-16.2 0-30.8 1.711-41 4.464V0h-15.7v6.127c-10.1-2.48-24-4.019-39.3-4.019h-72c-17.6 0-31.9 3.547-31.9 7.913h8c1.3-3.373 12.7-5.978 26.5-5.978z" fill="#3F352F"/><path d="M241 6.003h72c22.1 0 40.2 4.465 40.2 9.971h7.9v-3.696c0-4.539-14.8-8.21-33.1-8.21h-84.4c-13.8 0-25.2 2.604-26.5 5.953h7.7c0-2.232 7.3-4.018 16.2-4.018z" fill="#3F352F"/><path d="M481.4 4.043h-71.7c-26.7 0-48.3 5.308-48.7 11.906h7.8c0-5.481 18-9.971 40.2-9.971h72c8.9 0 16.2 1.786 16.2 4.018h7.8v-.099c0-3.225-10.5-5.854-23.6-5.854zM360.9 23.937h.1v1.935h-.1zM377 26.938V25.87h-15.9c5.8.025 11.2.397 15.9 1.067zM345 26.938c4.7-.67 10.1-1.067 15.9-1.067H345v1.067z" fill="#3F352F"/><path d="M529 12.03h-24v1.96h24c30.9 0 56 6.226 56 13.89h-40l-24-3.968v3.968h-32l-12-1.984h-12v1.984h-24c0 3.3-10.7 5.954-24 5.954s-24-2.655-24-5.954h-10.8c6.6 1.464 10.8 3.572 10.8 5.954 0 4.39-14.3 7.937-32 7.937s-32-3.547-32-7.937c0-2.382 4.2-4.49 10.8-5.954H329c0 3.3-10.7 5.954-24 5.954s-24-2.655-24-5.954h-24v-1.984h-12l-12 1.984h-32v-3.968l-24 3.968h-40c0-7.664 25.1-13.89 56-13.89h24v-1.96h-24c-35.2 0-63.9 7.094-63.9 15.85v1.96h50.2l13.8-2.282v2.282h42.2l13.8-2.307v2.282h25c3.5 3.423 16 5.953 30.9 5.953 6 0 11.5-.397 16.3-1.116 1 2.828 6.7 5.333 15.3 6.97l-22.9 81.484h-39.9V127h174.9v-3.894h-40.3l-22.9-81.484c8.6-1.662 14.4-4.142 15.3-6.97 4.8.72 10.3 1.116 16.3 1.116 14.9 0 27.4-2.53 30.9-5.953h25v-2.282l13.8 2.282H529v-2.282l13.8 2.282H593v-1.96c-.1-8.73-28.8-15.825-64-15.825zM393 81.46h-4.6l2.9 9.921h1.7l8 13.891h-5.7l5.7 19.844h-80l5.7-19.844H321l8-13.89h1.7l2.9-9.922H329l7.1-8.83 3.2-11.039H337l3.6-4.415 4.4-15.429h32l4.4 15.429 3.6 4.415h-2.3l3.2 11.038 7.1 8.83z" fill="#3F352F"/><path fill="#3F352F" d="M360.7 71.537v-1.662h-16.3l2.3-8.26h-7.4l-3.2 11.013.9-1.091zM360.7 51.668v-1.81H350l1.8-6.425a154.717 154.717 0 0 0 18.4 0l2.3 8.235h4.5l4.4 5.507-4.4-15.429h-32l-4.4 15.429 4.4-5.507h15.7zM369 89.595h-30.1l2.3-8.136h-7.6l-2.9 9.921H369zM353.3 107.255h34.8l4.5 15.85h-63.2l5.1-17.834h-7.8l-5.7 19.844h80l-5.7-19.844h-42zM360.7 61.615v2.009h15.1l2.3 7.913h6.9l.9 1.091-3.2-11.013zM353.3 83.369h28.1l2.2 8.011h7.7l-2.9-9.921h-35.1zM329 91.38l-8 13.891h5.7l4-13.89z"/><path fill="#3F352F" d="M401 105.271l-8-13.89h-1.7l4 13.89z"/><path fill="#3F352F" d="M387 103.361h-33.7v1.91h42l-4-13.89h-7.7zM337.8 93.489H369V91.38h-38.3l-4 13.891h7.8zM393 81.459l-7.1-8.83 2.5 8.83zM329 81.459h4.6l2.5-8.83z"/><path fill="#3F352F" d="M343.3 73.77h17.4v-2.233H337l-.9 1.091-2.5 8.83h7.6zM378.1 71.537l2.2 7.937h-27v1.985h35.1l-2.5-8.83-.9-1.092zM337 61.615h2.3l1.3-4.415zM385 61.615l-3.6-4.415 1.3 4.415z"/><path fill="#3F352F" d="M348.9 53.752h11.8v-2.084H345l-4.4 5.532-1.3 4.415h7.4zM372.5 51.668l2.2 8.062h-14v1.885h22l-1.3-4.415-4.4-5.532zM360.9 25.871h.1v-1.934c-5.7 0-11.1.297-16 .843v1.116h15.9v-.025zM245 25.871h12v-1.984zM313 13.965c17.7 0 32 3.547 32 7.938h7.9c0-5.457-17.9-9.898-39.9-9.898h-96v1.96h96zM465 25.871h12l-12-1.984zM361.1 25.871H377v-1.116c-4.9-.546-10.3-.843-16-.843v1.934c0 .025.1.025.1.025zM369.2 21.903h7.9c0-4.39 14.3-7.938 32-7.938h96v-1.96h-96c-22.1.025-39.9 4.44-39.9 9.898zM529 15.925c23.9 0 43.8 4.34 47.5 9.996h-29.1l-34.2-5.656v5.656h-21.8l-.2-.025H477l12 1.984h32v-3.968l24 3.968h40c0-7.664-25.1-13.89-56-13.89h-24v1.96h24v-.025zM457.2 25.92h-9.3v-.024h-8.2c.9.62 1.4 1.29 1.4 1.984h24v-1.984h-7.9v.025zM386.2 25.871c-.1.075-.2.15-.2.248-.4-.074-.8-.148-1.2-.248H377v1.067c1.8.273 3.6.57 5.2.918H393c0-.695.5-1.365 1.4-1.985h-8.2z"/><path d="M377 21.903h7.9c0-3.3 10.8-6.003 24.2-6.003h96v-1.96h-96c-17.8.025-32.1 3.597-32.1 7.963z" fill="#3F352F"/><path d="M417 19.968c-14.8 0-27.3 2.53-30.8 5.928h8.2c3.3-2.307 12.2-3.969 22.6-3.969 10.4 0 19.3 1.662 22.6 3.97h8.2c-3.5-3.424-16-5.93-30.8-5.93zM384.7 25.871c-2.4-.446-5-.818-7.7-1.116v1.116h7.7zM457.2 20.265v5.606h7.8v-1.984l12 1.984h14.2zM345 25.871h-7.7c-.4.075-.8.15-1.2.248-.1-.074-.2-.148-.2-.248h-8.2c.9.62 1.4 1.29 1.4 1.985h10.8c1.6-.348 3.3-.645 5.2-.918V25.87h-.1zM230.6 25.92h-21.8v-5.655l-34.2 5.656h-29.1c3.8-5.656 23.6-9.996 47.5-9.996h24v-1.96h-24c-30.9 0-56 6.226-56 13.89h40l24-3.968v3.969h32l12-1.985h-14.2l-.2.05zM274.2 25.871v.025h-9.3v-.025H257v1.985h24c0-.695.5-1.365 1.4-1.985h-8.2z" fill="#3F352F"/><path d="M345 25.871v-1.116c-2.7.298-5.3.67-7.7 1.116h7.7zM313 15.925c13.3 0 24.2 2.679 24.2 6.002h7.8c0-4.39-14.3-7.937-32-7.937h-96v1.96h96v-.025z" fill="#3F352F"/><path d="M305 19.968c-14.8 0-27.3 2.505-30.8 5.928h8.2c3.3-2.307 12.2-3.969 22.6-3.969 10.4 0 19.3 1.662 22.6 3.97h8.2c-3.5-3.424-16-5.93-30.8-5.93zM264.8 20.265l-34 5.606H245l12-1.984v1.984h7.8zM305 31.874c-8.9 0-16.2-1.786-16.2-4.018H281c0 3.299 10.7 5.953 24 5.953s24-2.654 24-5.953h-7.9c0 2.207-7.2 4.018-16.1 4.018z" fill="#3F352F"/><path d="M291 25.871h-8.6c-.9.62-1.4 1.29-1.4 1.985h7.8c0-.72.8-1.39 2.2-1.985zM319 25.871c1.4.596 2.1 1.265 2.1 1.985h7.9c0-.695-.5-1.365-1.4-1.985H319zM305 21.903c-10.4 0-19.3 1.661-22.6 3.968h8.6c2.8-1.215 8-2.034 14-2.034s11.2.819 14 2.034h8.6c-3.3-2.307-12.2-3.968-22.6-3.968zM417 31.874c-8.9 0-16.2-1.786-16.2-4.018H393c0 3.299 10.7 5.953 24 5.953s24-2.654 24-5.953h-7.8c0 2.207-7.3 4.018-16.2 4.018zM403 25.871h-8.6c-.9.62-1.4 1.29-1.4 1.985h7.9c0-.72.7-1.39 2.1-1.985zM431 25.871c1.4.596 2.1 1.265 2.1 1.985h7.8c0-.695-.5-1.365-1.4-1.985H431zM417 21.903c-10.4 0-19.3 1.661-22.6 3.968h8.6c2.8-1.215 8-2.034 14-2.034s11.2.819 14 2.034h8.6c-3.3-2.307-12.1-3.968-22.6-3.968zM377 26.938c-4.7-.67-10.1-1.067-15.9-1.067h-.2c-5.8 0-11.2.397-15.9 1.067v.918h-5.2c-6.6 1.463-10.8 3.572-10.8 5.953 0 4.39 14.3 7.937 32 7.937s32-3.547 32-7.937c0-2.381-4.2-4.49-10.8-5.953H377v-.918zm8.2 6.87c0 3.3-10.8 6.004-24.2 6.004-13.4 0-24.2-2.68-24.2-6.003 0-3.324 10.8-6.003 24.2-6.003 13.3.025 24.2 2.704 24.2 6.003z" fill="#3F352F"/><path fill="#3F352F" d="M360.9 25.846h.1v.1h-.1zM360.9 25.871h.1-.1zM361 25.871h.1-.1zM377 27.856h5.2c-1.6-.348-3.3-.645-5.2-.918v.918zM345 26.938c-1.8.273-3.6.57-5.2.918h5.2v-.918z"/></g></g></svg>