<?xml version="1.0" encoding="utf-8"?>
<!-- Generator: Adobe Illustrator 16.0.0, SVG Export Plug-In . SVG Version: 6.00 Build 0)  -->
<!DOCTYPE svg PUBLIC "-//W3C//DTD SVG 1.1//EN" "http://www.w3.org/Graphics/SVG/1.1/DTD/svg11.dtd">
<svg version="1.1" id="Layer_1" xmlns="http://www.w3.org/2000/svg" xmlns:xlink="http://www.w3.org/1999/xlink" x="0px" y="0px"
	 width="467.5px" height="364px" viewBox="32.5 72.5 467.5 364" enable-background="new 32.5 72.5 467.5 364" xml:space="preserve">
<g>
	<polygon fill="#A67C52" points="146.775,314.28 155.196,314.28 155.196,317.789 164.179,317.789 163.056,301.229 155.196,301.229 
		155.196,297.018 147.968,297.018 	"/>
	<polygon fill="#A67C52" points="143.898,355.544 159.547,355.544 159.547,359.193 167.126,359.193 165.933,342.491 
		151.407,342.491 151.407,338.491 145.091,338.491 	"/>
	<path fill="#A67C52" d="M155.196,276.246h6.105l-1.193-17.193"/>
	<polygon fill="#A67C52" points="138.986,425.509 171.758,425.509 169.442,392.386 151.407,392.386 151.407,388.246 
		141.583,388.246 	"/>
	<polygon fill="#C69C6D" points="159.547,363.685 143.337,363.685 141.583,388.246 151.407,388.246 151.407,384.246 
		168.881,384.246 167.126,359.193 159.547,359.193 	"/>
	<polygon fill="#C69C6D" points="155.196,322.421 146.214,322.421 145.091,338.491 151.407,338.491 151.407,334.351 
		165.372,334.351 164.179,317.789 155.196,317.789 	"/>
	<polygon fill="#C69C6D" points="162.495,293.088 161.302,276.315 155.196,276.315 155.196,280.667 149.091,280.667 
		147.968,297.018 155.196,297.018 155.196,293.088 	"/>
	<path fill="#39B54A" d="M200.39,222.491h4.842v-0.07h-4.842C200.39,222.421,200.39,222.421,200.39,222.491z"/>
	<path fill="#3F352F" d="M139.688,359.193l-8.702,66.386h-20.702v8.07h90.597v-8.141h-20.913L173.5,358.5 M166.565,297.018
		l1.614,23.018l3.79,18.456h-2.386l1.474,20.702h0.912l4.141,29.053h-2.947l2.947,41.474h-41.474l2.947-41.474h-2.947l4.14-29.053
		h0.912l1.474-20.702h-2.386l3.719-18.456l1.614-23.018"/>
	<polygon fill="#3F352F" points="155.196,317.789 155.196,314.28 146.775,314.28 147.968,297.018 144.109,297.018 142.495,320.035 
		142.916,317.789 	"/>
	<polygon fill="#3F352F" points="159.547,355.544 143.898,355.544 145.091,338.491 141.162,338.491 139.688,359.193 
		159.547,359.193 	"/>
	<polygon fill="#3F352F" points="151.407,392.386 169.442,392.386 171.758,425.509 138.986,425.509 141.583,388.246 
		137.583,388.246 134.635,429.72 176.109,429.72 173.162,388.246 151.407,388.246 	"/>
	<polygon fill="#3F352F" points="155.196,297.018 155.196,301.229 163.056,301.229 164.179,317.789 167.828,317.789 
		168.249,320.035 166.635,297.018 	"/>
	<polygon fill="#3F352F" points="138.775,359.193 134.635,388.246 137.583,388.246 139.688,359.193 	"/>
	<polygon fill="#3F352F" points="176.109,388.246 171.968,359.193 171.056,359.193 173.162,388.246 	"/>
	<polygon fill="#3F352F" points="168.881,384.246 151.407,384.246 151.407,388.246 173.162,388.246 171.056,359.193 
		167.126,359.193 	"/>
	<polygon fill="#3F352F" points="143.337,363.685 159.547,363.685 159.547,359.193 139.688,359.193 137.583,388.246 
		141.583,388.246 	"/>
	<polygon fill="#3F352F" points="171.968,338.491 168.249,320.035 169.583,338.491 	"/>
	<polygon fill="#3F352F" points="138.775,338.491 141.162,338.491 142.495,320.035 	"/>
	<polygon fill="#3F352F" points="146.214,322.421 155.196,322.421 155.196,317.789 142.916,317.789 142.495,320.035 
		141.162,338.491 145.091,338.491 	"/>
	<polygon fill="#3F352F" points="142.916,297.018 144.109,297.018 144.74,287.824 	"/>
	<polygon fill="#3F352F" points="167.828,297.018 165.933,287.824 166.635,297.018 	"/>
	<polygon fill="#3F352F" points="209.231,222.421 215.477,222.421 209.231,218.281 	"/>
</g>
<g>
	<path fill="none" d="M155.416,218.177c0-0.097,0-0.24,0-0.337l0,0v15.511l0,0V218.177z"/>
	<polygon fill="#A67C52" points="147.42,322.562 155.272,322.562 155.272,325.79 163.653,325.79 162.545,310.425 155.272,310.425 
		155.272,306.521 148.528,306.521 	"/>
	<polygon fill="#A67C52" points="144.771,360.858 159.27,360.858 159.27,364.326 166.303,364.326 165.243,348.768 151.707,348.768 
		151.707,345.058 145.878,345.058 	"/>
	<path fill="#A67C52" d="M159.848,271.213c-1.397,0.337-2.89,0.53-4.432,0.53c-1.541,0-2.986-0.193-4.431-0.53l-0.867,12.477h5.106
		v3.518h5.684L159.848,271.213z"/>
	<polygon fill="#A67C52" points="140.195,425.937 170.638,425.937 168.471,395.156 151.707,395.156 151.707,391.303 
		142.651,391.303 	"/>
	<polygon fill="#C69C6D" points="159.27,368.42 144.241,368.42 142.651,391.303 151.707,391.303 151.707,387.593 167.94,387.593 
		166.303,364.326 159.27,364.326 	"/>
	<polygon fill="#C69C6D" points="155.272,330.126 146.89,330.126 145.878,345.058 151.707,345.058 151.707,341.206 164.713,341.206 
		163.653,325.79 155.272,325.79 	"/>
	<polygon fill="#C69C6D" points="162.016,302.862 160.956,287.207 155.272,287.207 155.272,291.252 149.588,291.252 
		148.528,306.521 155.272,306.521 155.272,302.862 	"/>
	<path fill="#39B54A" d="M151.515,229.401h-3.805l0,0v5.539c2.36-1.06,4.961-1.637,7.707-1.637v-15.511h-3.805
		c0-10.646-8.67-19.365-19.364-19.365H97.612c-4.288,0-7.804,3.469-7.804,7.804h-3.709c-0.048,0.433-0.048,0.867-0.048,1.301v2.649
		h46.244C142.892,210.229,151.515,218.803,151.515,229.401z"/>
	<path fill="#8CC63F" d="M213.22,198.524h-34.682c-10.646,0-19.364,8.67-19.364,19.365h-3.758c0,0.095,0,0.241,0,0.336v15.125l0,0
		c2.746,0,5.347,0.579,7.708,1.638v-5.54h-3.806c0-10.598,8.623-19.22,19.22-19.22h46.244v-3.901h-3.758
		C221.024,201.992,217.508,198.524,213.22,198.524z"/>
	<path fill="#39B54A" d="M197.277,237.204h4.479v-0.047h-4.479C197.277,237.157,197.277,237.157,197.277,237.204z"/>
	<path fill="#39B54A" d="M224.782,237.108L224.782,237.108h-6.648l0.097,0.049h10.501v-10.983l16.473,10.983h14.019
		c-1.831-10.983-11.368-19.413-22.88-19.413h-11.561V237.108L224.782,237.108z"/>
	<path fill="#39B54A" d="M167.459,237.59c0.047-0.145,0.096-0.289,0.096-0.482h-0.722
		C167.026,237.252,167.218,237.446,167.459,237.59z"/>
	<path fill="#39B54A" d="M167.555,237.108c1.734-6.6,7.708-11.513,14.836-11.513c7.129,0,13.151,4.865,14.837,11.513h4.479v-10.935
		l16.377,10.935h6.697v-19.364h-46.244c-6.406,0-11.657,5.203-11.657,11.657h-3.757v5.539c1.3,0.579,2.553,1.302,3.709,2.168
		H167.555z"/>
	<path fill="#8CC63F" d="M86.051,217.792H74.49c-11.513,0-21.099,8.429-22.881,19.412h14.017l16.474-10.983v10.983h10.501
		l0.097-0.047h-6.648V217.792z"/>
	<path fill="#8CC63F" d="M109.076,237.204h4.48c0-0.047,0-0.047,0-0.047h-4.48V237.204z"/>
	<path fill="#8CC63F" d="M143.421,237.59c0.193-0.145,0.386-0.289,0.579-0.482h-0.723
		C143.326,237.252,143.374,237.446,143.421,237.59z"/>
	<path fill="#8CC63F" d="M132.294,217.792H86.051v19.365h6.648l16.377-10.936v10.936h4.48c1.734-6.6,7.708-11.514,14.837-11.514
		c7.129,0,13.15,4.914,14.836,11.514h0.723c1.156-0.868,2.409-1.59,3.71-2.168v-5.54l0,0h-3.806
		C143.903,222.995,138.701,217.792,132.294,217.792z"/>
	<path fill="#C7B299" d="M128.441,248.766c4.287,0,7.804-3.468,7.804-7.804h-15.607
		C120.637,245.249,124.153,248.766,128.441,248.766z"/>
	<path fill="#C7B299" d="M120.637,240.962h15.559c0-1.396-0.385-2.697-1.011-3.854h-13.488
		C121.023,238.265,120.637,239.566,120.637,240.962z"/>
	<path fill="#C7B299" d="M128.441,233.207c-2.89,0-5.395,1.59-6.744,3.951h13.488C133.836,234.797,131.332,233.207,128.441,233.207z
		"/>
	<path fill="#C7B299" d="M182.392,248.766c4.287,0,7.804-3.468,7.804-7.804h-15.559
		C174.637,245.249,178.104,248.766,182.392,248.766z"/>
	<path fill="#C7B299" d="M174.637,240.962h15.559c0-1.396-0.386-2.697-1.013-3.854h-13.487
		C174.974,238.265,174.637,239.566,174.637,240.962z"/>
	<path fill="#C7B299" d="M182.392,233.207c-2.89,0-5.395,1.59-6.744,3.951h13.488C187.787,234.797,185.282,233.207,182.392,233.207z
		"/>
	<path fill="#998675" d="M143.759,252.522c0,6.407,5.202,11.658,11.657,11.658c6.455,0,11.657-5.203,11.657-11.658
		c0-6.454-5.202-11.657-11.657-11.657C149.01,240.914,143.759,246.116,143.759,252.522z"/>
	<path fill="#3F352F" d="M98.864,194.718h40.608c8.814,0,15.943,7.129,15.943,15.945v7.177l0,0
		c0.192-12.813,10.598-23.122,23.459-23.122h34.538c6.263,0,11.369,5.107,11.369,11.369v0.192h3.806
		c0-8.477-6.889-15.366-15.368-15.366h-34.682c-7.804,0-14.836,3.324-19.75,8.671v-12.717h-7.562v11.898
		c-4.866-4.817-11.561-7.804-18.932-7.804H97.612c-8.479,0-15.367,6.888-15.367,15.367h3.854
		C86.725,199.776,92.217,194.718,98.864,194.718z"/>
	<path fill="#3F352F" d="M97.612,198.524h34.682c10.646,0,19.364,8.67,19.364,19.365h3.806v-7.178
		c0-8.815-7.129-15.944-15.945-15.944H98.864c-6.647,0-12.139,5.058-12.765,11.561h3.709
		C89.809,201.992,93.325,198.524,97.612,198.524z"/>
	<path fill="#3F352F" d="M213.414,194.718h-34.538c-12.861,0-23.267,10.309-23.459,23.122h3.758c0-10.646,8.67-19.365,19.364-19.365
		h34.682c4.288,0,7.804,3.468,7.804,7.804h3.758v-0.192C224.782,199.825,219.725,194.718,213.414,194.718z"/>
	<rect x="155.416" y="233.351" fill="#3F352F" width="0" height="3.757"/>
	<path fill="#3F352F" d="M163.124,239.179v-2.071h-7.659C158.259,237.157,160.86,237.879,163.124,239.179z"/>
	<path fill="#3F352F" d="M147.709,239.179c2.264-1.3,4.865-2.071,7.658-2.071h-7.658V239.179z"/>
	<path fill="#3F352F" d="M236.343,210.229h-11.561v3.806h11.561c14.885,0,26.974,12.091,26.974,26.976H244.05l-11.561-7.708v7.708
		h-15.414l-5.781-3.854h-5.78v3.854h-11.561l0,0l0,0c0,6.406-5.154,11.561-11.562,11.561c-6.407,0-11.561-5.154-11.561-11.561l0,0
		h-5.202c3.179,2.841,5.202,6.937,5.202,11.561c0,8.525-6.889,15.414-15.415,15.414c-8.526,0-15.414-6.889-15.414-15.414
		c0-4.624,2.023-8.719,5.203-11.561h-5.203l0,0c0,6.406-5.154,11.561-11.561,11.561s-11.561-5.154-11.561-11.561l0,0l0,0h-11.561
		v-3.854h-5.78l-5.781,3.854H78.344v-7.708l-11.561,7.708H47.515c0-14.885,12.091-26.976,26.976-26.976h11.561v-3.806H74.49
		c-16.956,0-30.781,13.776-30.781,30.781v3.805h24.182l6.647-4.431v4.431h20.328l6.647-4.479v4.43h12.042
		c1.686,6.648,7.708,11.562,14.885,11.562c2.891,0,5.54-0.771,7.852-2.168c0.482,5.491,3.227,10.356,7.37,13.535l-11.031,158.24
		h-19.221v7.563h84.25v-7.563h-19.413l-11.031-158.24c4.143-3.227,6.937-8.044,7.37-13.535c2.312,1.396,4.962,2.168,7.852,2.168
		c7.178,0,13.2-4.914,14.885-11.562h12.042v-4.43l6.647,4.43h20.329v-4.43l6.648,4.43h24.181v-3.805
		C267.124,224.005,253.299,210.229,236.343,210.229z M170.831,345.058h-2.216l1.396,19.269h0.82l3.854,26.977h-2.746l2.746,38.536
		h-38.536l2.745-38.536h-2.745l3.854-26.977h0.819l1.396-19.269h-2.216l3.419-17.147l1.542-21.436h-1.108l1.734-8.575l2.12-29.962
		h15.414l2.119,29.962l1.735,8.575h-1.108l1.542,21.436L170.831,345.058z"/>
	<polygon fill="#3F352F" points="155.272,325.79 155.272,322.562 147.42,322.562 148.528,306.521 144.964,306.521 143.421,327.91 
		143.856,325.79 	"/>
	<path fill="#3F352F" d="M155.272,287.207v-3.518h-5.155l0.867-12.477c1.397,0.337,2.891,0.53,4.431,0.53
		c1.542,0,2.987-0.193,4.432-0.53l1.108,15.994h2.167l2.119,10.692l-2.119-29.962h-15.414l-2.12,29.962l2.12-10.692H155.272
		L155.272,287.207z"/>
	<polygon fill="#3F352F" points="159.27,360.858 144.771,360.858 145.878,345.058 142.218,345.058 140.821,364.326 159.27,364.326 	
		"/>
	<polygon fill="#3F352F" points="151.707,395.156 168.471,395.156 170.638,425.937 140.195,425.937 142.651,391.303 
		138.894,391.303 136.148,429.839 174.685,429.839 171.939,391.303 151.707,391.303 	"/>
	<polygon fill="#3F352F" points="155.272,306.521 155.272,310.425 162.545,310.425 163.653,325.79 166.978,325.79 167.411,327.91 
		165.869,306.521 	"/>
	<polygon fill="#3F352F" points="151.707,348.768 165.243,348.768 166.303,364.326 170.011,364.326 168.615,345.058 
		151.707,345.058 	"/>
	<polygon fill="#3F352F" points="140.002,364.326 136.148,391.303 138.894,391.303 140.821,364.326 	"/>
	<polygon fill="#3F352F" points="174.685,391.303 170.831,364.326 170.011,364.326 171.939,391.303 	"/>
	<polygon fill="#3F352F" points="167.94,387.593 151.707,387.593 151.707,391.303 171.939,391.303 170.011,364.326 166.303,364.326 
			"/>
	<polygon fill="#3F352F" points="144.241,368.42 159.27,368.42 159.27,364.326 140.821,364.326 138.894,391.303 142.651,391.303 	
		"/>
	<polygon fill="#3F352F" points="170.831,345.058 167.411,327.91 168.615,345.058 	"/>
	<polygon fill="#3F352F" points="140.002,345.058 142.218,345.058 143.421,327.91 	"/>
	<polygon fill="#3F352F" points="146.89,330.126 155.272,330.126 155.272,325.79 143.856,325.79 143.421,327.91 142.218,345.058 
		145.878,345.058 	"/>
	<polygon fill="#3F352F" points="163.653,325.79 164.713,341.206 151.707,341.206 151.707,345.058 168.615,345.058 167.411,327.91 
		166.978,325.79 	"/>
	<polygon fill="#3F352F" points="143.856,306.521 144.964,306.521 145.59,297.947 	"/>
	<polygon fill="#3F352F" points="166.978,306.521 165.243,297.947 165.869,306.521 	"/>
	<polygon fill="#3F352F" points="149.588,291.252 155.272,291.252 155.272,287.207 147.709,287.207 145.59,297.947 144.964,306.521 
		148.528,306.521 	"/>
	<polygon fill="#3F352F" points="160.956,287.207 162.016,302.862 155.272,302.862 155.272,306.521 165.869,306.521 
		165.243,297.947 163.124,287.207 	"/>
	<path fill="#3F352F" d="M155.368,237.108h0.048v-3.757c-2.746,0-5.347,0.579-7.707,1.638v2.168h7.658V237.108z"/>
	<polygon fill="#3F352F" points="99.539,237.108 105.319,237.108 105.319,233.254 	"/>
	<path fill="#3F352F" d="M132.294,213.986c8.527,0,15.415,6.888,15.415,15.415h3.805c0-10.598-8.623-19.22-19.22-19.22H86.051v3.805
		H132.294L132.294,213.986z"/>
	<polygon fill="#3F352F" points="205.514,237.108 211.294,237.108 205.514,233.254 	"/>
	<path fill="#3F352F" d="M155.465,237.108h7.659v-2.168c-2.36-1.06-4.961-1.637-7.708-1.637l0,0v3.757
		C155.416,237.108,155.465,237.108,155.465,237.108z"/>
	<path fill="#3F352F" d="M159.367,229.401h3.804c0-8.527,6.889-15.415,15.415-15.415h46.244v-3.805h-46.244
		C167.94,210.229,159.367,218.803,159.367,229.401z"/>
	<path fill="#3F352F" d="M236.343,217.792c11.512,0,21.1,8.429,22.88,19.412h-14.019l-16.473-10.983v10.983h-10.501l-0.097-0.047
		h-6.84l5.781,3.854h15.414v-7.708l11.561,7.708h19.268c0-14.885-12.089-26.976-26.974-26.976h-11.561v3.805h11.561V217.792z"/>
	<path fill="#3F352F" d="M201.756,237.204h-4.479c0-0.047,0-0.047,0-0.047h-3.95c0.434,1.204,0.674,2.504,0.674,3.854l0,0h11.561
		v-3.854h-3.805V237.204z"/>
	<path fill="#3F352F" d="M167.555,237.108c-0.048,0.144-0.096,0.29-0.096,0.482c-0.194-0.145-0.386-0.289-0.579-0.482h-3.757v2.071
		c0.867,0.531,1.734,1.109,2.505,1.783h5.202c0-1.348,0.241-2.648,0.674-3.854H167.555z"/>
	<path fill="#3F352F" d="M163.124,229.401h3.806c0-6.407,5.202-11.657,11.656-11.657h46.244v-3.806h-46.244
		C170.011,213.986,163.124,220.923,163.124,229.401z"/>
	<path fill="#3F352F" d="M182.392,225.644c-7.128,0-13.15,4.914-14.836,11.514h3.95c1.59-4.48,5.877-7.708,10.887-7.708
		c5.01,0,9.298,3.227,10.887,7.708h3.95C195.542,230.509,189.521,225.644,182.392,225.644z"/>
	<path fill="#3F352F" d="M166.833,237.108c-1.156-0.866-2.409-1.589-3.709-2.168v2.168H166.833z"/>
	<polygon fill="#3F352F" points="201.756,226.221 201.756,237.108 205.514,237.108 205.514,233.254 211.294,237.108 
		218.134,237.108 	"/>
	<path fill="#3F352F" d="M147.709,237.108H144c-0.193,0.144-0.385,0.29-0.579,0.482c-0.047-0.145-0.096-0.289-0.096-0.482h-3.95
		c0.433,1.205,0.674,2.505,0.674,3.854h5.202c0.771-0.673,1.59-1.251,2.505-1.783v-2.071H147.709z"/>
	<path fill="#3F352F" d="M92.602,237.204H82.101v-10.983l-16.474,10.983H51.609c1.83-10.983,11.368-19.412,22.881-19.412h11.561
		v-3.806H74.49c-14.885,0-26.976,12.091-26.976,26.976h19.269l11.561-7.708v7.708h15.414l5.781-3.854h-6.84L92.602,237.204z"/>
	<path fill="#3F352F" d="M113.604,237.108v0.049h-4.479v-0.049h-3.806v3.854h11.561l0,0c0-1.348,0.241-2.648,0.674-3.854H113.604
		L113.604,237.108z"/>
	<path fill="#3F352F" d="M147.709,237.108v-2.168c-1.301,0.579-2.554,1.302-3.709,2.168H147.709z"/>
	<path fill="#3F352F" d="M132.294,217.792c6.407,0,11.657,5.203,11.657,11.658h3.758c0-8.526-6.888-15.415-15.415-15.415H86.051
		v3.805h46.244V217.792z"/>
	<path fill="#3F352F" d="M128.441,225.644c-7.129,0-13.151,4.865-14.837,11.514h3.95c1.59-4.48,5.877-7.708,10.887-7.708
		s9.296,3.227,10.887,7.708h3.95C141.592,230.509,135.57,225.644,128.441,225.644z"/>
	<polygon fill="#3F352F" points="109.076,226.221 92.699,237.108 99.539,237.108 105.319,233.254 105.319,237.108 109.076,237.108 	
		"/>
	<path fill="#3F352F" d="M128.441,248.766c-4.288,0-7.804-3.468-7.804-7.804h-3.757l0,0c0,6.406,5.154,11.561,11.561,11.561
		s11.561-5.154,11.561-11.561l0,0h-3.806C136.196,245.249,132.728,248.766,128.441,248.766z"/>
	<path fill="#3F352F" d="M121.697,237.108h-4.143c-0.433,1.205-0.674,2.505-0.674,3.854h3.757
		C120.637,239.566,121.023,238.265,121.697,237.108z"/>
	<path fill="#3F352F" d="M135.185,237.108c0.674,1.157,1.011,2.458,1.011,3.854h3.806c0-1.348-0.242-2.648-0.674-3.854H135.185
		L135.185,237.108z"/>
	<path fill="#3F352F" d="M128.441,229.401c-5.01,0-9.297,3.227-10.887,7.707h4.143c1.349-2.36,3.854-3.95,6.744-3.95
		c2.891,0,5.395,1.59,6.744,3.95h4.143C137.737,232.628,133.451,229.401,128.441,229.401z"/>
	<path fill="#3F352F" d="M182.392,248.766c-4.287,0-7.804-3.468-7.804-7.804h-3.757l0,0c0,6.406,5.154,11.561,11.561,11.561
		c6.407,0,11.562-5.154,11.562-11.561l0,0h-3.757C190.196,245.249,186.679,248.766,182.392,248.766z"/>
	<path fill="#3F352F" d="M175.648,237.108h-4.143c-0.433,1.205-0.674,2.505-0.674,3.854h3.806
		C174.637,239.566,174.974,238.265,175.648,237.108z"/>
	<path fill="#3F352F" d="M189.136,237.108c0.674,1.157,1.011,2.458,1.011,3.854h3.758c0-1.348-0.241-2.648-0.675-3.854H189.136
		L189.136,237.108z"/>
	<path fill="#3F352F" d="M182.392,229.401c-5.01,0-9.296,3.227-10.887,7.707h4.143c1.349-2.36,3.854-3.95,6.744-3.95
		c2.891,0,5.396,1.59,6.744,3.95h4.143C191.689,232.628,187.45,229.401,182.392,229.401z"/>
	<path fill="#3F352F" d="M163.124,239.179c-2.264-1.3-4.865-2.071-7.659-2.071h-0.049l0,0h-0.048c-2.793,0-5.395,0.771-7.658,2.071
		v1.783h-2.505c-3.18,2.843-5.203,6.938-5.203,11.561c0,8.527,6.888,15.415,15.414,15.415c8.526,0,15.415-6.888,15.415-15.415
		c0-4.623-2.023-8.718-5.202-11.561h-2.505V239.179z M167.073,252.522c0,6.407-5.202,11.658-11.657,11.658
		c-6.455,0-11.657-5.203-11.657-11.658c0-6.454,5.202-11.657,11.657-11.657C161.823,240.914,167.073,246.116,167.073,252.522z"/>
	<polygon fill="#3F352F" points="155.416,237.108 155.416,237.108 155.416,237.108 	"/>
	<path fill="#3F352F" d="M155.368,237.108h0.048l0,0H155.368z"/>
	<path fill="#3F352F" d="M155.416,237.108h0.049H155.416L155.416,237.108z"/>
	<path fill="#3F352F" d="M163.124,240.962h2.505c-0.771-0.673-1.59-1.251-2.505-1.783V240.962z"/>
	<path fill="#3F352F" d="M147.709,239.179c-0.868,0.531-1.735,1.109-2.505,1.783h2.505V239.179z"/>
</g>
<g>
	<path fill="#51AA5B" d="M448.39,331.193h-61.193v-8.913h55.509l-5.684-8.912h-67.58v-8.842h61.966h8.14h26.667l-35.298-50.456
		h-43.72v-8.912H424.6l-6.245-8.912h-48.982v-8.912h42.737h8.561h19.93l-61.543-78.598l-61.475,78.667h19.93h8.562h11.508v8.913
		h-17.754l-47.719,68.21h26.666h8.07h30.736v8.912h-36.42l-50.457,79.088l0,0h92.07h32.632h92.069L448.39,331.193z M321.302,293.72
		l-7.298-5.123l29.053-41.544l7.298,5.123L321.302,293.72z M298.705,381.579l-7.509-4.772l33.474-52.421l7.509,4.772
		L298.705,381.579z"/>
	
		<rect x="327.766" y="244.993" transform="matrix(0.8194 0.5733 -0.5733 0.8194 215.0023 -141.6168)" fill="#95E49C" width="8.913" height="50.74"/>
	<rect x="371.617" y="401.368" fill="#B84B41" width="14.877" height="23.369"/>
	
		<rect x="307.26" y="321.907" transform="matrix(0.8429 0.538 -0.538 0.8429 238.8685 -112.2641)" fill="#95E49C" width="8.912" height="62.173"/>
	<path fill="#3F352F" d="M430.986,413.088h-8.912v11.649h-8.912v-17.614h-8.913v17.614h-8.912v-23.369h108.351l-56.141-88h35.58
		l-53.965-77.122h29.613l-79.719-101.965l-79.72,102.035h29.614l-53.965,77.122h35.578l-56.14,87.93h108.28v23.369h-49.053v8.912
		h49.053h32.632h49.053v-8.912h-13.474v-11.649H430.986z M390.986,429.229h-23.79v-32.281H262.564l56.141-88h-35.158l53.965-77.123
		h-28.982l70.598-90.386l70.596,90.386H420.74l53.965,77.123h-35.158l56.141,88H390.986V429.229z"/>
	<polygon fill="#3F352F" points="430.986,413.088 430.986,413.088 430.986,413.088 	"/>
	<path fill="#3F352F" d="M439.477,308.947h35.158l-53.965-77.123h28.982l-70.596-90.315l-70.598,90.386h28.982l-53.965,77.123
		h35.158l-56.141,88h104.633h23.789h104.631L439.477,308.947z M362.775,392.526h-92.07l0,0l50.457-79.088h36.42v-8.912h-30.736
		h-8.141h-26.666l47.719-68.21h17.754v-8.913h-11.508h-8.562h-19.93l61.545-78.667l61.473,78.667H420.6h-8.561h-42.737v8.913h48.982
		l6.245,8.912h-37.333v8.912h43.649l35.299,50.456h-26.668h-8.14h-61.965v8.912h67.649l5.684,8.912h-55.509v8.772h61.193
		l39.157,61.333h-92.14H362.775z"/>
	<path fill="#3F352F" d="M367.196,429.229h23.79v-32.281h-23.79V429.229z M371.617,401.368h14.877v23.369h-14.877V401.368z"/>
</g>
<g>
	<path fill="#5DC660" d="M283.898,349.649h-50.176v-7.299h45.544l-4.632-7.298h-55.438v-7.299h50.808h6.666h21.824l-28.982-41.403
		h-35.789v-7.298h30.667l-5.123-7.299h-40.07v-7.228h35.088h7.018h16.351l-50.456-64.562l-50.526,64.562h16.351h7.018h9.403v7.298
		h-14.526l-39.158,55.93h21.825h6.667h25.193v7.299h-29.824l-41.404,64.842l0,0h75.509h26.807h75.509L283.898,349.649z
		 M179.688,318.912l-5.965-4.21l23.86-34.105l5.965,4.21L179.688,318.912z M161.231,390.912l-6.175-3.93l27.438-43.018l6.176,3.93
		L161.231,390.912z"/>
	
		<rect x="185.007" y="278.94" transform="matrix(0.8193 0.5733 -0.5733 0.8193 205.9407 -54.0051)" fill="#95E49C" width="7.299" height="41.615"/>
	<rect x="221.021" y="407.193" fill="#B84B41" width="12.21" height="19.157"/>
	
		<rect x="168.185" y="341.934" transform="matrix(0.8429 0.538 -0.538 0.8429 224.6897 -34.7355)" fill="#95E49C" width="7.298" height="51.016"/>
	<path fill="#3F352F" d="M269.652,416.807h-7.298v9.614h-7.298v-14.526h-7.299v14.456h-7.298v-19.157h88.842l-46.035-72.141h29.192
		l-44.28-63.229h24.28l-65.333-83.719l-65.404,83.648h24.281l-44.281,63.229h29.193l-46.035,72.141h88.842v19.157h-40.21v7.369
		h40.21h26.807h40.21v-7.299h-11.088V416.807z M236.881,430h-19.509v-26.456h-85.825l46.035-72.141H148.74l44.281-63.228h-23.79
		l57.895-74.105l57.895,74.105h-23.79l44.28,63.228H276.6l46.035,72.141h-85.754V430z"/>
	<polygon fill="#3F352F" points="269.652,416.807 269.652,416.807 269.652,416.807 	"/>
	<path fill="#3F352F" d="M276.6,331.403h28.842l-44.279-63.228h23.789l-57.825-74.105l-57.895,74.105h23.79l-44.281,63.228h28.842
		l-46.035,72.141h85.825h19.509h85.754L276.6,331.403z M213.723,399.895h-75.509l0,0l41.404-64.842h29.824v-7.299h-25.193h-6.667
		h-21.825l39.158-55.93h14.526v-7.298h-9.474h-7.018h-16.28l50.456-64.562l50.456,64.562h-16.351h-7.018h-35.087v7.298h40.14
		l5.123,7.299h-30.667v7.298h35.789l28.982,41.403H276.6h-6.666h-50.737v7.299h55.438l4.632,7.298h-45.544v7.299h50.176
		l32.07,50.315h-75.509h-26.737V399.895z"/>
	<path fill="#3F352F" d="M217.372,430h19.509v-26.456h-19.509V430z M221.021,407.193h12.21v19.157h-12.21V407.193z"/>
</g>
<g>
	<path fill="none" d="M288.249,119.965c0-0.141,0-0.351,0-0.491l0,0v22.597l0,0V119.965z"/>
	<polygon fill="#A67C52" points="276.6,272.035 288.039,272.035 288.039,276.737 300.249,276.737 298.635,254.352 288.039,254.352 
		288.039,248.666 278.214,248.666 	"/>
	<polygon fill="#A67C52" points="272.74,327.824 293.863,327.824 293.863,332.877 304.109,332.877 302.564,310.211 282.846,310.211 
		282.846,304.807 274.354,304.807 	"/>
	<path fill="#A67C52" d="M294.705,197.229c-2.035,0.49-4.211,0.771-6.456,0.771s-4.351-0.281-6.456-0.771l-1.264,18.175h7.439v5.123
		h8.28L294.705,197.229z"/>
	<polygon fill="#A67C52" points="266.074,422.632 310.425,422.632 307.267,377.789 282.846,377.789 282.846,372.176 
		269.652,372.176 	"/>
	<polygon fill="#C69C6D" points="293.863,338.842 271.969,338.842 269.652,372.176 282.846,372.176 282.846,366.771 
		306.494,366.771 304.109,332.877 293.863,332.877 	"/>
	<polygon fill="#C69C6D" points="288.039,283.053 275.828,283.053 274.354,304.807 282.846,304.807 282.846,299.193 
		301.793,299.193 300.249,276.737 288.039,276.737 	"/>
	<polygon fill="#C69C6D" points="297.863,243.334 296.319,220.526 288.039,220.526 288.039,226.421 279.758,226.421 
		278.214,248.666 288.039,248.666 288.039,243.334 	"/>
	<path fill="#39B54A" d="M282.564,136.316h-5.543l0,0v8.069c3.438-1.544,7.228-2.386,11.228-2.386v-22.597h-5.544
		c0-15.509-12.631-28.21-28.211-28.21h-50.456c-6.246,0-11.368,5.053-11.368,11.369h-5.404c-0.07,0.631-0.07,1.263-0.07,1.895v3.86
		h67.368C270.004,108.386,282.564,120.877,282.564,136.316z"/>
	<path fill="#8CC63F" d="M372.459,91.333h-50.525c-15.509,0-28.211,12.631-28.211,28.21h-5.474c0,0.14,0,0.351,0,0.491v22.035l0,0
		c4,0,7.79,0.842,11.228,2.386v-8.07h-5.543c0-15.438,12.561-28,28-28h67.368v-5.684h-5.474
		C383.828,96.386,378.705,91.333,372.459,91.333z"/>
	<path fill="#39B54A" d="M349.231,147.684h6.526v-0.069h-6.526C349.231,147.614,349.231,147.614,349.231,147.684z"/>
	<path fill="#39B54A" d="M389.302,147.544L389.302,147.544h-9.685l0.141,0.07h15.299v-16l24,16h20.42
		c-2.666-16-16.561-28.28-33.332-28.28h-16.843V147.544L389.302,147.544z"/>
	<path fill="#39B54A" d="M305.793,148.246c0.07-0.211,0.141-0.422,0.141-0.702h-1.053
		C305.162,147.754,305.441,148.035,305.793,148.246z"/>
	<path fill="#39B54A" d="M305.934,147.544c2.525-9.614,11.229-16.772,21.613-16.772c10.387,0,19.158,7.088,21.615,16.772h6.525
		v-15.93l23.859,15.93h9.755v-28.21h-67.368c-9.334,0-16.982,7.578-16.982,16.982h-5.475v8.069c1.896,0.843,3.72,1.896,5.404,3.158
		H305.934z"/>
	<path fill="#8CC63F" d="M187.196,119.403h-16.842c-16.772,0-30.737,12.28-33.333,28.28h20.421l24-16v16h15.298l0.141-0.069h-9.685
		V119.403z"/>
	<path fill="#8CC63F" d="M220.74,147.684h6.526c0-0.069,0-0.069,0-0.069h-6.526V147.684z"/>
	<path fill="#8CC63F" d="M270.775,148.246c0.281-0.211,0.562-0.422,0.842-0.702h-1.053
		C270.635,147.754,270.705,148.035,270.775,148.246z"/>
	<path fill="#8CC63F" d="M254.564,119.403h-67.368v28.211h9.685l23.859-15.931v15.931h6.526
		c2.526-9.614,11.228-16.772,21.614-16.772c10.386,0,19.158,7.158,21.613,16.772h1.053c1.685-1.263,3.51-2.315,5.404-3.158v-8.07
		l0,0h-5.544C271.477,126.982,263.898,119.403,254.564,119.403z"/>
	<path fill="#C7B299" d="M248.951,164.526c6.246,0,11.369-5.053,11.369-11.368h-22.737
		C237.583,159.403,242.705,164.526,248.951,164.526z"/>
	<path fill="#C7B299" d="M237.583,153.158h22.667c0-2.035-0.562-3.93-1.474-5.614h-19.649
		C238.144,149.229,237.583,151.123,237.583,153.158z"/>
	<path fill="#C7B299" d="M248.951,141.859c-4.21,0-7.859,2.316-9.824,5.755h19.649C256.811,144.176,253.162,141.859,248.951,141.859
		z"/>
	<path fill="#C7B299" d="M327.547,164.526c6.246,0,11.369-5.053,11.369-11.368h-22.667
		C316.249,159.403,321.302,164.526,327.547,164.526z"/>
	<path fill="#C7B299" d="M316.249,153.158h22.667c0-2.035-0.562-3.93-1.475-5.614h-19.648
		C316.74,149.229,316.249,151.123,316.249,153.158z"/>
	<path fill="#C7B299" d="M327.547,141.859c-4.21,0-7.859,2.316-9.824,5.755h19.649C335.407,144.176,331.758,141.859,327.547,141.859
		z"/>
	<path fill="#998675" d="M271.267,170c0,9.334,7.579,16.982,16.982,16.982s16.982-7.579,16.982-16.982s-7.579-16.982-16.982-16.982
		C278.916,153.088,271.267,160.666,271.267,170z"/>
	<path fill="#3F352F" d="M205.863,85.79h59.158c12.842,0,23.228,10.386,23.228,23.228v10.456l0,0
		c0.28-18.667,15.438-33.684,34.176-33.684h50.315c9.123,0,16.562,7.438,16.562,16.562v0.281h5.544
		c0-12.351-10.035-22.386-22.387-22.386h-50.525c-11.369,0-21.614,4.842-28.771,12.631V74.351h-11.018v17.333
		c-7.088-7.018-16.843-11.368-27.58-11.368h-50.526c-12.351,0-22.386,10.035-22.386,22.386h5.614
		C188.179,93.158,196.179,85.79,205.863,85.79z"/>
	<path fill="#3F352F" d="M204.039,91.333h50.526c15.51,0,28.211,12.631,28.211,28.21h5.544v-10.456
		c0-12.842-10.386-23.228-23.228-23.228h-59.229c-9.685,0-17.685,7.368-18.597,16.842h5.404
		C192.67,96.386,197.793,91.333,204.039,91.333z"/>
	<path fill="#3F352F" d="M372.74,85.79h-50.315c-18.737,0-33.896,15.018-34.176,33.684h5.474c0-15.509,12.632-28.21,28.211-28.21
		h50.525c6.246,0,11.369,5.053,11.369,11.369h5.474v-0.281C389.302,93.228,381.934,85.79,372.74,85.79z"/>
	<rect x="288.249" y="142.07" fill="#3F352F" width="0" height="5.474"/>
	<path fill="#3F352F" d="M299.477,150.562v-3.018h-11.157C292.39,147.614,296.179,148.666,299.477,150.562z"/>
	<path fill="#3F352F" d="M277.021,150.562c3.298-1.896,7.088-3.018,11.157-3.018h-11.157V150.562z"/>
	<path fill="#3F352F" d="M406.145,108.386h-16.843v5.544h16.843c21.684,0,39.297,17.614,39.297,39.299h-28.069L400.529,142v11.229
		h-22.455l-8.422-5.614h-8.421v5.614H344.39l0,0l0,0c0,9.333-7.509,16.842-16.843,16.842c-9.333,0-16.842-7.509-16.842-16.842l0,0
		h-7.578c4.631,4.14,7.578,10.105,7.578,16.842c0,12.421-10.035,22.456-22.456,22.456s-22.456-10.035-22.456-22.456
		c0-6.736,2.947-12.702,7.579-16.842h-7.579l0,0c0,9.333-7.509,16.842-16.842,16.842c-9.333,0-16.842-7.509-16.842-16.842l0,0l0,0
		h-16.842v-5.614h-8.421l-8.421,5.614h-22.457V142l-16.842,11.229h-28.07c0-21.685,17.614-39.299,39.298-39.299h16.842v-5.544
		h-16.842c-24.702,0-44.842,20.07-44.842,44.843v5.543h35.228l9.685-6.455v6.455h29.614l9.684-6.525v6.455h17.544
		c2.456,9.685,11.228,16.843,21.684,16.843c4.211,0,8.071-1.123,11.439-3.158c0.702,8,4.702,15.088,10.737,19.72l-16.07,230.526h-28
		v11.018h122.737v-11.018h-28.281l-16.07-230.526c6.035-4.702,10.105-11.72,10.737-19.72c3.368,2.035,7.229,3.158,11.438,3.158
		c10.457,0,19.229-7.158,21.685-16.843h17.544v-6.455l9.684,6.455h29.615v-6.455l9.684,6.455h35.229v-5.543
		C450.986,128.456,430.846,108.386,406.145,108.386z M310.705,304.807h-3.229l2.035,28.07h1.193l5.614,39.299h-4l4,56.14h-56.141
		l4-56.14h-4l5.614-39.299h1.193l2.035-28.07h-3.229l4.982-24.982l2.246-31.228h-1.614l2.526-12.491l3.088-43.649h22.455
		l3.088,43.649l2.527,12.491h-1.615l2.246,31.228L310.705,304.807z"/>
	<polygon fill="#3F352F" points="288.039,276.737 288.039,272.035 276.6,272.035 278.214,248.666 273.021,248.666 270.775,279.824 
		271.407,276.737 	"/>
	<path fill="#3F352F" d="M288.039,220.526v-5.123h-7.51l1.264-18.175c2.035,0.49,4.211,0.771,6.456,0.771s4.351-0.281,6.456-0.771
		l1.614,23.298h3.157l3.088,15.579l-3.088-43.649h-22.455l-3.088,43.649l3.088-15.579H288.039L288.039,220.526z"/>
	<polygon fill="#3F352F" points="293.863,327.824 272.74,327.824 274.354,304.807 269.021,304.807 266.986,332.877 293.863,332.877 
			"/>
	<polygon fill="#3F352F" points="282.846,377.789 307.267,377.789 310.425,422.632 266.074,422.632 269.652,372.176 
		264.179,372.176 260.179,428.315 316.319,428.315 312.319,372.176 282.846,372.176 	"/>
	<polygon fill="#3F352F" points="288.039,248.666 288.039,254.352 298.635,254.352 300.249,276.737 305.092,276.737 
		305.723,279.824 303.477,248.666 	"/>
	<polygon fill="#3F352F" points="282.846,310.211 302.564,310.211 304.109,332.877 309.512,332.877 307.477,304.807 
		282.846,304.807 	"/>
	<polygon fill="#3F352F" points="265.793,332.877 260.179,372.176 264.179,372.176 266.986,332.877 	"/>
	<polygon fill="#3F352F" points="316.319,372.176 310.705,332.877 309.512,332.877 312.319,372.176 	"/>
	<polygon fill="#3F352F" points="306.494,366.771 282.846,366.771 282.846,372.176 312.319,372.176 309.512,332.877 
		304.109,332.877 	"/>
	<polygon fill="#3F352F" points="271.969,338.842 293.863,338.842 293.863,332.877 266.986,332.877 264.179,372.176 
		269.652,372.176 	"/>
	<polygon fill="#3F352F" points="310.705,304.807 305.723,279.824 307.477,304.807 	"/>
	<polygon fill="#3F352F" points="265.793,304.807 269.021,304.807 270.775,279.824 	"/>
	<polygon fill="#3F352F" points="275.828,283.053 288.039,283.053 288.039,276.737 271.407,276.737 270.775,279.824 
		269.021,304.807 274.354,304.807 	"/>
	<polygon fill="#3F352F" points="300.249,276.737 301.793,299.193 282.846,299.193 282.846,304.807 307.477,304.807 
		305.723,279.824 305.092,276.737 	"/>
	<polygon fill="#3F352F" points="271.407,248.666 273.021,248.666 273.934,236.176 	"/>
	<polygon fill="#3F352F" points="305.092,248.666 302.564,236.176 303.477,248.666 	"/>
	<polygon fill="#3F352F" points="279.758,226.421 288.039,226.421 288.039,220.526 277.021,220.526 273.934,236.176 
		273.021,248.666 278.214,248.666 	"/>
	<polygon fill="#3F352F" points="296.319,220.526 297.863,243.334 288.039,243.334 288.039,248.666 303.477,248.666 
		302.564,236.176 299.477,220.526 	"/>
	<path fill="#3F352F" d="M288.179,147.544h0.07v-5.474c-4,0-7.79,0.842-11.228,2.386v3.158h11.157V147.544z"/>
	<polygon fill="#3F352F" points="206.846,147.544 215.267,147.544 215.267,141.93 	"/>
	<path fill="#3F352F" d="M254.564,113.859c12.422,0,22.457,10.035,22.457,22.457h5.543c0-15.439-12.561-28-28-28h-67.368v5.543
		H254.564L254.564,113.859z"/>
	<polygon fill="#3F352F" points="361.231,147.544 369.652,147.544 361.231,141.93 	"/>
	<path fill="#3F352F" d="M288.319,147.544h11.157v-3.158c-3.438-1.544-7.228-2.386-11.228-2.386l0,0v5.474
		C288.249,147.544,288.319,147.544,288.319,147.544z"/>
	<path fill="#3F352F" d="M294.004,136.316h5.543c0-12.422,10.035-22.457,22.457-22.457h67.368v-5.543h-67.368
		C306.494,108.386,294.004,120.877,294.004,136.316z"/>
	<path fill="#3F352F" d="M406.145,119.403c16.771,0,30.736,12.28,33.332,28.28h-20.42l-24-16v16h-15.299l-0.141-0.069h-9.965
		l8.422,5.614h22.455V142l16.843,11.229h28.069c0-21.685-17.613-39.299-39.297-39.299h-16.843v5.544h16.843V119.403z"/>
	<path fill="#3F352F" d="M355.758,147.684h-6.526c0-0.069,0-0.069,0-0.069h-5.755c0.633,1.754,0.982,3.649,0.982,5.614l0,0h16.843
		v-5.614h-5.544V147.684z"/>
	<path fill="#3F352F" d="M305.934,147.544c-0.07,0.21-0.141,0.421-0.141,0.702c-0.281-0.211-0.562-0.422-0.842-0.702h-5.475v3.018
		c1.264,0.772,2.527,1.614,3.65,2.597h7.578c0-1.965,0.352-3.859,0.982-5.614H305.934z"/>
	<path fill="#3F352F" d="M299.477,136.316h5.545c0-9.334,7.578-16.982,16.982-16.982h67.368v-5.545h-67.368
		C309.512,113.859,299.477,123.965,299.477,136.316z"/>
	<path fill="#3F352F" d="M327.547,130.842c-10.385,0-19.157,7.158-21.613,16.772h5.754c2.316-6.526,8.562-11.229,15.859-11.229
		c7.299,0,13.545,4.702,15.86,11.229h5.755C346.705,137.93,337.934,130.842,327.547,130.842z"/>
	<path fill="#3F352F" d="M304.881,147.544c-1.685-1.263-3.509-2.315-5.404-3.158v3.158H304.881z"/>
	<polygon fill="#3F352F" points="355.758,131.684 355.758,147.544 361.231,147.544 361.231,141.93 369.652,147.544 379.617,147.544 
			"/>
	<path fill="#3F352F" d="M277.021,147.544h-5.404c-0.28,0.21-0.561,0.421-0.842,0.702c-0.07-0.211-0.141-0.422-0.141-0.702h-5.754
		c0.631,1.755,0.982,3.649,0.982,5.614h7.578c1.123-0.982,2.316-1.824,3.65-2.597v-3.018H277.021z"/>
	<path fill="#3F352F" d="M196.74,147.684h-15.298v-16l-24,16h-20.421c2.667-16,16.562-28.28,33.333-28.28h16.842v-5.544h-16.842
		c-21.684,0-39.298,17.614-39.298,39.299h28.07l16.842-11.229v11.229h22.457l8.421-5.614h-9.965L196.74,147.684z"/>
	<path fill="#3F352F" d="M227.337,147.544v0.07h-6.526v-0.07h-5.544v5.614h16.842l0,0c0-1.965,0.351-3.859,0.982-5.614H227.337
		L227.337,147.544z"/>
	<path fill="#3F352F" d="M277.021,147.544v-3.158c-1.895,0.843-3.72,1.896-5.404,3.158H277.021z"/>
	<path fill="#3F352F" d="M254.564,119.403c9.334,0,16.982,7.579,16.982,16.982h5.475c0-12.421-10.035-22.456-22.457-22.456h-67.368
		v5.544h67.368V119.403z"/>
	<path fill="#3F352F" d="M248.951,130.842c-10.386,0-19.158,7.088-21.614,16.772h5.754c2.316-6.526,8.562-11.229,15.859-11.229
		c7.298,0,13.543,4.702,15.86,11.229h5.754C268.109,137.93,259.337,130.842,248.951,130.842z"/>
	<polygon fill="#3F352F" points="220.74,131.684 196.881,147.544 206.846,147.544 215.267,141.93 215.267,147.544 220.74,147.544 	
		"/>
	<path fill="#3F352F" d="M248.951,164.526c-6.246,0-11.368-5.053-11.368-11.368h-5.474l0,0c0,9.333,7.509,16.842,16.842,16.842
		c9.333,0,16.842-7.509,16.842-16.842l0,0h-5.544C260.249,159.403,255.196,164.526,248.951,164.526z"/>
	<path fill="#3F352F" d="M239.126,147.544h-6.035c-0.632,1.755-0.982,3.649-0.982,5.614h5.474
		C237.583,151.123,238.144,149.229,239.126,147.544z"/>
	<path fill="#3F352F" d="M258.775,147.544c0.982,1.685,1.474,3.579,1.474,5.614h5.544c0-1.965-0.352-3.859-0.982-5.614H258.775
		L258.775,147.544z"/>
	<path fill="#3F352F" d="M248.951,136.316c-7.298,0-13.543,4.701-15.859,11.228h6.035c1.965-3.438,5.614-5.755,9.824-5.755
		c4.211,0,7.86,2.316,9.825,5.755h6.035C262.494,141.018,256.249,136.316,248.951,136.316z"/>
	<path fill="#3F352F" d="M327.547,164.526c-6.245,0-11.368-5.053-11.368-11.368h-5.474l0,0c0,9.333,7.509,16.842,16.842,16.842
		c9.334,0,16.843-7.509,16.843-16.842l0,0h-5.474C338.916,159.403,333.793,164.526,327.547,164.526z"/>
	<path fill="#3F352F" d="M317.723,147.544h-6.035c-0.631,1.755-0.982,3.649-0.982,5.614h5.544
		C316.249,151.123,316.74,149.229,317.723,147.544z"/>
	<path fill="#3F352F" d="M337.372,147.544c0.982,1.685,1.474,3.579,1.474,5.614h5.474c0-1.965-0.351-3.859-0.982-5.614H337.372
		L337.372,147.544z"/>
	<path fill="#3F352F" d="M327.547,136.316c-7.298,0-13.543,4.701-15.859,11.228h6.035c1.965-3.438,5.614-5.755,9.824-5.755
		c4.211,0,7.86,2.316,9.825,5.755h6.035C341.092,141.018,334.916,136.316,327.547,136.316z"/>
	<path fill="#3F352F" d="M299.477,150.562c-3.298-1.896-7.087-3.018-11.157-3.018h-0.07l0,0h-0.07
		c-4.069,0-7.859,1.122-11.157,3.018v2.597h-3.649c-4.632,4.141-7.579,10.105-7.579,16.842c0,12.421,10.035,22.456,22.456,22.456
		s22.456-10.035,22.456-22.456c0-6.736-2.947-12.701-7.578-16.842h-3.65V150.562z M305.231,170c0,9.334-7.579,16.982-16.982,16.982
		s-16.982-7.579-16.982-16.982s7.579-16.982,16.982-16.982C297.582,153.088,305.231,160.666,305.231,170z"/>
	<polygon fill="#3F352F" points="288.249,147.544 288.249,147.544 288.249,147.544 	"/>
	<path fill="#3F352F" d="M288.179,147.544h0.07l0,0H288.179z"/>
	<path fill="#3F352F" d="M288.249,147.544h0.07H288.249L288.249,147.544z"/>
	<path fill="#3F352F" d="M299.477,153.158h3.65c-1.123-0.982-2.316-1.824-3.65-2.597V153.158z"/>
	<path fill="#3F352F" d="M277.021,150.562c-1.264,0.772-2.527,1.614-3.649,2.597h3.649V150.562z"/>
</g>
</svg>
