<svg width="668" height="427" viewBox="0 0 668 427" xmlns="http://www.w3.org/2000/svg"><g fill="none" fill-rule="evenodd"><path d="M171.6 97v-.5 23.7V97z"/><path fill="#A67C52" d="M159.4 256.9h12v5h12.8l-1.6-23.6h-11.2v-6h-10.3zM155.3 315.7h22.3v5.2h10.8l-1.7-23.8H166v-5.7h-9zM178.4 178.2c-2.2.5-4.4.8-6.8.8-2.3 0-4.6-.3-6.8-.8l-1.3 19.1h7.9v5.4h8.7l-1.7-24.5zM148.3 415.4H195l-3.3-47.2H166v-5.9h-14z"/><path fill="#C69C6D" d="M177.6 327.3h-23.1l-2.5 35h14v-5.7h24.9l-2.5-35.7h-10.8zM171.4 268.5h-12.8l-1.6 22.9h9v-5.9h19.9l-1.7-23.6h-12.8zM181.8 226.7l-1.7-23.9h-8.7v6.2h-8.7l-1.6 23.3h10.3v-5.6z"/><path d="M165.6 114.1h-5.8v8.5c3.6-1.6 7.6-2.5 11.8-2.5V96.4h-5.8c0-16.4-13.3-29.7-29.7-29.7H83c-6.6 0-11.9 5.4-11.9 11.9h-5.7c-.1.6-.1 1.3-.1 2v4h70.9c16.2.1 29.4 13.3 29.4 29.5z" fill="#39B54A"/><path d="M260.3 66.8h-53.2c-16.4 0-29.7 13.3-29.7 29.7h-5.8v23.7c4.2 0 8.2.9 11.8 2.5v-8.5h-5.8c0-16.2 13.2-29.4 29.4-29.4h71v-6h-5.8c0-6.7-5.4-12-11.9-12z" fill="#8CC63F"/><path d="M235.8 126.1h6.9v-.1h-6.9v.1zM278 126h-10.2l.2.1h16v-16.9l25.3 16.9h21.5c-2.8-16.9-17.5-29.8-35.1-29.8H278V126zM190.1 126.7c.1-.2.1-.5.2-.7h-1.1c.3.2.6.4.9.7z" fill="#39B54A"/><path d="M190.2 126c2.6-10.1 11.8-17.6 22.8-17.6 10.9 0 20.1 7.5 22.8 17.6h6.9v-16.7l25.1 16.7H278V96.3h-70.9c-9.8 0-17.8 8-17.8 17.8h-5.8v8.5c2 .9 3.9 2 5.7 3.3h1v.1z" fill="#39B54A"/><path d="M65.3 96.3H47.6c-17.6 0-32.3 12.9-35.1 29.8H34l25.3-16.9v16.9h16.1l.2-.1H65.4V96.3h-.1zM100.6 126.1h6.9v-.1h-6.9v.1zM153.2 126.7c.3-.2.6-.5.9-.7H153c.1.2.2.4.2.7z" fill="#8CC63F"/><path d="M136.2 96.3H65.3V126h10.2l25.1-16.7V126h6.9c2.6-10.1 11.8-17.6 22.8-17.6 10.9 0 20.1 7.5 22.8 17.6h1.1c1.8-1.3 3.7-2.4 5.7-3.3v-8.5H154c0-9.9-8-17.9-17.8-17.9z" fill="#8CC63F"/><path d="M130.3 143.8c6.6 0 11.9-5.4 11.9-11.9h-23.9c.1 6.5 5.4 11.9 12 11.9zM118.4 131.9h23.9c0-2.2-.6-4.2-1.6-5.9H120c-1.1 1.7-1.6 3.7-1.6 5.9zM130.3 119.9c-4.4 0-8.3 2.4-10.3 6h20.7c-2.1-3.5-6-6-10.4-6zM213 143.8c6.6 0 11.9-5.3 11.9-11.9H201c.1 6.5 5.4 11.9 12 11.9zM201.1 131.9H225c0-2.2-.6-4.2-1.6-5.9h-20.7c-1.1 1.7-1.6 3.7-1.6 5.9zM213 119.9c-4.4 0-8.3 2.4-10.3 6h20.7c-2.1-3.5-6-6-10.4-6z" fill="#C7B299"/><path d="M153.8 149.6c0 9.8 8 17.8 17.8 17.8s17.8-8 17.8-17.8-8-17.8-17.8-17.8-17.8 8-17.8 17.8z" fill="#998675"/><path d="M85 61h62.2c13.5 0 24.4 10.9 24.4 24.4v11c.3-19.6 16.3-35.5 36-35.5h52.9c9.6 0 17.4 7.8 17.4 17.4v.3h5.8c0-13-10.6-23.5-23.5-23.5H207c-12 0-22.7 5.1-30.3 13.3V48.9h-11.6v18.2c-7.5-7.4-17.7-12-29-12H83c-13 0-23.5 10.6-23.5 23.5h5.9C66.4 68.7 74.8 61 85 61z" fill="#3F352F"/><path d="M83 66.8h53.2c16.4 0 29.7 13.3 29.7 29.7h5.8v-11c0-13.5-10.9-24.4-24.4-24.4H85c-10.2 0-18.6 7.8-19.6 17.7h5.7c0-6.7 5.3-12 11.9-12zM260.6 61h-52.9c-19.7 0-35.7 15.8-36 35.5h5.8c0-16.4 13.3-29.7 29.7-29.7h53.2c6.6 0 11.9 5.4 11.9 11.9h5.7v-.3c0-9.6-7.8-17.4-17.4-17.4zM171.6 120.2h-.1v5.8h.1zM183.5 129.1V126h-11.7c4.2 0 8.2 1.1 11.7 3.1zM159.8 129.1c3.5-2 7.5-3.2 11.7-3.2h-11.7v3.2z" fill="#3F352F"/><path d="M295.7 84.7H278v5.8h17.7c22.8 0 41.4 18.5 41.4 41.4h-29.6l-17.7-11.8v11.8h-23.6l-8.9-5.9h-8.9v5.9h-17.7c0 9.8-7.9 17.7-17.7 17.7-9.8 0-17.7-7.9-17.7-17.7h-8c4.9 4.3 8 10.7 8 17.7 0 13.1-10.6 23.6-23.6 23.6-13.1 0-23.6-10.6-23.6-23.6 0-7.1 3.1-13.4 8-17.7h-8c0 9.8-7.9 17.7-17.7 17.7-9.8 0-17.7-7.9-17.7-17.7H95V126h-8.9l-8.9 5.9H53.6v-11.8l-17.7 11.8H6.4c0-22.8 18.5-41.4 41.4-41.4h17.7v-5.8H47.8c-26 0-47.2 21.2-47.2 47.2v5.8h37.1l10.2-6.8v6.8h31.2l10.2-6.8v6.8h18.4c2.6 10.2 11.8 17.7 22.8 17.7 4.4 0 8.5-1.2 12-3.3.7 8.4 5 15.9 11.3 20.8l-16.9 242.6h-29.5V427h129.1v-11.6h-29.8l-16.9-242.6c6.3-4.9 10.6-12.3 11.3-20.8 3.5 2.1 7.6 3.3 12 3.3 11 0 20.2-7.5 22.8-17.7h18.3v-6.8l10.2 6.8h31.2v-6.8l10.2 6.8h37.1v-5.8c0-25.9-21.2-47.1-47.2-47.1zM195.3 291.4h-3.4l2.1 29.5h1.3l5.9 41.4H197l4.2 59.1h-59.1l4.2-59.1h-4.2l5.9-41.4h1.3l2.1-29.5H148l5.3-26.3 2.3-32.8h-1.7l2.6-13.1 3.3-46h23.6l3.3 46 2.6 13.1h-1.7l2.3 32.8 5.4 26.3z" fill="#3F352F"/><path fill="#3F352F" d="M171.4 261.9v-5h-12l1.7-24.6h-5.5l-2.3 32.8.6-3.2zM171.4 202.8v-5.4h-7.9l1.3-19.1c2.2.5 4.4.8 6.8.8 2.3 0 4.6-.3 6.8-.8l1.7 24.5h3.3l3.3 16.4-3.3-46h-23.6l-3.3 46 3.3-16.4h11.6zM177.6 315.7h-22.3l1.7-24.3h-5.6l-2.1 29.5h28.3zM166 368.2h25.7l3.3 47.2h-46.7l3.7-53.1h-5.7l-4.2 59.1h59.1l-4.2-59.1h-31zM171.4 232.3v6h11.2l1.6 23.6h5.2l.6 3.2-2.3-32.8zM166 297.1h20.7l1.7 23.8h5.6l-2.1-29.5H166zM148 320.9l-5.9 41.4h4.2l3-41.4z"/><path fill="#3F352F" d="M201.2 362.3l-5.9-41.4H194l3 41.4z"/><path fill="#3F352F" d="M190.9 356.6H166v5.7h31l-3-41.4h-5.6zM154.5 327.3h23.1v-6.4h-28.3l-3 41.4h5.7zM195.3 291.4l-5.3-26.3 1.9 26.3zM148 291.4h3.4l1.9-26.3z"/><path fill="#3F352F" d="M158.6 268.5h12.8v-6.6h-17.5l-.6 3.2-1.9 26.3h5.6zM184.2 261.9l1.7 23.6H166v5.9h25.9l-1.9-26.3-.6-3.2zM153.9 232.3h1.7l.9-13.1zM189.4 232.3l-2.7-13.1 1 13.1z"/><path fill="#3F352F" d="M162.7 209h8.7v-6.2h-11.6l-3.3 16.4-.9 13.1h5.5zM180.1 202.8l1.7 23.9h-10.4v5.6h16.3l-1-13.1-3.2-16.4zM171.6 126l.1-5.8c-4.2 0-8.2.9-11.8 2.5v3.3h11.7zM86 126h8.8v-5.9zM136.2 90.5c13.1 0 23.6 10.6 23.6 23.6h5.8c0-16.2-13.2-29.4-29.4-29.4H65.3v5.8h70.9zM248.4 126h8.9l-8.9-5.9z"/><path d="M171.7 126h11.7v-3.3c-3.6-1.6-7.6-2.5-11.8-2.5l.1 5.8zM177.7 114.1h5.8c0-13.1 10.6-23.6 23.6-23.6H278v-5.8h-70.9c-16.2 0-29.4 13.2-29.4 29.4zM295.7 96.3c17.6 0 32.3 12.9 35.1 29.8h-21.5L284 109.2v16.9h-16.1l-.2-.1h-10.4l8.9 5.9h23.6v-11.8l17.7 11.8H337c0-22.8-18.5-41.4-41.4-41.4H278v5.8h17.7zM242.7 126.1h-6.9v-.1h-6.1c.7 1.8 1 3.8 1 5.9h17.7V126h-5.8v.1h.1zM190.2 126c-.1.2-.1.5-.2.7-.3-.2-.6-.5-.9-.7h-5.7v3.2c1.4.8 2.6 1.7 3.8 2.7h8c0-2.1.4-4.1 1-5.9h-6z" fill="#3F352F"/><path d="M183.5 114.1h5.8c0-9.8 8-17.8 17.8-17.8H278v-5.8h-70.9c-13.1 0-23.6 10.6-23.6 23.6z" fill="#3F352F"/><path d="M213 108.3c-10.9 0-20.1 7.5-22.8 17.6h6c2.4-6.9 9-11.8 16.7-11.8 7.7 0 14.3 4.9 16.7 11.8h6.1c-2.6-10.1-11.8-17.6-22.7-17.6zM189.1 126c-1.8-1.3-3.7-2.4-5.7-3.3v3.3h5.7zM242.7 109.2V126h5.7v-5.9l8.9 5.9h10.5zM159.8 126h-5.7c-.3.2-.6.5-.9.7-.1-.2-.1-.5-.2-.7h-6c.7 1.8 1 3.8 1 5.9h8c1.2-1 2.4-2 3.8-2.7V126zM75.3 126.1H59.2v-16.9l-25.3 16.9H12.4c2.8-16.9 17.5-29.8 35.1-29.8h17.7v-5.8H47.5c-22.8 0-41.4 18.5-41.4 41.4h29.5l17.7-11.8v11.8h23.6l8.9-5.9H75.3v.1zM107.5 126v.1h-6.9v-.1h-5.8v5.9h17.7c0-2.1.4-4.1 1-5.9h-6zM159.8 126v-3.3c-2 .9-3.9 2-5.7 3.3h5.7z" fill="#3F352F"/><path d="M136.2 96.3c9.8 0 17.8 8 17.8 17.8h5.8c0-13.1-10.6-23.6-23.6-23.6H65.3v5.8h70.9z" fill="#3F352F"/><path d="M130.3 108.3c-10.9 0-20.1 7.5-22.8 17.6h6.1c2.4-6.9 9-11.8 16.7-11.8 7.7 0 14.3 4.9 16.7 11.8h6c-2.6-10.1-11.8-17.6-22.7-17.6zM100.6 109.2L75.5 126H86l8.8-5.9v5.9h5.8zM130.3 143.8c-6.6 0-11.9-5.3-11.9-11.9h-5.8c0 9.8 7.9 17.7 17.7 17.7 9.8 0 17.7-7.9 17.7-17.7h-5.8c0 6.5-5.3 11.9-11.9 11.9zM119.9 126h-6.4c-.7 1.8-1 3.8-1 5.9h5.8c.1-2.2.6-4.2 1.6-5.9zM140.6 126c1 1.7 1.6 3.8 1.6 5.9h5.8c0-2.1-.4-4.1-1-5.9h-6.4z" fill="#3F352F"/><path d="M130.3 114.1c-7.7 0-14.3 4.9-16.7 11.8h6.4c2.1-3.6 5.9-6 10.3-6s8.3 2.4 10.3 6h6.4c-2.4-6.8-9-11.8-16.7-11.8zM213 143.8c-6.6 0-11.9-5.3-11.9-11.9h-5.8c0 9.8 7.9 17.7 17.7 17.7 9.8 0 17.7-7.9 17.7-17.7h-5.8c0 6.5-5.3 11.9-11.9 11.9zM202.6 126h-6.4c-.7 1.8-1 3.8-1 5.9h5.8c.1-2.2.6-4.2 1.6-5.9zM223.3 126c1 1.7 1.6 3.8 1.6 5.9h5.8c0-2.1-.4-4.1-1-5.9h-6.4zM213 114.1c-7.7 0-14.3 4.9-16.7 11.8h6.4c2.1-3.6 5.9-6 10.3-6s8.3 2.4 10.3 6h6.4c-2.4-6.8-9-11.8-16.7-11.8zM183.5 129.1c-3.5-2-7.5-3.2-11.7-3.2h-.2c-4.3 0-8.3 1.2-11.7 3.2v2.7H156c-4.9 4.3-8 10.7-8 17.7 0 13.1 10.6 23.6 23.6 23.6 13.1 0 23.6-10.6 23.6-23.6 0-7.1-3.1-13.4-8-17.7h-3.8v-2.7h.1zm6 20.5c0 9.8-8 17.8-17.8 17.8s-17.8-8-17.8-17.8 8-17.8 17.8-17.8 17.8 8 17.8 17.8z" fill="#3F352F"/><path fill="#3F352F" d="M171.6 126h-.1v-.1h.1zM171.6 126zM183.5 131.9h3.8c-1.2-1-2.4-2-3.8-2.7v2.7zM159.8 129.1c-1.4.8-2.6 1.7-3.8 2.7h3.8v-2.7z"/><g><path d="M589.2 281H502v-12.7h79.1l-8.1-12.7h-96.3V243H614.6l-50.3-71.9H502v-12.7h53.3l-8.9-12.7h-69.8V133h101.5L490.4 21l-87.6 112.1H459.8v12.7h-25.3l-68 97.2h93.3v12.7h-51.9L336 368.4h308.9L589.2 281zm-181.1-53.4l-10.4-7.3 41.4-59.2 10.4 7.3-41.4 59.2zm-32.2 125.2l-10.7-6.8 47.7-74.7 10.7 6.8-47.7 74.7z" fill="#51AA5B"/><path fill="#95E49C" d="M408.141 227.58l-10.407-7.282 41.45-59.242 10.407 7.28z"/><path fill="#B84B41" d="M479.8 381H501v33.3h-21.2z"/><path fill="#95E49C" d="M375.959 352.822l-10.705-6.833 47.667-74.68 10.705 6.832z"/><path d="M564.4 397.7h-12.7v16.6H539v-25.1h-12.7v25.1h-12.7V381H668l-80-125.4h50.7l-76.9-109.9H604L490.4.4 376.8 145.8H419l-76.9 109.9h50.7l-80 125.3h154.3v33.3h-69.9V427h186.3v-12.7h-19.2v-16.6h.1zm-57 23h-33.9v-46H324.4l80-125.4h-50.1l76.9-109.9h-41.3L490.5 10.6l100.6 128.8h-41.3l76.9 109.9h-50.1l80 125.4H507.4v46z" fill="#3F352F"/><path fill="#3F352F" d="M564.4 397.7h-.1v-.1h.1zM576.5 249.3h50.1l-76.9-109.9H591L490.4 10.7 389.8 139.5h41.3l-76.9 109.9h50.1l-80 125.4h332.1l-79.9-125.5zM467.2 368.4H336l71.9-112.7h51.9V243h-93.4l68-97.2h25.3v-12.7h-57L490.4 21 578 133.1H476.5v12.7h69.8l8.9 12.7H502v12.7h62.2l50.3 71.9H476.6v12.7H573l8.1 12.7H502V281h87.2l55.8 87.4H467.2z"/><path d="M473.5 420.7h33.9v-46h-33.9v46zm6.3-39.7H501v33.3h-21.2V381z" fill="#3F352F"/></g><g><path d="M354.8 395.536h-71.5v-2.734h64.9l-6.6-2.733h-79v-2.734h113l-41.3-15.509h-51v-2.733H327l-7.3-2.734h-57.1v-2.708h83.3L274 339.47l-72 24.182H248.7v2.734H228l-55.8 20.95h76.5v2.734h-42.5l-59 24.288h253.4l-45.8-18.821zm-148.5-11.513l-8.5-1.577 34-12.775 8.5 1.577-34 12.775zM180 410.992l-8.8-1.472 39.1-16.113 8.8 1.472-39.1 16.113z" fill="#5DC660"/><path fill="#95E49C" d="M218.872 386.212l-8.521-5.963 8.936-12.772 8.521 5.962z"/><path fill="#B84B41" d="M265.2 417.09h17.4v7.176h-17.4z"/><path fill="#95E49C" d="M194.35 413.052l-8.766-5.596 10.281-16.107 8.767 5.595z"/><path d="M334.5 420.691h-10.4v3.602h-10.4v-5.442h-10.4v5.415h-10.4v-7.176h126.6l-65.6-27.021h41.6l-63.1-23.684H367l-93.1-31.359-93.2 31.333h34.6l-63.1 23.683h41.6l-65.6 27.022h126.6v7.176h-57.3V427h152.8v-2.734h-15.8v-3.575zm-46.7 4.942H260v-9.91H137.7l65.6-27.021h-41.1l63.1-23.684h-33.9l82.5-27.757 82.5 27.757h-33.9l63.1 23.684h-41.2l65.6 27.021H287.8v9.91z" fill="#3F352F"/><path fill="#3F352F" d="M334.4 420.665h.1v.1h-.1zM344.4 388.702h41.1l-63.1-23.684h33.9l-82.4-27.757-82.5 27.757h33.9l-63.1 23.684h41.1l-65.6 27.021H410l-65.6-27.021zm-89.6 25.655H147.2l59-24.288h42.5v-2.734h-76.5l55.8-20.95h20.7v-2.734H202l71.9-24.182 71.9 24.182h-83.3v2.734h57.2l7.3 2.734h-43.7v2.734h51l41.3 15.508h-113v2.734h79l6.6 2.734h-64.9v2.733h71.5l45.7 18.847H254.8v-.052z"/><path d="M260 425.633h27.8v-9.91H260v9.91zm5.2-8.543h17.4v7.176h-17.4v-7.176z" fill="#3F352F"/></g><g><path d="M361 316.123v-.174 7.988-7.814z"/><path fill="#A67C52" d="M344.4 369.875h16.3v1.662h17.4l-2.3-7.913h-15.1v-2.01h-14zM338.9 389.595H369v1.785h14.6l-2.2-8.011h-28.1v-1.91h-12.1zM370.2 343.433a154.717 154.717 0 0 1-18.4 0l-1.8 6.424h10.6v1.811h11.8l-2.2-8.235zM329.4 423.106h63.2l-4.5-15.85h-34.8v-1.985h-18.8z"/><path fill="#C69C6D" d="M369 393.489h-31.2l-3.3 11.782h18.8v-1.91H387l-3.4-11.98H369zM360.7 373.77h-17.4l-2.1 7.689h12.1v-1.985h27l-2.2-7.937h-17.4zM374.7 359.73l-2.2-8.062h-11.8v2.084h-11.8l-2.2 7.863h14v-1.885z"/><path d="M352.9 321.903H345v2.852c4.9-.546 10.3-.843 16-.843v-7.987h-7.9c0-5.482-18-9.972-40.2-9.972H241c-8.9 0-16.2 1.786-16.2 4.018h-7.7c-.1.224-.1.447-.1.67v1.364h96c22 .025 39.9 4.44 39.9 9.898z" fill="#39B54A"/><path d="M481 306.003h-72c-22.1 0-40.2 4.465-40.2 9.971H361v7.963c5.7 0 11.1.297 16 .843v-2.853h-7.9c0-5.457 17.9-9.897 39.9-9.897h96v-2.009h-7.8c0-2.232-7.3-4.018-16.2-4.018z" fill="#8CC63F"/><path d="M447.9 325.932h9.3v-.036h-9.3v.036zM505 325.871h-13.8l.2.025h21.8v-5.655l34.2 5.655h29.1c-3.8-5.655-23.6-9.996-47.5-9.996h-24v9.971zM386 326.234c.1-.109.2-.218.2-.363h-1.5c.4.11.8.254 1.3.363z" fill="#39B54A"/><path d="M386.2 325.871c3.6-3.398 16-5.928 30.8-5.928s27.3 2.505 30.8 5.928h9.3v-5.63l34 5.63H505V315.9h-96c-13.3 0-24.2 2.679-24.2 6.003H377v2.852c2.7.298 5.3.67 7.7 1.116h1.5z" fill="#39B54A"/><path d="M217 315.925h-24c-23.9 0-43.8 4.34-47.5 9.996h29.1l34.2-5.656v5.656h21.8l.2-.025H217v-9.971zM264.8 325.932h9.3v-.036h-9.3v.036zM336.1 326.234c.4-.109.8-.218 1.2-.363h-1.5c.1.11.2.254.3.363z" fill="#8CC63F"/><path d="M313 315.925h-96v9.971h13.8l34-5.63v5.63h9.3c3.6-3.398 16-5.928 30.8-5.928s27.3 2.53 30.8 5.928h1.5c2.4-.446 5-.818 7.7-1.116v-2.853H337c.1-3.323-10.7-6.002-24-6.002z" fill="#8CC63F"/><path d="M305 331.874c8.9 0 16.2-1.786 16.2-4.018h-32.4c0 2.207 7.3 4.018 16.2 4.018zM288.8 327.856h32.3c0-.72-.8-1.39-2.1-1.985h-28c-1.4.596-2.2 1.265-2.2 1.985z" fill="#C7B299"/><path d="M305 323.862c-6 0-11.2.819-14 2.034h28c-2.8-1.215-8-2.034-14-2.034zM417 331.874c8.9 0 16.2-1.786 16.2-4.018h-32.3c0 2.207 7.2 4.018 16.1 4.018zM400.9 327.856h32.3c0-.72-.8-1.39-2.1-1.985h-28c-1.5.596-2.2 1.265-2.2 1.985z" fill="#C7B299"/><path d="M417 323.862c-6 0-11.2.819-14 2.034h28c-2.8-1.215-8-2.034-14-2.034z" fill="#C7B299"/><path d="M336.8 333.809c0 3.299 10.8 6.003 24.2 6.003 13.4 0 24.2-2.68 24.2-6.003 0-3.324-10.8-6.003-24.2-6.003-13.3.025-24.2 2.704-24.2 6.003z" fill="#998675"/><path d="M243.6 304.043h84.3c18.3 0 33.1 3.671 33.1 8.21v3.696c.4-6.598 22-11.906 48.7-11.906h71.7c13 0 23.6 2.63 23.6 5.854v.1h7.9c0-4.366-14.3-7.913-31.9-7.913h-72c-16.2 0-30.8 1.711-41 4.464V300h-15.7v6.127c-10.1-2.48-24-4.019-39.3-4.019h-72c-17.6 0-31.9 3.547-31.9 7.913h8c1.3-3.373 12.7-5.978 26.5-5.978z" fill="#3F352F"/><path d="M241 306.003h72c22.1 0 40.2 4.465 40.2 9.971h7.9v-3.696c0-4.539-14.8-8.21-33.1-8.21h-84.4c-13.8 0-25.2 2.604-26.5 5.953h7.7c0-2.232 7.3-4.018 16.2-4.018z" fill="#3F352F"/><path d="M481.4 304.043h-71.7c-26.7 0-48.3 5.308-48.7 11.906h7.8c0-5.481 18-9.971 40.2-9.971h72c8.9 0 16.2 1.786 16.2 4.018h7.8v-.099c0-3.225-10.5-5.854-23.6-5.854zM360.9 323.937h.1v1.935h-.1zM377 326.938v-1.067h-15.9c5.8.025 11.2.397 15.9 1.067zM345 326.938c4.7-.67 10.1-1.067 15.9-1.067H345v1.067z" fill="#3F352F"/><path d="M529 312.03h-24v1.96h24c30.9 0 56 6.226 56 13.89h-40l-24-3.968v3.968h-32l-12-1.984h-12v1.984h-24c0 3.3-10.7 5.954-24 5.954s-24-2.655-24-5.954h-10.8c6.6 1.464 10.8 3.572 10.8 5.954 0 4.39-14.3 7.937-32 7.937s-32-3.547-32-7.937c0-2.382 4.2-4.49 10.8-5.954H329c0 3.3-10.7 5.954-24 5.954s-24-2.655-24-5.954h-24v-1.984h-12l-12 1.984h-32v-3.968l-24 3.968h-40c0-7.664 25.1-13.89 56-13.89h24v-1.96h-24c-35.2 0-63.9 7.094-63.9 15.85v1.96h50.2l13.8-2.282v2.282h42.2l13.8-2.307v2.282h25c3.5 3.423 16 5.953 30.9 5.953 6 0 11.5-.397 16.3-1.116 1 2.828 6.7 5.333 15.3 6.97l-22.9 81.484h-39.9V427h174.9v-3.894h-40.3l-22.9-81.484c8.6-1.662 14.4-4.142 15.3-6.97 4.8.72 10.3 1.116 16.3 1.116 14.9 0 27.4-2.53 30.9-5.953h25v-2.282l13.8 2.282H529v-2.282l13.8 2.282H593v-1.96c-.1-8.73-28.8-15.825-64-15.825zM393 381.46h-4.6l2.9 9.921h1.7l8 13.891h-5.7l5.7 19.844h-80l5.7-19.844H321l8-13.89h1.7l2.9-9.922H329l7.1-8.83 3.2-11.039H337l3.6-4.415 4.4-15.429h32l4.4 15.429 3.6 4.415h-2.3l3.2 11.038 7.1 8.83z" fill="#3F352F"/><path fill="#3F352F" d="M360.7 371.537v-1.662h-16.3l2.3-8.26h-7.4l-3.2 11.013.9-1.091zM360.7 351.668v-1.81H350l1.8-6.425a154.717 154.717 0 0 0 18.4 0l2.3 8.235h4.5l4.4 5.507-4.4-15.429h-32l-4.4 15.429 4.4-5.507h15.7zM369 389.595h-30.1l2.3-8.136h-7.6l-2.9 9.921H369zM353.3 407.255h34.8l4.5 15.85h-63.2l5.1-17.834h-7.8l-5.7 19.844h80l-5.7-19.844h-42zM360.7 361.615v2.009h15.1l2.3 7.913h6.9l.9 1.091-3.2-11.013zM353.3 383.369h28.1l2.2 8.011h7.7l-2.9-9.921h-35.1zM329 391.38l-8 13.891h5.7l4-13.89zM401 405.271l-8-13.89h-1.7l4 13.89z"/><path fill="#3F352F" d="M387 403.361h-33.7v1.91h42l-4-13.89h-7.7zM337.8 393.489H369v-2.109h-38.3l-4 13.891h7.8zM393 381.459l-7.1-8.83 2.5 8.83zM329 381.459h4.6l2.5-8.83z"/><path fill="#3F352F" d="M343.3 373.77h17.4v-2.233H337l-.9 1.091-2.5 8.83h7.6zM378.1 371.537l2.2 7.937h-27v1.985h35.1l-2.5-8.83-.9-1.092zM337 361.615h2.3l1.3-4.415zM385 361.615l-3.6-4.415 1.3 4.415z"/><path fill="#3F352F" d="M348.9 353.752h11.8v-2.084H345l-4.4 5.532-1.3 4.415h7.4zM372.5 351.668l2.2 8.062h-14v1.885h22l-1.3-4.415-4.4-5.532zM360.9 325.871h.1v-1.934c-5.7 0-11.1.297-16 .843v1.116h15.9v-.025zM245 325.871h12v-1.984zM313 313.965c17.7 0 32 3.547 32 7.938h7.9c0-5.457-17.9-9.898-39.9-9.898h-96v1.96h96zM465 325.871h12l-12-1.984zM361.1 325.871H377v-1.116c-4.9-.546-10.3-.843-16-.843v1.934c0 .025.1.025.1.025zM369.2 321.903h7.9c0-4.39 14.3-7.938 32-7.938h96v-1.96h-96c-22.1.025-39.9 4.44-39.9 9.898zM529 315.925c23.9 0 43.8 4.34 47.5 9.996h-29.1l-34.2-5.656v5.656h-21.8l-.2-.025H477l12 1.984h32v-3.968l24 3.968h40c0-7.664-25.1-13.89-56-13.89h-24v1.96h24v-.025zM457.2 325.92h-9.3v-.024h-8.2c.9.62 1.4 1.29 1.4 1.984h24v-1.984h-7.9v.025zM386.2 325.871c-.1.075-.2.15-.2.248-.4-.074-.8-.148-1.2-.248H377v1.067c1.8.273 3.6.57 5.2.918H393c0-.695.5-1.365 1.4-1.985h-8.2z"/><path d="M377 321.903h7.9c0-3.3 10.8-6.003 24.2-6.003h96v-1.96h-96c-17.8.025-32.1 3.597-32.1 7.963z" fill="#3F352F"/><path d="M417 319.968c-14.8 0-27.3 2.53-30.8 5.928h8.2c3.3-2.307 12.2-3.969 22.6-3.969 10.4 0 19.3 1.662 22.6 3.97h8.2c-3.5-3.424-16-5.93-30.8-5.93zM384.7 325.871c-2.4-.446-5-.818-7.7-1.116v1.116h7.7zM457.2 320.265v5.606h7.8v-1.984l12 1.984h14.2zM345 325.871h-7.7c-.4.075-.8.15-1.2.248-.1-.074-.2-.148-.2-.248h-8.2c.9.62 1.4 1.29 1.4 1.985h10.8c1.6-.348 3.3-.645 5.2-.918v-1.067h-.1zM230.6 325.92h-21.8v-5.655l-34.2 5.656h-29.1c3.8-5.656 23.6-9.996 47.5-9.996h24v-1.96h-24c-30.9 0-56 6.226-56 13.89h40l24-3.968v3.969h32l12-1.985h-14.2l-.2.05zM274.2 325.871v.025h-9.3v-.025H257v1.985h24c0-.695.5-1.365 1.4-1.985h-8.2zM345 325.871v-1.116c-2.7.298-5.3.67-7.7 1.116h7.7z" fill="#3F352F"/><path d="M313 315.925c13.3 0 24.2 2.679 24.2 6.002h7.8c0-4.39-14.3-7.937-32-7.937h-96v1.96h96v-.025z" fill="#3F352F"/><path d="M305 319.968c-14.8 0-27.3 2.505-30.8 5.928h8.2c3.3-2.307 12.2-3.969 22.6-3.969 10.4 0 19.3 1.662 22.6 3.97h8.2c-3.5-3.424-16-5.93-30.8-5.93zM264.8 320.265l-34 5.606H245l12-1.984v1.984h7.8zM305 331.874c-8.9 0-16.2-1.786-16.2-4.018H281c0 3.299 10.7 5.953 24 5.953s24-2.654 24-5.953h-7.9c0 2.207-7.2 4.018-16.1 4.018z" fill="#3F352F"/><path d="M291 325.871h-8.6c-.9.62-1.4 1.29-1.4 1.985h7.8c0-.72.8-1.39 2.2-1.985zM319 325.871c1.4.596 2.1 1.265 2.1 1.985h7.9c0-.695-.5-1.365-1.4-1.985H319z" fill="#3F352F"/><path d="M305 321.903c-10.4 0-19.3 1.661-22.6 3.968h8.6c2.8-1.215 8-2.034 14-2.034s11.2.819 14 2.034h8.6c-3.3-2.307-12.2-3.968-22.6-3.968zM417 331.874c-8.9 0-16.2-1.786-16.2-4.018H393c0 3.299 10.7 5.953 24 5.953s24-2.654 24-5.953h-7.8c0 2.207-7.3 4.018-16.2 4.018zM403 325.871h-8.6c-.9.62-1.4 1.29-1.4 1.985h7.9c0-.72.7-1.39 2.1-1.985zM431 325.871c1.4.596 2.1 1.265 2.1 1.985h7.8c0-.695-.5-1.365-1.4-1.985H431z" fill="#3F352F"/><path d="M417 321.903c-10.4 0-19.3 1.661-22.6 3.968h8.6c2.8-1.215 8-2.034 14-2.034s11.2.819 14 2.034h8.6c-3.3-2.307-12.1-3.968-22.6-3.968zM377 326.938c-4.7-.67-10.1-1.067-15.9-1.067h-.2c-5.8 0-11.2.397-15.9 1.067v.918h-5.2c-6.6 1.463-10.8 3.572-10.8 5.953 0 4.39 14.3 7.937 32 7.937s32-3.547 32-7.937c0-2.381-4.2-4.49-10.8-5.953H377v-.918zm8.2 6.87c0 3.3-10.8 6.004-24.2 6.004-13.4 0-24.2-2.68-24.2-6.003 0-3.324 10.8-6.003 24.2-6.003 13.3.025 24.2 2.704 24.2 6.003z" fill="#3F352F"/><path fill="#3F352F" d="M360.9 325.846h.1v.1h-.1zM360.9 325.871h.1-.1zM361 325.871h.1-.1zM377 327.856h5.2c-1.6-.348-3.3-.645-5.2-.918v.918zM345 326.938c-1.8.273-3.6.57-5.2.918h5.2v-.918z"/></g></g></svg>