<?xml version="1.0" encoding="utf-8"?>
<!-- Generator: Adobe Illustrator 16.0.0, SVG Export Plug-In . SVG Version: 6.00 Build 0)  -->
<!DOCTYPE svg PUBLIC "-//W3C//DTD SVG 1.1//EN" "http://www.w3.org/Graphics/SVG/1.1/DTD/svg11.dtd">
<svg version="1.1" id="Layer_1" xmlns="http://www.w3.org/2000/svg" xmlns:xlink="http://www.w3.org/1999/xlink" x="0px" y="0px"
	 width="467.5px" height="364px" viewBox="32.5 72.5 467.5 364" enable-background="new 32.5 72.5 467.5 364" xml:space="preserve">
<g>
	<polygon fill="#A67C52" points="138.986,425.509 171.758,425.509 169.442,392.386 151.407,392.386 151.407,388.246 
		141.583,388.246 	"/>
	<polygon fill="#C69C6D" points="159.547,363.685 143.337,363.685 141.583,388.246 151.407,388.246 151.407,384.246 
		168.881,384.246 167.126,359.193 159.547,359.193 	"/>
	<path fill="#3F352F" d="M139.688,359.193l-8.702,66.386h-20.702v8.07h116.772L228.75,426l-48.782-0.491L173.5,358.5
		 M171.056,359.193h0.912l4.141,29.053h-2.947l2.947,41.474h-41.474l2.947-41.474h-2.947l4.14-29.053h0.912"/>
	<polygon fill="#3F352F" points="151.407,392.386 169.442,392.386 171.758,425.509 138.986,425.509 141.583,388.246 
		137.583,388.246 134.635,429.72 176.109,429.72 173.162,388.246 151.407,388.246 	"/>
	<polygon fill="#3F352F" points="138.775,359.193 134.635,388.246 137.583,388.246 139.688,359.193 	"/>
	<polygon fill="#3F352F" points="176.109,388.246 171.968,359.193 171.056,359.193 173.162,388.246 	"/>
	<polygon fill="#3F352F" points="168.881,384.246 151.407,384.246 151.407,388.246 173.162,388.246 171.056,359.193 
		167.126,359.193 	"/>
	<polygon fill="#3F352F" points="143.337,363.685 159.547,363.685 159.547,359.193 139.688,359.193 137.583,388.246 
		141.583,388.246 	"/>
</g>
<g>
	<path fill="#51AA5B" d="M448.39,331.193h-61.193v-8.913h55.509l-5.684-8.912h-67.58v-8.842h61.966h8.14h26.667l-35.298-50.456
		h-43.72v-8.912H424.6l-6.245-8.912h-48.982v-8.912h42.737h8.561h19.93l-61.543-78.598l-61.475,78.667h19.93h8.562h11.508v8.913
		h-17.754l-47.719,68.21h26.666h8.07h30.736v8.912h-36.42l-50.457,79.088l0,0h92.07h32.632h92.069L448.39,331.193z M321.302,293.72
		l-7.298-5.123l29.053-41.544l7.298,5.123L321.302,293.72z M298.705,381.579l-7.509-4.772l33.474-52.421l7.509,4.772
		L298.705,381.579z"/>
	
		<rect x="327.766" y="244.993" transform="matrix(0.8194 0.5733 -0.5733 0.8194 215.0023 -141.6168)" fill="#95E49C" width="8.913" height="50.74"/>
	<rect x="371.617" y="401.368" fill="#B84B41" width="14.877" height="23.369"/>
	
		<rect x="307.26" y="321.907" transform="matrix(0.8429 0.538 -0.538 0.8429 238.8685 -112.2641)" fill="#95E49C" width="8.912" height="62.173"/>
	<path fill="#3F352F" d="M430.986,413.088h-8.912v11.649h-8.912v-17.614h-8.913v17.614h-8.912v-23.369h108.351l-56.141-88h35.58
		l-53.965-77.122h29.613l-79.719-101.965l-79.72,102.035h29.614l-53.965,77.122h35.578l-56.14,87.93h108.28v23.369h-49.053v8.912
		h49.053h32.632h49.053v-8.912h-13.474v-11.649H430.986z M390.986,429.229h-23.79v-32.281H262.564l56.141-88h-35.158l53.965-77.123
		h-28.982l70.598-90.386l70.596,90.386H420.74l53.965,77.123h-35.158l56.141,88H390.986V429.229z"/>
	<polygon fill="#3F352F" points="430.986,413.088 430.986,413.088 430.986,413.088 	"/>
	<path fill="#3F352F" d="M439.477,308.947h35.158l-53.965-77.123h28.982l-70.596-90.315l-70.598,90.386h28.982l-53.965,77.123
		h35.158l-56.141,88h104.633h23.789h104.631L439.477,308.947z M362.775,392.526h-92.07l0,0l50.457-79.088h36.42v-8.912h-30.736
		h-8.141h-26.666l47.719-68.21h17.754v-8.913h-11.508h-8.562h-19.93l61.545-78.667l61.473,78.667H420.6h-8.561h-42.737v8.913h48.982
		l6.245,8.912h-37.333v8.912h43.649l35.299,50.456h-26.668h-8.14h-61.965v8.912h67.649l5.684,8.912h-55.509v8.772h61.193
		l39.157,61.333h-92.14H362.775z"/>
	<path fill="#3F352F" d="M367.196,429.229h23.79v-32.281h-23.79V429.229z M371.617,401.368h14.877v23.369h-14.877V401.368z"/>
</g>
<g>
	<rect x="221.021" y="407.193" fill="#B84B41" width="12.21" height="19.157"/>
	<polygon fill="#3F352F" points="269.652,416.807 269.652,416.807 269.652,416.807 	"/>
	<path fill="#3F352F" d="M217.372,430h19.509v-26.456h-19.509V430z M221.021,407.193h12.21v19.157h-12.21V407.193z"/>
</g>
<g>
	<path fill="none" d="M288.249,142.07L288.249,142.07"/>
	<polygon fill="#A67C52" points="272.74,327.824 293.863,327.824 293.863,332.877 304.109,332.877 302.564,310.211 282.846,310.211 
		282.846,304.807 274.354,304.807 	"/>
	<polygon fill="#A67C52" points="266.074,422.632 310.425,422.632 307.267,377.789 282.846,377.789 282.846,372.176 
		269.652,372.176 	"/>
	<polygon fill="#C69C6D" points="293.863,338.842 271.969,338.842 269.652,372.176 282.846,372.176 282.846,366.771 
		306.494,366.771 304.109,332.877 293.863,332.877 	"/>
	<path fill="#39B54A" d="M305.793,148.246c0.07-0.211,0.141-0.422,0.141-0.702h-1.053
		C305.162,147.754,305.441,148.035,305.793,148.246z"/>
	<path fill="#3F352F" d="M267.5,309.5l-12.443,113.132h-28v11.018h122.737v-11.018h-28.281L310.5,307.5 M310.705,304.807h-3.229
		l2.035,28.07h1.193l5.614,39.299h-4l4,56.14h-56.141l4-56.14h-4l5.614-39.299h1.193l2.035-28.07 M305.092,248.597 M273.934,236.105
		"/>
	<polygon fill="#3F352F" points="293.863,327.824 272.74,327.824 274.354,304.807 269.021,304.807 266.986,332.877 293.863,332.877 
			"/>
	<polygon fill="#3F352F" points="282.846,377.789 307.267,377.789 310.425,422.632 266.074,422.632 269.652,372.176 
		264.179,372.176 260.179,428.315 316.319,428.315 312.319,372.176 282.846,372.176 	"/>
	<polygon fill="#3F352F" points="282.846,310.211 302.564,310.211 304.109,332.877 309.512,332.877 307.477,304.807 
		282.846,304.807 	"/>
	<polygon fill="#3F352F" points="265.793,332.877 260.179,372.176 264.179,372.176 266.986,332.877 	"/>
	<polygon fill="#3F352F" points="316.319,372.176 310.705,332.877 309.512,332.877 312.319,372.176 	"/>
	<polygon fill="#3F352F" points="306.494,366.771 282.846,366.771 282.846,372.176 312.319,372.176 309.512,332.877 
		304.109,332.877 	"/>
	<polygon fill="#3F352F" points="271.969,338.842 293.863,338.842 293.863,332.877 266.986,332.877 264.179,372.176 
		269.652,372.176 	"/>
	<polygon fill="#3F352F" points="288.249,147.544 288.249,147.544 288.249,147.544 	"/>
	<path fill="#3F352F" d="M288.179,147.544h0.07l0,0H288.179z"/>
	<path fill="#3F352F" d="M288.249,147.544h0.07H288.249L288.249,147.544z"/>
</g>
</svg>
