<?xml version="1.0" encoding="utf-8"?>
<!-- Generator: Adobe Illustrator 19.1.0, SVG Export Plug-In . SVG Version: 6.00 Build 0)  -->
<svg version="1.1" id="Layer_1" xmlns="http://www.w3.org/2000/svg" xmlns:xlink="http://www.w3.org/1999/xlink" x="0px" y="0px"
	 viewBox="-268.4 145 712.5 512" style="enable-background:new -268.4 145 712.5 512;" xml:space="preserve">
<style type="text/css">
	.st0{fill:none;}
	.st1{fill:#A67C52;}
	.st2{fill:#C69C6D;}
	.st3{fill:#39B54A;}
	.st4{fill:#8CC63F;}
	.st5{fill:#C7B299;}
	.st6{fill:#998675;}
	.st7{fill:#3F352F;}
	.st8{fill:#51AA5B;}
	.st9{fill:#95E49C;}
	.st10{fill:#B84B41;}
	.st11{fill:#5DC660;}
</style>
<g>
	<path class="st0" d="M-76.4,327c0-0.2,0-0.4,0-0.5h0v23.7c0,0,0,0,0,0V327z"/>
	<polygon class="st1" points="-88.6,486.9 -76.6,486.9 -76.6,491.9 -63.8,491.9 -65.4,468.3 -76.6,468.3 -76.6,462.3 -86.9,462.3 	
		"/>
	<polygon class="st1" points="-92.7,545.7 -70.4,545.7 -70.4,550.9 -59.6,550.9 -61.3,527.1 -82,527.1 -82,521.4 -91,521.4 	"/>
	<path class="st1" d="M-69.6,408.2c-2.2,0.5-4.4,0.8-6.8,0.8c-2.3,0-4.6-0.3-6.8-0.8l-1.3,19.1h7.9v5.4h8.7L-69.6,408.2z"/>
	<polygon class="st1" points="-99.7,645.4 -53,645.4 -56.3,598.2 -82,598.2 -82,592.3 -96,592.3 	"/>
	<polygon class="st2" points="-70.4,557.3 -93.5,557.3 -96,592.3 -82,592.3 -82,586.6 -57.1,586.6 -59.6,550.9 -70.4,550.9 	"/>
	<polygon class="st2" points="-76.6,498.5 -89.4,498.5 -91,521.4 -82,521.4 -82,515.5 -62.1,515.5 -63.8,491.9 -76.6,491.9 	"/>
	<polygon class="st2" points="-66.2,456.7 -67.9,432.8 -76.6,432.8 -76.6,439 -85.3,439 -86.9,462.3 -76.6,462.3 -76.6,456.7 	"/>
	<path class="st3" d="M-82.4,344.1h-5.8c0,0,0,0,0,0v8.5c3.6-1.6,7.6-2.5,11.8-2.5v-23.7h-5.8c0-16.4-13.3-29.7-29.7-29.7H-165
		c-6.6,0-11.9,5.4-11.9,11.9h-5.7c-0.1,0.6-0.1,1.3-0.1,2v4h70.9C-95.6,314.7-82.4,327.9-82.4,344.1z"/>
	<path class="st4" d="M12.3,296.8h-53.2c-16.4,0-29.7,13.3-29.7,29.7h-5.8c0,0.2,0,0.4,0,0.5v23.2c0,0,0,0,0,0
		c4.2,0,8.2,0.9,11.8,2.5v-8.5h-5.8c0-16.2,13.2-29.4,29.4-29.4H30v-6h-5.8C24.2,302.1,18.8,296.8,12.3,296.8z"/>
	<path class="st3" d="M-12.2,356.1h6.9V356h-6.9C-12.2,356-12.2,356-12.2,356.1z"/>
	<path class="st3" d="M30,356L30,356H19.8l0.2,0.1H36v-16.9l25.3,16.9h21.5c-2.8-16.9-17.5-29.8-35.1-29.8H30L30,356L30,356z"/>
	<path class="st3" d="M-57.9,356.7c0.1-0.2,0.1-0.5,0.2-0.7h-1.1C-58.5,356.2-58.2,356.4-57.9,356.7z"/>
	<path class="st3" d="M-57.8,356c2.6-10.1,11.8-17.6,22.8-17.6c10.9,0,20.1,7.5,22.8,17.6h6.9v-16.7L19.8,356H30v-29.7h-70.9
		c-9.8,0-17.8,8-17.8,17.8h-5.8v8.5c2,0.9,3.9,2,5.7,3.3H-57.8z"/>
	<path class="st4" d="M-182.7,326.3h-17.7c-17.6,0-32.3,12.9-35.1,29.8h21.5l25.3-16.9v16.9h16.1l0.2-0.1h-10.2V326.3z"/>
	<path class="st4" d="M-147.4,356.1h6.9c0,0,0-0.1,0-0.1h-6.9V356.1z"/>
	<path class="st4" d="M-94.8,356.7c0.3-0.2,0.6-0.5,0.9-0.7H-95C-94.9,356.2-94.8,356.4-94.8,356.7z"/>
	<path class="st4" d="M-111.8,326.3h-70.9V356h10.2l25.1-16.7V356h6.9c2.6-10.1,11.8-17.6,22.8-17.6c10.9,0,20.1,7.5,22.8,17.6h1.1
		c1.8-1.3,3.7-2.4,5.7-3.3v-8.5c0,0,0,0,0,0H-94C-94,334.3-102,326.3-111.8,326.3z"/>
	<path class="st5" d="M-117.7,373.8c6.6,0,11.9-5.4,11.9-11.9h-23.9C-129.6,368.4-124.3,373.8-117.7,373.8z"/>
	<path class="st5" d="M-129.6,361.9h23.9c0-2.2-0.6-4.2-1.6-5.9h-20.7C-129.1,357.7-129.6,359.7-129.6,361.9z"/>
	<path class="st5" d="M-117.7,349.9c-4.4,0-8.3,2.4-10.3,6h20.7C-109.4,352.4-113.3,349.9-117.7,349.9z"/>
	<path class="st5" d="M-35,373.8c6.6,0,11.9-5.3,11.9-11.9h-23.9C-46.9,368.4-41.6,373.8-35,373.8z"/>
	<path class="st5" d="M-46.9,361.9h23.9c0-2.2-0.6-4.2-1.6-5.9h-20.7C-46.4,357.7-46.9,359.7-46.9,361.9z"/>
	<path class="st5" d="M-35,349.9c-4.4,0-8.3,2.4-10.3,6h20.7C-26.7,352.4-30.6,349.9-35,349.9z"/>
	<path class="st6" d="M-94.2,379.6c0,9.8,8,17.8,17.8,17.8s17.8-8,17.8-17.8s-8-17.8-17.8-17.8C-86.2,361.8-94.2,369.8-94.2,379.6z"
		/>
	<path class="st7" d="M-163,291h62.2c13.5,0,24.4,10.9,24.4,24.4v11h0c0.3-19.6,16.3-35.5,36-35.5h52.9c9.6,0,17.4,7.8,17.4,17.4
		v0.3h5.8c0-13-10.6-23.5-23.5-23.5h-53.2c-12,0-22.7,5.1-30.3,13.3v-19.5h-11.6v18.2c-7.5-7.4-17.7-12-29-12H-165
		c-13,0-23.5,10.6-23.5,23.5h5.9C-181.6,298.7-173.2,291-163,291z"/>
	<path class="st7" d="M-165,296.8h53.2c16.4,0,29.7,13.3,29.7,29.7h5.8v-11c0-13.5-10.9-24.4-24.4-24.4H-163
		c-10.2,0-18.6,7.8-19.6,17.7h5.7C-176.9,302.1-171.6,296.8-165,296.8z"/>
	<path class="st7" d="M12.6,291h-52.9c-19.7,0-35.7,15.8-36,35.5h5.8c0-16.4,13.3-29.7,29.7-29.7h53.2c6.6,0,11.9,5.4,11.9,11.9H30
		v-0.3C30,298.8,22.2,291,12.6,291z"/>
	<rect x="-76.4" y="350.2" class="st7" width="0" height="5.8"/>
	<path class="st7" d="M-64.5,359.1V356h-11.7C-72,356-68,357.1-64.5,359.1z"/>
	<path class="st7" d="M-88.2,359.1c3.5-2,7.5-3.2,11.7-3.2h-11.7V359.1z"/>
	<path class="st7" d="M47.7,314.7H30v5.8h17.7c22.8,0,41.4,18.5,41.4,41.4H59.5l-17.7-11.8v11.8H18.2L9.3,356H0.4v5.9h-17.7h0
		c0,0,0,0,0,0c0,9.8-7.9,17.7-17.7,17.7c-9.8,0-17.7-7.9-17.7-17.7c0,0,0,0,0,0h-8c4.9,4.3,8,10.7,8,17.7
		c0,13.1-10.6,23.6-23.6,23.6c-13.1,0-23.6-10.6-23.6-23.6c0-7.1,3.1-13.4,8-17.7h-8c0,0,0,0,0,0c0,9.8-7.9,17.7-17.7,17.7
		c-9.8,0-17.7-7.9-17.7-17.7c0,0,0,0,0,0h0h-17.7V356h-8.9l-8.9,5.9h-23.6v-11.8l-17.7,11.8h-29.5c0-22.8,18.5-41.4,41.4-41.4h17.7
		v-5.8h-17.7c-26,0-47.2,21.2-47.2,47.2v5.8h37.1l10.2-6.8v6.8h31.2l10.2-6.8v6.8h18.4c2.6,10.2,11.8,17.7,22.8,17.7
		c4.4,0,8.5-1.2,12-3.3c0.7,8.4,5,15.9,11.3,20.8l-16.9,242.6h-29.5V657h129.1v-11.6h-29.8l-16.9-242.6c6.3-4.9,10.6-12.3,11.3-20.8
		c3.5,2.1,7.6,3.3,12,3.3c11,0,20.2-7.5,22.8-17.7H6.2v-6.8l10.2,6.8h31.2v-6.8l10.2,6.8h37.1v-5.8
		C94.9,335.9,73.7,314.7,47.7,314.7z M-52.7,521.4h-3.4l2.1,29.5h1.3l5.9,41.4H-51l4.2,59.1h-59.1l4.2-59.1h-4.2l5.9-41.4h1.3
		l2.1-29.5h-3.4l5.3-26.3l2.3-32.8h-1.7l2.6-13.1l3.3-46h23.6l3.3,46l2.6,13.1h-1.7l2.3,32.8L-52.7,521.4z"/>
	<polygon class="st7" points="-76.6,491.9 -76.6,486.9 -88.6,486.9 -86.9,462.3 -92.4,462.3 -94.7,495.1 -94.1,491.9 	"/>
	<path class="st7" d="M-76.6,432.8v-5.4h-7.9l1.3-19.1c2.2,0.5,4.4,0.8,6.8,0.8c2.3,0,4.6-0.3,6.8-0.8l1.7,24.5h3.3l3.3,16.4
		l-3.3-46h-23.6l-3.3,46l3.3-16.4H-76.6z"/>
	<polygon class="st7" points="-70.4,545.7 -92.7,545.7 -91,521.4 -96.6,521.4 -98.7,550.9 -70.4,550.9 	"/>
	<polygon class="st7" points="-82,598.2 -56.3,598.2 -53,645.4 -99.7,645.4 -96,592.3 -101.7,592.3 -105.9,651.4 -46.8,651.4 
		-51,592.3 -82,592.3 	"/>
	<polygon class="st7" points="-76.6,462.3 -76.6,468.3 -65.4,468.3 -63.8,491.9 -58.6,491.9 -58,495.1 -60.3,462.3 	"/>
	<polygon class="st7" points="-82,527.1 -61.3,527.1 -59.6,550.9 -54,550.9 -56.1,521.4 -82,521.4 	"/>
	<polygon class="st7" points="-100,550.9 -105.9,592.3 -101.7,592.3 -98.7,550.9 	"/>
	<polygon class="st7" points="-46.8,592.3 -52.7,550.9 -54,550.9 -51,592.3 	"/>
	<polygon class="st7" points="-57.1,586.6 -82,586.6 -82,592.3 -51,592.3 -54,550.9 -59.6,550.9 	"/>
	<polygon class="st7" points="-93.5,557.3 -70.4,557.3 -70.4,550.9 -98.7,550.9 -101.7,592.3 -96,592.3 	"/>
	<polygon class="st7" points="-52.7,521.4 -58,495.1 -56.1,521.4 	"/>
	<polygon class="st7" points="-100,521.4 -96.6,521.4 -94.7,495.1 	"/>
	<polygon class="st7" points="-89.4,498.5 -76.6,498.5 -76.6,491.9 -94.1,491.9 -94.7,495.1 -96.6,521.4 -91,521.4 	"/>
	<polygon class="st7" points="-63.8,491.9 -62.1,515.5 -82,515.5 -82,521.4 -56.1,521.4 -58,495.1 -58.6,491.9 	"/>
	<polygon class="st7" points="-94.1,462.3 -92.4,462.3 -91.5,449.2 	"/>
	<polygon class="st7" points="-58.6,462.3 -61.3,449.2 -60.3,462.3 	"/>
	<polygon class="st7" points="-85.3,439 -76.6,439 -76.6,432.8 -88.2,432.8 -91.5,449.2 -92.4,462.3 -86.9,462.3 	"/>
	<polygon class="st7" points="-67.9,432.8 -66.2,456.7 -76.6,456.7 -76.6,462.3 -60.3,462.3 -61.3,449.2 -64.5,432.8 	"/>
	<path class="st7" d="M-76.4,356C-76.4,356-76.4,356-76.4,356l0.1-5.8c-4.2,0-8.2,0.9-11.8,2.5v3.3H-76.4z"/>
	<polygon class="st7" points="-162,356 -153.2,356 -153.2,350.1 	"/>
	<path class="st7" d="M-111.8,320.5c13.1,0,23.6,10.6,23.6,23.6h5.8c0-16.2-13.2-29.4-29.4-29.4h-70.9v5.8H-111.8z"/>
	<polygon class="st7" points="0.4,356 9.3,356 0.4,350.1 	"/>
	<path class="st7" d="M-76.3,356h11.7v-3.3c-3.6-1.6-7.6-2.5-11.8-2.5c0,0,0,0,0,0L-76.3,356C-76.3,356-76.3,356-76.3,356z"/>
	<path class="st7" d="M-70.3,344.1h5.8c0-13.1,10.6-23.6,23.6-23.6H30v-5.8h-70.9C-57.1,314.7-70.3,327.9-70.3,344.1z"/>
	<path class="st7" d="M47.7,326.3c17.6,0,32.3,12.9,35.1,29.8H61.3L36,339.2v16.9H19.9l-0.2-0.1H9.3l8.9,5.9h23.6v-11.8l17.7,11.8
		h29.5c0-22.8-18.5-41.4-41.4-41.4H30v5.8H47.7z"/>
	<path class="st7" d="M-5.3,356.1h-6.9c0,0,0-0.1,0-0.1h-6.1c0.7,1.8,1,3.8,1,5.9h0H0.4V356h-5.8V356.1z"/>
	<path class="st7" d="M-57.8,356c-0.1,0.2-0.1,0.5-0.2,0.7c-0.3-0.2-0.6-0.5-0.9-0.7h-5.7v3.2c1.4,0.8,2.6,1.7,3.8,2.7h8
		c0-2.1,0.4-4.1,1-5.9H-57.8z"/>
	<path class="st7" d="M-64.5,344.1h5.8c0-9.8,8-17.8,17.8-17.8H30v-5.8h-70.9C-54,320.5-64.5,331.1-64.5,344.1z"/>
	<path class="st7" d="M-35,338.3c-10.9,0-20.1,7.5-22.8,17.6h6c2.4-6.9,9-11.8,16.7-11.8c7.7,0,14.3,4.9,16.7,11.8h6.1
		C-14.9,345.8-24.1,338.3-35,338.3z"/>
	<path class="st7" d="M-58.9,356c-1.8-1.3-3.7-2.4-5.7-3.3v3.3H-58.9z"/>
	<polygon class="st7" points="-5.3,339.2 -5.3,356 0.4,356 0.4,350.1 9.3,356 19.8,356 	"/>
	<path class="st7" d="M-88.2,356h-5.7c-0.3,0.2-0.6,0.5-0.9,0.7c-0.1-0.2-0.1-0.5-0.2-0.7h-6c0.7,1.8,1,3.8,1,5.9h8
		c1.2-1,2.4-2,3.8-2.7V356z"/>
	<path class="st7" d="M-172.7,356.1h-16.1v-16.9l-25.3,16.9h-21.5c2.8-16.9,17.5-29.8,35.1-29.8h17.7v-5.8h-17.7
		c-22.8,0-41.4,18.5-41.4,41.4h29.5l17.7-11.8v11.8h23.6l8.9-5.9h-10.5L-172.7,356.1z"/>
	<path class="st7" d="M-140.5,356c0,0,0,0.1,0,0.1h-6.9V356h-5.8v5.9h17.7h0c0-2.1,0.4-4.1,1-5.9H-140.5z"/>
	<path class="st7" d="M-88.2,356v-3.3c-2,0.9-3.9,2-5.7,3.3H-88.2z"/>
	<path class="st7" d="M-111.8,326.3c9.8,0,17.8,8,17.8,17.8h5.8c0-13.1-10.6-23.6-23.6-23.6h-70.9v5.8H-111.8z"/>
	<path class="st7" d="M-117.7,338.3c-10.9,0-20.1,7.5-22.8,17.6h6.1c2.4-6.9,9-11.8,16.7-11.8c7.7,0,14.3,4.9,16.7,11.8h6
		C-97.6,345.8-106.8,338.3-117.7,338.3z"/>
	<polygon class="st7" points="-147.4,339.2 -172.5,356 -162,356 -153.2,350.1 -153.2,356 -147.4,356 	"/>
	<path class="st7" d="M-117.7,373.8c-6.6,0-11.9-5.3-11.9-11.9h-5.8c0,0,0,0,0,0c0,9.8,7.9,17.7,17.7,17.7c9.8,0,17.7-7.9,17.7-17.7
		c0,0,0,0,0,0h-5.8C-105.8,368.4-111.1,373.8-117.7,373.8z"/>
	<path class="st7" d="M-128.1,356h-6.4c-0.7,1.8-1,3.8-1,5.9h5.8C-129.6,359.7-129.1,357.7-128.1,356z"/>
	<path class="st7" d="M-107.4,356c1,1.7,1.6,3.8,1.6,5.9h5.8c0-2.1-0.4-4.1-1-5.9H-107.4z"/>
	<path class="st7" d="M-117.7,344.1c-7.7,0-14.3,4.9-16.7,11.8h6.4c2.1-3.6,5.9-6,10.3-6c4.4,0,8.3,2.4,10.3,6h6.4
		C-103.4,349.1-110,344.1-117.7,344.1z"/>
	<path class="st7" d="M-35,373.8c-6.6,0-11.9-5.3-11.9-11.9h-5.8c0,0,0,0,0,0c0,9.8,7.9,17.7,17.7,17.7c9.8,0,17.7-7.9,17.7-17.7
		c0,0,0,0,0,0h-5.8C-23.1,368.4-28.4,373.8-35,373.8z"/>
	<path class="st7" d="M-45.4,356h-6.4c-0.7,1.8-1,3.8-1,5.9h5.8C-46.9,359.7-46.4,357.7-45.4,356z"/>
	<path class="st7" d="M-24.7,356c1,1.7,1.6,3.8,1.6,5.9h5.8c0-2.1-0.4-4.1-1-5.9H-24.7z"/>
	<path class="st7" d="M-35,344.1c-7.7,0-14.3,4.9-16.7,11.8h6.4c2.1-3.6,5.9-6,10.3-6c4.4,0,8.3,2.4,10.3,6h6.4
		C-20.7,349.1-27.3,344.1-35,344.1z"/>
	<path class="st7" d="M-64.5,359.1c-3.5-2-7.5-3.2-11.7-3.2h-0.1h0h-0.1c-4.3,0-8.3,1.2-11.7,3.2v2.7H-92c-4.9,4.3-8,10.7-8,17.7
		c0,13.1,10.6,23.6,23.6,23.6c13.1,0,23.6-10.6,23.6-23.6c0-7.1-3.1-13.4-8-17.7h-3.8V359.1z M-58.5,379.6c0,9.8-8,17.8-17.8,17.8
		s-17.8-8-17.8-17.8s8-17.8,17.8-17.8C-66.5,361.8-58.5,369.8-58.5,379.6z"/>
	<rect x="-76.4" y="356" class="st7" width="0" height="0"/>
	<path class="st7" d="M-76.4,356L-76.4,356L-76.4,356C-76.4,356-76.4,356-76.4,356z"/>
	<path class="st7" d="M-76.4,356L-76.4,356C-76.3,356-76.3,356-76.4,356L-76.4,356z"/>
	<path class="st7" d="M-64.5,361.9h3.8c-1.2-1-2.4-2-3.8-2.7V361.9z"/>
	<path class="st7" d="M-88.2,359.1c-1.4,0.8-2.6,1.7-3.8,2.7h3.8V359.1z"/>
</g>
<g>
	<path class="st8" d="M341.2,511H254v-12.7h79.1l-8.1-12.7h-96.3V473h88.3h11.6h38l-50.3-71.9H254v-12.7h53.3l-8.9-12.7h-69.8v-12.7
		h60.9h12.2h28.4L242.4,251l-87.6,112.1h28.4h12.2h16.4v12.7h-25.3l-68,97.2h38H168h43.8v12.7h-51.9L88,598.4v0h131.2h46.5h131.2
		L341.2,511z M160.1,457.6l-10.4-7.3l41.4-59.2l10.4,7.3L160.1,457.6z M127.9,582.8l-10.7-6.8l47.7-74.7l10.7,6.8L127.9,582.8z"/>
	
		<rect x="169.3" y="388.3" transform="matrix(-0.8194 -0.5733 0.5733 -0.8194 76.2533 872.8126)" class="st9" width="12.7" height="72.3"/>
	<rect x="231.8" y="611" class="st10" width="21.2" height="33.3"/>
	
		<rect x="140.1" y="497.7" transform="matrix(-0.8429 -0.538 0.538 -0.8429 -21.713 1077.7075)" class="st9" width="12.7" height="88.6"/>
	<path class="st7" d="M316.4,627.7h-12.7v16.6H291v-25.1h-12.7v25.1h-12.7V611H420l-80-125.4h50.7l-76.9-109.9H356L242.4,230.4
		L128.8,375.8H171L94.1,485.7h50.7L64.8,611h154.3v33.3h-69.9V657h69.9h46.5h69.9v-12.7h-19.2V627.7z M259.4,650.7h-33.9v-46H76.4
		l80-125.4h-50.1l76.9-109.9h-41.3l100.6-128.8l100.6,128.8h-41.3l76.9,109.9h-50.1l80,125.4H259.4V650.7z"/>
	<rect x="316.4" y="627.7" class="st7" width="0" height="0"/>
	<path class="st7" d="M328.5,479.3h50.1l-76.9-109.9h41.3L242.4,240.7L141.8,369.5h41.3l-76.9,109.9h50.1l-80,125.4h149.1h33.9
		h149.1L328.5,479.3z M219.2,598.4H88v0l71.9-112.7h51.9V473H168h-11.6h-38l68-97.2h25.3v-12.7h-16.4h-12.2h-28.4L242.4,251
		l87.6,112.1h-28.4h-12.2h-60.9v12.7h69.8l8.9,12.7H254v12.7h62.2l50.3,71.9h-38h-11.6h-88.3v12.7H325l8.1,12.7H254V511h87.2
		l55.8,87.4H265.7H219.2z"/>
	<path class="st7" d="M225.5,650.7h33.9v-46h-33.9V650.7z M231.8,611H253v33.3h-21.2V611z"/>
</g>
<g>
	<path class="st11" d="M106.8,537.3H35.3v-10.4h64.9l-6.6-10.4h-79v-10.4h72.4h9.5h31.1l-41.3-59h-51v-10.4H79l-7.3-10.4H14.6V416
		h50h10h23.3l-71.9-92L-46,416h23.3h10H0.7v10.4H-20l-55.8,79.7h31.1h9.5H0.7v10.4h-42.5l-59,92.4v0H6.8h38.2h107.6L106.8,537.3z
		 M-41.7,493.5l-8.5-6l34-48.6l8.5,6L-41.7,493.5z M-68,596.1l-8.8-5.6l39.1-61.3l8.8,5.6L-68,596.1z"/>
	
		<rect x="-34.1" y="436.6" transform="matrix(-0.8194 -0.5733 0.5733 -0.8194 -319.9019 831.6669)" class="st9" width="10.4" height="59.3"/>
	<rect x="17.2" y="619.3" class="st10" width="17.4" height="27.3"/>
	
		<rect x="-58" y="526.4" transform="matrix(-0.8429 -0.538 0.538 -0.8429 -400.1566 1008.5894)" class="st9" width="10.4" height="72.7"/>
	<path class="st7" d="M86.5,633H76.1v13.7H65.7V626H55.3v20.6H44.9v-27.3h126.6l-65.6-102.8h41.6l-63.1-90.1H119L25.9,307.1
		l-93.2,119.2h34.6l-63.1,90.1h41.6l-65.6,102.8H6.8v27.3h-57.3V657H6.8h38.2h57.3v-10.4H86.5V633z M39.8,651.8H12v-37.7h-122.3
		l65.6-102.8h-41.1l63.1-90.1h-33.9l82.5-105.6l82.5,105.6H74.5l63.1,90.1H96.4L162,614.1H39.8V651.8z"/>
	<rect x="86.5" y="633" class="st7" width="0" height="0"/>
	<path class="st7" d="M96.4,511.3h41.1l-63.1-90.1h33.9L25.9,315.6l-82.5,105.6h33.9l-63.1,90.1h41.1l-65.6,102.8H12h27.8H162
		L96.4,511.3z M6.8,608.9h-107.6v0l59-92.4H0.7v-10.4h-35.9h-9.5h-31.1l55.8-79.7H0.7V416h-13.5h-10H-46l71.9-92l71.9,92H74.5h-10
		h-50v10.4h57.2l7.3,10.4H35.3v10.4h51l41.3,59H96.4h-9.5H14.6v10.4h79l6.6,10.4H35.3v10.4h71.5l45.7,71.7H44.9H6.8z"/>
	<path class="st7" d="M12,651.8h27.8v-37.7H12V651.8z M17.2,619.3h17.4v27.3H17.2V619.3z"/>
</g>
<g>
	<path class="st0" d="M113,210c0-0.2,0-0.5,0-0.7h0v32.2c0,0,0,0,0,0V210z"/>
	<polygon class="st1" points="96.4,426.7 112.7,426.7 112.7,433.4 130.1,433.4 127.8,401.5 112.7,401.5 112.7,393.4 98.7,393.4 	"/>
	<polygon class="st1" points="90.9,506.2 121,506.2 121,513.4 135.6,513.4 133.4,481.1 105.3,481.1 105.3,473.4 93.2,473.4 	"/>
	<path class="st1" d="M122.2,320.1c-2.9,0.7-6,1.1-9.2,1.1s-6.2-0.4-9.2-1.1L102,346h10.6v7.3h11.8L122.2,320.1z"/>
	<polygon class="st1" points="81.4,641.3 144.6,641.3 140.1,577.4 105.3,577.4 105.3,569.4 86.5,569.4 	"/>
	<polygon class="st2" points="121,521.9 89.8,521.9 86.5,569.4 105.3,569.4 105.3,561.7 139,561.7 135.6,513.4 121,513.4 	"/>
	<polygon class="st2" points="112.7,442.4 95.3,442.4 93.2,473.4 105.3,473.4 105.3,465.4 132.3,465.4 130.1,433.4 112.7,433.4 	"/>
	<polygon class="st2" points="126.7,385.8 124.5,353.3 112.7,353.3 112.7,361.7 100.9,361.7 98.7,393.4 112.7,393.4 112.7,385.8 	
		"/>
	<path class="st3" d="M104.9,233.3H97c0,0,0,0,0,0v11.5c4.9-2.2,10.3-3.4,16-3.4v-32.2h-7.9c0-22.1-18-40.2-40.2-40.2H-7
		c-8.9,0-16.2,7.2-16.2,16.2h-7.7c-0.1,0.9-0.1,1.8-0.1,2.7v5.5h96C87,193.5,104.9,211.3,104.9,233.3z"/>
	<path class="st4" d="M233,169.2h-72c-22.1,0-40.2,18-40.2,40.2H113c0,0.2,0,0.5,0,0.7v31.4c0,0,0,0,0,0c5.7,0,11.1,1.2,16,3.4
		v-11.5h-7.9c0-22,17.9-39.9,39.9-39.9h96v-8.1h-7.8C249.2,176.4,241.9,169.2,233,169.2z"/>
	<path class="st3" d="M199.9,249.5h9.3v-0.1h-9.3C199.9,249.4,199.9,249.4,199.9,249.5z"/>
	<path class="st3" d="M257,249.3L257,249.3h-13.8l0.2,0.1h21.8v-22.8l34.2,22.8h29.1c-3.8-22.8-23.6-40.3-47.5-40.3h-24L257,249.3
		L257,249.3z"/>
	<path class="st3" d="M138,250.3c0.1-0.3,0.2-0.6,0.2-1h-1.5C137.1,249.6,137.5,250,138,250.3z"/>
	<path class="st3" d="M138.2,249.3c3.6-13.7,16-23.9,30.8-23.9c14.8,0,27.3,10.1,30.8,23.9h9.3v-22.7l34,22.7H257v-40.2h-96
		c-13.3,0-24.2,10.8-24.2,24.2H129v11.5c2.7,1.2,5.3,2.7,7.7,4.5H138.2z"/>
	<path class="st4" d="M-31,209.2h-24c-23.9,0-43.8,17.5-47.5,40.3h29.1l34.2-22.8v22.8h21.8l0.2-0.1H-31V209.2z"/>
	<path class="st4" d="M16.8,249.5h9.3c0-0.1,0-0.1,0-0.1h-9.3V249.5z"/>
	<path class="st4" d="M88.1,250.3c0.4-0.3,0.8-0.6,1.2-1h-1.5C87.9,249.6,88,250,88.1,250.3z"/>
	<path class="st4" d="M65,209.2h-96v40.2h13.8l34-22.7v22.7h9.3c3.6-13.7,16-23.9,30.8-23.9c14.8,0,27.3,10.2,30.8,23.9h1.5
		c2.4-1.8,5-3.3,7.7-4.5v-11.5c0,0,0,0,0,0h-7.9C89.1,220,78.3,209.2,65,209.2z"/>
	<path class="st5" d="M57,273.5c8.9,0,16.2-7.2,16.2-16.2H40.8C40.8,266.2,48.1,273.5,57,273.5z"/>
	<path class="st5" d="M40.8,257.3h32.3c0-2.9-0.8-5.6-2.1-8H43C41.6,251.7,40.8,254.4,40.8,257.3z"/>
	<path class="st5" d="M57,241.2c-6,0-11.2,3.3-14,8.2h28C68.2,244.5,63,241.2,57,241.2z"/>
	<path class="st5" d="M169,273.5c8.9,0,16.2-7.2,16.2-16.2h-32.3C152.9,266.2,160.1,273.5,169,273.5z"/>
	<path class="st5" d="M152.9,257.3h32.3c0-2.9-0.8-5.6-2.1-8h-28C153.6,251.7,152.9,254.4,152.9,257.3z"/>
	<path class="st5" d="M169,241.2c-6,0-11.2,3.3-14,8.2h28C180.2,244.5,175,241.2,169,241.2z"/>
	<path class="st6" d="M88.8,281.3c0,13.3,10.8,24.2,24.2,24.2s24.2-10.8,24.2-24.2s-10.8-24.2-24.2-24.2
		C99.7,257.2,88.8,268,88.8,281.3z"/>
	<path class="st7" d="M-4.4,161.3h84.3c18.3,0,33.1,14.8,33.1,33.1v14.9h0c0.4-26.6,22-48,48.7-48h71.7c13,0,23.6,10.6,23.6,23.6
		v0.4h7.9c0-17.6-14.3-31.9-31.9-31.9h-72c-16.2,0-30.8,6.9-41,18V145h-15.7v24.7c-10.1-10-24-16.2-39.3-16.2H-7
		c-17.6,0-31.9,14.3-31.9,31.9h8C-29.6,171.8-18.2,161.3-4.4,161.3z"/>
	<path class="st7" d="M-7,169.2h72c22.1,0,40.2,18,40.2,40.2h7.9v-14.9c0-18.3-14.8-33.1-33.1-33.1H-4.4c-13.8,0-25.2,10.5-26.5,24
		h7.7C-23.2,176.4-15.9,169.2-7,169.2z"/>
	<path class="st7" d="M233.4,161.3h-71.7c-26.7,0-48.3,21.4-48.7,48h7.8c0-22.1,18-40.2,40.2-40.2h72c8.9,0,16.2,7.2,16.2,16.2h7.8
		v-0.4C257,171.9,246.5,161.3,233.4,161.3z"/>
	<rect x="113" y="241.5" class="st7" width="0" height="7.8"/>
	<path class="st7" d="M129,253.6v-4.3h-15.9C118.9,249.4,124.3,250.9,129,253.6z"/>
	<path class="st7" d="M97,253.6c4.7-2.7,10.1-4.3,15.9-4.3H97V253.6z"/>
	<path class="st7" d="M281,193.5h-24v7.9h24c30.9,0,56,25.1,56,56h-40l-24-16v16h-32l-12-8h-12v8h-24h0c0,0,0,0,0,0
		c0,13.3-10.7,24-24,24c-13.3,0-24-10.7-24-24c0,0,0,0,0,0h-10.8c6.6,5.9,10.8,14.4,10.8,24c0,17.7-14.3,32-32,32
		c-17.7,0-32-14.3-32-32c0-9.6,4.2-18.1,10.8-24H81c0,0,0,0,0,0c0,13.3-10.7,24-24,24c-13.3,0-24-10.7-24-24c0,0,0,0,0,0h0H9v-8H-3
		l-12,8h-32v-16l-24,16h-40c0-30.9,25.1-56,56-56h24v-7.9h-24c-35.2,0-63.9,28.6-63.9,63.9v7.9h50.2l13.8-9.2v9.2h42.2L1.1,256v9.2
		h25c3.5,13.8,16,24,30.9,24c6,0,11.5-1.6,16.3-4.5c1,11.4,6.7,21.5,15.3,28.1L65.7,641.3H25.8V657h174.9v-15.7h-40.3l-22.9-328.5
		c8.6-6.7,14.4-16.7,15.3-28.1c4.8,2.9,10.3,4.5,16.3,4.5c14.9,0,27.4-10.2,30.9-24h25V256l13.8,9.2h42.2V256l13.8,9.2h50.2v-7.9
		C344.9,222.1,316.2,193.5,281,193.5z M145,473.4h-4.6l2.9,40h1.7l8,56h-5.7l5.7,80H73l5.7-80H73l8-56h1.7l2.9-40H81l7.1-35.6
		l3.2-44.5H89l3.6-17.8l4.4-62.2h32l4.4,62.2l3.6,17.8h-2.3l3.2,44.5L145,473.4z"/>
	<polygon class="st7" points="112.7,433.4 112.7,426.7 96.4,426.7 98.7,393.4 91.3,393.4 88.1,437.8 89,433.4 	"/>
	<path class="st7" d="M112.7,353.3V346H102l1.8-25.9c2.9,0.7,6,1.1,9.2,1.1s6.2-0.4,9.2-1.1l2.3,33.2h4.5l4.4,22.2l-4.4-62.2H97
		l-4.4,62.2l4.4-22.2H112.7z"/>
	<polygon class="st7" points="121,506.2 90.9,506.2 93.2,473.4 85.6,473.4 82.7,513.4 121,513.4 	"/>
	<polygon class="st7" points="105.3,577.4 140.1,577.4 144.6,641.3 81.4,641.3 86.5,569.4 78.7,569.4 73,649.4 153,649.4 
		147.3,569.4 105.3,569.4 	"/>
	<polygon class="st7" points="112.7,393.4 112.7,401.5 127.8,401.5 130.1,433.4 137,433.4 137.9,437.8 134.7,393.4 	"/>
	<polygon class="st7" points="105.3,481.1 133.4,481.1 135.6,513.4 143.3,513.4 140.4,473.4 105.3,473.4 	"/>
	<polygon class="st7" points="81,513.4 73,569.4 78.7,569.4 82.7,513.4 	"/>
	<polygon class="st7" points="153,569.4 145,513.4 143.3,513.4 147.3,569.4 	"/>
	<polygon class="st7" points="139,561.7 105.3,561.7 105.3,569.4 147.3,569.4 143.3,513.4 135.6,513.4 	"/>
	<polygon class="st7" points="89.8,521.9 121,521.9 121,513.4 82.7,513.4 78.7,569.4 86.5,569.4 	"/>
	<polygon class="st7" points="145,473.4 137.9,437.8 140.4,473.4 	"/>
	<polygon class="st7" points="81,473.4 85.6,473.4 88.1,437.8 	"/>
	<polygon class="st7" points="95.3,442.4 112.7,442.4 112.7,433.4 89,433.4 88.1,437.8 85.6,473.4 93.2,473.4 	"/>
	<polygon class="st7" points="130.1,433.4 132.3,465.4 105.3,465.4 105.3,473.4 140.4,473.4 137.9,437.8 137,433.4 	"/>
	<polygon class="st7" points="89,393.4 91.3,393.4 92.6,375.6 	"/>
	<polygon class="st7" points="137,393.4 133.4,375.6 134.7,393.4 	"/>
	<polygon class="st7" points="100.9,361.7 112.7,361.7 112.7,353.3 97,353.3 92.6,375.6 91.3,393.4 98.7,393.4 	"/>
	<polygon class="st7" points="124.5,353.3 126.7,385.8 112.7,385.8 112.7,393.4 134.7,393.4 133.4,375.6 129,353.3 	"/>
	<path class="st7" d="M112.9,249.3c0,0,0.1,0,0.1,0v-7.8c-5.7,0-11.1,1.2-16,3.4v4.5H112.9z"/>
	<polygon class="st7" points="-3,249.3 9,249.3 9,241.3 	"/>
	<path class="st7" d="M65,201.3c17.7,0,32,14.3,32,32h7.9c0-22-17.9-39.9-39.9-39.9h-96v7.9H65z"/>
	<polygon class="st7" points="217,249.3 229,249.3 217,241.3 	"/>
	<path class="st7" d="M113.1,249.3H129v-4.5c-4.9-2.2-10.3-3.4-16-3.4c0,0,0,0,0,0v7.8C113,249.3,113.1,249.3,113.1,249.3z"/>
	<path class="st7" d="M121.2,233.3h7.9c0-17.7,14.3-32,32-32h96v-7.9h-96C139,193.5,121.2,211.3,121.2,233.3z"/>
	<path class="st7" d="M281,209.2c23.9,0,43.8,17.5,47.5,40.3h-29.1l-34.2-22.8v22.8h-21.8l-0.2-0.1H229l12,8h32v-16l24,16h40
		c0-30.9-25.1-56-56-56h-24v7.9H281z"/>
	<path class="st7" d="M209.2,249.5h-9.3c0-0.1,0-0.1,0-0.1h-8.2c0.9,2.5,1.4,5.2,1.4,8h0h24v-8h-7.9V249.5z"/>
	<path class="st7" d="M138.2,249.3c-0.1,0.3-0.2,0.6-0.2,1c-0.4-0.3-0.8-0.6-1.2-1H129v4.3c1.8,1.1,3.6,2.3,5.2,3.7H145
		c0-2.8,0.5-5.5,1.4-8H138.2z"/>
	<path class="st7" d="M129,233.3h7.9c0-13.3,10.8-24.2,24.2-24.2h96v-7.9h-96C143.3,201.3,129,215.7,129,233.3z"/>
	<path class="st7" d="M169,225.5c-14.8,0-27.3,10.2-30.8,23.9h8.2c3.3-9.3,12.2-16,22.6-16c10.4,0,19.3,6.7,22.6,16h8.2
		C196.3,235.6,183.8,225.5,169,225.5z"/>
	<path class="st7" d="M136.7,249.3c-2.4-1.8-5-3.3-7.7-4.5v4.5H136.7z"/>
	<polygon class="st7" points="209.2,226.7 209.2,249.3 217,249.3 217,241.3 229,249.3 243.2,249.3 	"/>
	<path class="st7" d="M97,249.3h-7.7c-0.4,0.3-0.8,0.6-1.2,1c-0.1-0.3-0.2-0.6-0.2-1h-8.2c0.9,2.5,1.4,5.2,1.4,8h10.8
		c1.6-1.4,3.3-2.6,5.2-3.7V249.3z"/>
	<path class="st7" d="M-17.4,249.5h-21.8v-22.8l-34.2,22.8h-29.1c3.8-22.8,23.6-40.3,47.5-40.3h24v-7.9h-24c-30.9,0-56,25.1-56,56
		h40l24-16v16h32l12-8h-14.2L-17.4,249.5z"/>
	<path class="st7" d="M26.2,249.3c0,0,0,0.1,0,0.1h-9.3v-0.1H9v8h24h0c0-2.8,0.5-5.5,1.4-8H26.2z"/>
	<path class="st7" d="M97,249.3v-4.5c-2.7,1.2-5.3,2.7-7.7,4.5H97z"/>
	<path class="st7" d="M65,209.2c13.3,0,24.2,10.8,24.2,24.2H97c0-17.7-14.3-32-32-32h-96v7.9H65z"/>
	<path class="st7" d="M57,225.5c-14.8,0-27.3,10.1-30.8,23.9h8.2c3.3-9.3,12.2-16,22.6-16c10.4,0,19.3,6.7,22.6,16h8.2
		C84.3,235.6,71.8,225.5,57,225.5z"/>
	<polygon class="st7" points="16.8,226.7 -17.2,249.3 -3,249.3 9,241.3 9,249.3 16.8,249.3 	"/>
	<path class="st7" d="M57,273.5c-8.9,0-16.2-7.2-16.2-16.2H33c0,0,0,0,0,0c0,13.3,10.7,24,24,24c13.3,0,24-10.7,24-24c0,0,0,0,0,0
		h-7.9C73.1,266.2,65.9,273.5,57,273.5z"/>
	<path class="st7" d="M43,249.3h-8.6c-0.9,2.5-1.4,5.2-1.4,8h7.8C40.8,254.4,41.6,251.7,43,249.3z"/>
	<path class="st7" d="M71,249.3c1.4,2.4,2.1,5.1,2.1,8H81c0-2.8-0.5-5.5-1.4-8H71z"/>
	<path class="st7" d="M57,233.3c-10.4,0-19.3,6.7-22.6,16H43c2.8-4.9,8-8.2,14-8.2c6,0,11.2,3.3,14,8.2h8.6
		C76.3,240,67.4,233.3,57,233.3z"/>
	<path class="st7" d="M169,273.5c-8.9,0-16.2-7.2-16.2-16.2H145c0,0,0,0,0,0c0,13.3,10.7,24,24,24c13.3,0,24-10.7,24-24c0,0,0,0,0,0
		h-7.8C185.2,266.2,177.9,273.5,169,273.5z"/>
	<path class="st7" d="M155,249.3h-8.6c-0.9,2.5-1.4,5.2-1.4,8h7.9C152.9,254.4,153.6,251.7,155,249.3z"/>
	<path class="st7" d="M183,249.3c1.4,2.4,2.1,5.1,2.1,8h7.8c0-2.8-0.5-5.5-1.4-8H183z"/>
	<path class="st7" d="M169,233.3c-10.4,0-19.3,6.7-22.6,16h8.6c2.8-4.9,8-8.2,14-8.2c6,0,11.2,3.3,14,8.2h8.6
		C188.3,240,179.5,233.3,169,233.3z"/>
	<path class="st7" d="M129,253.6c-4.7-2.7-10.1-4.3-15.9-4.3H113h0h-0.1c-5.8,0-11.2,1.6-15.9,4.3v3.7h-5.2
		c-6.6,5.9-10.8,14.4-10.8,24c0,17.7,14.3,32,32,32c17.7,0,32-14.3,32-32c0-9.6-4.2-18.1-10.8-24H129V253.6z M137.2,281.3
		c0,13.3-10.8,24.2-24.2,24.2s-24.2-10.8-24.2-24.2s10.8-24.2,24.2-24.2C126.3,257.2,137.2,268,137.2,281.3z"/>
	<rect x="113" y="249.3" class="st7" width="0" height="0"/>
	<path class="st7" d="M112.9,249.3h0.1v0C113,249.3,112.9,249.3,112.9,249.3z"/>
	<path class="st7" d="M113,249.3h0.1C113.1,249.3,113,249.3,113,249.3L113,249.3z"/>
	<path class="st7" d="M129,257.3h5.2c-1.6-1.4-3.3-2.6-5.2-3.7V257.3z"/>
	<path class="st7" d="M97,253.6c-1.8,1.1-3.6,2.3-5.2,3.7H97V253.6z"/>
</g>
</svg>
