<?xml version="1.0" encoding="utf-8"?>
<!-- Generator: Adobe Illustrator 19.1.0, SVG Export Plug-In . SVG Version: 6.00 Build 0)  -->
<svg version="1.1" id="Calque_1" xmlns="http://www.w3.org/2000/svg" xmlns:xlink="http://www.w3.org/1999/xlink" x="0px" y="0px"
	 viewBox="0 0 800 800" style="enable-background:new 0 0 800 800;" xml:space="preserve">
<style type="text/css">
	.st0{fill:#BBD3DF;}
	.st1{fill:#8EB6CA;}
	.st2{fill:#3F352F;}
</style>
<g>
	<path class="st0" d="M338.7,547.8c0,0-0.1,0-0.1,0l1.2,15.7h40.6l1.2-15.7c-0.1,0-0.1,0-0.1,0H338.7z M338.7,547.8"/>
	<path class="st1" d="M373.6,261.1c0,2.2-1.8,4-4,4c-2.2,0-4-1.8-4-4v-3.5h-4.9v12.3c0,3.2-1.2,6-3.5,8.3c-5.1,5-15.1,6.4-23.5,6.5
		c-0.9,15-1.6,36.8-1.6,67.9c0,12.8,0.3,26.5,0.7,40.3h34.7c1.2,0,2.3,0.5,3,1.4c0.8,0.9,1.1,2,0.9,3.2l-2,14.8c-0.3,2-2,3.5-4,3.5
		h-31.8c2.6,55.9,7.4,109.9,8.7,124.2h35.2c0.5-9.9,2-37.9,4.3-71.7h-25.2c-2.2,0-4-1.8-4-4v-14.8c0-2.2,1.8-4,4-4h26.8
		c3-41.5,7.1-87.3,11.8-118.4v-0.3h-21.5c-2.2,0-4-1.8-4-4c0-2.2,1.8-4,4-4h21.5v-6.1h-39.3c-2.2,0-4-1.8-4-4c0-2.2,1.8-4,4-4h39.3
		v-47h-21.6V261.1z M373.6,261.1"/>
	<path class="st0" d="M360.7,460.1h21.7c0.2-2.2,0.3-4.5,0.5-6.8h-22.2V460.1z M360.7,460.1"/>
	<path class="st0" d="M362.9,400.9H333c0.1,2.2,0.2,4.5,0.3,6.8h28.6L362.9,400.9z M362.9,400.9"/>
	<rect x="336.9" y="237" class="st1" width="28.7" height="12.6"/>
	<rect x="373.6" y="237" class="st1" width="21.6" height="12.6"/>
	<path class="st0" d="M352.7,269.9v-12.3h-16.5c-0.5,3.1-1.3,9.1-2.1,19.1c8.5-0.2,14.9-1.7,17.4-4.2
		C352.3,271.7,352.7,270.9,352.7,269.9L352.7,269.9z M352.7,269.9"/>
	<path class="st0" d="M417.1,547.8c0,0-0.1,0-0.1,0l1.2,15.7h40.6l1.2-15.7c0,0-0.1,0-0.1,0H417.1z M417.1,547.8"/>
	<path class="st1" d="M441.3,278.2c-2.3-2.2-3.5-5.1-3.5-8.3v-12.3h-4.9v3.5c0,2.2-1.8,4-4,4c-2.2,0-4-1.8-4-4v-3.5h-5.3v29.7
		c0,7.2-1.5,13-4.3,17.3h27.3c2.2,0,4,1.8,4,4c0,2.2-1.8,4-4,4h-39.3v6.1h21.5c2.2,0,4,1.8,4,4c0,2.2-1.8,4-4,4h-21.5v0.3
		c9.6,63.6,16.4,189.4,17.6,212.9h35.2c1.1-12.3,4.9-54.4,7.6-101.8h-27.3c-2,0-3.7-1.5-4-3.5l-2-14.8c-0.2-1.1,0.2-2.3,0.9-3.2
		c0.8-0.9,1.9-1.4,3-1.4h30.5c1-21.4,1.6-43,1.6-62.7c0-31.1-0.7-52.9-1.6-67.9C456.3,284.5,446.4,283.2,441.3,278.2L441.3,278.2z
		 M441.3,278.2"/>
	<path class="st1" d="M411.6,287.2v-29.7h-8.4v46.6c1.3-0.4,2.8-1.1,4.1-2.4C410.1,299,411.6,293.9,411.6,287.2L411.6,287.2z
		 M411.6,287.2"/>
	<path class="st0" d="M439.8,430h24.3c0.1-2.2,0.2-4.5,0.3-6.8h-25.6L439.8,430z M439.8,430"/>
	<path class="st0" d="M445.8,269.9c0,1,0.3,1.8,1.1,2.6c2.5,2.5,8.9,4,17.4,4.2c-0.8-10-1.5-16-2.1-19.1h-16.5V269.9z M445.8,269.9"
		/>
	<rect x="432.9" y="237" class="st1" width="28.7" height="12.6"/>
	<path class="st1" d="M424.9,237h-21.6v12.6h21.6V237z M413.4,246.1c-0.7,0.7-1.8,1.2-2.8,1.2c-1.1,0-2.1-0.4-2.8-1.2
		c-0.7-0.7-1.2-1.8-1.2-2.8c0-1.1,0.4-2.1,1.2-2.8c0.7-0.7,1.8-1.2,2.8-1.2c1,0,2.1,0.4,2.8,1.2c0.7,0.7,1.2,1.8,1.2,2.8
		C414.6,244.3,414.2,245.4,413.4,246.1L413.4,246.1z M413.4,246.1"/>
	<path class="st2" d="M410.6,239.3c-1.1,0-2.1,0.4-2.8,1.2c-0.7,0.7-1.2,1.8-1.2,2.8c0,1,0.4,2.1,1.2,2.8c0.7,0.7,1.8,1.2,2.8,1.2
		c1,0,2.1-0.4,2.8-1.2c0.7-0.7,1.2-1.8,1.2-2.8c0-1.1-0.4-2.1-1.2-2.8C412.7,239.7,411.6,239.3,410.6,239.3L410.6,239.3z
		 M410.6,239.3"/>
	<path class="st2" d="M469.5,253.1V233c0-2.2-1.8-4-4-4H332.9c-2.2,0-4,1.8-4,4v20.1c-0.8,3.7-4.9,25.7-4.9,99.4
		c0,71.1,8.3,166,10.3,187.3c-0.1,0-0.2,0-0.4,0c-2.2,0.2-3.9,2.1-3.7,4.3l1.8,23.7c0.2,2.1,1.9,3.7,4,3.7h48c2.1,0,3.8-1.6,4-3.7
		l1.8-23.7c0.2-2.2-1.5-4.1-3.7-4.3c-0.2,0-0.4,0-0.6,0c1.1-20.8,6.2-115.2,13.6-181.4c7.4,66.2,12.6,160.5,13.6,181.4
		c-0.2,0-0.4,0-0.6,0c-2.2,0.2-3.9,2.1-3.7,4.3l1.8,23.7c0.2,2.1,1.9,3.7,4,3.7h48c2.1,0,3.8-1.6,4-3.7l1.8-23.7
		c0.2-2.2-1.5-4.1-3.7-4.3c-0.1,0-0.2,0-0.4,0c2-21.3,10.3-116.2,10.3-187.3C474.4,278.8,470.4,256.9,469.5,253.1L469.5,253.1z
		 M336.9,237h28.7v12.6h-28.7V237z M336.2,257.6h16.5v12.3c0,1-0.3,1.8-1.1,2.6c-2.5,2.5-8.9,4-17.4,4.2
		C334.9,266.6,335.7,260.7,336.2,257.6L336.2,257.6z M333,400.9h29.8l-0.9,6.8h-28.6C333.2,405.4,333.1,403.1,333,400.9L333,400.9z
		 M380.3,563.5h-40.6l-1.2-15.7c0.1,0,0.1,0,0.1,0h42.7c0,0,0.1,0,0.1,0L380.3,563.5z M382.4,460.1h-21.7v-6.8h22.2
		C382.7,455.6,382.6,457.8,382.4,460.1L382.4,460.1z M395.2,304.5h-39.3c-2.2,0-4,1.8-4,4c0,2.2,1.8,4,4,4h39.3v6.1h-21.5
		c-2.2,0-4,1.8-4,4c0,2.2,1.8,4,4,4h21.5v0.3c-4.7,31-8.7,76.9-11.8,118.4h-26.8c-2.2,0-4,1.8-4,4v14.8c0,2.2,1.8,4,4,4h25.2
		c-2.3,33.9-3.8,61.9-4.3,71.7h-35.2c-1.3-14.2-6.1-68.3-8.7-124.2h31.8c2,0,3.7-1.5,4-3.5l2-14.8c0.2-1.1-0.2-2.3-0.9-3.2
		c-0.8-0.9-1.9-1.4-3-1.4h-34.7c-0.5-13.8-0.7-27.5-0.7-40.3c0-31.1,0.7-52.9,1.6-67.9c8.5-0.1,18.4-1.5,23.5-6.5
		c2.3-2.2,3.5-5.1,3.5-8.3v-12.3h4.9v3.5c0,2.2,1.8,4,4,4c2.2,0,4-1.8,4-4v-3.5h21.6V304.5z M395.2,249.6h-21.6V237h21.6V249.6z
		 M464.3,276.7c-8.5-0.2-14.9-1.7-17.4-4.2c-0.8-0.8-1.1-1.6-1.1-2.6v-12.3h16.5C462.7,260.7,463.5,266.6,464.3,276.7L464.3,276.7z
		 M432.9,237h28.7v12.6h-28.7V237z M403.2,237h21.6v12.6h-21.6V237z M403.2,257.6h8.4v29.7c0,6.7-1.5,11.8-4.3,14.6
		c-1.3,1.3-2.8,2-4.1,2.4V257.6z M458.7,563.5h-40.6l-1.2-15.7c0,0,0.1,0,0.1,0h42.7c0.1,0,0.1,0,0.1,0L458.7,563.5z M464.1,430
		h-24.3l-0.9-6.8h25.6C464.3,425.5,464.2,427.8,464.1,430L464.1,430z M464.8,415.3h-30.5c-1.2,0-2.3,0.5-3,1.4
		c-0.8,0.9-1.1,2-0.9,3.2l2,14.8c0.3,2,2,3.5,4,3.5h27.3c-2.7,47.3-6.4,89.4-7.6,101.8h-35.2c-1.2-23.5-8-149.2-17.6-212.9v-0.3
		h21.5c2.2,0,4-1.8,4-4c0-2.2-1.8-4-4-4h-21.5v-6.1h39.3c2.2,0,4-1.8,4-4c0-2.2-1.8-4-4-4h-27.3c2.9-4.3,4.3-10.1,4.3-17.3v-29.7
		h5.3v3.5c0,2.2,1.8,4,4,4c2.2,0,4-1.8,4-4v-3.5h4.9v12.3c0,3.2,1.2,6,3.5,8.3c5.1,5,15.1,6.4,23.5,6.5c0.9,15,1.6,36.8,1.6,67.9
		C466.4,372.3,465.8,393.9,464.8,415.3L464.8,415.3z M464.8,415.3"/>
</g>
</svg>
