<svg xmlns="http://www.w3.org/2000/svg" viewBox="0 0 572.7 102"><defs><style>.cls-1{fill:#00a4d4;}.cls-2{fill:#0592c2;}</style></defs><title>lake</title><g id="Calque_2" data-name="Calque 2"><g id="Calque_1-2" data-name="Calque 1"><path class="cls-1" d="M553.5,3H19.1a16,16,0,1,0,0,32H91.3A16.57,16.57,0,0,0,78.9,50.8,16.24,16.24,0,0,0,95,67H232.3a16,16,0,0,0,0,32h188a16,16,0,0,0,0-32h57.4a16.24,16.24,0,0,0,16.1-16.2A16.57,16.57,0,0,0,481.4,35h72.2a16,16,0,1,0-.1-32Z"/><path d="M420.3,102h-188a19,19,0,0,1-13.8-32H94.9A19.18,19.18,0,0,1,75.8,50.8a18.69,18.69,0,0,1,5-12.8H19.1a19,19,0,1,1,0-38H553.6a19,19,0,1,1,0,38H491.9a19,19,0,0,1,5,12.8A19.18,19.18,0,0,1,477.8,70H434.3a19,19,0,0,1,5.2,13A19.29,19.29,0,0,1,420.3,102Zm-188-32a13,13,0,0,0,0,26h188a13,13,0,0,0,0-26,3,3,0,0,1,0-6h57.4a13.17,13.17,0,0,0,13.1-13.2,13.49,13.49,0,0,0-10.2-12.9,3.06,3.06,0,0,1-2.2-3.3,3,3,0,0,1,3-2.6h72.2a13,13,0,1,0,0-26H19.1a13,13,0,1,0,0,26H91.3a3,3,0,0,1,3,2.6,3,3,0,0,1-2.2,3.3A13.49,13.49,0,0,0,81.9,50.8,13.17,13.17,0,0,0,95,64H232.3a3,3,0,0,1,0,6Z"/><path class="cls-2" d="M78.9,49c0,1-.1,1.1-.1,1.6A16.41,16.41,0,0,0,94.9,67H232.3a16,16,0,0,0,0,32h188a16,16,0,0,0,0-32h57.4a16.35,16.35,0,0,0,16.1-16.4,11.8,11.8,0,0,0-.1-1.6Z"/><path d="M420.3,102h-188a19,19,0,0,1-13.8-32H94.9c-10.4,0-19.1-8.9-19.1-19.4V48.9a3.06,3.06,0,0,1,3-2.9H493.7a3.06,3.06,0,0,1,3,2.9v1.7c0,10.5-8.8,19.4-19.1,19.4H434.1a19,19,0,0,1-13.8,32Zm-188-32a13,13,0,0,0,0,26h188a13,13,0,0,0,0-26,3,3,0,0,1,0-6h57.4c6.7,0,12.3-5.4,13.1-12H81.9A13.47,13.47,0,0,0,95,64H232.3a3,3,0,0,1,0,6Z"/><path class="cls-2" d="M82.8,46s-.9.5-.9,6.1,408.5,1.1,408.5,1.1a11.61,11.61,0,0,0,.5-4.4,6.49,6.49,0,0,0-1-2.8Z"/></g></g></svg>