<?xml version="1.0" encoding="utf-8"?>
<!-- Generator: Adobe Illustrator 19.1.0, SVG Export Plug-In . SVG Version: 6.00 Build 0)  -->
<svg version="1.1" id="Calque_1" xmlns="http://www.w3.org/2000/svg" xmlns:xlink="http://www.w3.org/1999/xlink" x="0px" y="0px"
	 viewBox="0 0 800 800" style="enable-background:new 0 0 800 800;" xml:space="preserve">
<style type="text/css">
	.st0{fill:none;}
	.st1{fill:#A67C52;}
	.st2{fill:#C69C6D;}
	.st3{fill:#39B54A;}
	.st4{fill:#8CC63F;}
	.st5{fill:#C7B299;}
	.st6{fill:#998675;}
	.st7{fill:#3F352F;}
</style>
<g>
	<path class="st0" d="M376,232c0-5.9-2.1-11.3-5.7-15.6c-4.4-5.1-11-8.4-18.3-8.4v0.2C365.3,208.2,376.1,219,376,232z"/>
	<path class="st0" d="M416,252.6c0.9,0.5,1.8,1.2,2.7,1.7C417.8,253.7,416.9,253.1,416,252.6z"/>
	<polygon class="st0" points="379.6,374.2 384,352 379.6,374.2 376,392 377.8,383.2 	"/>
	<path class="st0" d="M375,249.1L375,249.1C375,249.1,375,249.1,375,249.1c0-0.1,0-0.2-0.1-0.3C375,248.9,375,248.9,375,249.1z"/>
	<path class="st0" d="M205.3,216.3c-0.6,0.4-1.1,0.7-1.6,1.1c-10,7.5-17.1,18.7-19.2,31.5C186.7,235.5,194.5,223.7,205.3,216.3z"/>
	<path class="st0" d="M232,208c-9.9,0-19.1,3.1-26.7,8.3c0.4-0.3,0.8-0.5,1.2-0.8C213.9,210.8,222.6,208,232,208z"/>
	<path class="st0" d="M432,280.1C432,280.1,432,280.1,432,280.1c0,3.6-0.6,7.1-1.8,10.4C431.4,287.3,432,283.8,432,280.1z"/>
	<path class="st0" d="M451.9,240.5c1.3-0.4,2.7-0.7,4.1-0.7c3.4,0,6.5,1,9.1,2.8c2,1.3,3.7,3.2,4.9,5.4c-2.8-5-8-8.2-14-8.2
		s-11.2,3.2-14,8.2c0.3-0.4,0.6-0.8,1-1.2C445.1,243.8,448.2,241.5,451.9,240.5z"/>
	<path class="st0" d="M432,280.2C432,280.1,432,280.1,432,280.2c0-0.1,0-0.1,0-0.1C432,280.1,432,280.1,432,280.2
		C432,280.1,432,280.2,432,280.2z"/>
	<polygon class="st0" points="420.4,374.2 422.2,383.2 424,392 420.4,374.2 416,352 	"/>
	<path class="st0" d="M442,248L442,248c-0.3,0.6-0.6,1.1-0.8,1.6c0.1-0.2,0.2-0.4,0.3-0.5C441.7,248.8,441.9,248.4,442,248z"/>
	<polygon class="st0" points="507.5,233.1 496,225.6 500,228.3 507.4,233.1 530.1,248 524.1,244 	"/>
	<path class="st0" d="M366.6,248c0.8,2.8,1.3,5.7,1.4,7.6C367.9,253.1,367.5,250.8,366.6,248z"/>
	<path class="st0" d="M366.2,247.1c-1.9-4.8-5.3-8.8-9.7-11.4C360.9,238.4,364.3,242.5,366.2,247.1z"/>
	<path class="st0" d="M361.1,229.5c0.8,0.6,1.7,1.2,2.5,1.8c5.4,4.3,9.4,10.2,11.2,16.7C372.7,240.5,367.8,233.8,361.1,229.5z"/>
	<path class="st0" d="M368,280.1C368,280,368,280,368,280.1c0-0.6,0-1.2,0.1-1.8c0,0,0,0,0-0.1c0.5-8.8,4.5-16.6,10.6-22.2
		C372.2,262,368,270.5,368,280.1C368,280.1,368,280.1,368,280.1C368,280.1,368,280.1,368,280.1C368,280.1,368,280,368,280.1z"/>
	<path class="st0" d="M421.2,256c-0.8-0.5-1.6-1.1-2.5-1.7c0.1,0.1,0.2,0.2,0.3,0.2C419.8,255.1,420.5,255.6,421.2,256z"/>
	<path class="st0" d="M359.6,252.4c0.3,1.1,0.5,2.3,0.5,3.6c0-3-0.7-5-2.1-8c0.3,0.6,0.5,1.2,0.7,1.8
		C359.1,250.6,359.4,251.5,359.6,252.4z"/>
	<path class="st0" d="M374.8,248c0,0.1,0,0.2,0,0.3h0h1.1c0.1-0.1,0.1-0.2,0.1-0.3H374.8L374.8,248z"/>
	<polygon class="st0" points="409.4,321.9 409.2,318.9 411.4,352 	"/>
	<polygon class="st0" points="269.7,248.5 269.6,249 269.8,248.5 269.8,248.4 269.8,248.4 	"/>
	<polygon class="st0" points="269.7,248 269.7,248.4 269.7,248.4 269.8,248.3 269.9,248.3 269.9,248.1 269.9,248.1 	"/>
	<path class="st0" d="M368,280.2C368,280.2,368,280.3,368,280.2C368,280.3,368,280.2,368,280.2c0,13.8,8.7,25.6,20.9,30
		c0,0-0.1,0-0.1,0C376.6,305.7,368,293.9,368,280.2z"/>
	<path class="st0" d="M315.3,242.3c0-0.1,0.1-0.2,0.1-0.2C315.4,242.2,315.3,242.3,315.3,242.3z"/>
	<path class="st0" d="M371.3,294.3c-2.1-4.3-3.3-9.1-3.3-14.1c0-9.6,4.2-18.2,10.8-24.2c-6.2,5.6-10.2,13.4-10.7,22.2c0,0,0,0,0,0.1
		c0,0.6-0.1,1.2-0.1,1.8c0,0,0,0,0,0c0,0,0,0,0,0c0,0,0,0.1,0,0.1c0,0,0,0,0,0C368,285.3,369.2,290,371.3,294.3z"/>
	<path class="st0" d="M256.8,180.5c-0.3,1.2-0.5,2.3-0.6,3.5h0C256.3,182.8,256.5,181.6,256.8,180.5
		C256.8,180.5,256.8,180.5,256.8,180.5z"/>
	<path class="st0" d="M448,168c-22.2,0-40.2,18-40.2,40C407.8,186,425.9,168,448,168z"/>
	<path class="st0" d="M409.9,179.5c0.8-1,1.6-2,2.5-3C411.5,177.5,410.7,178.5,409.9,179.5c-2.4,3.1-4.3,6.5-5.9,10
		c-1.5,3.5-2.6,7.2-3.3,11c0.7-3.8,1.8-7.5,3.3-11C405.6,186,407.6,182.6,409.9,179.5z"/>
	<path class="st0" d="M448,193c-11,0-20.9,4-28.2,11.2C427,197,437,192,448.1,192c-11.1,0-21.1,4.5-28.3,11.8
		c-7.2,7.2-11.7,17.2-11.7,28.2c0-11,4.5-21,11.7-28.2c-7.2,7.2-11.6,17.2-11.6,28.2c0-11,4.4-20.5,11.6-27.7
		C427.1,197.1,437,193,448,193z"/>
	<path class="st0" d="M352,192c22,1,39.9,18,39.9,40c0-4.2-0.7-8.3-1.9-12.2C384.8,204,369.8,192.8,352,192z"/>
	<path class="st0" d="M423.7,248c0,0.1,0.1,0.2,0.1,0.3h1.4c0-0.1,0-0.2,0-0.3H423.7L423.7,248z"/>
	<path class="st0" d="M264,167.9c4.8-4.8,11.4-7.9,18.6-7.9C275.4,160,268.8,163.1,264,167.9C264,167.8,264,167.9,264,167.9z"/>
	<path class="st0" d="M261.7,170.5C261.7,170.5,261.7,170.5,261.7,170.5c0.2-0.3,0.4-0.5,0.6-0.8c0,0,0,0,0,0
		c-2.2,2.7-4,5.8-5.1,9.1c0,0,0,0,0,0C258.2,175.8,259.7,172.9,261.7,170.5z"/>
	<path class="st0" d="M448.7,160c-3.3,0-6.6,0.5-9.7,1.1c-0.5,0.1-1,0.2-1.4,0.4c0.5-0.1,1-0.3,1.4-0.4
		C442.1,160.5,445.4,160,448.7,160z"/>
	<path class="st0" d="M542.9,176.9c0.7,2.2,1.1,4.6,1.1,7c0,0,0,0,0,0c0,0,0,0,0,0c0-13-10.5-23.9-23.6-23.9
		C531,160,539.9,167.2,542.9,176.9z"/>
	<path class="st0" d="M424.2,248.7C424.2,248.7,424.1,248.6,424.2,248.7C424.1,248.6,424.2,248.7,424.2,248.7z"/>
	<path class="st0" d="M425.2,248.4c0,0.1,0,0.2,0,0.4C425.2,248.6,425.2,248.5,425.2,248.4z"/>
	<path class="st0" d="M376.2,232c0-5.9-2.2-11.4-5.9-15.6c3.6,4.3,5.8,9.8,5.7,15.6H376.2z"/>
	<polygon class="st0" points="216,256 240,240.4 240,240.3 	"/>
	<path class="st0" d="M552,225.6v0.1l34.4,23.3h29.1c0-1,0-1,0-1h-29.1L552,225.6z"/>
	<polygon class="st0" points="530.4,248 530.2,248 530.4,249 552,249 552,248.4 552,248 544,248 	"/>
	<path class="st0" d="M456,224.1c-14.8,0-27.2,10.9-30.8,23.9h0C428.8,235,441.2,224.2,456,224.1c14.8,0,27.3,10.9,30.8,23.9
		C483.3,235,470.8,224.1,456,224.1z"/>
	<polygon class="st0" points="496,225.7 500,228.3 496,225.6 	"/>
	<polygon class="st0" points="376,392 376,392 377.8,383.2 	"/>
	<polygon class="st0" points="378.3,392 378.3,392 376.7,414.2 	"/>
	<path class="st0" d="M392.1,208L392.1,208c0.1-5-0.9-9.7-2.5-14C391.2,198.3,392.1,203,392.1,208z"/>
	<path class="st0" d="M400,256.1c-13.4,0-24.2,10.8-24.2,24.2C375.8,267,386.7,256.2,400,256.1z"/>
	<path class="st0" d="M375.8,280.3c0,13.4,10.8,24.2,24.2,24.2C386.6,304.5,375.8,293.6,375.8,280.3z"/>
	<polygon class="st0" points="424.9,436.4 421.7,392 421.7,392 	"/>
	<path class="st0" d="M432,280.2C432,280.1,432,280.1,432,280.2c0,3.6-0.6,7.1-1.8,10.4c-3.1,9.1-10.2,16.3-19.2,19.7
		C423.3,305.8,432,294,432,280.2c0,0.1,0,0.1,0,0.1C432,280.2,432,280.2,432,280.2C432,280.2,432,280.1,432,280.2
		C432,280.1,432,280.2,432,280.2z"/>
	<polygon class="st0" points="424,392 424,392 422.2,383.2 	"/>
	<path class="st0" d="M478.6,248C478.6,248,478.6,248,478.6,248h-0.1c0.9,3,1.4,6,1.4,8h0.1h0.1C480.1,254,479.6,251,478.6,248
		L478.6,248z"/>
	<path class="st0" d="M358.7,249.8c0.4,0.9,0.7,1.8,0.9,2.6C359.4,251.5,359.1,250.6,358.7,249.8z"/>
	<path class="st0" d="M344,239.9c6,0,11.1,3.1,13.9,8.1h0.1c-2.8-5-8-8.2-14-8.2s-11.2,3.2-14,8.2h0.1
		C332.9,243,338,239.9,344,239.9z"/>
	<path class="st0" d="M327.5,229c-5.2,3.2-9.4,7.8-12.1,13.1c0,0.1-0.1,0.2-0.1,0.2c-0.9,1.8-1.7,3.7-2.2,5.7h0.1h0
		C315.3,240.3,320.5,233.4,327.5,229z"/>
	<path class="st0" d="M384,243.9c4.9-2.2,10.3-3.4,16-3.4v-0.1C394.3,240.4,388.9,241.6,384,243.9L384,243.9L384,243.9z"/>
	<polygon class="st0" points="544,183.9 544,183.9 544,183.9 	"/>
	<path class="st0" d="M388.8,310.2c-7.6-2.9-13.9-8.6-17.5-15.9c-2.1-4.2-3.3-9-3.3-14.1c0,0,0,0,0,0c0,0,0,0,0,0
		C368,293.9,376.6,305.7,388.8,310.2z"/>
	<path class="st0" d="M465.1,242.6c2,1.4,3.6,3.2,4.9,5.4h0.1C468.8,245.8,467.1,244,465.1,242.6z"/>
	<path class="st0" d="M451.9,240.5c-3.6,1-6.7,3.2-8.9,6.2C445.1,244.1,448.2,241.7,451.9,240.5z"/>
	<path class="st0" d="M441.5,249.1c-0.1,0.2-0.2,0.4-0.3,0.5c-0.3,0.8-0.6,1.5-0.8,2.2C440.7,251,441.1,250.1,441.5,249.1z"/>
	<path class="st0" d="M366.7,248L366.7,248c0.8,2.8,1.2,5.1,1.3,7.6c0,0.1,0,0.2,0,0.4h0.1C368.1,254,367.6,251,366.7,248L366.7,248
		z"/>
	<path class="st0" d="M408.1,232h0.1c0-11,4.4-21,11.6-28.2C412.6,211,408.1,221,408.1,232z"/>
	<path class="st0" d="M439.9,256C439.9,256,439.9,256,439.9,256C439.9,256,439.9,256,439.9,256C439.9,256,439.9,256,439.9,256
		l-0.1,0c0,9,7.3,16.2,16.2,16.2C447.1,272.2,439.9,265,439.9,256z"/>
	<path class="st0" d="M439.9,256.1C439.9,256,439.9,256,439.9,256.1L439.9,256.1C439.9,256,439.9,256,439.9,256.1z"/>
	<path class="st0" d="M264,167.9C264,167.9,264,167.8,264,167.9c-0.6,0.6-1.1,1.2-1.7,1.8c0,0,0,0,0,0
		C262.8,169.1,263.4,168.4,264,167.9z"/>
	<path class="st0" d="M257.3,178.8C257.3,178.8,257.3,178.8,257.3,178.8c-0.2,0.6-0.4,1.1-0.5,1.7c0,0,0,0,0,0
		C256.9,179.9,257.1,179.3,257.3,178.8z"/>
	<path class="st0" d="M256,184C256,184,256,184,256,184L256,184L256,184z"/>
	<path class="st0" d="M261.7,170.5C261.7,170.5,261.7,170.5,261.7,170.5C261.7,170.5,261.7,170.5,261.7,170.5z"/>
	<polygon class="st0" points="411.5,352 409.4,321.9 411.4,352 	"/>
	<polygon class="st1" points="383.4,426 400,426 400,432 417.1,432 414.8,401 400,401 400,392 385.7,392 	"/>
	<polygon class="st1" points="377.9,505 408,505 408,512 422.6,512 420.4,480 392,480 392,472 380.2,472 	"/>
	<path class="st1" d="M409.2,318.9c-3,0.7-6,1.3-9.2,1.3c3.2,0,6.2-0.4,9.2-1.1c-2.9,0.7-6,1.1-9.2,1.1s-6.3-0.4-9.2-1.1L389,345
		h10.6h0.4v7h11.4L409.2,318.9z"/>
	<path class="st1" d="M400,320.2c3.2,0,6.3-0.4,9.2-1.1C406.2,319.8,403.2,320.2,400,320.2z"/>
	<polygon class="st1" points="368.4,640 431.6,640 427.1,576 392,576 392,568 373.5,568 	"/>
	<polygon class="st2" points="408,521 376.8,521 373.5,568 392,568 392,561 426,561 422.6,512 408,512 	"/>
	<polygon class="st2" points="400,441 382.3,441 380.2,472 392,472 392,464 419.3,464 417.1,432 400,432 	"/>
	<polygon class="st2" points="387.9,361 385.7,392 400,392 400,385 413.7,385 411.5,352 411.4,352 400,352 400,361 	"/>
	<path class="st3" d="M391.9,231.9c0-4.2-0.7-8.3-1.9-12.1c1.2,3.8,1.9,7.9,1.9,12.2H384v0.3v0.1v11.4c4.9-2.2,10.3-3.4,16-3.4
		v-31.3V209c0-0.1,0-0.1,0-0.6c0,0,0-0.1,0-0.1c0,0,0-0.1,0-0.1c0-0.1,0-0.1,0-0.2h-7.8c0,0,0,0,0,0h-0.1c0-5-0.9-9.7-2.5-14
		c-0.6-1.7-1.4-3.3-2.2-4.9c-5.4-9.9-14.9-17.4-26.2-20.1c-0.3-0.1-0.5-0.1-0.8-0.2c0,0,0,0-0.1,0c-2.7-0.6-5.5-0.9-8.3-0.9H280
		c-8.9,0-16.2,7-16.2,16h-7.7h0h0h0c-0.1,1-0.1,2.1-0.1,2.9v5.1h96C374,192,391.9,209.9,391.9,231.9z M256.1,184.4L256.1,184.4
		c0-0.1,0-0.1,0-0.2h0h0C256.1,184.3,256.1,184.3,256.1,184.4z"/>
	<path class="st3" d="M256.1,184.4c0-0.1,0-0.1,0-0.2h0C256.1,184.3,256.1,184.3,256.1,184.4z"/>
	<path class="st4" d="M520,168h-72c-22.1,0-40.2,18-40.2,40h-7.7H400c0,0.1,0,0.1,0,0.2c0,0,0-0.2,0-0.2l0,0l0,0l0,0c0,1,0,0.9,0,1
		v0.1v31.3c5.7,0,11.1,1.2,16,3.4v-11.4V232h-7.8h-0.1c0-11,4.5-21,11.7-28.2c7.2-7.2,17.2-11.8,28.3-11.8H544v-8h-7.8
		C536.2,175,528.9,168,520,168z"/>
	<path class="st3" d="M487,249h9v-1h-9C487,248,487,248,487,249z"/>
	<path class="st3" d="M544,248h8v-22.3v-0.1l34.4,22.4h29.1c-3.7-22-23.6-39.8-47.5-39.8V208h-23.9H544v0.3V248z"/>
	<path class="st3" d="M423.9,248.4c0.1,0.1,0.3,0.3,0.4,0.4c0.2,0.1,0.4,0.1,0.7,0.2c0,0,0-0.1,0-0.1c0-0.2,0.1-0.4,0.1-0.6
		c0,0,0,0,0,0L423.9,248.4C423.9,248.3,423.9,248.4,423.9,248.4z"/>
	<path class="st3" d="M423.8,248h1.4c3.6-13,16-23.9,30.8-23.9s27.3,10.9,30.8,23.9h0.1h0.1h9v-22.3v-0.1l11.5,7.5l16.7,10.9
		l-16.6-11.1l22.7,15.1h0.2H544v-39.7V208h-95.9c-13.4,0-24.2,11-24.2,24h-0.1h-7.7H416v0.4v11.4C418.7,245,421.3,247,423.8,248
		L423.8,248z"/>
	<path class="st4" d="M269.6,248.5L269.6,248.5l0.1-0.5H256v-39.7V208h-24c-9.4,0-18.1,2.8-25.5,7.5c7.4-4.6,16.1-7.3,25.5-7.3
		c-9.9,0-19.1,3-26.7,8.1c-10.8,7.4-18.6,19.2-20.8,32.7h29.1l0.1-0.2l34.3-23V249h21.6V248.5L269.6,248.5z M213.6,248.5
		L213.6,248.5l34.2-22.8L213.6,248.5z"/>
	<polygon class="st4" points="213.6,248.5 247.8,225.7 213.6,248.5 	"/>
	<path class="st4" d="M376,248.4h-1.1c0,0.2,0.1,0.4,0.1,0.6C375.1,248.9,375.6,248.9,376,248.4z"/>
	<path class="st4" d="M383.9,232h-7.7H376c0.1-13-10.7-23.8-24-23.8V208h-96v0.3V248h13.7l0.2,0.1l0,0l0-0.1h-0.1l34-22.6L269.9,248
		l34.1-22.3V248h9h0.1c0.6-2,1.3-3.9,2.2-5.7c0-0.1,0.1-0.2,0.1-0.2c3.1-6.1,8-11.1,14-14.2c4.4-2.3,9.3-3.7,14.5-3.7
		c6.3,0,12.2,2,17.2,5.3c6.7,4.4,11.6,11.1,13.7,18.5h0h0h0.1h1.3h0h0.1c2.4-1,4.7-3,7.7-4.2c0,0,0,0,0,0v-11.4
		C384,232.3,384,232.1,383.9,232L383.9,232z"/>
	<path class="st4" d="M384,232.3V232h0C384,232.1,384,232.2,384,232.3z"/>
	<path class="st4" d="M384,232c0,0.1,0,0.3,0,0.4v-0.1C384,232.2,384,232.1,384,232L384,232z"/>
	<path class="st4" d="M327.5,229c0.6-0.4,1.3-0.8,1.9-1.1c-6,3.1-10.9,8.1-14,14.2C318.1,236.8,322.3,232.2,327.5,229z"/>
	<path class="st4" d="M315.3,242.3c-0.9,1.8-1.7,3.7-2.2,5.7h0C313.6,246,314.4,244.2,315.3,242.3z"/>
	<path class="st4" d="M374.9,248.4h1.1c0,0,0-0.1,0.1-0.1L374.9,248.4C374.9,248.3,374.9,248.4,374.9,248.4z"/>
	<path class="st5" d="M360.1,256.1c0,0,0-0.1,0-0.1h0C360.1,256,360.1,256.1,360.1,256.1z"/>
	<path class="st5" d="M360.1,256.1c0,0,0-0.1,0-0.1h-32.3c0,9,7.3,16.2,16.2,16.2C352.9,272.2,360,265.1,360.1,256.1z"/>
	<path class="st5" d="M360.1,256c0,0,0,0.1,0,0.1c0,0,0,0,0,0C360.1,256.1,360.1,256,360.1,256L360.1,256z"/>
	<path class="st5" d="M358,248.3c0.3,0.5,0.5,1,0.7,1.5c-0.2-0.6-0.5-1.1-0.7-1.8h-0.1h-27.9H330c-1.4,3-2.2,5-2.2,8h32.3
		C360,253.2,359.3,250.6,358,248.3z"/>
	<path class="st5" d="M360.1,256L360.1,256c0-1.3-0.2-2.5-0.4-3.6C359.9,253.6,360.1,254.8,360.1,256z"/>
	<path class="st5" d="M359.6,252.4c-0.2-0.9-0.5-1.7-0.9-2.6c-0.2-0.5-0.5-1-0.7-1.5c1.3,2.3,2,4.9,2.1,7.7h0
		C360.1,254.8,359.9,253.6,359.6,252.4z"/>
	<path class="st5" d="M344,239.9c-6,0-11.1,3.1-13.9,8.1h27.9C355.1,243,350,239.9,344,239.9z"/>
	<path class="st5" d="M440,256C440,256,440,256,440,256c0,9,7.2,16.2,16,16.2c8.9,0,16.2-7.2,16.2-16.2h-0.1H440z"/>
	<path class="st5" d="M439.9,256L439.9,256C439.9,256,439.9,256,439.9,256C439.9,256,439.9,256,439.9,256z"/>
	<path class="st5" d="M439.9,256L439.9,256C439.9,256,439.9,256,439.9,256L439.9,256C439.9,256,439.9,256,439.9,256z"/>
	<path class="st5" d="M442.1,248c0,0.1-0.1,0.1-0.1,0.2c-0.2,0.3-0.3,0.6-0.5,0.8c-1.1,2.5-1.6,4.5-1.6,6.9h32.2c0-3-0.7-5-2.1-8
		h-0.1H442.1z"/>
	<path class="st5" d="M442,248c-0.2,0.4-0.4,0.8-0.5,1.1c0,0,0,0,0,0C441.7,248.7,441.9,248.4,442,248z"/>
	<path class="st5" d="M440.2,252.9c-0.2,0.9-0.3,1.9-0.3,3.1h0C439.9,254.9,440,253.9,440.2,252.9z"/>
	<path class="st5" d="M442,248.2c0-0.1,0.1-0.1,0.1-0.2h0H442c-0.2,0.4-0.3,0.7-0.5,1.1C441.7,248.8,441.8,248.5,442,248.2z"/>
	<path class="st5" d="M441.5,249.1c-0.4,1-0.8,1.9-1.1,2.8c-0.1,0.4-0.2,0.7-0.3,1.1c-0.2,1-0.3,2-0.3,3.1h0
		C439.9,253.5,440.4,251.5,441.5,249.1C441.5,249.1,441.5,249.1,441.5,249.1z"/>
	<path class="st5" d="M465.1,242.6c-2.6-1.7-5.7-2.7-9.1-2.7c-1.4,0-2.8,0.2-4.1,0.6c-3.6,1.1-6.7,3.6-8.9,6.2
		c-0.3,0.4-0.6,0.8-0.8,1.2h27.8C468.7,245.8,467.1,244,465.1,242.6z"/>
	<path class="st5" d="M442.1,248L442.1,248c0.3-0.4,0.6-0.8,0.9-1.2C442.6,247.2,442.3,247.6,442.1,248L442.1,248L442.1,248z"/>
	<path class="st5" d="M465.1,242.6c-2.6-1.8-5.7-2.8-9.1-2.8c-1.4,0-2.8,0.2-4.1,0.7c1.3-0.4,2.7-0.6,4.1-0.6
		C459.4,239.9,462.5,240.9,465.1,242.6z"/>
	<path class="st6" d="M400,256.1c-13.3,0.1-24.2,10.9-24.2,24.2s10.8,24.2,24.2,24.2c13.4,0,24.2-10.9,24.2-24.2
		S413.3,256.2,400,256.1z"/>
	<path class="st7" d="M264,167.8c4.8-4.8,11.4-7.8,18.6-7.8C275.3,160,268.8,163,264,167.8z"/>
	<path class="st7" d="M256.1,184c0.1-1.2,0.3-2.4,0.6-3.5c-0.3,1.1-0.6,2.3-0.7,3.5H256.1L256.1,184L256.1,184z"/>
	<path class="st7" d="M370.3,160.2c-0.2,0-0.4,0-0.6,0C369.9,160.1,370.1,160.2,370.3,160.2z"/>
	<path class="st7" d="M257.2,178.8c1.1-3.3,2.8-6.4,5.1-9.1c4.9-5.9,12.1-9.7,20.3-9.7h84.3h0.1c3.2,0,6.3,0.5,9.3,1.3
		c0.2,0.1,0.3,0.1,0.5,0.1c0.1,0,0.1,0,0.2,0.1c5.1,1.6,9.7,4.4,13.4,8.1c-3.7-3.7-8.3-6.5-13.4-8.1c-0.1,0-0.1,0-0.2-0.1
		c-0.2-0.1-0.3-0.1-0.5-0.1c-1.8-0.5-3.8-0.9-5.7-1.1c7.7,0.9,14.6,4.5,19.8,9.6c6,6,9.6,14.4,9.6,23.6v0.1v12.3
		c0-1.6,0.3-3.3,0.6-4.8c0-0.1,0.1-0.2,0.1-0.4c0.7-3.8,1.8-7.5,3.3-11c1.6-3.6,3.6-7,5.9-10c0.8-1,1.6-2,2.5-3
		c1.7-1.9,3.6-3.7,5.6-5.4c3.6-2.9,7.6-5.4,11.9-7.2c1.4-0.6,2.9-1.2,4.4-1.6c1-0.3,2.1-0.6,3.2-0.9c0.5-0.1,1-0.3,1.4-0.4
		c3.1-0.6,6.4-1.1,9.7-1.1h71.7c13.1,0,23.6,10.9,23.6,23.9c0,0,0,0,0,0v0v0.1h7.9c0-17-14.3-32-31.9-32h-72
		c-16.2,0-30.8,7.3-41,18.4V144h-16v24.7c-10-10-23.7-15.7-39-15.7h-72c-17.6,0-31.9,14-31.9,31h7.9v-0.1
		C256.3,182.2,256.7,180.4,257.2,178.8z"/>
	<path class="st7" d="M376.3,161.3c0.2,0.1,0.3,0.1,0.5,0.1C376.6,161.4,376.5,161.4,376.3,161.3z"/>
	<path class="st7" d="M370.3,160.2c0.1,0,0.2,0,0.2,0c2,0.2,3.9,0.6,5.7,1.1c-2.9-0.9-6.1-1.3-9.3-1.3c0.9,0,1.8,0,2.7,0.1
		C369.9,160.1,370.1,160.2,370.3,160.2z"/>
	<path class="st7" d="M257.2,178.8c-0.6,1.7-1,3.4-1.2,5.1v0.1h0c0.2-1.2,0.4-2.4,0.7-3.5C256.9,179.9,257.1,179.3,257.2,178.8z"/>
	<path class="st7" d="M377,161.6c5.1,1.6,9.7,4.5,13.4,8.1C386.7,166,382.1,163.2,377,161.6z"/>
	<path class="st7" d="M376.8,161.5c0.1,0,0.1,0,0.2,0.1C376.9,161.5,376.9,161.5,376.8,161.5z"/>
	<path class="st7" d="M264,167.8c4.8-4.8,11.3-7.8,18.6-7.8c-8.2,0-15.4,3.8-20.3,9.7C262.8,169,263.4,168.4,264,167.8z"/>
	<path class="st7" d="M256.1,184.2c0,0.1,0,0.1,0,0.2h0C256.1,184.3,256.1,184.3,256.1,184.2L256.1,184.2z"/>
	<path class="st7" d="M400.1,208.3L400.1,208.3C400,208.3,400,208.4,400.1,208.3L400.1,208.3L400.1,208.3z"/>
	<path class="st7" d="M261.7,170.5c0.2-0.3,0.4-0.5,0.6-0.8C262.1,169.9,261.9,170.2,261.7,170.5z"/>
	<path class="st7" d="M257.3,178.8c1-3,2.5-5.8,4.4-8.3C259.7,172.9,258.2,175.8,257.3,178.8z"/>
	<path class="st7" d="M400,193.5c0-3.3-0.5-6.4-1.3-9.4c-0.1-0.2-0.1-0.3-0.1-0.5c0-0.1,0-0.1-0.1-0.2c-1.6-5.1-4.5-9.7-8.1-13.4
		c3.7,3.7,6.5,8.3,8.1,13.4c0,0.1,0,0.1,0.1,0.2c0.1,0.2,0.1,0.3,0.1,0.5c0.2,0.8,0.4,1.6,0.6,2.5c-1.3-6.4-4.5-12.2-9-16.7
		c-6-6-14.2-9.9-23.4-9.9h-84.3c-7.2,0-13.8,3.1-18.6,7.9c-3.4,3.4-5.9,7.8-7.2,12.6c-0.3,1.2-0.5,2.3-0.6,3.5h7.7
		c0-9,7.3-16,16.2-16h71.9h0.1c15.2,0,28.5,8.5,35.3,21c3.1,5.6,4.8,12,4.9,19c0,0,0,0,0,0h7.8v-2.2V193.5z"/>
	<path class="st7" d="M399.3,186.8c0,0.1,0,0.2,0,0.3C399.4,186.9,399.3,186.9,399.3,186.8z"/>
	<path class="st7" d="M389.6,194c1.7,4.3,2.6,8.9,2.6,14c0-7-1.8-13.3-4.9-19C388.2,190.6,388.9,192.3,389.6,194z"/>
	<path class="st7" d="M262.3,169.7c-0.2,0.3-0.4,0.5-0.6,0.8c0,0,0,0,0,0c-1.9,2.5-3.4,5.3-4.4,8.3c-0.2,0.6-0.4,1.1-0.5,1.7
		c1.3-4.9,3.9-9.2,7.2-12.6C263.4,168.4,262.8,169.1,262.3,169.7z"/>
	<path class="st7" d="M352,168c2.8,0,5.6,0.3,8.2,0.9c0,0,0,0,0.1,0c0.3,0.1,0.5,0.1,0.8,0.2c11.3,2.6,20.8,10.1,26.2,20.1
		c0.9,1.6,1.6,3.2,2.2,4.9c-0.6-1.7-1.4-3.4-2.2-5C380.5,176.5,367.2,168,352,168z"/>
	<path class="st7" d="M399.3,186.6c0,0.1,0,0.1,0,0.2c0,0.1,0,0.2,0,0.3c0.4,2.1,0.6,4.2,0.6,6.4c0-9.1-3.7-17.6-9.6-23.6
		c-5.2-5.2-12.1-8.8-19.8-9.6c-0.1,0-0.2,0-0.2,0c-0.2,0-0.4,0-0.6,0c-0.9-0.1-1.9-0.1-2.8-0.1c9.2,0,17.4,3.9,23.4,9.9
		C394.8,174.3,397.9,180.1,399.3,186.6z"/>
	<path class="st7" d="M367,160L367,160c0.9,0,1.8,0,2.7,0.1C368.8,160,367.9,160,367,160z"/>
	<path class="st7" d="M370.6,160.2c-0.1,0-0.2,0-0.2,0C370.4,160.2,370.5,160.2,370.6,160.2z"/>
	<path class="st7" d="M361.1,169.1c11.3,2.7,20.8,10.1,26.2,20.1C381.9,179.1,372.4,171.7,361.1,169.1z"/>
	<path class="st7" d="M360.3,168.9C360.3,168.9,360.2,168.9,360.3,168.9C360.2,168.9,360.3,168.9,360.3,168.9z"/>
	<path class="st7" d="M361.1,169.1c-0.3-0.1-0.5-0.1-0.8-0.2C360.6,168.9,360.8,169,361.1,169.1z"/>
	<path class="st7" d="M351.9,168c2.9,0,5.6,0.3,8.3,0.9C357.6,168.3,354.8,168,351.9,168L351.9,168z"/>
	<path class="st7" d="M398.5,183.6c0-0.1,0-0.1-0.1-0.2C398.5,183.5,398.5,183.5,398.5,183.6z"/>
	<path class="st7" d="M398.4,183.4c-1.6-5.1-4.4-9.7-8.1-13.4C394,173.7,396.8,178.3,398.4,183.4z"/>
	<path class="st7" d="M398.7,184.1c0-0.2-0.1-0.3-0.1-0.5C398.6,183.8,398.6,183.9,398.7,184.1z"/>
	<path class="st7" d="M399.3,186.8c0-0.1,0-0.1,0-0.2c-0.2-0.8-0.4-1.7-0.6-2.5c0.9,3,1.3,6.1,1.3,9.4c0-2.2-0.2-4.4-0.6-6.5
		C399.4,186.9,399.3,186.9,399.3,186.8z"/>
	<path class="st7" d="M399.3,186.6c0,0.1,0,0.1,0,0.2C399.3,186.7,399.3,186.6,399.3,186.6z"/>
	<path class="st7" d="M400,193.5v-0.1c0-2.2-0.2-4.3-0.6-6.4C399.8,189.1,400,191.3,400,193.5z"/>
	<path class="st7" d="M544,183.9c0-13-10.6-23.6-23.6-23.6c10.6,0,19.6,7,22.5,16.6c-3-9.7-12-16.9-22.5-16.9h-71.7
		c-3.3,0-6.6,0.5-9.7,1.1c-0.5,0.1-1,0.2-1.4,0.4c-1.1,0.3-2.1,0.7-3.2,1c-1.5,0.5-3,1-4.4,1.6c-4.3,1.8-8.4,4.2-12,7.2
		c-2,1.6-3.9,3.4-5.6,5.3c-0.9,1-1.7,1.9-2.5,3c-2.3,3.1-4.3,6.4-5.9,10c-1.5,3.5-2.7,7.2-3.3,11c0,0.1-0.1,0.2-0.1,0.4
		c-0.3,1.6-0.6,3.2-0.6,4.8c0,0.8,0,1.2,0,2.2h0.1h7.7c0-22,18-40,40.2-40h72c8.9,0,16.2,7,16.2,16h7.8L544,183.9
		C544,183.9,544,183.9,544,183.9z M400.7,201c0.7-4,1.8-7.8,3.4-11.4C402.5,193.2,401.3,197,400.7,201z M409.9,179.5
		c2.3-3.1,5-5.9,8-8.3C414.9,173.7,412.2,176.5,409.9,179.5z M434.3,162.5c-1.5,0.5-3,1-4.4,1.6
		C431.3,163.5,432.8,162.9,434.3,162.5c1.5-0.5,3.1-0.9,4.6-1.2C437.4,161.6,435.8,162,434.3,162.5z"/>
	<path class="st7" d="M417.9,171.2c3.6-2.9,7.6-5.4,12-7.2c1.4-0.6,2.9-1.1,4.4-1.6c1-0.3,2.1-0.7,3.2-1c-1.1,0.3-2.1,0.6-3.2,0.9
		c-1.5,0.5-3,1-4.4,1.6C425.5,165.8,421.5,168.3,417.9,171.2c-2,1.6-3.9,3.4-5.6,5.3C414.1,174.7,415.9,172.9,417.9,171.2z"/>
	<path class="st7" d="M400.7,200.6c0,0.1-0.1,0.2-0.1,0.4c-0.3,1.6-0.6,3.2-0.6,4.8c0-1.6,0.3-3.3,0.6-4.8
		C400.6,200.8,400.7,200.7,400.7,200.6z"/>
	<path class="st7" d="M544,183.9c0-2.4-0.4-4.8-1.1-7C543.6,179.1,544,181.5,544,183.9z"/>
	<path class="st7" d="M520.4,160.3c13,0,23.6,10.6,23.6,23.6c0-2.4-0.4-4.8-1.1-7C540,167.3,531,160.3,520.4,160.3z"/>
	<path class="st7" d="M400,205.8v2.2C400,207,400,206.6,400,205.8z"/>
	<path class="st7" d="M416,252.6V248h-15.9C405.9,248,411.3,249.9,416,252.6z"/>
	<path class="st7" d="M384.1,248H384l0,0l0,0l0,0l0,0v4.5c4-2.3,8.6-3.5,13.5-4.5H384.1z"/>
	<polygon class="st7" points="368,472.2 368,472 368,472 	"/>
	<path class="st7" d="M568,193h-24v7h24c30.9,0,56,26,56,56h-40l-24-15.6V256h-32l-12-8h-11.9H504v8h-23.9H480c0,14-10.7,24-24,24
		s-24-10-24-24h-10.7c6.5,6,10.7,14.5,10.7,24c0,0,0,0,0,0.1c0,0,0,0,0,0c0,0,0,0,0,0.1c0,0,0,0,0,0c0,0,0,0,0,0c0,0,0,0,0,0
		c0,0,0,0,0,0c0,14.2-9.3,26.3-22.1,30.4c-2,0.7-4.2,1.1-6.3,1.4H416l4.4,62.2L424,392h0h-2.3l3.2,44.4L432,472h-4.6l2.9,40h1.7
		l8,56h-5.7l5.7,80h-80l5.7-80H360l8-56h1.7l2.9-40h-4.5l-0.1,0.4l0.1-0.4h0l0,0.2V472l7.1-35.6l3.2-44.4H376h0l3.6-17.8L384,312
		h12.5c-2.6-0.3-5.2-0.9-7.6-1.8c-12.2-4.4-20.9-16.2-20.9-30c0,0,0,0,0,0c0,0,0,0,0-0.1c0,0,0,0,0,0c0,0,0,0,0,0c0,0,0-0.1,0-0.1
		c0,0,0,0,0,0c0,0,0,0,0,0c0,0,0,0,0,0c0-9.5,4.2-18.1,10.7-24.1h-10.6H368c0,0,0,0,0,0c0,0,0,0,0,0.1c0,0.7,0,1.4-0.1,2.1
		c-0.9,10.4-7.8,18.3-17.1,20.9c-2.1,0.6-4.4,1-6.8,1c-13.3,0-24-10-24-24h-24v0.3V256v-7.6V248h-12l-12,8h-32v0.3V256v-15.6
		L216,256h-40c0,0,0,0,0,0c0-31,25.1-56,56-56h24v-7h-24c-35.2,0-64,28.1-64,63.4v7.6h50.3l13.7-8.9v8.9h42.3l13.7-9v9h25.1
		c3.5,14,16,24.1,30.9,24.1c6,0,11.5-1.5,16.3-4.4c1,11.4,6.7,21.4,15.3,28L352.7,640H313v16h175v-16h-40.6l-22.9-328.4
		c8.6-6.7,14.4-16.6,15.3-28c4.8,2.9,10.3,4.4,16.3,4.4c14.9,0,27.4-10.1,30.9-24.1h25v-9l13.8,9H568v-9l13.8,9H632v-7.7
		C631.9,221.1,603.2,193,568,193z"/>
	<path class="st7" d="M432,280.2C432,280.2,432,280.2,432,280.2C432,280.2,432,280.2,432,280.2C432,280.2,432,280.2,432,280.2z"/>
	<polygon class="st7" points="378.3,392 375.1,436.4 376.7,414.2 	"/>
	<path class="st7" d="M432,280.2C432,280.2,432,280.2,432,280.2C432,280.2,432,280.2,432,280.2C432,280.2,432,280.2,432,280.2
		C432,280.3,432,280.2,432,280.2z"/>
	<path class="st7" d="M432,280.2C432,280.2,432,280.2,432,280.2C432,280.2,432,280.2,432,280.2C432,280.2,432,280.2,432,280.2z"/>
	<path class="st7" d="M411.1,310.2c-0.4,0.1-0.8,0.3-1.2,0.4c12.8-4,22.1-16.1,22.1-30.4c0,0,0,0,0,0c0,0,0,0,0,0
		C432,294,423.3,305.8,411.1,310.2z"/>
	<path class="st7" d="M368,280.2C368,280.2,368,280.2,368,280.2C368,280.2,368,280.2,368,280.2C368,280.2,368,280.2,368,280.2z"/>
	<path class="st7" d="M368,256.1C368,256.1,368,256.1,368,256.1c0,0.7,0,1.4-0.1,2.1C368,257.5,368,256.8,368,256.1z"/>
	<path class="st7" d="M320,256c0,14,10.7,24,24,24c2.3,0,4.6-0.3,6.8-1c-2.1,0.6-4.4,0.9-6.8,0.9C330.7,280,320,270,320,256z"/>
	<polygon class="st7" points="383.4,426 385.7,392 378.3,392 376.7,414.2 375.1,436.3 376,432 400,432 400,426 	"/>
	<polygon class="st7" points="376.7,414.2 375.1,436.4 375.1,436.3 	"/>
	<path class="st7" d="M396.5,312H384l-4.4,62.2L384,352h15.6h0.4v-7h-0.4H389l1.8-25.9c2.9,0.7,6,1.1,9.2,1.1s6.3-0.5,9.2-1.2l0.2,3
		l-0.2-3.1l2.3,33.2h4.5l4.4,22.2L416,312h-12.5c-1.2,0.1-2.3,0.2-3.5,0.2C398.8,312.2,397.6,312.1,396.5,312z"/>
	<polygon class="st7" points="409.2,318.8 409.4,321.9 411.5,352 	"/>
	<path class="st7" d="M400,320.2c3.2,0,6.2-0.6,9.2-1.3C406.3,319.6,403.2,320.1,400,320.2c-3.2-0.1-6.3-0.4-9.2-1.1L389,345
		l1.8-25.9C393.8,319.8,396.8,320.2,400,320.2z"/>
	<path class="st7" d="M400,320.2c-3.2,0-6.2-0.4-9.2-1.1C393.7,319.8,396.8,320.2,400,320.2z"/>
	<polygon class="st7" points="372.6,472.4 369.7,512 408,512 408,505 377.9,505 380.2,472 372.6,472 369.7,512 369.7,512 	"/>
	<polygon class="st7" points="392,576 427.1,576 431.6,640 368.4,640 373.5,568 365.7,568 360,648 440,648 434.3,568 392,568 	"/>
	<polygon class="st7" points="400,392 400,401 414.8,401 417.1,432 424,432 424.9,436.4 421.7,392 	"/>
	<polygon class="st7" points="392,480 420.4,480 422.6,512 430.3,512 427.4,472 392,472 	"/>
	<polygon class="st7" points="368,512 360,568 365.7,568 369.7,512 	"/>
	<polygon class="st7" points="440,568 432,512 430.3,512 434.3,568 	"/>
	<polygon class="st7" points="426,561 392,561 392,568 434.3,568 430.3,512 422.6,512 	"/>
	<polygon class="st7" points="376.8,521 408,521 408,512 369.7,512 369.7,512.4 369.7,512 369.7,512 365.7,568 373.5,568 	"/>
	<polygon class="st7" points="432,472 424.9,436.4 427.4,472 	"/>
	<polygon class="st7" points="375.1,436.6 368,472 368.1,472 375.1,437 	"/>
	<polygon class="st7" points="368.1,472 372.6,472 375.1,437 	"/>
	<polygon class="st7" points="375.1,436.4 368,472 368,472 375.1,436.6 	"/>
	<polygon class="st7" points="382.3,441 400,441 400,432 376,432 375.1,436.3 375.1,436.5 375.1,436.6 375.1,437 375.1,436.8 
		375.1,437 372.6,472 380.2,472 	"/>
	<polygon class="st7" points="375.1,436.5 375.1,436.3 375.1,436.4 375.1,436.6 	"/>
	<polygon class="st7" points="417.1,432 419.3,464 392,464 392,472 427.4,472 424.9,436.4 424,432 	"/>
	<polygon class="st7" points="379.6,374.6 376,392 378.3,392 378.3,392 	"/>
	<polygon class="st7" points="377.8,383.2 379.6,374.4 379.6,374.2 	"/>
	<polygon class="st7" points="379.6,374.4 377.8,383.2 376,392 379.6,374.6 	"/>
	<polygon class="st7" points="421.7,392 421.7,392 424,392 420.4,374.6 	"/>
	<polygon class="st7" points="422.2,383.2 420.4,374.2 420.4,374.4 	"/>
	<polygon class="st7" points="420.4,374.4 420.4,374.6 424,392 422.2,383.2 	"/>
	<polygon class="st7" points="379.6,374.4 379.6,374.3 384,352.3 379.6,374.4 379.6,374.6 378.3,392 385.7,392 387.9,361 400,361 
		400,352 399.6,352 384,352 379.6,374.2 	"/>
	<polygon class="st7" points="384,352.3 379.6,374.3 379.6,374.4 379.6,374.6 379.6,374.4 	"/>
	<polygon class="st7" points="400,385 400,392 421.7,392 420.4,374.6 420.4,374.4 416,352.1 420.4,374.3 420.4,374.4 420.4,374.2 
		416,352 411.5,352 413.7,385 	"/>
	<polygon class="st7" points="416,352.1 420.4,374.4 420.4,374.6 420.4,374.4 420.4,374.3 	"/>
	<path class="st7" d="M397.5,248h2.4h0.1v-7.5c-5.7,0-11.1,1.2-16,3.4v4.1h0.1H397.5z"/>
	<polygon class="st7" points="284,248 296,248 296,240.3 	"/>
	<path class="st7" d="M352,200c14.1,0,26.1,9.3,30.4,22.1c1.1,3.1,1.6,6.5,1.6,9.9h7.9c0-22-17.9-39-39.9-40h-96v0.5v0.5v7H352z"/>
	<path class="st7" d="M380.2,217.2c-5.4-10.2-16-17.2-28.2-17.2C364.2,200,374.9,207.2,380.2,217.2z"/>
	<path class="st7" d="M380.2,217.2c0.8,1.6,1.5,3.2,2.1,4.9c-4.2-12.8-16.2-22.1-30.4-22.1C364.2,200,374.9,207,380.2,217.2z"/>
	<path class="st7" d="M390,219.8c-5.2-16.1-20.2-27.8-38-27.8C369.8,192.8,384.8,204,390,219.8z"/>
	<path class="st7" d="M390,219.8c1.2,3.8,1.9,7.8,1.9,12.1c0-22-17.9-39.9-39.9-39.9C369.8,192,384.8,203.7,390,219.8z"/>
	<polygon class="st7" points="504,248 504.1,248 516,248 504,240.3 	"/>
	<path class="st7" d="M400,240.5v7.5h0.1H416v-4.1C411.1,241.7,405.7,240.5,400,240.5z"/>
	<path class="st7" d="M416,243.9L416,243.9c-4.9-2.3-10.3-3.5-16-3.5v0.1C405.7,240.5,411.1,241.7,416,243.9z"/>
	<path class="st7" d="M419.8,204.3c-7.2,7.2-11.6,16.7-11.6,27.7h7.8c0-17,14.3-32,32.1-32H544v-7h-96
		C437,193,427.1,197.1,419.8,204.3z"/>
	<path class="st7" d="M419.8,204.2C427.1,197,437,193,448,193h96v-1h-95.9C437,192,427,197,419.8,204.2z"/>
	<path class="st7" d="M544,200v0.3V200L544,200v8h0.1H568c23.9,0,43.7,18,47.5,40h0c0,0,0,0,0,1h-29.1L552,225.7V248v0.4v0.6h-21.6
		l-0.2-1h-0.1H516l12,8h32v-15.6l24,15.6h40c0-30-25.1-56-56-56H544L544,200L544,200z"/>
	<path class="st7" d="M615.5,248L615.5,248c-3.8-22-23.6-40-47.5-40v0.2C591.9,208.2,611.7,226,615.5,248z"/>
	<path class="st7" d="M496,248v1h-9c0-1,0-1,0-1h-0.1h-0.1h-8.1c0.9,3,1.4,6,1.4,8H504v-8h-7.8H496z"/>
	<path class="st7" d="M425.2,248L425.2,248C425.2,248.1,425.2,248,425.2,248L425.2,248c0,0,0,0.2,0,0.2c0,0.2,0,0.4,0,0.4
		c0,0.2-0.1,0.4-0.2,0.6c-0.3-0.2-0.6-0.4-0.8-0.6c0,0,0-0.2-0.1-0.2c-0.1-0.1-0.3-0.5-0.4-0.5h0.1h0c0,0-0.1,0.1-0.1,0H416v4.6
		c1,0.5,1.9,1.1,2.7,1.7c0.9,0.6,1.7,1.2,2.5,1.7h0.1H432c0-2,0.5-5,1.4-8H425.2z"/>
	<polygon class="st7" points="425.2,248.3 425.2,248.3 425.2,248.3 	"/>
	<path class="st7" d="M425,249c-0.2-0.1-0.5-0.2-0.7-0.2c0.2,0.2,0.5,0.4,0.7,0.5c0-0.1,0-0.3,0-0.4C425,248.9,425,249,425,249z"/>
	<path class="st7" d="M423.8,248.3L423.8,248.3C423.8,248.3,423.9,248.4,423.8,248.3C423.9,248.4,423.9,248.3,423.8,248.3z"/>
	<path class="st7" d="M423.9,248.4c0.1,0.1,0.1,0.2,0.2,0.2c0,0,0,0,0.1,0.1c0,0,0.1,0.1,0.1,0.1C424.2,248.6,424,248.5,423.9,248.4
		z"/>
	<path class="st7" d="M424.2,248.7c0.3,0.2,0.5,0.4,0.8,0.6c-0.2-0.2-0.5-0.3-0.7-0.5C424.3,248.7,424.2,248.7,424.2,248.7z"/>
	<path class="st7" d="M423.9,248.4c0,0-0.1-0.1-0.1-0.1h-0.1c0.1,0.1,0.3,0.2,0.4,0.3C424,248.6,424,248.5,423.9,248.4z"/>
	<path class="st7" d="M425,248.9c0-0.1,0.1-0.1,0.1-0.2c0-0.1,0-0.2,0-0.4c0,0,0,0,0,0C425.1,248.5,425.1,248.7,425,248.9z"/>
	<path class="st7" d="M425,249.3c0.1-0.2,0.1-0.4,0.2-0.6c0,0.1-0.1,0.1-0.1,0.2C425,249,425,249.2,425,249.3z"/>
	<path class="st7" d="M425.2,248.4C425.2,248.3,425.2,248.3,425.2,248.4C425.2,248.3,425.2,248.3,425.2,248.4
		C425.2,248.3,425.2,248.3,425.2,248.4z"/>
	<path class="st7" d="M416.1,232h7.7c0-13,10.9-24,24.2-24h0.1H544v-7.6v-0.1v-0.1V200h-95.9C430.4,200,416.1,215,416.1,232z"/>
	<path class="st7" d="M448.1,208L448.1,208c-13.4,0-24.3,11-24.3,24h0.1C423.9,219,434.7,208,448.1,208z"/>
	<rect x="544" y="200.3" class="st7" width="0.1" height="0.1"/>
	<path class="st7" d="M448.1,200c-17.8,0-32.1,15-32.1,32h0.1C416.1,215,430.4,200,448.1,200z"/>
	<rect x="544" y="200.2" class="st7" width="0.1" height="0.1"/>
	<path class="st7" d="M456,224.2c-14.8,0-27.2,10.8-30.8,23.8h8.1h0c3.3-9,12.2-16,22.6-16c10.5,0,19.3,7,22.6,16h0.1h8.1
		C483.3,235,470.8,224.2,456,224.2z"/>
	<path class="st7" d="M416,248h7.7c-2.4-1-5-3-7.7-4.2v0.1V248z"/>
	<polygon class="st7" points="507.4,233.1 500,228.3 507.4,233.2 496,225.7 496,248 496.2,248 504,248 504,240.3 516,248 530.1,248 
			"/>
	<polygon class="st7" points="507.4,233.2 500,228.3 496,225.7 	"/>
	<polygon class="st7" points="530.1,248 530.2,248 524.1,244 	"/>
	<polygon class="st7" points="524.1,244 530.2,248 507.5,232.9 	"/>
	<path class="st7" d="M384,252.6L384,252.6v-4.2v-0.1V248h-7.7c0,0,0,0,0,0h-0.1h0c0,0.1-0.1,0-0.1,0h0.3h0c0,0-0.1,0-0.1,0h0
		c-0.4,1-0.7,0.8-1.1,1.1c0,0,0,0.1,0,0.1v0l0,0c0-0.1-0.1-0.2-0.1-0.2c0,0,0,0,0,0.1c0,0,0,0.1,0,0.1v0v0c0,0,0-0.1,0-0.1v0
		c0-0.2,0-0.4-0.1-0.5c0-0.1-0.1,0.4-0.1-0.6h0h-0.1c0,0,0,0,0,0h0.1h0h0.1c0,0,0,0.1,0,0h0h0h-0.1h0h-7.9c0.9,3,1.4,6,1.4,8h10.6
		c0,0,0.1,0,0.1,0C380.4,255,382.2,253.7,384,252.6z"/>
	<polygon class="st7" points="375.1,249.3 375.1,249.3 375.1,249.3 	"/>
	<path class="st7" d="M376,248.4c-0.4,0.5-0.8,0.5-0.9,0.6c0,0.1,0,0.2,0.1,0.3c0,0,0,0,0,0c0.4-0.4,0.7-0.6,1.1-0.9H376z"/>
	<path class="st7" d="M376.2,248.4c0,0,0.1-0.1,0.1-0.1H376c0,0,0,0.1-0.1,0.1H376.2z"/>
	<path class="st7" d="M375.1,249.3c0.4-0.3,0.7-0.6,1.1-0.9h0C375.8,248.7,375.5,248.9,375.1,249.3z"/>
	<path class="st7" d="M374.9,248.4L374.9,248.4c0,0.2,0,0.3,0,0.4c0,0.1,0.1,0.2,0.1,0.3c0,0,0,0,0,0
		C375,248.8,374.9,248.6,374.9,248.4z"/>
	<path class="st7" d="M374.8,248.4c0,0.1,0.1,0.2,0.1,0.4C374.9,248.7,374.9,248.6,374.8,248.4L374.8,248.4z"/>
	<path class="st7" d="M375,249c0,0.1,0.1,0.2,0.1,0.3l0,0C375.1,249.2,375,249.1,375,249C375,249,375,249,375,249z"/>
	<path class="st7" d="M376.2,248.4c0,0,0.1-0.1,0.1-0.1L376.2,248.4C376.3,248.3,376.2,248.4,376.2,248.4L376.2,248.4z"/>
	<path class="st7" d="M374.8,248.3C374.8,248.3,374.8,248.4,374.8,248.3L374.8,248.3C374.8,248.4,374.8,248.3,374.8,248.3
		L374.8,248.3z"/>
	<path class="st7" d="M376.2,248.4c0,0,0.1-0.1,0.1-0.1C376.3,248.3,376.2,248.4,376.2,248.4L376.2,248.4z"/>
	<path class="st7" d="M374.9,248.4C374.9,248.4,374.9,248.3,374.9,248.4L374.9,248.4C374.9,248.3,374.9,248.4,374.9,248.4
		L374.9,248.4z"/>
	<path class="st7" d="M374.9,248.3L374.9,248.3C374.8,248.3,374.8,248.4,374.9,248.3L374.9,248.3
		C374.9,248.4,374.9,248.3,374.9,248.3z"/>
	<rect x="384" y="248.3" class="st7" width="0.1" height="0.1"/>
	<path class="st7" d="M269.9,247.9L269.9,247.9L269.9,247.9l-0.1,0.3l0,0.2l-0.2,0.6H248v-23.3L213.6,249h-29.1
		c2.1-12.8,9.2-24.1,19.2-31.5c-10,7.3-17.1,18.3-19.2,31c2.2-13.4,9.9-24.9,20.8-32.2c7.7-5.2,16.8-8.3,26.7-8.3h24v-8h-24
		c-30.9,0-55.9,25-56,56h40l24-15.7v0.1V256h32l12-8h-13.9L269.9,247.9z"/>
	<polygon class="st7" points="213.6,249 248,225.7 213.7,248.8 	"/>
	<polygon class="st7" points="269.9,248.1 270.1,248 269.9,248 	"/>
	<polygon class="st7" points="269.8,248.4 269.7,248.4 269.7,248.4 269.7,248.5 	"/>
	<polygon class="st7" points="269.7,248.5 269.7,248.4 269.6,248.5 	"/>
	<path class="st7" d="M206.5,215.5c-0.4,0.3-0.8,0.5-1.2,0.8c-0.5,0.4-1.1,0.7-1.6,1.1c0.5-0.4,1.1-0.8,1.6-1.1
		C205.7,216.1,206.1,215.8,206.5,215.5z"/>
	<path class="st7" d="M232,208.2c-9.4,0-18.1,2.7-25.5,7.3c-0.4,0.3-0.8,0.5-1.2,0.8C212.9,211.2,222.1,208.2,232,208.2z"/>
	<path class="st7" d="M184.5,248.5c2.1-12.7,9.2-23.7,19.2-31c0.5-0.4,1.1-0.8,1.6-1.1C194.4,223.6,186.7,235.1,184.5,248.5z"/>
	<polygon class="st7" points="269.7,248.4 269.8,248.4 269.8,248.4 269.9,248.3 269.8,248.3 	"/>
	<polygon class="st7" points="269.9,248.3 269.9,248.3 269.8,248.4 	"/>
	<path class="st7" d="M232,200c-30.9,0-56,25-56,56c0,0,0,0,0,0C176.1,225,201.1,200,232,200z"/>
	<path class="st7" d="M313.2,248L313.2,248l-0.2,0.4c0,0.1,0,0.3,0,0.6h-9v-0.6V248h-0.1H296v0.4v7.6h24c0-2,0.5-5,1.4-8H313.2z
		 M303.9,248.4h-0.1v-0.1L303.9,248.4L303.9,248.4z M313.2,248.4L313.2,248.4L313.2,248.4C313.2,248.3,313.2,248.4,313.2,248.4z"/>
	<path class="st7" d="M313.1,248c0,0.1,0,0.1-0.1,0.2v0.2l0.2-0.4H313.1L313.1,248z"/>
	<path class="st7" d="M313.1,248L313.1,248l-0.1,0.2C313,248.1,313,248.1,313.1,248z"/>
	<path class="st7" d="M313.2,248.4C313.2,248.4,313.2,248.3,313.2,248.4L313.2,248.4L313.2,248.4z"/>
	<path class="st7" d="M313,248h-9v0.4v0.6h9c0-0.3,0-0.5,0-0.6v-0.2V248z"/>
	<rect x="303.8" y="248.3" class="st7" width="0.1" height="0.1"/>
	<path class="st7" d="M376.3,248h7.7v-4.1C381,245.1,378.7,247,376.3,248z"/>
	<path class="st7" d="M384,243.8L384,243.8C384,243.8,384,243.8,384,243.8z"/>
	<path class="st7" d="M384,243.8c-3,1.2-5.3,3.2-7.7,4.2c0,0,0,0,0,0C378.7,247,381,245.1,384,243.8L384,243.8z"/>
	<path class="st7" d="M384,232c0-3.4-0.6-6.7-1.6-9.9C383.4,225.2,384,228.6,384,232L384,232z"/>
	<path class="st7" d="M352,208c7.3,0,13.8,3.3,18.3,8.4c-4.4-5.2-11-8.6-18.3-8.6c13.3,0,24.2,11.2,24.2,24.2h7.7h0.1
		c-0.1-5.3-1.4-10.3-3.7-14.8c-5.4-10.1-16-17.2-28.2-17.2h-96v8H352z"/>
	<path class="st7" d="M384,232L384,232c0-3.4-0.6-6.8-1.6-9.9c-0.6-1.7-1.3-3.3-2.1-4.9C382.6,221.7,383.9,226.7,384,232z"/>
	<path class="st7" d="M352,207.8c7.3,0,13.9,3.4,18.3,8.6c3.7,4.2,5.9,9.7,5.9,15.6C376.2,219,365.3,207.8,352,207.8z"/>
	<path class="st7" d="M359.2,228.4c-4.5-2.5-9.7-4-15.2-4c0,0,0,0,0,0c0,0,0,0.1,0,0.1c0,0,0,0,0,0c0,0-0.1,0.1-0.1,0.1
		c-2.5,0-4.8,0.3-7.1,0.8c-11.5,2.8-20.6,12-23.5,22.8h8.1h0c3.3-9,12.2-16,22.6-16c4.6,0,8.9,1.4,12.6,3.7
		c4.3,2.7,7.8,6.7,9.7,11.4c0.1,0.3,0.2,0.6,0.4,0.9h0h0.1h0h7.9C372.5,239.9,366.8,232.7,359.2,228.4z"/>
	<path class="st7" d="M343.9,224.3c-4.7,0-9.1,1.1-13.1,2.9c1.9-0.9,3.9-1.5,5.9-2C339,224.7,341.5,224.4,343.9,224.3
		C343.9,224.3,343.9,224.3,343.9,224.3z"/>
	<path class="st7" d="M359.2,228.4c1.5,0.9,3,1.8,4.3,2.9c-0.8-0.6-1.6-1.2-2.5-1.8c-3.1-2.1-6.6-3.6-10.4-4.4
		C353.7,225.7,356.6,226.9,359.2,228.4z"/>
	<path class="st7" d="M336.7,225.2c2.3-0.5,4.7-0.8,7.1-0.8c0,0,0.1,0,0.1-0.1c0,0,0,0,0,0C341.5,224.4,339,224.7,336.7,225.2z"/>
	<path class="st7" d="M336.7,225.2c-2.1,0.5-4.1,1.2-5.9,2c-1.1,0.5-2.2,1.1-3.3,1.8c-7,4.4-12.2,11.3-14.3,19
		C316.2,237.2,325.3,228,336.7,225.2z"/>
	<path class="st7" d="M343.9,224.1c0,0,0-0.1,0-0.1c0,0,0,0,0,0C343.9,224,343.9,224.2,343.9,224.1c0,0.1,0,0.2,0,0.2c0,0,0,0,0,0
		c0,0,0,0,0,0c2.3,0,4.6,0.3,6.8,0.8c3.8,0.8,7.3,2.4,10.4,4.4C356.2,226.2,350.3,224.2,343.9,224.1c-5.2,0.1-10.1,1.5-14.5,3.8
		c0.5-0.2,0.9-0.5,1.4-0.8C334.8,225.3,339.2,224.1,343.9,224.1z"/>
	<path class="st7" d="M343.9,224.4C343.9,224.4,343.9,224.4,343.9,224.4C343.9,224.4,343.9,224.4,343.9,224.4
		C343.9,224.4,343.9,224.4,343.9,224.4z"/>
	<path class="st7" d="M330.8,227.2c-0.5,0.2-0.9,0.4-1.4,0.7c-0.7,0.4-1.3,0.7-1.9,1.1C328.6,228.4,329.7,227.8,330.8,227.2z"/>
	<path class="st7" d="M363.6,231.3c5.4,4.3,9.3,10.2,11.1,16.7h0h0.1C373,241.5,369,235.6,363.6,231.3z"/>
	<path class="st7" d="M363.6,231.3c-1.4-1.1-2.8-2.1-4.3-2.9c7.6,4.3,13.2,11.5,15.4,19.6C372.9,241.5,368.9,235.6,363.6,231.3z"/>
	<path class="st7" d="M344,224.3C344,224.3,344,224.3,344,224.3C344,224.3,344,224.3,344,224.3c5.5,0,10.7,1.5,15.2,4.1
		c-2.6-1.5-5.5-2.6-8.5-3.3C348.6,224.6,346.3,224.3,344,224.3z"/>
	<path class="st7" d="M350.7,225c-2.2-0.5-4.4-0.8-6.8-0.8c0,0,0,0,0,0.1c0,0,0,0,0,0C346.3,224.3,348.6,224.6,350.7,225z"/>
	<path class="st7" d="M374.7,248.3C374.7,248.3,374.7,248.4,374.7,248.3l0.1,0.1c0,0,0-0.1,0-0.1H374.7z"/>
	<polygon class="st7" points="304,248 304,225.7 270.1,248 284,248 296,240.3 296,248 303.9,248 	"/>
	<polygon class="st7" points="270.1,248 304,225.7 269.9,248 	"/>
	<polygon class="st7" points="269.8,248 269.9,248 303.8,225.4 	"/>
	<path class="st7" d="M360.2,256c0,9-7.3,16.2-16.2,16.2s-16.2-7.2-16.2-16.2H320c0,14,10.7,24,24,24c2.3,0,4.6-0.3,6.8-0.9
		c9.3-2.7,16.3-10.9,17.1-20.9c0.1-0.7,0.1-1.4,0.1-2.2c0,0,0,0,0,0H360.2z M327.8,256.3c0,8.9,7.3,16.2,16.2,16.2
		C335.1,272.5,327.8,265.3,327.8,256.3z"/>
	<path class="st7" d="M327.8,256.3c0,9,7.3,16.2,16.2,16.2C335.1,272.5,327.8,265.2,327.8,256.3z"/>
	<path class="st7" d="M368,256C368,256,368,256,368,256L368,256C368,256,368,256,368,256z"/>
	<path class="st7" d="M350.8,279.1c9.3-2.6,16.3-10.5,17.1-20.9C367,268.2,360.1,276.4,350.8,279.1z"/>
	<path class="st7" d="M360.1,256.1c0,0.1,0,0.1,0,0.2C360.1,256.2,360.1,256.2,360.1,256.1c-0.1,9-7.2,16.1-16.1,16.1
		c8.9,0,16.2-7.2,16.2-16.2h-0.1C360.1,256,360.1,256.1,360.1,256.1z"/>
	<path class="st7" d="M360.1,256.3c0-0.1,0-0.1,0-0.2c0,0,0,0,0,0C360.1,256.2,360.1,256.2,360.1,256.3z"/>
	<path class="st7" d="M330,248h-8.6c0,0,0,0,0,0h0c-0.9,3-1.4,6-1.4,8h7.8C327.8,253,328.6,251,330,248z M321.4,248.4L321.4,248.4
		C321.4,248.4,321.4,248.3,321.4,248.4L321.4,248.4C321.4,248.3,321.4,248.4,321.4,248.4z"/>
	<path class="st7" d="M321.4,248.4L321.4,248.4C321.4,248.4,321.4,248.3,321.4,248.4L321.4,248.4
		C321.4,248.3,321.4,248.4,321.4,248.4z"/>
	<path class="st7" d="M366.6,248C366.6,248,366.6,248,366.6,248C366.6,248,366.6,248,366.6,248l-8.6,0c1.4,3,2.1,5,2.1,8h0.1h7.8
		c0-0.1,0-0.2,0-0.4C367.9,253.7,367.5,250.8,366.6,248C366.6,248,366.6,248.1,366.6,248z M366.6,248.4
		C366.6,248.4,366.6,248.3,366.6,248.4L366.6,248.4C366.6,248.3,366.6,248.4,366.6,248.4L366.6,248.4z"/>
	<path class="st7" d="M368,256L368,256c0-0.1,0-0.2,0-0.4C368,255.8,368,255.9,368,256z"/>
	<path class="st7" d="M366.6,248C366.6,248,366.6,248,366.6,248C366.6,248.1,366.6,248,366.6,248L366.6,248
		C366.6,248,366.6,248,366.6,248z"/>
	<path class="st7" d="M366.6,248.3C366.6,248.3,366.6,248.4,366.6,248.3L366.6,248.3C366.6,248.4,366.6,248.3,366.6,248.3
		L366.6,248.3z"/>
	<path class="st7" d="M344,239.8c6,0,11.2,3.2,14,8.2h8.6c-2.5-6.8-8.3-12.5-15.4-14.8c-2.3-0.7-4.6-1.1-7.1-1.1
		c-4.7,0-9.1,1.4-12.9,3.8c-4.4,2.9-7.9,7.1-9.7,12h8.6C332.8,243,338,239.8,344,239.8z"/>
	<path class="st7" d="M331.1,236c3.7-2.4,8.1-3.8,12.9-3.8c2.5,0,4.9,0.4,7.1,1.1c-2.2-0.7-4.6-1.1-7.1-1.1
		C339.3,232.1,334.9,233.6,331.1,236z"/>
	<path class="st7" d="M366.6,248C366.6,248,366.6,248,366.6,248c-0.1-0.3-0.2-0.6-0.3-0.9c-1.9-4.7-5.3-8.7-9.7-11.4
		c-1.7-1-3.5-1.9-5.5-2.5C358.3,235.5,364,241.2,366.6,248z"/>
	<path class="st7" d="M331.1,236c-4.5,2.9-7.9,7.1-9.7,12c0,0,0,0,0,0C323.2,243.1,326.7,238.9,331.1,236z"/>
	<path class="st7" d="M331.1,236c3.7-2.4,8.1-3.9,12.9-3.9c2.5,0,4.9,0.4,7.1,1.1c1.9,0.6,3.8,1.4,5.5,2.5c-3.7-2.3-8-3.7-12.6-3.7
		c-10.4,0-19.3,7-22.6,16C323.2,243.1,326.7,238.8,331.1,236z"/>
	<path class="st7" d="M366.6,248c-0.1-0.3-0.2-0.6-0.4-0.9C366.4,247.4,366.5,247.7,366.6,248C366.6,248,366.6,248,366.6,248z"/>
	<path class="st7" d="M472.2,256c0,9-7.3,16.2-16.2,16.2c-8.9,0-16.2-7.2-16.2-16.2H432c0,14,10.7,24,24,24s24-10,24-24h-0.1H472.2z
		 M456,272.5c8.9,0,16.2-7.3,16.2-16.2C472.2,265.3,464.9,272.5,456,272.5z"/>
	<path class="st7" d="M456,272.5c8.9,0,16.2-7.2,16.2-16.2C472.2,265.2,464.9,272.5,456,272.5z"/>
	<path class="st7" d="M439.9,256c0-1.2,0.1-2.2,0.3-3.2c0.2-1.1,0.6-2.1,1-3.2c0.2-0.5,0.5-1.1,0.7-1.6h-8.6c0,0,0,0,0,0h0
		c-0.9,3-1.4,6-1.4,8h7.8H439.9z M433.4,248.4L433.4,248.4C433.4,248.4,433.4,248.3,433.4,248.4L433.4,248.4
		C433.4,248.3,433.4,248.4,433.4,248.4z"/>
	<path class="st7" d="M441.3,249.6c-0.5,1-0.8,2.1-1,3.2c0.1-0.3,0.1-0.6,0.2-0.9C440.7,251.2,440.9,250.4,441.3,249.6z"/>
	<path class="st7" d="M440.2,252.8c-0.2,1-0.3,2-0.3,3.2c0-1.1,0.1-2.1,0.3-3.1C440.2,252.9,440.2,252.9,440.2,252.8z"/>
	<path class="st7" d="M440.5,251.9c-0.1,0.3-0.2,0.6-0.2,0.9c0,0,0,0.1,0,0.1C440.3,252.6,440.4,252.2,440.5,251.9z"/>
	<path class="st7" d="M433.4,248.4L433.4,248.4C433.4,248.4,433.4,248.3,433.4,248.4L433.4,248.4
		C433.4,248.3,433.4,248.4,433.4,248.4z"/>
	<path class="st7" d="M472.2,256h7.7c0-2-0.5-5-1.4-8h-8.4C471.4,251,472.2,253,472.2,256z"/>
	<path class="st7" d="M470,248c1.4,3,2.1,5,2.1,8h0.1C472.2,253,471.4,251,470,248L470,248z"/>
	<path class="st7" d="M456,232.1c-10.4,0-19.2,6.9-22.6,15.9h8.6c2.8-5,8-8.2,14-8.2s11.2,3.2,14,8.2h0.1h8.4h0.1
		C475.2,239,466.4,232.1,456,232.1z"/>
	<path class="st7" d="M456,232c-10.4,0-19.3,7-22.6,16c0,0,0,0,0,0C436.8,239,445.6,232.1,456,232c10.4,0.1,19.2,7,22.6,16
		c0,0,0,0,0,0C475.3,239,466.5,232,456,232z"/>
	<path class="st7" d="M388.8,310.2c0,0,0.1,0,0.1,0c2.7,1,5.7,1.6,8.7,1.8C394.5,311.8,391.5,311.2,388.8,310.2z"/>
	<path class="st7" d="M400,248.2C400,248.3,400.1,248.3,400,248.2c5.9,0.1,11.3,1.7,16,4.4c-4.7-2.7-10.1-4.6-15.9-4.6
		C400.1,248,400,248.3,400,248.2z"/>
	<path class="st7" d="M400,248c-1,0-1.7-0.1-2.5-0.1c-4.8,1-9.5,2.3-13.5,4.6c0,0,0,0.1-0.1,0.1c0,0,0.1,0,0.1,0v0.1c0,0,0,0,0,0.1
		v3.3h-5.1h-0.1c-6.6,6-10.8,14.6-10.8,24.2c0,5.1,1.2,9.9,3.3,14.1c5.2,10.5,16.1,17.7,28.7,17.7c14,0,25.9-8.9,30.2-21.4
		c1.1-3.3,1.8-6.8,1.8-10.4c0-9.6-4.2-18.1-10.8-24.1h-0.4c0.1,0.1,0.2,0.2,0.4,0.3c-0.1-0.1-0.2-0.2-0.4-0.3H416v-3.4
		C411.3,249.9,405.9,248,400,248L400,248z M424.2,280.3c0,13.4-10.8,24.2-24.2,24.2c-13.4,0-24.2-10.8-24.2-24.2
		s10.8-24.2,24.2-24.2C413.4,256.1,424.2,266.9,424.2,280.3z"/>
	<path class="st7" d="M400.1,248.3C400.1,248.3,400,248.3,400.1,248.3L400.1,248.3L400.1,248.3z"/>
	<path class="st7" d="M400,312h2.4c3-0.2,5.9-0.8,8.7-1.8c9-3.3,16-10.6,19.2-19.7C425.9,303.1,414,312,400,312z"/>
	<path class="st7" d="M371.3,294.3c3.6,7.3,9.8,13,17.5,15.9c2.8,1,5.7,1.7,8.8,1.8h2.4C387.4,312,376.5,304.8,371.3,294.3z"/>
	<path class="st7" d="M388.9,310.2c2.4,0.9,4.9,1.5,7.6,1.8h1.1C394.5,311.8,391.6,311.2,388.9,310.2z"/>
	<path class="st7" d="M403.5,312c2.2-0.2,4.3-0.7,6.3-1.4c-2.4,0.7-4.9,1.2-7.5,1.4H403.5z"/>
	<path class="st7" d="M402.4,312c2.6-0.2,5.1-0.6,7.5-1.4c0.4-0.1,0.8-0.3,1.2-0.4C408.3,311.2,405.4,311.8,402.4,312z"/>
	<path class="st7" d="M400,312.1c-0.8,0-1.6-0.1-2.4-0.1h-1.1c1.2,0.1,2.3,0.2,3.5,0.2c1.2,0,2.4-0.1,3.5-0.2h-1.1
		C401.6,312,400.8,312.1,400,312.1z"/>
	<path class="st7" d="M397.6,312c0.8,0,1.6,0.1,2.4,0.1s1.6-0.1,2.4-0.1H400H397.6z"/>
	<path class="st7" d="M400.1,248L400.1,248l-0.1,0.2C400,248.3,400.1,248,400.1,248z"/>
	<path class="st7" d="M384,252.5L384,252.5C384,252.6,384,252.6,384,252.5z"/>
	<path class="st7" d="M424.2,280.3c0-13.4-10.8-24.2-24.2-24.2C413.3,256.2,424.2,267,424.2,280.3z"/>
	<path class="st7" d="M400,304.5c13.4,0,24.2-10.8,24.2-24.2C424.2,293.6,413.4,304.5,400,304.5z"/>
	<path class="st7" d="M416,252.6c-4.7-2.7-10.1-4.3-15.9-4.3C405.9,248.4,411.3,249.9,416,252.6z"/>
	<path class="st7" d="M368,280.1C368,280.1,368,280,368,280.1C368,280,368,280,368,280.1C368,280,368,280.1,368,280.1z"/>
	<path class="st7" d="M368.1,278.2c0.5-8.8,4.6-16.6,10.7-22.2c0,0-0.1,0-0.1,0C372.6,261.6,368.6,269.4,368.1,278.2z"/>
	<path class="st7" d="M368,280.1C368,280.1,368,280.1,368,280.1C368,280.1,368,280.1,368,280.1C368,280.1,368,280.1,368,280.1z"/>
	<path class="st7" d="M368.1,278.3c0,0.6,0,1.2-0.1,1.8C368,279.4,368,278.9,368.1,278.3z"/>
	<path class="st7" d="M368.1,278.2C368.1,278.2,368.1,278.3,368.1,278.2C368.1,278.3,368.1,278.2,368.1,278.2z"/>
	<polygon class="st7" points="368,280.1 368,280.1 368,280.1 	"/>
	<path class="st7" d="M432,280.1C432,280.1,432,280.1,432,280.1C432,280.1,432,280.1,432,280.1C432,280.1,432,280.1,432,280.1
		C432,280.1,432,280.1,432,280.1C432,280.1,432,280.1,432,280.1c0-9.6-4.2-18.1-10.7-24.1h-0.1C427.8,262,432,270.5,432,280.1z"/>
	<polygon class="st7" points="432,280.1 432,280.1 432,280.1 432,280.2 	"/>
	<path class="st7" d="M432,280.1C432,280,432,280,432,280.1c0-9.6-4.2-18.1-10.7-24.1C427.8,262,432,270.5,432,280.1z"/>
	<path class="st7" d="M432,280.1C432,280.1,432,280.1,432,280.1c0-9.6-4.2-18.1-10.8-24.1C427.8,262,432,270.6,432,280.1z"/>
	<path class="st7" d="M397.5,248c0.8,0,1.5,0.3,2.5,0.3v-0.1V248h-0.1H397.5z"/>
	<path class="st7" d="M384,252.6L384,252.6C384,252.6,384,252.6,384,252.6z"/>
	<path class="st7" d="M384,252.7c0,0,0.1,0,0.1-0.1v-0.1C384.1,252.6,384,252.6,384,252.7C384,252.6,384,252.6,384,252.7z"/>
	<path class="st7" d="M420.8,256h0.4c-0.7-0.4-1.4-0.9-2.2-1.4C419.7,255,420.3,255.5,420.8,256z"/>
	<path class="st7" d="M420.8,256c-0.7-0.6-1.4-1.1-2.2-1.7c-0.9-0.6-1.8-1.2-2.7-1.7v3.4H420.8z"/>
	<path class="st7" d="M419,254.6c-0.1-0.1-0.2-0.2-0.3-0.2c-0.9-0.6-1.8-1.2-2.7-1.7c0.9,0.5,1.8,1.1,2.7,1.7
		C418.8,254.4,418.9,254.5,419,254.6z"/>
	<path class="st7" d="M416,252.6c1,0.5,1.9,1.1,2.7,1.7C417.9,253.7,417,253.1,416,252.6z"/>
	<path class="st7" d="M421.2,256.3c-0.1-0.1-0.2-0.2-0.4-0.3h0C421,256.1,421.1,256.2,421.2,256.3z"/>
	<path class="st7" d="M418.7,254.3c0.7,0.5,1.5,1.1,2.2,1.7h0c-0.6-0.5-1.2-1-1.8-1.4C418.9,254.5,418.8,254.4,418.7,254.3z"/>
	<path class="st7" d="M384,256v-3.3c-1.9,1.1-3.5,2.3-5.1,3.3H384z"/>
	<path class="st7" d="M384,252.7L384,252.7c-1.8,1-3.6,2.3-5.2,3.3h0.1C380.5,255,382.1,253.7,384,252.7z"/>
</g>
</svg>
