<svg xmlns="http://www.w3.org/2000/svg" width="464" height="512" viewBox="0 0 464 512">
  <defs>
    <style>
      .cls-1 {
        fill: none;
      }

      .cls-2 {
        fill: #a67c52;
      }

      .cls-3 {
        fill: #c69c6d;
      }

      .cls-4 {
        fill: #39b54a;
      }

      .cls-5 {
        fill: #8cc63f;
      }

      .cls-6 {
        fill: #c7b299;
      }

      .cls-7 {
        fill: #998675;
      }

      .cls-8 {
        fill: #3f352f;
      }
    </style>
  </defs>
  <title>Fichier 2</title>
  <g id="Calque_2" data-name="Calque 2">
    <g id="Calque_1-2" data-name="Calque 1">
      <g>
        <path class="cls-1" d="M208,88a23.89,23.89,0,0,0-24-24v.2A23.9,23.9,0,0,1,208,88Z"/>
        <path class="cls-1" d="M248,108.6c.9.5,1.8,1.2,2.7,1.7C249.8,109.7,248.9,109.1,248,108.6Z"/>
        <polygon class="cls-1" points="211.6 230.2 216 208 211.6 230.2 208 248 209.8 239.2 211.6 230.2"/>
        <path class="cls-1" d="M207,105.1h0a.37.37,0,0,0-.1-.3C207,104.9,207,104.9,207,105.1Z"/>
        <path class="cls-1" d="M37.3,72.3c-.6.4-1.1.7-1.6,1.1a49.51,49.51,0,0,0-19.2,31.5A49.54,49.54,0,0,1,37.3,72.3Z"/>
        <path class="cls-1" d="M64,64a47.18,47.18,0,0,0-26.7,8.3c.4-.3.8-.5,1.2-.8A47.36,47.36,0,0,1,64,64Z"/>
        <path class="cls-1" d="M264,136.1h0a30.33,30.33,0,0,1-1.8,10.4A29.52,29.52,0,0,0,264,136.1Z"/>
        <path class="cls-1" d="M283.9,96.5a14.1,14.1,0,0,1,4.1-.7,15.81,15.81,0,0,1,9.1,2.8A15,15,0,0,1,302,104a16.05,16.05,0,0,0-28,0,10.59,10.59,0,0,1,1-1.2A16,16,0,0,1,283.9,96.5Z"/>
        <path class="cls-1" d="M264,136.2h0v0Z"/>
        <polygon class="cls-1" points="252.4 230.2 254.2 239.2 256 248 252.4 230.2 248 208 252.4 230.2"/>
        <path class="cls-1" d="M274,104h0c-.3.6-.6,1.1-.8,1.6a2.19,2.19,0,0,1,.3-.5A3.7,3.7,0,0,0,274,104Z"/>
        <polygon class="cls-1" points="339.5 89.1 328 81.6 332 84.3 339.4 89.1 362.1 104 356.1 100 339.5 89.1"/>
        <path class="cls-1" d="M198.6,104a37.63,37.63,0,0,1,1.4,7.6A27.27,27.27,0,0,0,198.6,104Z"/>
        <path class="cls-1" d="M198.2,103.1a23.05,23.05,0,0,0-9.7-11.4A24.41,24.41,0,0,1,198.2,103.1Z"/>
        <path class="cls-1" d="M193.1,85.5c.8.6,1.7,1.2,2.5,1.8A32.76,32.76,0,0,1,206.8,104,32.59,32.59,0,0,0,193.1,85.5Z"/>
        <path class="cls-1" d="M200,136.1h0a10.87,10.87,0,0,1,.1-1.8v-.1A32.56,32.56,0,0,1,210.7,112,32.69,32.69,0,0,0,200,136.1Z"/>
        <path class="cls-1" d="M253.2,112c-.8-.5-1.6-1.1-2.5-1.7.1.1.2.2.3.2A21.65,21.65,0,0,0,253.2,112Z"/>
        <path class="cls-1" d="M191.6,108.4a13.61,13.61,0,0,1,.5,3.6c0-3-.7-5-2.1-8a13.36,13.36,0,0,1,.7,1.8A11.42,11.42,0,0,1,191.6,108.4Z"/>
        <path class="cls-1" d="M206.8,104v.3h1.1a.37.37,0,0,0,.1-.3Z"/>
        <polygon class="cls-1" points="241.4 177.9 241.2 174.9 243.4 208 241.4 177.9"/>
        <polygon class="cls-1" points="101.7 104.5 101.6 105 101.8 104.5 101.8 104.4 101.8 104.4 101.7 104.5"/>
        <polygon class="cls-1" points="101.7 104 101.7 104.4 101.7 104.4 101.8 104.3 101.9 104.3 101.9 104.1 101.9 104.1 101.7 104"/>
        <path class="cls-1" d="M200,136.2h0a31.85,31.85,0,0,0,20.9,30h-.1A32,32,0,0,1,200,136.2Z"/>
        <path class="cls-1" d="M147.3,98.3a.35.35,0,0,1,.1-.2A.35.35,0,0,1,147.3,98.3Z"/>
        <path class="cls-1" d="M203.3,150.3a32.12,32.12,0,0,1-3.3-14.1A32.63,32.63,0,0,1,210.8,112a32.25,32.25,0,0,0-10.7,22.2v.1c0,.6-.1,1.2-.1,1.8h0v.1h0A31.8,31.8,0,0,0,203.3,150.3Z"/>
        <path class="cls-1" d="M88.8,36.5a21.36,21.36,0,0,0-.6,3.5h0a19.68,19.68,0,0,1,.6-3.5Z"/>
        <path class="cls-1" d="M280,24a40.16,40.16,0,0,0-40.2,40A40.22,40.22,0,0,1,280,24Z"/>
        <path class="cls-1" d="M241.9,35.5c.8-1,1.6-2,2.5-3-.9,1-1.7,2-2.5,3a50.53,50.53,0,0,0-5.9,10,51.73,51.73,0,0,0-3.3,11,51.73,51.73,0,0,1,3.3-11A55.89,55.89,0,0,1,241.9,35.5Z"/>
        <path class="cls-1" d="M280,49a39.59,39.59,0,0,0-28.2,11.2C259,53,269,48,280.1,48a40.12,40.12,0,0,0-40,40,39.84,39.84,0,0,1,11.7-28.2A39.75,39.75,0,0,0,240.2,88a38.58,38.58,0,0,1,11.6-27.7A39.67,39.67,0,0,1,280,49Z"/>
        <path class="cls-1" d="M184,48c22,1,39.9,18,39.9,40A41.48,41.48,0,0,0,222,75.8C216.8,60,201.8,48.8,184,48Z"/>
        <path class="cls-1" d="M255.7,104c0,.1.1.2.1.3h1.4V104Z"/>
        <path class="cls-1" d="M96,23.9A26.41,26.41,0,0,1,114.6,16,26.41,26.41,0,0,0,96,23.9Z"/>
        <path class="cls-1" d="M93.7,26.5h0c.2-.3.4-.5.6-.8h0a29.19,29.19,0,0,0-5.1,9.1h0A25.72,25.72,0,0,1,93.7,26.5Z"/>
        <path class="cls-1" d="M280.7,16a51.45,51.45,0,0,0-9.7,1.1,5.73,5.73,0,0,0-1.4.4c.5-.1,1-.3,1.4-.4A51.45,51.45,0,0,1,280.7,16Z"/>
        <path class="cls-1" d="M374.9,32.9a23.3,23.3,0,0,1,1.1,7h0A23.84,23.84,0,0,0,352.4,16,23.73,23.73,0,0,1,374.9,32.9Z"/>
        <path class="cls-1" d="M256.2,104.7Z"/>
        <path class="cls-1" d="M257.2,104.4v0Z"/>
        <path class="cls-1" d="M208.2,88a23.58,23.58,0,0,0-5.9-15.6A23.79,23.79,0,0,1,208,88Z"/>
        <polygon class="cls-1" points="48 112 72 96.4 72 96.3 48 112"/>
        <path class="cls-1" d="M384,81.6v.1L418.4,105h29.1v-1H418.4Z"/>
        <polygon class="cls-1" points="362.4 104 362.2 104 362.4 105 384 105 384 104.4 384 104 376 104 362.4 104"/>
        <path class="cls-1" d="M288,80.1c-14.8,0-27.2,10.9-30.8,23.9h0c3.6-13,16-23.8,30.8-23.9S315.3,91,318.8,104C315.3,91,302.8,80.1,288,80.1Z"/>
        <polygon class="cls-1" points="328 81.7 332 84.3 328 81.6 328 81.7"/>
        <polygon class="cls-1" points="208 248 208 248 209.8 239.2 208 248"/>
        <polygon class="cls-1" points="210.3 248 210.3 248 208.7 270.2 210.3 248"/>
        <path class="cls-1" d="M224.1,64h0a37.85,37.85,0,0,0-2.5-14A40,40,0,0,1,224.1,64Z"/>
        <path class="cls-1" d="M232,112.1a24.16,24.16,0,0,0-24.2,24.2A24.35,24.35,0,0,1,232,112.1Z"/>
        <path class="cls-1" d="M207.8,136.3A24.16,24.16,0,0,0,232,160.5,24.22,24.22,0,0,1,207.8,136.3Z"/>
        <polygon class="cls-1" points="256.9 292.4 253.7 248 253.7 248 256.9 292.4"/>
        <path class="cls-1" d="M264,136.2h0a30.33,30.33,0,0,1-1.8,10.4A32.29,32.29,0,0,1,243,166.3a32,32,0,0,0,21-30.1v0Z"/>
        <polygon class="cls-1" points="256 248 256 248 254.2 239.2 256 248"/>
        <path class="cls-1" d="M310.6,104h-.1a30.58,30.58,0,0,1,1.4,8h.2a27.49,27.49,0,0,0-1.5-8Z"/>
        <path class="cls-1" d="M190.7,105.8a16.14,16.14,0,0,1,.9,2.6A11.42,11.42,0,0,0,190.7,105.8Z"/>
        <path class="cls-1" d="M176,95.9a15.66,15.66,0,0,1,13.9,8.1h.1a16.05,16.05,0,0,0-28,0h.1A15.66,15.66,0,0,1,176,95.9Z"/>
        <path class="cls-1" d="M159.5,85a33.11,33.11,0,0,0-12.1,13.1.35.35,0,0,1-.1.2,28,28,0,0,0-2.2,5.7h.1A33.05,33.05,0,0,1,159.5,85Z"/>
        <path class="cls-1" d="M216,99.9a38.9,38.9,0,0,1,16-3.4v-.1a37.43,37.43,0,0,0-16,3.5Z"/>
        <path class="cls-1" d="M376,39.9Z"/>
        <path class="cls-1" d="M220.8,166.2a32.45,32.45,0,0,1-17.5-15.9,31.48,31.48,0,0,1-3.3-14.1h0A32,32,0,0,0,220.8,166.2Z"/>
        <path class="cls-1" d="M297.1,98.6A17,17,0,0,1,302,104h.1A17.27,17.27,0,0,0,297.1,98.6Z"/>
        <path class="cls-1" d="M283.9,96.5a16.52,16.52,0,0,0-8.9,6.2A19.37,19.37,0,0,1,283.9,96.5Z"/>
        <path class="cls-1" d="M273.5,105.1a2.19,2.19,0,0,1-.3.5c-.3.8-.6,1.5-.8,2.2C272.7,107,273.1,106.1,273.5,105.1Z"/>
        <path class="cls-1" d="M198.7,104h0a31.06,31.06,0,0,1,1.3,7.6v.4h.1a30.58,30.58,0,0,0-1.4-8Z"/>
        <path class="cls-1" d="M240.1,88h.1a39.75,39.75,0,0,1,11.6-28.2A39.84,39.84,0,0,0,240.1,88Z"/>
        <path class="cls-1" d="M271.9,112h-.1A16.2,16.2,0,0,0,288,128.2,16.11,16.11,0,0,1,271.9,112Z"/>
        <path class="cls-1" d="M271.9,112.1Z"/>
        <path class="cls-1" d="M96,23.9h0c-.6.6-1.1,1.2-1.7,1.8h0A14.48,14.48,0,0,1,96,23.9Z"/>
        <path class="cls-1" d="M89.3,34.8h0a10.93,10.93,0,0,0-.5,1.7h0A8.45,8.45,0,0,1,89.3,34.8Z"/>
        <path class="cls-1" d="M88,40Z"/>
        <path class="cls-1" d="M93.7,26.5Z"/>
        <polygon class="cls-1" points="243.5 208 241.4 177.9 243.4 208 243.5 208"/>
        <polygon class="cls-2" points="215.4 282 232 282 232 288 249.1 288 246.8 257 232 257 232 248 217.7 248 215.4 282"/>
        <polygon class="cls-2" points="209.9 361 240 361 240 368 254.6 368 252.4 336 224 336 224 328 212.2 328 209.9 361"/>
        <path class="cls-2" d="M241.2,174.9a40,40,0,0,1-9.2,1.3,39.94,39.94,0,0,0,9.2-1.1,39,39,0,0,1-18.4,0L221,201h11v7h11.4Z"/>
        <path class="cls-2" d="M232,176.2a39.29,39.29,0,0,0,9.2-1.1A39.94,39.94,0,0,1,232,176.2Z"/>
        <polygon class="cls-2" points="200.4 496 263.6 496 259.1 432 224 432 224 424 205.5 424 200.4 496"/>
        <polygon class="cls-3" points="240 377 208.8 377 205.5 424 224 424 224 417 258 417 254.6 368 240 368 240 377"/>
        <polygon class="cls-3" points="232 297 214.3 297 212.2 328 224 328 224 320 251.3 320 249.1 288 232 288 232 297"/>
        <polygon class="cls-3" points="219.9 217 217.7 248 232 248 232 241 245.7 241 243.5 208 243.4 208 232 208 232 217 219.9 217"/>
        <path class="cls-4" d="M223.9,87.9A40.31,40.31,0,0,0,222,75.8,40.47,40.47,0,0,1,223.9,88H216V99.8a38.9,38.9,0,0,1,16-3.4V64h-7.9a40,40,0,0,0-2.5-14,43.08,43.08,0,0,0-2.2-4.9A40.81,40.81,0,0,0,193.2,25c-.3-.1-.5-.1-.8-.2h-.1a38.37,38.37,0,0,0-8.3-.9H112a16,16,0,0,0-16.2,16H88.1c-.1,1-.1,2.1-.1,2.9v5.1h96A40.1,40.1,0,0,1,223.9,87.9ZM88.1,40.4h0v-.2h0Z"/>
        <path class="cls-4" d="M88.1,40.4v-.2h0Z"/>
        <path class="cls-5" d="M352,24H280a40.22,40.22,0,0,0-40.2,40H232v0h0V96.4a38.9,38.9,0,0,1,16,3.4V88h-7.9a40.12,40.12,0,0,1,40-40H376V40h-7.8A16,16,0,0,0,352,24Z"/>
        <path class="cls-4" d="M319,105h9v-1h-9Z"/>
        <path class="cls-4" d="M376,104h8V81.6L418.4,104h29.1c-3.7-22-23.6-39.8-47.5-39.8V64H376v40Z"/>
        <path class="cls-4" d="M255.9,104.4l.4.4a6.37,6.37,0,0,0,.7.2v-.1c0-.2.1-.4.1-.6h0l-1.2.1Z"/>
        <path class="cls-4" d="M255.8,104h1.4c3.6-13,16-23.9,30.8-23.9S315.3,91,318.8,104H328V81.6l11.5,7.5L356.2,100,339.6,88.9,362.3,104H376V64H280.1a24.24,24.24,0,0,0-24.2,24H248V99.8c2.7,1.2,5.3,3.2,7.8,4.2Z"/>
        <path class="cls-5" d="M101.6,104.5h0l.1-.5H88V64H64a47.36,47.36,0,0,0-25.5,7.5A48.08,48.08,0,0,1,64,64.2a47.8,47.8,0,0,0-26.7,8.1A49.51,49.51,0,0,0,16.5,105H45.6l.1-.2L80,81.8V105h21.6v-.5Zm-56,0h0L79.8,81.7Z"/>
        <path class="cls-5" d="M45.6,104.5,79.8,81.7Z"/>
        <path class="cls-5" d="M208,104.4h-1.1c0,.2.1.4.1.6A2.23,2.23,0,0,0,208,104.4Z"/>
        <path class="cls-5" d="M215.9,88H208a23.9,23.9,0,0,0-24-23.8V64H88v40h13.7l.2.1h0V104h-.1l34-22.6L101.9,104,136,81.7V104h9.1a35.42,35.42,0,0,1,2.2-5.7.35.35,0,0,1,.1-.2,32.56,32.56,0,0,1,14-14.2,30.42,30.42,0,0,1,31.7,1.6A33.25,33.25,0,0,1,206.8,104h1.5c2.4-1,4.7-3,7.7-4.2h0V88.4a.6.6,0,0,0-.1-.4Z"/>
        <path class="cls-5" d="M216,88.3V88h0Z"/>
        <path class="cls-5" d="M216,88v0Z"/>
        <path class="cls-5" d="M159.5,85a18.58,18.58,0,0,1,1.9-1.1,32.56,32.56,0,0,0-14,14.2A33.11,33.11,0,0,1,159.5,85Z"/>
        <path class="cls-5" d="M147.3,98.3a28,28,0,0,0-2.2,5.7h0A30.49,30.49,0,0,1,147.3,98.3Z"/>
        <path class="cls-5" d="M206.9,104.4H208a.1.1,0,0,1,.1-.1l-1.2.1Z"/>
        <path class="cls-6" d="M192.1,112.1V112h0Z"/>
        <path class="cls-6" d="M192.1,112.1V112H159.8a16.15,16.15,0,1,0,32.3.1Z"/>
        <path class="cls-6" d="M192.1,112v.1h0V112Z"/>
        <path class="cls-6" d="M190,104.3a10.09,10.09,0,0,1,.7,1.5c-.2-.6-.5-1.1-.7-1.8H162c-1.4,3-2.2,5-2.2,8h32.3A16.71,16.71,0,0,0,190,104.3Z"/>
        <path class="cls-6" d="M192.1,112h0a19.82,19.82,0,0,0-.4-3.6A22,22,0,0,1,192.1,112Z"/>
        <path class="cls-6" d="M191.6,108.4a13.38,13.38,0,0,0-.9-2.6c-.2-.5-.5-1-.7-1.5a16.71,16.71,0,0,1,2.1,7.7h0A14.87,14.87,0,0,0,191.6,108.4Z"/>
        <path class="cls-6" d="M176,95.9a15.66,15.66,0,0,0-13.9,8.1H190A15.93,15.93,0,0,0,176,95.9Z"/>
        <path class="cls-6" d="M272,112h0a16.1,16.1,0,1,0,32.2,0H272Z"/>
        <path class="cls-6" d="M271.9,112Z"/>
        <path class="cls-6" d="M271.9,112Z"/>
        <path class="cls-6" d="M274.1,104c0,.1-.1.1-.1.2a5.58,5.58,0,0,1-.5.8,16.12,16.12,0,0,0-1.6,6.9h32.2c0-3-.7-5-2.1-8H274.1Z"/>
        <path class="cls-6" d="M274,104a9.74,9.74,0,0,0-.5,1.1h0A5.36,5.36,0,0,0,274,104Z"/>
        <path class="cls-6" d="M272.2,108.9a14.16,14.16,0,0,0-.3,3.1h0A15.52,15.52,0,0,1,272.2,108.9Z"/>
        <path class="cls-6" d="M274,104.2c0-.1.1-.1.1-.2H274c-.2.4-.3.7-.5,1.1C273.7,104.8,273.8,104.5,274,104.2Z"/>
        <path class="cls-6" d="M273.5,105.1c-.4,1-.8,1.9-1.1,2.8-.1.4-.2.7-.3,1.1a15.53,15.53,0,0,0-.3,3.1h0a17.17,17.17,0,0,1,1.7-7Z"/>
        <path class="cls-6" d="M297.1,98.6a16.51,16.51,0,0,0-9.1-2.7,14,14,0,0,0-4.1.6,19.68,19.68,0,0,0-8.9,6.2,8.34,8.34,0,0,0-.8,1.2H302A17.74,17.74,0,0,0,297.1,98.6Z"/>
        <path class="cls-6" d="M274.1,104h0l.9-1.2a4.7,4.7,0,0,0-.9,1.2Z"/>
        <path class="cls-6" d="M297.1,98.6a15.81,15.81,0,0,0-9.1-2.8,11.41,11.41,0,0,0-4.1.7,14,14,0,0,1,4.1-.6A16.51,16.51,0,0,1,297.1,98.6Z"/>
        <path class="cls-7" d="M232,112.1a24.2,24.2,0,1,0,24.2,24.2A24.35,24.35,0,0,0,232,112.1Z"/>
        <path class="cls-8" d="M96,23.8A26.32,26.32,0,0,1,114.6,16,26.15,26.15,0,0,0,96,23.8Z"/>
        <path class="cls-8" d="M88.1,40a19.68,19.68,0,0,1,.6-3.5A19.72,19.72,0,0,0,88,40Z"/>
        <path class="cls-8" d="M202.3,16.2h-.6C201.9,16.1,202.1,16.2,202.3,16.2Z"/>
        <path class="cls-8" d="M89.2,34.8a27.32,27.32,0,0,1,5.1-9.1A26.27,26.27,0,0,1,114.6,16H199a36,36,0,0,1,9.3,1.3.9.9,0,0,0,.5.1c.1,0,.1,0,.2.1a32.88,32.88,0,0,1,13.4,8.1A32.88,32.88,0,0,0,209,17.5c-.1,0-.1,0-.2-.1a.9.9,0,0,0-.5-.1,35.89,35.89,0,0,0-5.7-1.1,34,34,0,0,1,19.8,9.6A33.25,33.25,0,0,1,232,49.4V61.8a25.21,25.21,0,0,1,.6-4.8c0-.1.1-.2.1-.4a51.73,51.73,0,0,1,3.3-11,49.67,49.67,0,0,1,5.9-10c.8-1,1.6-2,2.5-3a57.34,57.34,0,0,1,5.6-5.4A49.71,49.71,0,0,1,261.9,20a32.93,32.93,0,0,1,4.4-1.6c1-.3,2.1-.6,3.2-.9.5-.1,1-.3,1.4-.4a51.45,51.45,0,0,1,9.7-1.1h71.7a23.84,23.84,0,0,1,23.6,23.9h0V40h7.9c0-17-14.3-32-31.9-32h-72a55.84,55.84,0,0,0-41,18.4V0h-16V24.7c-10-10-23.7-15.7-39-15.7h-72C94.3,9,80,23,80,40h7.9v-.1C88.3,38.2,88.7,36.4,89.2,34.8Z"/>
        <path class="cls-8" d="M208.3,17.3a.9.9,0,0,0,.5.1A.9.9,0,0,1,208.3,17.3Z"/>
        <path class="cls-8" d="M202.3,16.2h.2a33.84,33.84,0,0,1,5.7,1.1,31.68,31.68,0,0,0-9.3-1.3,24.37,24.37,0,0,1,2.7.1C201.9,16.1,202.1,16.2,202.3,16.2Z"/>
        <path class="cls-8" d="M89.2,34.8A23.57,23.57,0,0,0,88,39.9V40h0c.2-1.2.4-2.4.7-3.5A15.43,15.43,0,0,0,89.2,34.8Z"/>
        <path class="cls-8" d="M209,17.6a34,34,0,0,1,13.4,8.1A32.88,32.88,0,0,0,209,17.6Z"/>
        <path class="cls-8" d="M208.8,17.5c.1,0,.1,0,.2.1C208.9,17.5,208.9,17.5,208.8,17.5Z"/>
        <path class="cls-8" d="M96,23.8A26.15,26.15,0,0,1,114.6,16a26.27,26.27,0,0,0-20.3,9.7A15.37,15.37,0,0,1,96,23.8Z"/>
        <path class="cls-8" d="M88.1,40.2v.2h0v-.2Z"/>
        <path class="cls-8" d="M232.1,64.3h0c-.1,0-.1.1,0,0Z"/>
        <path class="cls-8" d="M93.7,26.5c.2-.3.4-.5.6-.8A5.54,5.54,0,0,0,93.7,26.5Z"/>
        <path class="cls-8" d="M89.3,34.8a28.77,28.77,0,0,1,4.4-8.3A23.71,23.71,0,0,0,89.3,34.8Z"/>
        <path class="cls-8" d="M232,49.5a36.16,36.16,0,0,0-1.3-9.4.9.9,0,0,1-.1-.5c0-.1,0-.1-.1-.2A34,34,0,0,0,222.4,26a32.88,32.88,0,0,1,8.1,13.4c0,.1,0,.1.1.2a.9.9,0,0,1,.1.5c.2.8.4,1.6.6,2.5A33.49,33.49,0,0,0,198.9,16H114.6A26.41,26.41,0,0,0,96,23.9a28.35,28.35,0,0,0-7.2,12.6,21.36,21.36,0,0,0-.6,3.5h7.7a16,16,0,0,1,16.2-16h72a40.25,40.25,0,0,1,40.2,40h7.8V49.5Z"/>
        <path class="cls-8" d="M231.3,42.8v.3C231.4,42.9,231.3,42.9,231.3,42.8Z"/>
        <path class="cls-8" d="M221.6,50a37.5,37.5,0,0,1,2.6,14,39.19,39.19,0,0,0-4.9-19A45.22,45.22,0,0,1,221.6,50Z"/>
        <path class="cls-8" d="M94.3,25.7c-.2.3-.4.5-.6.8h0a28.77,28.77,0,0,0-4.4,8.3,10.93,10.93,0,0,0-.5,1.7A28.76,28.76,0,0,1,96,23.9,14.48,14.48,0,0,0,94.3,25.7Z"/>
        <path class="cls-8" d="M184,24a36.8,36.8,0,0,1,8.2.9h.1c.3.1.5.1.8.2a40.19,40.19,0,0,1,26.2,20.1,30.62,30.62,0,0,1,2.2,4.9,44.58,44.58,0,0,0-2.2-5A40.1,40.1,0,0,0,184,24Z"/>
        <path class="cls-8" d="M231.3,42.6v.5a33.87,33.87,0,0,1,.6,6.4,33.85,33.85,0,0,0-9.6-23.6,32.9,32.9,0,0,0-19.8-9.6h-.8a26.2,26.2,0,0,0-2.8-.1,33,33,0,0,1,23.4,9.9A31.51,31.51,0,0,1,231.3,42.6Z"/>
        <path class="cls-8" d="M199,16h0a24.37,24.37,0,0,1,2.7.1A24.37,24.37,0,0,0,199,16Z"/>
        <path class="cls-8" d="M202.6,16.2h0Z"/>
        <path class="cls-8" d="M193.1,25.1a40.5,40.5,0,0,1,26.2,20.1A39.88,39.88,0,0,0,193.1,25.1Z"/>
        <path class="cls-8" d="M192.3,24.9Z"/>
        <path class="cls-8" d="M193.1,25.1c-.3-.1-.5-.1-.8-.2A2.35,2.35,0,0,1,193.1,25.1Z"/>
        <path class="cls-8" d="M183.9,24a37.7,37.7,0,0,1,8.3.9,37,37,0,0,0-8.3-.9Z"/>
        <path class="cls-8" d="M230.5,39.6c0-.1,0-.1-.1-.2C230.5,39.5,230.5,39.5,230.5,39.6Z"/>
        <path class="cls-8" d="M230.4,39.4A32.88,32.88,0,0,0,222.3,26,32.88,32.88,0,0,1,230.4,39.4Z"/>
        <path class="cls-8" d="M230.7,40.1c0-.2-.1-.3-.1-.5A.9.9,0,0,0,230.7,40.1Z"/>
        <path class="cls-8" d="M231.3,42.8v-.2c-.2-.8-.4-1.7-.6-2.5a32.35,32.35,0,0,1,1.3,9.4,34.93,34.93,0,0,0-.6-6.5C231.4,42.9,231.3,42.9,231.3,42.8Z"/>
        <path class="cls-8" d="M231.3,42.6v0Z"/>
        <path class="cls-8" d="M232,49.5v-.1a33.87,33.87,0,0,0-.6-6.4A34.93,34.93,0,0,1,232,49.5Z"/>
        <path class="cls-8" d="M376,39.9a23.64,23.64,0,0,0-23.6-23.6,23.5,23.5,0,0,1,22.5,16.6A23.83,23.83,0,0,0,352.4,16H280.7a51.45,51.45,0,0,0-9.7,1.1,5.73,5.73,0,0,0-1.4.4c-1.1.3-2.1.7-3.2,1-1.5.5-3,1-4.4,1.6a50,50,0,0,0-17.6,12.5,36.12,36.12,0,0,0-2.5,3,52.6,52.6,0,0,0-5.9,10,46.54,46.54,0,0,0-3.3,11c0,.1-.1.2-.1.4a26.26,26.26,0,0,0-.6,4.8V64h7.8A40.16,40.16,0,0,1,280,24h72a16,16,0,0,1,16.2,16H376v-.1ZM232.7,57a48.47,48.47,0,0,1,3.4-11.4A44.18,44.18,0,0,0,232.7,57Zm9.2-21.5a44.94,44.94,0,0,1,8-8.3A52.21,52.21,0,0,0,241.9,35.5Zm24.4-17c-1.5.5-3,1-4.4,1.6a32.93,32.93,0,0,1,4.4-1.6,39,39,0,0,1,4.6-1.2A39,39,0,0,0,266.3,18.5Z"/>
        <path class="cls-8" d="M249.9,27.2a48.44,48.44,0,0,1,12-7.2c1.4-.6,2.9-1.1,4.4-1.6,1-.3,2.1-.7,3.2-1l-3.2.9c-1.5.5-3,1-4.4,1.6a52,52,0,0,0-12,7.3,46.81,46.81,0,0,0-5.6,5.3C246.1,30.7,247.9,28.9,249.9,27.2Z"/>
        <path class="cls-8" d="M232.7,56.6c0,.1-.1.2-.1.4a26.26,26.26,0,0,0-.6,4.8,25.21,25.21,0,0,1,.6-4.8C232.6,56.8,232.7,56.7,232.7,56.6Z"/>
        <path class="cls-8" d="M376,39.9a23.3,23.3,0,0,0-1.1-7A23.3,23.3,0,0,1,376,39.9Z"/>
        <path class="cls-8" d="M352.4,16.3A23.64,23.64,0,0,1,376,39.9a23.75,23.75,0,0,0-23.6-23.6Z"/>
        <path class="cls-8" d="M232,61.8v0Z"/>
        <path class="cls-8" d="M248,108.6V104H232.1A32,32,0,0,1,248,108.6Z"/>
        <path class="cls-8" d="M216.1,104H216v4.5c4-2.3,8.6-3.5,13.5-4.5Z"/>
        <polygon class="cls-8" points="200 328.2 200 328 200 328 200 328.2"/>
        <path class="cls-8" d="M400,49H376v7h24c30.9,0,56,26,56,56H416L392,96.4V112H360l-12-8H336v8H312c0,14-10.7,24-24,24s-24-10-24-24H253.3A32.64,32.64,0,0,1,264,136v.1h0v.1h0a32,32,0,0,1-22.1,30.4,33.76,33.76,0,0,1-6.3,1.4H248l4.4,62.2L256,248h-2.3l3.2,44.4L264,328h-4.6l2.9,40H264l8,56h-5.7l5.7,80H192l5.7-80H192l8-56h1.7l2.9-40h-4.5l-.1.4.1-.4h0v0l7.1-35.6,3.2-44.4H208l3.6-17.8L216,168h12.5a32.39,32.39,0,0,1-7.6-1.8,31.85,31.85,0,0,1-20.9-30h0v-.1h0V136h0a32.86,32.86,0,0,1,10.7-24.1H200v.1a14.77,14.77,0,0,1-.1,2.1A23.38,23.38,0,0,1,182.8,135a24.82,24.82,0,0,1-6.8,1c-13.3,0-24-10-24-24H128v-8H116l-12,8H72V96.4L48,112H8A56,56,0,0,1,64,56H88V49H64C28.8,49,0,77.1,0,112.4V120H50.3L64,111.1V120h42.3l13.7-9v9h25.1A31.74,31.74,0,0,0,176,144.1a31.1,31.1,0,0,0,16.3-4.4,39.51,39.51,0,0,0,15.3,28L184.7,496H145v16H320V496H279.4L256.5,167.6a39.35,39.35,0,0,0,15.3-28,31.1,31.1,0,0,0,16.3,4.4A31.74,31.74,0,0,0,319,119.9h25v-9l13.8,9H400v-9l13.8,9H464v-7.7C463.9,77.1,435.2,49,400,49Z"/>
        <path class="cls-8" d="M264,136.2Z"/>
        <polygon class="cls-8" points="210.3 248 207.1 292.4 208.7 270.2 210.3 248"/>
        <path class="cls-8" d="M264,136.2Z"/>
        <path class="cls-8" d="M264,136.2Z"/>
        <path class="cls-8" d="M243.1,166.2c-.4.1-.8.3-1.2.4A31.76,31.76,0,0,0,264,136.2h0A31.85,31.85,0,0,1,243.1,166.2Z"/>
        <path class="cls-8" d="M200,136.2Z"/>
        <path class="cls-8" d="M200,112.1h0a14.77,14.77,0,0,1-.1,2.1A14.77,14.77,0,0,0,200,112.1Z"/>
        <path class="cls-8" d="M152,112c0,14,10.7,24,24,24a22.4,22.4,0,0,0,6.8-1,24.83,24.83,0,0,1-6.8.9C162.7,136,152,126,152,112Z"/>
        <polygon class="cls-8" points="215.4 282 217.7 248 210.3 248 208.7 270.2 207.1 292.3 208 288 232 288 232 282 215.4 282"/>
        <polygon class="cls-8" points="208.7 270.2 207.1 292.4 207.1 292.3 208.7 270.2"/>
        <path class="cls-8" d="M228.5,168H216l-4.4,62.2L216,208h16v-7H221l1.8-25.9a37.38,37.38,0,0,0,18.4-.1l.2,3-.2-3.1,2.3,33.2H248l4.4,22.2L248,168H235.5c-1.2.1-2.3.2-3.5.2S229.6,168.1,228.5,168Z"/>
        <polygon class="cls-8" points="241.2 174.8 241.4 177.9 243.5 208 241.2 174.8"/>
        <path class="cls-8" d="M232,176.2a40,40,0,0,0,9.2-1.3,45.35,45.35,0,0,1-9.2,1.3,45.43,45.43,0,0,1-9.2-1.1L221,201l1.8-25.9A39.94,39.94,0,0,0,232,176.2Z"/>
        <path class="cls-8" d="M232,176.2a39.94,39.94,0,0,1-9.2-1.1A39.29,39.29,0,0,0,232,176.2Z"/>
        <polygon class="cls-8" points="204.6 328.4 201.7 368 240 368 240 361 209.9 361 212.2 328 204.6 328 201.7 368 201.7 368 204.6 328.4"/>
        <polygon class="cls-8" points="224 432 259.1 432 263.6 496 200.4 496 205.5 424 197.7 424 192 504 272 504 266.3 424 224 424 224 432"/>
        <polygon class="cls-8" points="232 248 232 257 246.8 257 249.1 288 256 288 256.9 292.4 253.7 248 232 248"/>
        <polygon class="cls-8" points="224 336 252.4 336 254.6 368 262.3 368 259.4 328 224 328 224 336"/>
        <polygon class="cls-8" points="200 368 192 424 197.7 424 201.7 368 200 368"/>
        <polygon class="cls-8" points="272 424 264 368 262.3 368 266.3 424 272 424"/>
        <polygon class="cls-8" points="258 417 224 417 224 424 266.3 424 262.3 368 254.6 368 258 417"/>
        <polygon class="cls-8" points="208.8 377 240 377 240 368 201.7 368 201.7 368.4 201.7 368 201.7 368 197.7 424 205.5 424 208.8 377"/>
        <polygon class="cls-8" points="264 328 256.9 292.4 259.4 328 264 328"/>
        <polygon class="cls-8" points="207.1 292.6 200 328 200.1 328 207.1 293 207.1 292.6"/>
        <polygon class="cls-8" points="200.1 328 204.6 328 207.1 293 200.1 328"/>
        <polygon class="cls-8" points="207.1 292.4 200 328 200 328 207.1 292.6 207.1 292.4"/>
        <polygon class="cls-8" points="214.3 297 232 297 232 288 208 288 207.1 292.3 207.1 292.5 207.1 292.6 207.1 293 207.1 292.8 207.1 293 204.6 328 212.2 328 214.3 297"/>
        <polygon class="cls-8" points="207.1 292.5 207.1 292.3 207.1 292.4 207.1 292.6 207.1 292.5"/>
        <polygon class="cls-8" points="249.1 288 251.3 320 224 320 224 328 259.4 328 256.9 292.4 256 288 249.1 288"/>
        <polygon class="cls-8" points="211.6 230.6 208 248 210.3 248 210.3 248 211.6 230.6"/>
        <polygon class="cls-8" points="209.8 239.2 211.6 230.4 211.6 230.2 209.8 239.2"/>
        <polygon class="cls-8" points="211.6 230.4 209.8 239.2 208 248 211.6 230.6 211.6 230.4"/>
        <polygon class="cls-8" points="253.7 248 253.7 248 256 248 252.4 230.6 253.7 248"/>
        <polygon class="cls-8" points="254.2 239.2 252.4 230.2 252.4 230.4 254.2 239.2"/>
        <polygon class="cls-8" points="252.4 230.4 252.4 230.6 256 248 254.2 239.2 252.4 230.4"/>
        <polygon class="cls-8" points="211.6 230.4 211.6 230.3 216 208.3 211.6 230.4 211.6 230.6 210.3 248 217.7 248 219.9 217 232 217 232 208 231.6 208 216 208 211.6 230.2 211.6 230.4"/>
        <polygon class="cls-8" points="216 208.3 211.6 230.3 211.6 230.4 211.6 230.6 211.6 230.4 216 208.3"/>
        <polygon class="cls-8" points="232 241 232 248 253.7 248 252.4 230.6 252.4 230.4 248 208.1 252.4 230.3 252.4 230.4 252.4 230.2 248 208 243.5 208 245.7 241 232 241"/>
        <polygon class="cls-8" points="248 208.1 252.4 230.4 252.4 230.6 252.4 230.4 252.4 230.3 248 208.1"/>
        <path class="cls-8" d="M229.5,104H232V96.5a38.9,38.9,0,0,0-16,3.4V104h13.5Z"/>
        <polygon class="cls-8" points="116 104 128 104 128 96.3 116 104"/>
        <path class="cls-8" d="M184,56a32.24,32.24,0,0,1,30.4,22.1A29.78,29.78,0,0,1,216,88h7.9c0-22-17.9-39-39.9-40H88v8Z"/>
        <path class="cls-8" d="M212.2,73.2A32,32,0,0,0,184,56,32.25,32.25,0,0,1,212.2,73.2Z"/>
        <path class="cls-8" d="M212.2,73.2a42.48,42.48,0,0,1,2.1,4.9A32,32,0,0,0,183.9,56,31.91,31.91,0,0,1,212.2,73.2Z"/>
        <path class="cls-8" d="M222,75.8A40,40,0,0,0,184,48C201.8,48.8,216.8,60,222,75.8Z"/>
        <path class="cls-8" d="M222,75.8a39.82,39.82,0,0,1,1.9,12.1A40,40,0,0,0,184,48,40,40,0,0,1,222,75.8Z"/>
        <polygon class="cls-8" points="336 104 336.1 104 348 104 336 96.3 336 104"/>
        <path class="cls-8" d="M232,96.5V104h16V99.9A38.9,38.9,0,0,0,232,96.5Z"/>
        <path class="cls-8" d="M248,99.9h0a37.43,37.43,0,0,0-16-3.5v.1A38.9,38.9,0,0,1,248,99.9Z"/>
        <path class="cls-8" d="M251.8,60.3A38.58,38.58,0,0,0,240.2,88H248a32.44,32.44,0,0,1,32.1-32H376V49H280A39.67,39.67,0,0,0,251.8,60.3Z"/>
        <path class="cls-8" d="M251.8,60.2A39.59,39.59,0,0,1,280,49h96V48H280.1C269,48,259,53,251.8,60.2Z"/>
        <path class="cls-8" d="M376,56v0h0v8h24c23.9,0,43.7,18,47.5,40h0v1H418.4L384,81.7V105H362.4l-.2-1H348l12,8h32V96.4L416,112h40c0-30-25.1-56-56-56Z"/>
        <path class="cls-8" d="M447.5,104h0c-3.8-22-23.6-40-47.5-40v.2A48.57,48.57,0,0,1,447.5,104Z"/>
        <path class="cls-8" d="M328,104v1h-9v-1h-8.3a30.58,30.58,0,0,1,1.4,8H336v-8h-8Z"/>
        <path class="cls-8" d="M257.2,104h0v.6a1.42,1.42,0,0,1-.2.6,5.55,5.55,0,0,1-.8-.6s0-.2-.1-.2-.3-.5-.4-.5h.1s-.1.1-.1,0H248v4.6a17.77,17.77,0,0,1,2.7,1.7c.9.6,1.7,1.2,2.5,1.7H264a30.58,30.58,0,0,1,1.4-8h-8.2Z"/>
        <path class="cls-8" d="M257.2,104.3Z"/>
        <path class="cls-8" d="M257,105a1.85,1.85,0,0,0-.7-.2,3,3,0,0,0,.7.5V105Z"/>
        <path class="cls-8" d="M255.8,104.3h0C255.9,104.4,255.9,104.3,255.8,104.3Z"/>
        <path class="cls-8" d="M255.9,104.4c.1.1.1.2.2.2l.1.1.1.1C256.2,104.6,256,104.5,255.9,104.4Z"/>
        <path class="cls-8" d="M256.2,104.7c.3.2.5.4.8.6-.2-.2-.5-.3-.7-.5A.1.1,0,0,0,256.2,104.7Z"/>
        <path class="cls-8" d="M255.9,104.4l-.1-.1h-.1c.1.1.3.2.4.3C256,104.6,256,104.5,255.9,104.4Z"/>
        <path class="cls-8" d="M257,104.9c0-.1.1-.1.1-.2v-.4h0A1.27,1.27,0,0,1,257,104.9Z"/>
        <path class="cls-8" d="M257,105.3c.1-.2.1-.4.2-.6,0,.1-.1.1-.1.2A.6.6,0,0,0,257,105.3Z"/>
        <path class="cls-8" d="M257.2,104.4Z"/>
        <path class="cls-8" d="M248.1,88h7.7A24.31,24.31,0,0,1,280,64h96V56H280.1C262.4,56,248.1,71,248.1,88Z"/>
        <path class="cls-8" d="M280.1,64h0a24.33,24.33,0,0,0-24.3,24h.1A24.24,24.24,0,0,1,280.1,64Z"/>
        <rect class="cls-8" x="376" y="56.3" width="0.1" height="0.1"/>
        <path class="cls-8" d="M280.1,56A32.44,32.44,0,0,0,248,88h.1C248.1,71,262.4,56,280.1,56Z"/>
        <rect class="cls-8" x="376" y="56.2" width="0.1" height="0.1"/>
        <path class="cls-8" d="M288,80.2c-14.8,0-27.2,10.8-30.8,23.8h8.1a24,24,0,0,1,45.2,0h8.2C315.3,91,302.8,80.2,288,80.2Z"/>
        <path class="cls-8" d="M248,104h7.7c-2.4-1-5-3-7.7-4.2V104Z"/>
        <polygon class="cls-8" points="339.4 89.1 332 84.3 339.4 89.2 328 81.7 328 104 328.2 104 336 104 336 96.3 348 104 362.1 104 339.4 89.1"/>
        <polygon class="cls-8" points="339.4 89.2 332 84.3 328 81.7 339.4 89.2"/>
        <polygon class="cls-8" points="362.1 104 362.2 104 356.1 100 362.1 104"/>
        <polygon class="cls-8" points="356.1 100 362.2 104 339.5 88.9 356.1 100"/>
        <path class="cls-8" d="M216,108.6h0V104h-7.8c0,.1-.1,0-.1,0h.2c-.4,1-.7.8-1.1,1.1v.1h0a.35.35,0,0,0-.1-.2v.2h0v-.1h0a.75.75,0,0,0-.1-.5c0-.1-.1.4-.1-.6H199a30.58,30.58,0,0,1,1.4,8h10.7A58.29,58.29,0,0,1,216,108.6Z"/>
        <path class="cls-8" d="M207.1,105.3Z"/>
        <path class="cls-8" d="M208,104.4a2.13,2.13,0,0,1-.9.6.37.37,0,0,0,.1.3h0a8.7,8.7,0,0,1,1.1-.9H208Z"/>
        <path class="cls-8" d="M208.2,104.4l.1-.1H208a.1.1,0,0,1-.1.1Z"/>
        <path class="cls-8" d="M207.1,105.3c.4-.3.7-.6,1.1-.9h0A8.7,8.7,0,0,0,207.1,105.3Z"/>
        <path class="cls-8" d="M206.9,104.4h0v.4c0,.1.1.2.1.3h0C207,104.8,206.9,104.6,206.9,104.4Z"/>
        <path class="cls-8" d="M206.8,104.4c0,.1.1.2.1.4a.76.76,0,0,0-.1-.4Z"/>
        <path class="cls-8" d="M207,105c0,.1.1.2.1.3h0c0-.1-.1-.2-.1-.3Z"/>
        <path class="cls-8" d="M208.2,104.4l.1-.1-.1.1Z"/>
        <path class="cls-8" d="M206.8,104.3Z"/>
        <path class="cls-8" d="M208.2,104.4l.1-.1-.1.1Z"/>
        <path class="cls-8" d="M206.9,104.4Z"/>
        <path class="cls-8" d="M206.9,104.3h0c-.1,0-.1.1,0,0Z"/>
        <rect class="cls-8" x="216" y="104.3" width="0.1" height="0.1"/>
        <path class="cls-8" d="M101.9,103.9h0l-.1.3v.2l-.2.6H80V81.7L45.6,105H16.5A49.26,49.26,0,0,1,35.7,73.5a48.15,48.15,0,0,0-19.2,31A48.12,48.12,0,0,1,37.3,72.3,47.42,47.42,0,0,1,64,64H88V56H64A56,56,0,0,0,8,112H48L72,96.3V112h32l12-8H102.1Z"/>
        <polygon class="cls-8" points="45.6 105 80 81.7 45.7 104.8 45.6 105"/>
        <polygon class="cls-8" points="101.9 104.1 102.1 104 101.9 104 101.9 104.1"/>
        <polygon class="cls-8" points="101.8 104.4 101.7 104.4 101.7 104.4 101.7 104.5 101.8 104.4"/>
        <polygon class="cls-8" points="101.7 104.5 101.7 104.4 101.6 104.5 101.7 104.5"/>
        <path class="cls-8" d="M38.5,71.5c-.4.3-.8.5-1.2.8s-1.1.7-1.6,1.1a15.26,15.26,0,0,1,1.6-1.1A8.34,8.34,0,0,0,38.5,71.5Z"/>
        <path class="cls-8" d="M64,64.2a48.08,48.08,0,0,0-25.5,7.3c-.4.3-.8.5-1.2.8A47.8,47.8,0,0,1,64,64.2Z"/>
        <path class="cls-8" d="M16.5,104.5a48.15,48.15,0,0,1,19.2-31,15.26,15.26,0,0,1,1.6-1.1A47.69,47.69,0,0,0,16.5,104.5Z"/>
        <polygon class="cls-8" points="101.7 104.4 101.8 104.4 101.8 104.4 101.9 104.3 101.8 104.3 101.7 104.4"/>
        <polygon class="cls-8" points="101.9 104.3 101.9 104.3 101.8 104.4 101.9 104.3"/>
        <path class="cls-8" d="M64,56A56,56,0,0,0,8,112H8A56,56,0,0,1,64,56Z"/>
        <path class="cls-8" d="M145.2,104h0l-.2.4v.6h-9v-1h-8v8h24a30.58,30.58,0,0,1,1.4-8Zm-9.3.4h-.1v-.1l.1.1Zm9.3,0Z"/>
        <path class="cls-8" d="M145.1,104c0,.1,0,.1-.1.2v.2l.2-.4Z"/>
        <path class="cls-8" d="M145.1,104h0l-.1.2C145,104.1,145,104.1,145.1,104Z"/>
        <path class="cls-8" d="M145.2,104.4Z"/>
        <path class="cls-8" d="M145,104h-9v1h9v-1Z"/>
        <rect class="cls-8" x="135.8" y="104.3" width="0.1" height="0.1"/>
        <path class="cls-8" d="M208.3,104H216V99.9C213,101.1,210.7,103,208.3,104Z"/>
        <path class="cls-8" d="M216,99.8Z"/>
        <path class="cls-8" d="M216,99.8c-3,1.2-5.3,3.2-7.7,4.2h0c2.4-1,4.7-2.9,7.7-4.2Z"/>
        <path class="cls-8" d="M216,88a33.09,33.09,0,0,0-1.6-9.9A32.58,32.58,0,0,1,216,88Z"/>
        <path class="cls-8" d="M184,64a24.37,24.37,0,0,1,18.3,8.4A24.05,24.05,0,0,0,184,63.8,24.48,24.48,0,0,1,208.2,88H216a33.75,33.75,0,0,0-3.7-14.8A32.18,32.18,0,0,0,184.1,56h-96v8H184Z"/>
        <path class="cls-8" d="M216,88h0a32.58,32.58,0,0,0-1.6-9.9,42.48,42.48,0,0,0-2.1-4.9A33.75,33.75,0,0,1,216,88Z"/>
        <path class="cls-8" d="M184,63.8a24.05,24.05,0,0,1,18.3,8.6A23.58,23.58,0,0,1,208.2,88,24.48,24.48,0,0,0,184,63.8Z"/>
        <path class="cls-8" d="M191.2,84.4a31.31,31.31,0,0,0-15.2-4h0v.1h0l-.1.1a31.59,31.59,0,0,0-30.6,23.6h8.1a24.47,24.47,0,0,1,22.6-16,23.82,23.82,0,0,1,12.6,3.7,24.49,24.49,0,0,1,9.7,11.4,3.55,3.55,0,0,0,.4.9h8A32.63,32.63,0,0,0,191.2,84.4Z"/>
        <path class="cls-8" d="M175.9,80.3a31.79,31.79,0,0,0-13.1,2.9,31.56,31.56,0,0,1,5.9-2,43,43,0,0,1,7.2-.9Z"/>
        <path class="cls-8" d="M191.2,84.4a32.35,32.35,0,0,1,4.3,2.9c-.8-.6-1.6-1.2-2.5-1.8a29.19,29.19,0,0,0-10.4-4.4A27.93,27.93,0,0,1,191.2,84.4Z"/>
        <path class="cls-8" d="M168.7,81.2a33.59,33.59,0,0,1,7.1-.8.1.1,0,0,0,.1-.1h0A43,43,0,0,0,168.7,81.2Z"/>
        <path class="cls-8" d="M168.7,81.2a34.06,34.06,0,0,0-5.9,2,26.85,26.85,0,0,0-3.3,1.8,33.05,33.05,0,0,0-14.3,19A33,33,0,0,1,168.7,81.2Z"/>
        <path class="cls-8" d="M175.9,80.1V80h0v.3h0a32.16,32.16,0,0,1,17.2,5.2,31.58,31.58,0,0,0-17.2-5.4,32.56,32.56,0,0,0-14.5,3.8,10,10,0,0,0,1.4-.8A31.86,31.86,0,0,1,175.9,80.1Z"/>
        <path class="cls-8" d="M175.9,80.4Z"/>
        <path class="cls-8" d="M162.8,83.2a9.14,9.14,0,0,0-1.4.7c-.7.4-1.3.7-1.9,1.1Z"/>
        <path class="cls-8" d="M195.6,87.3A32.58,32.58,0,0,1,206.7,104h.1A32.76,32.76,0,0,0,195.6,87.3Z"/>
        <path class="cls-8" d="M195.6,87.3a29.48,29.48,0,0,0-4.3-2.9A32.64,32.64,0,0,1,206.7,104,33.21,33.21,0,0,0,195.6,87.3Z"/>
        <path class="cls-8" d="M176,80.3h0a30.33,30.33,0,0,1,15.2,4.1,31.29,31.29,0,0,0-8.5-3.3A29.27,29.27,0,0,0,176,80.3Z"/>
        <path class="cls-8" d="M182.7,81a30.15,30.15,0,0,0-6.8-.8v.1h0A36.39,36.39,0,0,1,182.7,81Z"/>
        <path class="cls-8" d="M206.7,104.3h0l.1.1v-.1Z"/>
        <polygon class="cls-8" points="136 104 136 81.7 102.1 104 116 104 128 96.3 128 104 135.9 104 136 104"/>
        <polygon class="cls-8" points="102.1 104 136 81.7 101.9 104 102.1 104"/>
        <polygon class="cls-8" points="101.8 104 101.9 104 135.8 81.4 101.8 104"/>
        <path class="cls-8" d="M192.2,112a16.2,16.2,0,0,1-32.4,0H152c0,14,10.7,24,24,24a25.91,25.91,0,0,0,6.8-.9,23.8,23.8,0,0,0,17.1-20.9,15.48,15.48,0,0,0,.1-2.2h-7.8Zm-32.4.3A16.26,16.26,0,0,0,176,128.5,16.2,16.2,0,0,1,159.8,112.3Z"/>
        <path class="cls-8" d="M159.8,112.3A16.2,16.2,0,0,0,176,128.5,16.26,16.26,0,0,1,159.8,112.3Z"/>
        <path class="cls-8" d="M200,112Z"/>
        <path class="cls-8" d="M182.8,135.1a23.26,23.26,0,0,0,17.1-20.9A23.94,23.94,0,0,1,182.8,135.1Z"/>
        <path class="cls-8" d="M192.1,112.1v0A16.09,16.09,0,0,1,176,128.2,16.2,16.2,0,0,0,192.2,112h-.1Z"/>
        <path class="cls-8" d="M192.1,112.3v-.2h0Z"/>
        <path class="cls-8" d="M162,104h-8.6a30.58,30.58,0,0,0-1.4,8h7.8C159.8,109,160.6,107,162,104Zm-8.6.4Z"/>
        <path class="cls-8" d="M153.4,104.4Z"/>
        <path class="cls-8" d="M198.6,104H190c1.4,3,2.1,5,2.1,8H200v-.4a31.72,31.72,0,0,0-1.4-7.6Zm0,.4Z"/>
        <path class="cls-8" d="M200,112h0v0Z"/>
        <path class="cls-8" d="M198.6,104Z"/>
        <path class="cls-8" d="M198.6,104.3Z"/>
        <path class="cls-8" d="M176,95.8a15.9,15.9,0,0,1,14,8.2h8.6a24.85,24.85,0,0,0-15.4-14.8,23.68,23.68,0,0,0-20,2.7,24.82,24.82,0,0,0-9.7,12h8.6A15.74,15.74,0,0,1,176,95.8Z"/>
        <path class="cls-8" d="M163.1,92a23.68,23.68,0,0,1,20-2.7,23.68,23.68,0,0,0-20,2.7Z"/>
        <path class="cls-8" d="M198.6,104h0l-.3-.9a23.94,23.94,0,0,0-9.7-11.4,25,25,0,0,0-5.5-2.5A25,25,0,0,1,198.6,104Z"/>
        <path class="cls-8" d="M163.1,92a24.27,24.27,0,0,0-9.7,12h0A24.82,24.82,0,0,1,163.1,92Z"/>
        <path class="cls-8" d="M163.1,92a23.35,23.35,0,0,1,20-2.8,22.72,22.72,0,0,1,5.5,2.5A23.82,23.82,0,0,0,176,88a24.47,24.47,0,0,0-22.6,16A24.37,24.37,0,0,1,163.1,92Z"/>
        <path class="cls-8" d="M198.6,104a3.55,3.55,0,0,0-.4-.9,3.55,3.55,0,0,1,.4.9Z"/>
        <path class="cls-8" d="M304.2,112a16.2,16.2,0,1,1-32.4,0H264c0,14,10.7,24,24,24s24-10,24-24h-7.8ZM288,128.5a16.26,16.26,0,0,0,16.2-16.2A16.2,16.2,0,0,1,288,128.5Z"/>
        <path class="cls-8" d="M288,128.5a16.2,16.2,0,0,0,16.2-16.2A16.26,16.26,0,0,1,288,128.5Z"/>
        <path class="cls-8" d="M271.9,112a15.82,15.82,0,0,1,.3-3.2,19.66,19.66,0,0,1,1-3.2c.2-.5.5-1.1.7-1.6h-8.6a30.58,30.58,0,0,0-1.4,8h8Zm-6.5-7.6Z"/>
        <path class="cls-8" d="M273.3,105.6a11.91,11.91,0,0,0-1,3.2c.1-.3.1-.6.2-.9A12.67,12.67,0,0,1,273.3,105.6Z"/>
        <path class="cls-8" d="M272.2,108.8a15.82,15.82,0,0,0-.3,3.2,15.53,15.53,0,0,1,.3-3.1Z"/>
        <path class="cls-8" d="M272.5,107.9a2.92,2.92,0,0,0-.2.9v.1A3.55,3.55,0,0,1,272.5,107.9Z"/>
        <path class="cls-8" d="M265.4,104.4Z"/>
        <path class="cls-8" d="M304.2,112h7.7a30.58,30.58,0,0,0-1.4-8h-8.4C303.4,107,304.2,109,304.2,112Z"/>
        <path class="cls-8" d="M302,104c1.4,3,2.1,5,2.1,8h.1c0-3-.8-5-2.2-8Z"/>
        <path class="cls-8" d="M288,88.1A24.48,24.48,0,0,0,265.4,104H274a16.05,16.05,0,0,1,28,0h8.6A24.48,24.48,0,0,0,288,88.1Z"/>
        <path class="cls-8" d="M288,88a24.47,24.47,0,0,0-22.6,16h0a24,24,0,0,1,45.2,0h0A24.36,24.36,0,0,0,288,88Z"/>
        <path class="cls-8" d="M220.8,166.2h.1a31.32,31.32,0,0,0,8.7,1.8A31.28,31.28,0,0,1,220.8,166.2Z"/>
        <path class="cls-8" d="M232,104.2c0,.1.1.1,0,0a33,33,0,0,1,16,4.4,32,32,0,0,0-15.9-4.6S232,104.3,232,104.2Z"/>
        <path class="cls-8" d="M232,104c-1,0-1.7-.1-2.5-.1a45.81,45.81,0,0,0-13.5,4.6.1.1,0,0,1-.1.1h.1v3.5h-5.2A32.63,32.63,0,0,0,200,136.3a31.48,31.48,0,0,0,3.3,14.1,32.06,32.06,0,0,0,58.9-3.7,32.93,32.93,0,0,0,1.8-10.4,32.42,32.42,0,0,0-10.8-24.1h-.4a1.38,1.38,0,0,0,.4.3,1.38,1.38,0,0,0-.4-.3H248v-3.4a30.37,30.37,0,0,0-16-4.8Zm24.2,32.3A24.2,24.2,0,1,1,232,112.1,24.16,24.16,0,0,1,256.2,136.3Z"/>
        <path class="cls-8" d="M232.1,104.3Z"/>
        <path class="cls-8" d="M232,168h2.4a31.46,31.46,0,0,0,27.9-21.5A32,32,0,0,1,232,168Z"/>
        <path class="cls-8" d="M203.3,150.3a32.12,32.12,0,0,0,17.5,15.9,28.73,28.73,0,0,0,8.8,1.8H232A32,32,0,0,1,203.3,150.3Z"/>
        <path class="cls-8" d="M220.9,166.2a31.25,31.25,0,0,0,7.6,1.8h1.1A30.59,30.59,0,0,1,220.9,166.2Z"/>
        <path class="cls-8" d="M235.5,168a26.22,26.22,0,0,0,6.3-1.4,36.83,36.83,0,0,1-7.5,1.4Z"/>
        <path class="cls-8" d="M234.4,168a31.09,31.09,0,0,0,7.5-1.4c.4-.1.8-.3,1.2-.4A32.09,32.09,0,0,1,234.4,168Z"/>
        <path class="cls-8" d="M232,168.1c-.8,0-1.6-.1-2.4-.1h-1.1c1.2.1,2.3.2,3.5.2s2.4-.1,3.5-.2h-1.1C233.6,168,232.8,168.1,232,168.1Z"/>
        <path class="cls-8" d="M229.6,168c.8,0,1.6.1,2.4.1s1.6-.1,2.4-.1h-4.8Z"/>
        <path class="cls-8" d="M232.1,104h0l-.1.2C232,104.3,232.1,104,232.1,104Z"/>
        <path class="cls-8" d="M216,108.5Z"/>
        <path class="cls-8" d="M256.2,136.3A24.16,24.16,0,0,0,232,112.1,24.35,24.35,0,0,1,256.2,136.3Z"/>
        <path class="cls-8" d="M232,160.5a24.16,24.16,0,0,0,24.2-24.2A24.22,24.22,0,0,1,232,160.5Z"/>
        <path class="cls-8" d="M248,108.6a31.79,31.79,0,0,0-15.9-4.3A32.85,32.85,0,0,1,248,108.6Z"/>
        <path class="cls-8" d="M200,136.1Z"/>
        <path class="cls-8" d="M200.1,134.2A32.67,32.67,0,0,1,210.8,112h-.1A32.56,32.56,0,0,0,200.1,134.2Z"/>
        <path class="cls-8" d="M200,136.1Z"/>
        <path class="cls-8" d="M200.1,134.3a10.87,10.87,0,0,1-.1,1.8A10.28,10.28,0,0,1,200.1,134.3Z"/>
        <path class="cls-8" d="M200.1,134.2Z"/>
        <path class="cls-8" d="M200,136.1Z"/>
        <path class="cls-8" d="M264,136.1h0A32.69,32.69,0,0,0,253.3,112h-.1A32.42,32.42,0,0,1,264,136.1Z"/>
        <polygon class="cls-8" points="264 136.1 264 136.1 264 136.1 264 136.2 264 136.1"/>
        <path class="cls-8" d="M264,136.1h0A32.69,32.69,0,0,0,253.3,112,32.69,32.69,0,0,1,264,136.1Z"/>
        <path class="cls-8" d="M264,136.1h0A32.42,32.42,0,0,0,253.2,112,32.58,32.58,0,0,1,264,136.1Z"/>
        <path class="cls-8" d="M229.5,104c.8,0,1.5.3,2.5.3V104h-2.5Z"/>
        <path class="cls-8" d="M216,108.6Z"/>
        <path class="cls-8" d="M216,108.7a.1.1,0,0,0,.1-.1v-.1c0,.1-.1.1-.1.2Z"/>
        <path class="cls-8" d="M252.8,112h.4c-.7-.4-1.4-.9-2.2-1.4A8.62,8.62,0,0,1,252.8,112Z"/>
        <path class="cls-8" d="M252.8,112c-.7-.6-1.4-1.1-2.2-1.7s-1.8-1.2-2.7-1.7V112Z"/>
        <path class="cls-8" d="M251,110.6c-.1-.1-.2-.2-.3-.2-.9-.6-1.8-1.2-2.7-1.7.9.5,1.8,1.1,2.7,1.7C250.8,110.4,250.9,110.5,251,110.6Z"/>
        <path class="cls-8" d="M248,108.6a17.77,17.77,0,0,1,2.7,1.7A17.77,17.77,0,0,0,248,108.6Z"/>
        <path class="cls-8" d="M253.2,112.3a1.38,1.38,0,0,0-.4-.3h0A1.38,1.38,0,0,1,253.2,112.3Z"/>
        <path class="cls-8" d="M250.7,110.3c.7.5,1.5,1.1,2.2,1.7h0a22,22,0,0,0-1.8-1.4A1.38,1.38,0,0,1,250.7,110.3Z"/>
        <path class="cls-8" d="M216,112v-3.3c-1.9,1.1-3.5,2.3-5.1,3.3Z"/>
        <path class="cls-8" d="M216,108.7h0c-1.8,1-3.6,2.3-5.2,3.3h.1C212.5,111,214.1,109.7,216,108.7Z"/>
      </g>
    </g>
  </g>
</svg>
