<?xml version="1.0" encoding="utf-8"?>
<!-- Generator: Adobe Illustrator 19.1.0, SVG Export Plug-In . SVG Version: 6.00 Build 0)  -->
<svg version="1.1" id="Layer_1" xmlns="http://www.w3.org/2000/svg" xmlns:xlink="http://www.w3.org/1999/xlink" x="0px" y="0px"
	 viewBox="-143 145 512 512" style="enable-background:new -143 145 512 512;" xml:space="preserve">
<style type="text/css">
	.st0{fill:#51AA5B;}
	.st1{fill:#95E49C;}
	.st2{fill:#B84B41;}
	.st3{fill:#3F352F;}
</style>
<polygon class="st0" points="312.3,594.2 216.2,443.8 276.4,443.8 184.1,311.9 233.8,311.9 113,157.3 -7.8,311.9 41.9,311.9 
	-50.4,443.8 9.8,443.8 -86.3,594.2 "/>
<rect x="25.2" y="334.4" transform="matrix(0.8194 0.5733 -0.5733 0.8194 222.5235 49.4349)" class="st1" width="15.2" height="86.8"/>
<rect x="92.7" y="594.2" class="st2" width="40.6" height="55.2"/>
<rect x="-9.8" y="465.8" transform="matrix(0.8429 0.538 -0.538 0.8429 278.8876 82.7064)" class="st1" width="15.2" height="106.4"/>
<path class="st3" d="M201.7,621.8h-15.2v20h-15.2v-30.1h-15.2v30.1h-15.2v-40h185.2l-96-150.5H291l-92.3-131.9h50.6L113,145
	L-23.3,319.5h50.6L-65,451.4h60.9l-96,150.5H85.1v40H1.2V657h83.9h55.8h83.9v-15.2h-23.1L201.7,621.8L201.7,621.8L201.7,621.8z
	 M-72.4,586.6l86.3-135.3h62.3v-15.2H23.6H9.8h-45.6l81.6-116.7h30.4v-15.2H56.4H41.9h-34L113,169.7l105.2,134.6h-34h-14.6H96.4
	v15.2h83.7l10.6,15.2h-64v15.2h74.6l60.4,86.3h-45.6h-13.9H96.4v15.2h115.6l9.7,15.2h-94.9v15.2h104.6l66.9,104.9H140.9H85.1
	L-72.4,586.6L-72.4,586.6z M100.3,641.8v-40h25.4v40H100.3z"/>
</svg>
