<?xml version="1.0" encoding="utf-8"?>
<!-- Generator: Adobe Illustrator 19.1.0, SVG Export Plug-In . SVG Version: 6.00 Build 0)  -->
<svg version="1.1" id="Layer_1" xmlns="http://www.w3.org/2000/svg" xmlns:xlink="http://www.w3.org/1999/xlink" x="0px" y="0px"
	 viewBox="-143 145 512 512" style="enable-background:new -143 145 512 512;" xml:space="preserve">
<style type="text/css">
	.st0{fill:#3F352F;}
	.st1{fill:none;}
	.st2{fill:#81D135;}
	.st3{font-family:'Riffic';}
	.st4{font-size:72px;}
	.st5{letter-spacing:14;}
	.st6{fill:#FFFFFF;stroke:#FFFFFF;stroke-width:14;stroke-miterlimit:10;}
	.st7{fill:#3F352F;stroke:#FFFFFF;stroke-width:14;stroke-miterlimit:10;}
	.st8{fill:#FFFFFF;}
</style>
<g>
	<g>
		<g>
			<path class="st0" d="M235.8,342l-59.3-25.4c-11.4-5.7-12.3-16.2-12.3-26.5v-42.7c9.4,0,17.1-7.7,17.1-17.1v-34.1
				c0-9.4-7.7-17.1-17.1-17.1h-17.1v-25.6c0-4.7-3.8-8.5-8.5-8.5H87.4c-4.7,0-8.5,3.8-8.5,8.5v25.6H61.8c-9.4,0-17.1,7.7-17.1,17.1
				v34.1c0,9.4,7.7,17.1,17.1,17.1v42.7c0,10.3-0.9,20.8-11.9,26.3l-60.2,25.8c-19.6,9.8-30.3,27.6-30.3,50.3v221.9
				c0,23.5,19.1,42.7,42.7,42.7h221.9c23.5,0,42.7-19.1,42.7-42.7V392.5C266.6,369.8,255.8,351.9,235.8,342z M95.9,162.1h34.1v17.1
				H95.9L95.9,162.1L95.9,162.1z M249.5,571.7H2.1c-4.7,0-8.5,3.8-8.5,8.5c0,4.7,3.8,8.5,8.5,8.5h247.5v25.6
				c0,14.1-11.5,25.6-25.6,25.6H2.1c-14.1,0-25.6-11.5-25.6-25.6V452.2h247.5c4.7,0,8.5-3.8,8.5-8.5s-3.8-8.5-8.5-8.5H-23.5v-42.7
				c0-16.1,7.2-28.2,20.4-34.8l60.2-25.8c21.8-10.9,21.8-32.5,21.8-41.8v-42.7h42.7c4.7,0,8.5-3.8,8.5-8.5s-3.8-8.5-8.5-8.5H61.8
				v-34.1h102.4v34.1h-8.5c-4.7,0-8.5,3.8-8.5,8.5v51.2c0,9.2,0,30.9,22.2,42l59.3,25.4c13.7,6.8,20.9,19,20.9,35L249.5,571.7
				L249.5,571.7z"/>
			<path class="st0" d="M219.2,372c-0.3-0.1-0.5-0.2-0.8-0.3l-34.1-12.8c-4.4-1.6-9.3,0.6-11,5c-1.6,4.4,0.6,9.3,5,11l33.2,12.4
				c1,0.9,4,4.4,4,13.7c0,4.7,3.8,8.5,8.5,8.5s8.5-3.8,8.5-8.5C232.5,379.3,220.6,372.7,219.2,372z"/>
		</g>
	</g>
</g>
<rect x="40" y="488" class="st1" width="189" height="111"/>
<text transform="matrix(1 0 0 1 40 541.7832)" class="st2 st3 st4 st5">OIL</text>
<g>
	<path class="st6" d="M113,467.8c-8.8,0-16.7-3.8-22.2-9.9V476h44.3v-18.1C129.7,463.9,121.8,467.8,113,467.8z"/>
	<path class="st6" d="M113,374.2c1.5,0,2.8,0.9,3.4,2.2c5.4,11.6,13,25.2,18.7,37.3V367H90.8v46.8c5.7-12.2,13.4-25.7,18.7-37.3
		C110.2,375.1,111.5,374.2,113,374.2z"/>
	<path class="st6" d="M111.7,458.3c2.2,0,4-1.8,4-4c0-2.2-1.8-4-4-4c-6.6,0-12-5.4-12-12c0-2.2-1.8-4-4-4s-4,1.8-4,4
		C91.8,449.4,100.7,458.3,111.7,458.3z"/>
	<path class="st7" d="M113,467.8c8.8,0,16.7-3.8,22.2-9.9c4.7-5.3,7.6-12.2,7.6-19.8c0-6.3-3.2-14.9-7.6-24.3
		c-5.7-12.2-13.4-25.7-18.7-37.3c-0.6-1.3-2-2.2-3.4-2.2c-1.5,0-2.8,0.9-3.4,2.2c-5.4,11.6-13,25.2-18.7,37.3
		c-4.4,9.4-7.6,18-7.6,24.3c0,7.6,2.9,14.6,7.6,19.8C96.3,463.9,104.2,467.8,113,467.8z M95.8,434.4c2.2,0,4,1.8,4,4
		c0,6.6,5.4,12,12,12c2.2,0,4,1.8,4,4c0,2.2-1.8,4-4,4c-11,0-19.9-8.9-19.9-19.9C91.8,436.2,93.6,434.4,95.8,434.4z"/>
</g>
<g>
	<path class="st8" d="M113.7,468c-8.8,0-16.7-3.8-22.2-9.9v18.1h44.3v-18.1C130.4,464.1,122.5,468,113.7,468z"/>
	<path class="st8" d="M113.7,374.4c1.5,0,2.8,0.9,3.4,2.2c5.4,11.6,13,25.2,18.7,37.3v-46.8H91.5V414c5.7-12.2,13.4-25.7,18.7-37.3
		C110.9,375.3,112.2,374.4,113.7,374.4z"/>
	<path class="st8" d="M112.4,458.5c2.2,0,4-1.8,4-4c0-2.2-1.8-4-4-4c-6.6,0-12-5.4-12-12c0-2.2-1.8-4-4-4s-4,1.8-4,4
		C92.5,449.6,101.4,458.5,112.4,458.5z"/>
	<path class="st0" d="M113.7,468c8.8,0,16.7-3.8,22.2-9.9c4.7-5.3,7.6-12.2,7.6-19.8c0-6.3-3.2-14.9-7.6-24.3
		c-5.7-12.2-13.4-25.7-18.7-37.3c-0.6-1.3-2-2.2-3.4-2.2c-1.5,0-2.8,0.9-3.4,2.2c-5.4,11.6-13,25.2-18.7,37.3
		c-4.4,9.4-7.6,18-7.6,24.3c0,7.6,2.9,14.6,7.6,19.8C97,464.1,104.9,468,113.7,468z M96.5,434.6c2.2,0,4,1.8,4,4c0,6.6,5.4,12,12,12
		c2.2,0,4,1.8,4,4c0,2.2-1.8,4-4,4c-11,0-19.9-8.9-19.9-19.9C92.5,436.4,94.3,434.6,96.5,434.6z"/>
</g>
</svg>
