<svg xmlns="http://www.w3.org/2000/svg" viewBox="0 0 237.4 442.3"><defs><style>.cls-1{fill:#fff;}.cls-2{fill:#839bc6;}.cls-3{fill:#275893;}.cls-4{fill:#262626;}</style></defs><title>Fichier 1</title><g id="Calque_2" data-name="Calque 2"><g id="Calque_1-2" data-name="Calque 1"><rect class="cls-1" width="237.4" height="442.3" rx="72.43" ry="72.43"/><g id="Calque_2-2" data-name="Calque 2"><g id="Calque_1-2-2" data-name="Calque 1-2"><polygon class="cls-2" points="202.2 65 8.6 65 8.6 375.4 42.3 375.4 229.7 375.4 229.7 213.4 229.7 65 202.2 65"/><polygon class="cls-3" points="8.7 333.3 8.7 385.4 42.6 385.4 231.4 385.4 231.4 333.3 42.6 333.3 8.7 333.3"/><path class="cls-1" d="M35.2,157.5c-5.8,0-6.4,4.7-6.4,10.4V317.3c0,5.8.7,10.4,6.4,10.4s6.4-4.7,6.4-10.4V167.9C41.7,162.2,41,157.5,35.2,157.5Z"/><path class="cls-1" d="M35.2,93.3c-5.8,0-6.4,3.7-6.4,9.4v23.7c0,5.8.7,9.4,6.4,9.4s6.4-3.7,6.4-9.4V102.7C41.7,97,41,93.3,35.2,93.3Z"/><path class="cls-4" d="M189.2,442.3h0a48.33,48.33,0,0,0,48.2-48.4V48.4A48.31,48.31,0,0,0,189.3,0H48.1A48.31,48.31,0,0,0,0,48.4V393.9a48.31,48.31,0,0,0,48.1,48.4Zm38.3-43.4c0,15.2-18.2,33.5-33.2,33.5H43.1c-15,0-33.2-18.3-33.2-33.5V385.6H227.5Zm-2-231.6V373.8H10.9V66.2H225.5Zm3-113H9.9v-9C9.9,30.1,27.1,9.8,42.1,9.8H194.2c15,0,34.2,18.3,34.2,33.5l.1,11Z"/><path d="M117.5,391.6a17.5,17.5,0,1,0,17.4,17.6v-.1a17.43,17.43,0,0,0-17.36-17.5Zm.6,28.1c-8.5,0-11-5.5-11-11a10,10,0,0,1,10-10c8.2,0,11,5.5,11,11a10,10,0,0,1-10,10Z"/><path class="cls-4" d="M158,38.2H82a5,5,0,0,1,0-10h76a5,5,0,0,1,0,10Z"/></g></g></g></g></svg>