<?xml version="1.0" encoding="utf-8"?>
<!-- Generator: Adobe Illustrator 19.1.0, SVG Export Plug-In . SVG Version: 6.00 Build 0)  -->
<svg version="1.1" id="Calque_1" xmlns="http://www.w3.org/2000/svg" xmlns:xlink="http://www.w3.org/1999/xlink" x="0px" y="0px"
	 viewBox="0 0 800 800" style="enable-background:new 0 0 800 800;" xml:space="preserve">
<style type="text/css">
	.st0{fill:#FFFFFF;}
	.st1{fill:#353535;}
	.st2{fill:#020202;}
	.st3{fill:#262626;}
	.st4{fill:none;stroke:#262626;stroke-width:10;stroke-linecap:round;stroke-linejoin:round;stroke-miterlimit:10;}
</style>
<polygon class="st0" points="306.7,176 274.8,194.1 266,220.9 266,565 272.8,593.3 300.9,611 494,612.1 520,602.1 535,574.6 
	535,219 527.7,193.9 502.3,179 490.2,176.8 "/>
<polygon class="st1" points="496.7,247.8 273.7,247.8 273.7,558.2 312.5,558.2 528.3,558.2 528.3,396.2 528.3,247.8 "/>
<polygon class="st2" points="273.8,506.1 273.8,558.2 312.9,558.2 530.3,558.2 530.3,506.1 312.9,506.1 "/>
<path class="st0" d="M304.2,340.3c-5.8,0-6.4,4.7-6.4,10.4v149.4c0,5.8,0.7,10.4,6.4,10.4s6.4-4.7,6.4-10.4V350.7
	C310.7,345,310,340.3,304.2,340.3z"/>
<path class="st0" d="M304.2,276.1c-5.8,0-6.4,3.7-6.4,9.4v23.7c0,5.8,0.7,9.4,6.4,9.4s6.4-3.7,6.4-9.4v-23.7
	C310.7,279.8,310,276.1,304.2,276.1z"/>
<path class="st3" d="M491.2,615.1L491.2,615.1c26.6,0,48.2-21.7,48.2-48.4V548V396.5v-66.8v-92.1v-16.4c0-26.7-21.6-48.4-48.1-48.4
	H310.1c-26.5,0-48.1,21.7-48.1,48.4v16.4V548v18.7c0,26.7,21.6,48.4,48.1,48.4h160.2L491.2,615.1z M529.5,571.7
	c0,15.2-18.2,33.5-33.2,33.5h-16.5H305.1c-15,0-33.2-18.3-33.2-33.5v-13.3h257.6V571.7z M523.5,340.1V386v151.6H277.9V248h245.6
	V340.1z M530.5,227.1H271.9v-9c0-15.2,17.2-35.5,32.2-35.5h192.1c15,0,34.2,18.3,34.2,33.5V227.1z"/>
<path d="M399.5,564.4c-9.6,0-17.4,7.8-17.4,17.5s7.8,17.5,17.4,17.5c9.6,0,17.4-7.8,17.4-17.5C416.9,572.3,409.1,564.4,399.5,564.4z
	 M400.1,592.5c-8.5,0-11-5.5-11-11c0-5.5,4.5-10,10-10c8.2,0,11,5.5,11,11C410,588.1,405.6,592.5,400.1,592.5z"/>
<line class="st4" x1="364" y1="206" x2="440" y2="206"/>
</svg>
