<svg xmlns="http://www.w3.org/2000/svg" viewBox="0 0 237.4 442.3"><defs><style>.cls-1{fill:#fff;}.cls-2{fill:#3f352f;}</style></defs><title>Fichier 1</title><g id="Calque_2" data-name="Calque 2"><g id="Calque_1-2" data-name="Calque 1"><polygon class="cls-1" points="39.6 3.2 12.7 21.3 5.3 48.1 5.3 392.2 11 420.5 34.7 438.2 197.2 439.3 219.1 429.3 231.7 401.8 231.7 46.2 225.6 21.1 204.2 6.2 194 4 39.6 3.2"/><path class="cls-1" d="M35.2,157.5c-5.8,0-6.4,4.7-6.4,10.4V317.3c0,5.8.7,10.4,6.4,10.4s6.4-4.7,6.4-10.4V167.9C41.7,162.2,41,157.5,35.2,157.5Z"/><path class="cls-1" d="M35.2,93.3c-5.8,0-6.4,3.7-6.4,9.4v23.7c0,5.8.7,9.4,6.4,9.4s6.4-3.7,6.4-9.4V102.7C41.7,97,41,93.3,35.2,93.3Z"/><path class="cls-2" d="M189.2,442.3h0a48.33,48.33,0,0,0,48.2-48.4V48.4A48.31,48.31,0,0,0,189.3,0H48.1A48.31,48.31,0,0,0,0,48.4V393.9a48.31,48.31,0,0,0,48.1,48.4H189.2Z"/></g></g></svg>