<svg id="Calque_1" data-name="Calque 1" xmlns="http://www.w3.org/2000/svg" viewBox="0 0 277.4 442.3"><defs><style>.cls-1{fill:#fff;}.cls-2{fill:#353535;}.cls-3{fill:#020202;}.cls-4{fill:#262626;}.cls-5{fill:none;stroke:#262626;stroke-linecap:round;stroke-linejoin:round;stroke-width:10px;}</style></defs><title>smartphone</title><polygon class="cls-1" points="44.7 3.2 12.8 21.3 4 48.1 4 392.2 10.8 420.5 38.9 438.2 232 439.3 258 429.3 273 401.8 273 46.2 265.7 21.1 240.3 6.2 228.2 4 44.7 3.2"/><polygon class="cls-2" points="234.7 75 11.7 75 11.7 385.4 50.5 385.4 266.3 385.4 266.3 223.4 266.3 75 234.7 75"/><polygon class="cls-3" points="11.8 333.3 11.8 385.4 50.9 385.4 268.3 385.4 268.3 333.3 50.9 333.3 11.8 333.3"/><path class="cls-1" d="M172.1,208.2c-5.8,0-6.4,4.7-6.4,10.4V368c0,5.8.7,10.4,6.4,10.4s6.4-4.7,6.4-10.4V218.6C178.6,212.9,177.9,208.2,172.1,208.2Z" transform="translate(-129.9 -40.7)"/><path class="cls-1" d="M172.1,144c-5.8,0-6.4,3.7-6.4,9.4v23.7c0,5.8.7,9.4,6.4,9.4s6.4-3.7,6.4-9.4V153.4C178.6,147.7,177.9,144,172.1,144Z" transform="translate(-129.9 -40.7)"/><path class="cls-4" d="M359.1,483h0a48.33,48.33,0,0,0,48.2-48.4V89.1a48.31,48.31,0,0,0-48.1-48.4H178a48.31,48.31,0,0,0-48.1,48.4V434.6A48.31,48.31,0,0,0,178,483H359.1Zm38.3-43.4c0,15.2-18.2,33.5-33.2,33.5H173c-15,0-33.2-18.3-33.2-33.5V426.3H397.4Zm-6-231.6V405.5H145.8V115.9H391.4Zm7-113H139.8V86c0-15.2,17.2-35.5,32.2-35.5H364.1c15,0,34.2,18.3,34.2,33.5V95Z" transform="translate(-129.9 -40.7)"/><path d="M267.4,432.3a17.5,17.5,0,1,0,17.4,17.5A17.43,17.43,0,0,0,267.4,432.3Zm.6,28.1c-8.5,0-11-5.5-11-11a10,10,0,0,1,10-10c8.2,0,11,5.5,11,11A10,10,0,0,1,268,460.4Z" transform="translate(-129.9 -40.7)"/><line class="cls-5" x1="102" y1="33.2" x2="178" y2="33.2"/></svg>