<svg width="204" height="24" viewBox="0 0 204 24" xmlns="http://www.w3.org/2000/svg"><title>Group 3</title><path d="M73.09.218c-3.217 0-5.78 1.473-5.78 3.218 0 1.8 2.617 3.219 5.78 3.219h.765c3.218 0 5.781 1.472 5.781 3.218 0 1.745-2.618 3.218-5.781 3.218H38.127c-3.218 0-5.782 1.473-5.782 3.218 0 1.8 2.619 3.218 5.782 3.218h130.637c3.218 0 5.781-1.472 5.781-3.218 0-1.8-2.618-3.218-5.781-3.218h-9.928c-3.218 0-5.781-1.473-5.781-3.218 0-1.746 2.618-3.218 5.781-3.218h38.946c3.218 0 5.782-1.473 5.782-3.219 0-1.8-2.619-3.218-5.782-3.218H73.09zM4.255 23.51C1.909 23.51 0 22.144 0 20.4c0-1.69 1.91-3.11 4.255-3.11h12.981c2.346 0 4.255 1.365 4.255 3.11 0 1.69-1.91 3.11-4.255 3.11H4.255z" fill="#E82D3A" fill-rule="evenodd"/></svg>