<svg id="Calque_1" xmlns="http://www.w3.org/2000/svg" viewBox="0 0 478.6 339.2"><style>.st0{fill:none}.st1{fill:#b97850}.st2{fill:#925f4a}.st3{fill:#3f352f}.st4{fill:#a5694b}.st5{fill:#734b46}.st6{fill:#644141}.st7{fill:#c98850}</style><path class="st0" d="M491.3 3.6c.1.7.1 1.3.1 2 0-.7 0-1.3-.1-2zm8.9 55.4c-5.7 3.3-9.1 9.2-9.2 15.5.1-6.3 3.5-12.2 9.2-15.5zm-16.8 164.9c1.9 1.8 3.5 3.9 4.5 6.4.9 2.2 1.3 4.5 1.3 6.8 0-2.3-.4-4.6-1.3-6.8-1-2.5-2.6-4.7-4.5-6.4zM463.3 9.6h10.9-10.9zm22.3 148.6c-1.1 7.5-5.1 14.1-10.9 18.4l-.2.2c-.5.4-1 .7-1.5 1l-.9.6c-.3.2-.6.4-.9.5-.5.3-1.1.6-1.6.8-.1.1-.2.1-.3.2-2.8 1.3-5.8 2.1-9 2.4h-.1l.1.1c3.2-.3 6.2-1.2 9-2.4.1-.1.2-.1.3-.2.5-.3 1.1-.5 1.6-.8.3-.2.6-.3.9-.5l.9-.6c.5-.3 1-.7 1.5-1l.2-.2c5.8-4.4 9.8-10.9 10.9-18.5l.2-1.2 1.8-8.8-1.8 8.8-.2 1.2z"/><path class="st1" d="M486.4 18c1.1-1.1 2-2.3 2.8-3.6.6-1 1.1-2 1.5-3-.4 1.1-.9 2.1-1.5 3-.8 1.4-1.8 2.5-2.8 3.6z"/><path class="st2" d="M473.2 233l-.1-.1c-1-.4-2.1-.4-3.1 0s-1.8 1.2-2.3 2.3l-8.5 20.1c-.5 1.1-.5 2.2-.1 3.2s1.2 1.9 2.3 2.3c1.1.4 2.3.5 3.3 0 .7-.3 1.7-.9 2.2-2.2l8.5-20.1c.5-1.1.5-2.2.1-3.2-.5-1.1-1.3-1.9-2.3-2.3z"/><path class="st3" d="M489.2 14.5c1.5-2.6 2.4-5.6 2.4-8.8v.2c0 3.1-.9 6-2.4 8.6z"/><path class="st3" d="M490.9 9.8c.2-.7.3-1.3.4-2-.1.7-.2 1.4-.4 2zm-1.9 4.7c.8-1.4 1.5-3 1.9-4.6-.4 1.6-1.1 3.1-1.9 4.6-2.2 3.7-5.7 6.5-9.8 7.8 4.1-1.4 7.6-4.2 9.8-7.8z"/><path class="st0" d="M324.1 318.3c-.2.8-.2 1.7-.2 2.5 0-.8 0-1.5.2-2.3l5.9-28.3 1.5-7.3-1.5 7.2-5.9 28.2zm50.2 10.3c0-1.3-.2-2.6-.6-3.9l-.1-.3.1.3c.4 1.3.6 2.6.6 3.9zm-80.5 10.6c-.1-.5-.1-1-.1-1.6 0 .6 0 1.1.1 1.6zm16.7-18.3c.2 7.3 3.6 14.5 9.4 18.3-5.8-3.7-9.2-11-9.4-18.3zm0-1.4l-1.6 7.8 1.6-7.7v-.1zm-3.2 19.7c-.1-.5-.2-1.2-.2-1.9 0 .7 0 1.4.2 1.9zm156-329.6h10.9-10.9zm11.4 167.1l-.2.2c-.5.4-1 .7-1.5 1l-.9.6c-.3.2-.6.4-.9.5-.5.3-1.1.6-1.6.8-.1.1-.2.1-.3.2-2.8 1.3-5.8 2.1-9 2.4h-.1l.1.1c3.2-.3 6.2-1.2 9-2.4.1-.1.2-.1.3-.2.5-.3 1.1-.5 1.6-.8.3-.2.6-.3.9-.5l.9-.6c.5-.3 1-.7 1.5-1 .1-.2.1-.3.2-.3zM289.6 339.2c-.1-.5-.1-1.1-.1-1.7 0 .6.1 1.2.1 1.7zM473.2 233l-.1-.1c-1-.4-2.1-.4-3.1 0s-1.8 1.2-2.3 2.3l-8.5 20.1c-.5 1.1-.5 2.2-.1 3.2s1.2 1.9 2.3 2.3c1.1.4 2.3.5 3.3 0 .7-.3 1.7-.9 2.2-2.2l8.5-20.1c.5-1.1.5-2.2.1-3.2-.5-1.1-1.3-1.9-2.3-2.3zm-145.7 95.4c.5.5 1.1.9 1.7 1.2l16.8 9.6-16.8-9.6c-.6-.4-1.2-.8-1.7-1.2zm-299.4 7.2c1.1 1.2 2.3 2.3 3.4 3.5l.2.2c-1.3-1.2-2.5-2.5-3.7-3.7.1-.1.1-.1.1 0zm73.9-66.3l-4.2 20.8c-.3 1.7-.4 3.4-.4 5.1 0-1.7.1-3.4.4-5.1l4.2-20.8c1.7-8.3 7.5-15.1 15.5-18l8.1-2.9-8.1 2.9c-8 2.9-13.8 9.6-15.5 18zm-74.1 66.1c-10.7-11.1-20.4-23.6-29.3-36.5 8.9 12.9 18.6 25.5 29.4 36.6 0-.1 0-.1-.1-.1zm294.8-52l8.7-.6-8.7.6c-11.1.6-20 8.2-22.3 18.8l-6.1 29.1 6.1-29c2.3-10.6 11.2-18.2 22.3-18.9zm62.3 56.3c1.3-.1 2.7-.3 4-.5-1.3.2-2.6.3-4 .5zM447.8 5.2s0 .1 0 0c.1-1.6 1.1-3.1 2.6-3.7-.3.1-.5.2-.7.4-1.1.7-1.9 1.9-1.9 3.3zm-164 116.2l.4.1c5 1.2 9 4.9 10.6 9.6.2.4.3.9.4 1.3-.1-.5-.2-.9-.4-1.3-1.6-4.7-5.6-8.4-10.6-9.6l-.4-.1-32.8-8.2c-1.3-.3-2.6-.4-3.9-.4 1.3 0 2.6.1 3.9.4l32.8 8.2zM434.6 5.6c.1 4.9 2 9.3 5.1 12.5 3.2 3.2 7.5 5.1 12.3 5.1-4.8 0-9.1-2-12.3-5.1-3.1-3.2-5.1-7.7-5.1-12.5z"/><path class="st0" d="M452 23.2c-4.8 0-9.2-2-12.3-5.1 3.1 3.1 7.5 5.1 12.3 5.1zm-55.3 74.9c-8 5.5-12.4 14.6-12.3 23.8-.1-9.3 4.4-18.3 12.3-23.8zm51.1-92.8v-.1c0-1.4.8-2.6 1.9-3.3-1.2.7-2 2-2 3.4 0 .7.2 1.3.6 1.8-.3-.5-.5-1.1-.5-1.8zm29.7 17.4c-1.1.2-2.4.4-3.6.4l-21.7.2 21.8-.1c1.6 0 2.6-.2 4.6-.6v-.1c-.9 0-.7.1-1.1.2zm-30.8 240.8c-.9-2.2-1.3-4.5-1.3-6.8 0 2.3.4 4.6 1.3 6.8zM9.3 91.2l-4.2 26.2 4.2-26.2c1.7-10 8.2-18.3 17.5-22L38 64.7l-11.2 4.5c-9.3 3.8-15.8 12-17.5 22zM106 128l3.6-5c3.6-5 5.4-10.8 5.4-16.7 0 5.9-1.8 11.7-5.4 16.7l-3.6 5zm-18.9 26.4C82.4 161 75.2 165 67.6 166c7.6-1 14.8-5 19.5-11.6l.1-.1 18.9-26.2-18.9 26.2-.1.1zM233.9 120c.3-.3.5-.6.8-.8-.3.2-.6.5-.8.8zm-3.7 9.7v-1.2 1.2zm59.3 62.4l-36.6 12.3c-3 1-6 1.5-9 1.5-10.6 0-20.5-5.9-25.5-15.8L203 159.2c-1.9-3.9-2.9-8-3-12.1.1 4.2 1 8.3 3 12.2l15.4 30.9c5 9.9 14.9 16 25.5 16 3 0 6-.7 9-1.6l36.6-12.5zm-3.5-84l-31.8-8c-2-.5-4-.7-6-.8 2 .1 4 .3 5.9.8l31.9 8zm22.7 60.1c-1.2 10.4-7.8 19.3-17.5 23.3 9.7-4 16.4-12.9 17.5-23.3l1.9-8.2.1-.3-2 8.5zM270.2.2c5.7 1 11.5 1.6 17.2 2.1-5.7-.4-11.4-1.1-17.2-2.1z"/><path class="st1" d="M478.7 265.4c0-.1-.1-.1 0 0-3.1 5.6-9.3 9-15.5 9-2.3 0-4.7-.2-6.9-1.2-4.4-2-7.8-5.4-9.6-9.8-.9-2.2-1.3-4.6-1.3-6.8 0-2.3.5-4.6 1.5-6.8l8.5-20c1.8-4.3 5.2-7.7 9.6-9.5 4.4-1.8 9.3-1.7 13.6.2 0 0 .1 0 .1-.1v-47.2s0-.1-.1 0c-1 1.2-2.5 2.3-3.8 3.3-.1.1-.2.1-.3.2-.4.3-.9.7-1.4 1l-.9.6c-.3.2-.7.4-1 .6-.5.3-1.1.6-1.6.8-.1.1-.2.1-.3.2-2.8 1.3-5.8 2.1-9 2.4h-.1l-28.8 2.8c-.9.1-1.8.2-2.7.2-10.6 0-20.2-5.8-25.2-15.1-.3-.6-.6-1.3-.9-1.9L387 133c-1.6-3.6-2.4-7.4-2.5-11.2-.1-9.2 4.4-17.3 12.3-22.8.4-.3.7-.5 1.1-.7L420.3 84l-.1.4 6.8-4.2c10.3-6.6 23.8-5.8 33.4 2l18.3 15h.1V22.4h-.1c-2 .4-3 .7-4.6.7l-21.8.2h-.3c-4.9 0-9.2-2.1-12.3-5.3-3.2-3.2-5.1-7.7-5.1-12.5h.1c0-1.8.3-4 .8-5.1V.3h-29.9c-.4 0-.9 1-1.4 1.6-2.4 2.4-5.6 4-9.2 4.7L364.6 12c-8.5 1.5-14.6-1.8-17.4-10-.2-.5-.4-.9-.8-1.4-.1-.1-.2-.3-.3-.3h-16.3c-10.4 2-20.9 2.5-31.4 2.4-2.3 0-4.6-.2-6.8-.2-1.1 0-2.3-.1-3.4-.1-6-.4-12-1-18-2h-15.5l-4.8 6.7-8 11.4c-5.5 7.7-14.3 12-23.4 12-2.7 0-5.4-.4-8.1-1.2l-37-11c-9-2.8-15.7-9.9-18.7-17.9H37.2c-.4 4-.7 9.2-.9 13.9-.3 5.5-.4 11.1-.3 16.7.1 5.6.3 11.2.6 16.7.4 5.6.9 12.1 1.5 17.7l20.6-8.3c12-4.9 25.1-1.8 32.7 8.8l17 23.4c3.2 4.4 6 9.4 6.4 14.6.1.7.1 1.5.1 2.2 0 5.9-1.8 11.7-5.4 16.7l-3.6 5h.1L87.2 154l-.1.1c-4.7 6.6-11.8 10.6-19.4 11.6v.1c1.8 3.7 3.7 7.4 5.6 11 2 3.7 4 7.3 6.1 10.9 3.2 5.4 6.5 10.7 10 15.9s7.2 10.4 11.1 15.4c7.7 10.1 15.1 20.8 24.2 30.1h2l16.8-6.3c10.5-3.8 21.2-.9 27.3 8.4l12.8 19.2c4.7 7.1 6.3 16 2.8 23.5l1.1-.4-2.7 3.2v.1c32.3 19.6 68.9 32.7 104.9 39.6 0 0 0-1 .1-1 0-1.4.2-1.8.5-3.2l6.2-31c1.2-5.4 3.8-10.3 7.7-14.3 5.8-5.8 13.8-8.8 21.9-8.2l27.4 1.7c12.3.7 22.6 9.2 25.7 21l5.4 20.4c1.5 5.8 1.1 12.3-1.1 17.3h1.7c4-.4 8.9-.5 12.8-1 28-3.9 54.8-11.2 80.8-22.6v-50.1zM142 205.2h-21.4c-10.5 0-18.9-8.6-18-19 .8-9 8.3-16 17.5-16h21.4c10.5 0 18.9 8.6 18 19-.7 9-8.3 16-17.5 16zm47.9-113.6c-3.4 3.4-7.9 5.2-12.5 5.2s-9-1.7-12.5-5.1l-15.1-15.1c-7.4-7.4-7.3-18.5.7-25.2 6.9-5.9 16.3-6.6 22.9 0l15.4 15.4c7 6.8 8 17.9 1.1 24.8zm77.7 197c-1.7 4.4-5.1 7.8-9.3 9.7-2.2 1-4.6 1.5-7 1.5-2.2 0-4.4-.4-6.5-1.3-4.4-1.7-7.8-5.1-9.7-9.3l-8.7-20.1c-1.9-4.3-1-9.1.8-13.5 1.7-4.4 4.1-6.8 8.3-8.7 4.3-1.9 8.1-2 12.5-.2 4.4 1.7 7.8 4.1 9.7 8.3l8.7 20.1c1.9 4.3 3 9.1 1.2 13.5zm43-129.1l-1.9 8.5c-1.2 10.4-7.8 19.3-17.6 23.3-.6.2-1.1.5-1.7.7l-36.6 11.4c-3 1-6.1 1.6-9.1 1.6-10.6 0-20.5-5-25.5-15L203 159.1c-1.9-3.9-1.9-7.1-2-11.2-.1-6.9 1.2-13.7 5.8-19.1.5-.6 1-1.1 1.5-1.7l19.7-18.7.3-.3c5.2-5.1 11.2-7.9 18.5-8h1.4c2 .1 4 .3 6 .8l31.8 8 1.3.3c.6.1 1.2.3 1.8.5 1.7.5 3.4 1.3 4.9 2.1 3.4 1.9 5.4 3.4 7.8 6.5 2.8 3.7 5.8 8 6.5 12.7.3 1.6.4 3.2.4 4.8V161s0-.9.1-1l1.9.4-.1-.7v-.2zm-5.3-75.3c-8.6-1.6-14.7-9.4-14.7-18.2V46c0-8.8 6.1-16.6 14.7-18.2 11.1-2.1 21.3 6.5 21.3 17.3v21.8c.1 10.8-10.2 19.4-21.3 17.3zm69.4 142.6l-.1.1c-3.3 5.4-9.1 8.3-15 8.3-3.1 0-6.3-.8-9.2-2.6l-18.6-11.5c-8.3-5.2-10.8-15-5.7-23.2 5.1-8.3 16-10.8 24.2-5.7l17.5 10.4c3.9 2.3 7.7 6 8.8 10.5 1.3 4.6.5 9.6-1.9 13.7z"/><path class="st3" d="M-1.3 331.8v4.4c1 1.1 2 1.9 2.9 2.9h3.5c-2.2-1.9-4.4-4.6-6.4-7.3zM293.2 2.6c1.8.1 3.5.1 5.3.1 10.5.1 21-.7 31.4-2.5h-59.7c5.7 1 11.5 1.6 17.2 2.1 2 .1 3.9.2 5.8.3zm54.1-.4c2.8 8.2 8.9 11.6 17.4 10L395 6.6c3.6-.7 6.8-2.3 9.2-4.7.5-.5 1-1.1 1.4-1.7h-59.4c.1.1.2.3.3.4.3.6.6 1.1.8 1.6z"/><path class="st4" d="M28 335.5c-10.8-11.1-20.4-23.7-29.4-36.6v10.9c7.7 10.4 15.7 20.4 24.5 29.4h8.6c-1.2-1.2-2.4-2.5-3.7-3.7z"/><path class="st4" d="M31.6 339c-1.2-1.1-2.3-2.3-3.4-3.5 1.1 1.3 2.2 2.4 3.4 3.5z"/><path class="st3" d="M-1.3 331.8c2.1 2.6 4.2 5.4 6.4 7.4h18c-8.7-9-16.8-19-24.5-29.4v22z"/><path class="st4" d="M478.7 314.8c-26 11.4-53.9 19.1-81.9 23-3.9.5-7.9 1-11.8 1.4h4c30.6-3.7 60.6-11.8 89.6-24.2v-.2z"/><path class="st4" d="M389 339.2h89.6V315c-28.9 12.5-59 20.5-89.6 24.2z"/><path class="st4" d="M478.4 315c-28.6 12.4-58.8 20.5-89.4 24.2 30.6-3.7 60.8-11.7 89.4-24.2z"/><path class="st4" d="M478.7 314.8c-26 11.4-53.8 19.1-81.7 23 27.9-3.9 55.7-11.6 81.7-23zM.5 301.1c-.6-.9-1.3-1.8-1.9-2.7v.5c8.9 12.8 18.5 25.4 29.3 36.5-10-10.4-19-22.3-27.4-34.3z"/><path class="st4" d="M289.5 337.5v-1.6c-36.4-6.9-71.7-20.2-104-39.8l-1.9 2.5c-.1.1-.2.2-.2.3l-18.9 24.3c-.6.8-1.2 1.5-1.9 2.2-4.6 4.7-10.9 7.2-17.3 7.2-4.1 0-8.1-1-11.9-3.1l-23.9-13.6c-7-4.1-11.4-11.2-12-18.9-.1-.6-.1-1.1-.1-1.7 0-1.7.1-3.4.4-5.1l4.2-20.8c1.7-8.3 7.5-15.1 15.5-18l8.1-2.9c-9.1-9.3-16.5-19-24.2-29.1-3.9-5.1-7.5-10.2-11.1-15.4s-6.9-10.5-10-15.9c-2.1-3.6-4.1-7.2-6.1-10.9s-3.8-7.3-5.6-11.1v-1c-1.3.2-3.5 1.2-4.8 1.2h-.6c-4.3-.1-8.5-1.1-12.5-3.1l-30.5-15.8C14 144.2 9.4 139 6.9 132.8c-1.4-3.5-2.2-7.3-2.1-11.1 0-1.3.1-2.6.3-3.9v-.3l4.2-26.2c1.7-10 8.2-18.3 17.5-22L38 64.8c-.6-5.6-1.1-11.1-1.5-16.7-.3-5.7-.5-11.3-.5-16.9-.1-5.7 0-11.3.3-17 .2-4.7.5-9.3.9-14H-1.3v298.2c.6.9 1.2 1.8 1.9 2.7C9 313.1 18 325 28 335.5c1.2 1.3 2.5 2.5 3.7 3.7h257.9c0-.5-.1-1.1-.1-1.7zM64.9 250.1l-.1.1c-3.4 5.4-9.1 8.4-15 8.4-3.1 0-6.2-.8-9.1-2.5L22 244.8c-8.2-5.1-10.8-15.9-6-24.2l.1-.2c5.1-8.3 15.8-10.9 24.1-5.9L59 225.9c8.3 5.2 10.9 15.8 5.9 24.2z"/><path class="st4" d="M89.4 203.9c3.5 5.2 7.2 10.4 11.1 15.4-3.9-5.1-7.6-10.2-11.1-15.4zm-16.2-26.8c2 3.7 4 7.3 6.1 10.9-2.1-3.7-4.1-7.3-6.1-10.9zm52.4 71.3c-9.1-9.3-17.5-19-25.2-29.1 7.7 10.1 16.1 19.8 25.2 29.1zM28 335.5l.1.1c0-.1 0-.1-.1-.1l-.1-.1c.1 0 .1 0 .1.1zm3.7 3.7l-.2-.2.2.2z"/><path class="st4" d="M28.1 335.6l-.1-.1c1.2 1.3 2.5 2.5 3.7 3.7l-.2-.2-3.4-3.4zm-.1-.1C18 325 9 313.1.5 301.1 8.9 313 17.9 325 27.9 335.3c.1.1.1.1.1.2z"/><path class="st5" d="M295.7 136.1c0-.4 0-.9-.1-1.3 0-.3-.1-.6-.1-1-.1-.5-.2-.9-.3-1.4-.1-.5-.2-.9-.4-1.3-1.6-4.7-5.6-8.4-10.6-9.6l-.4-.1-32.8-8.2c-1.3-.3-2.6-.4-3.9-.4-3.4 0-6.8 1.3-9.4 3.4-.4.3-.7.6-1.1 1l-1.9 2c-.3.2-.5.5-.8.8-2.2 2.5-3.4 5.6-3.6 8.8-.1 1.4 0 2.9.3 4.3.3 1.1.7 2.3 1.2 3.4l10.5 21.1 4.8 9.7c1.4 2.8 3.5 4.9 6 6.4 2.1 1.2 4.5 1.9 6.9 2 1.3.1 2.6-.1 3.9-.3.5-.1 1-.2 1.5-.4l30.2-10.1v-28.8z"/><path class="st3" d="M291.2 191.5c9.7-4 16.4-12.9 17.5-23.3l1.9-8.5-2 .6v-24.2c0-1.6-.1-3.3-.4-4.8-.8-4.7-2.7-9.1-5.5-12.7-2.4-3-5.3-5.6-8.8-7.5-1.6-.8-3.2-1.5-4.9-2.1-.6-.2-1.2-.3-1.8-.5l-1.3-.3-31.8-8c-2-.5-3.9-.7-5.9-.8h-1.4c-7.2.1-14.2 2.9-19.5 8l-.3.3-18.7 18.7c-.5.5-1.1 1.1-1.5 1.7-4.6 5.4-7 12.2-6.8 19.1.1 4.1 1 8.3 3 12.1l15.4 32.8c5 9.9 14.9 13.8 25.5 13.8 3 0 6-.5 9-1.5l36.6-12.3-36.6 12.5c-3 1-6 1.6-9 1.6 3 0 6-.7 9.1-1.6l36.6-12.4c.5-.2 1.1-.5 1.6-.7 9.7-3.9 16.4-12.9 17.6-23.2l1.9-8.5-.1.3-1.9 8.2c-1.1 10.3-7.8 19.2-17.5 23.2zm-42.5.2c-7.2 2.4-14.9-.9-18.4-7.6L215 153.3c-2.8-5.7-1.8-12.5 2.5-17.1.5 2.1 1.2 4.3 2.2 6.3l15.4 30.8c4.5 8.8 12.8 14.4 22 15.6l-8.4 2.8zm16.8-16.8c-.5.2-1 .3-1.5.4-1.3.3-2.6.4-3.9.3-2.5-.1-4.8-.8-6.9-2-2.5-1.4-4.6-3.6-6-6.4l-4.8-9.7-10.5-21.1c-.5-1.1-.9-2.2-1.2-3.4-.3-1.4-.4-2.9-.3-4.3v.9c0-.4 0-.8.1-1.2v.3c.2-3.2 1.5-6.3 3.6-8.8.2-.3.5-.6.8-.8-.3.3-.5.6-.8.8.2-.3.5-.5.8-.8l1.9-2c.3-.3.7-.7 1.1-1 2.6-2.2 6-3.4 9.4-3.4 1.3 0 2.6.1 3.9.4l32.8 8.2.4.1c5 1.2 9 4.9 10.6 9.6.2.4.3.9.4 1.3.1.5.2.9.3 1.4 0 .3.1.6.1 1s.1.9.1 1.3v28.7l-30.4 10.2z"/><path class="st3" d="M247.1 112.8c-3.4 0-6.8 1.3-9.4 3.4 2.6-2.2 6-3.4 9.4-3.4z"/><path class="st5" d="M43.1 118.6l30.6 15.9c3.1 1.7 6.6 2.1 10.2 1.3l14.7-20.5c3.8-5.3 3.8-12.4-.1-17.8L81.5 74c-2.9-4-7.5-6.3-12.2-6.3-1.9 0-3.8.4-5.6 1.1L39 78.8l-3.8 23.9c-1 6.5 2.2 12.9 7.9 15.9z"/><path class="st3" d="M9.3 91.2l-4.2 26.2v.3c-.2 1.3-.3 2.6-.3 3.9-.1 3.9.7 7.6 2.1 11.1 2.5 6.2 7.1 11.4 13.3 14.6l30.5 15.8c4 2.1 8.2 3.1 12.5 3.1h.6c1.3 0 2.6-.1 3.8-.2 7.6-1 14.8-5 19.5-11.6l.1-.1 18.9-26.2h-.1l3.6-5c3.6-5 5.4-10.8 5.4-16.7 0-.7 0-1.5-.1-2.2-.4-5.1-2.2-10.2-5.4-14.6l-17-23.4C85 55.6 70.8 51.5 58.8 56.4l-20.6 8.3L27 69.2c-9.5 3.8-16 12-17.7 22zm25.9 11.5L39 78.8l24.7-9.9c1.8-.7 3.7-1.1 5.6-1.1 4.7 0 9.4 2.2 12.2 6.3l17.1 23.4c3.9 5.3 3.9 12.5.1 17.8L84 135.7c-3.6.8-7.2.4-10.2-1.3l-30.6-15.9c-5.8-2.9-9-9.3-8-15.8zm1.8 27.8l30.4 15.8c2.2 1.2 4.5 2 6.8 2.6-4.6 4.4-11.5 5.4-17.4 2.4l-30.4-15.8c-5.9-3.1-9.1-9.5-8-15.9l4.1-26.1c.2-1.4.6-2.7 1.2-4l-1.8 11.2c-1.8 12.1 4.2 24.1 15.1 29.8z"/><path class="st5" d="M133 287.5l23.8 13.6c2.1 1.2 4.6 1.5 7.1 1l8.9-11.4c2.8-3.7 3-8.8.5-12.7l-12.8-19.2c-2-3.1-5.4-4.8-8.9-4.8-1.2 0-2.5.2-3.7.6l-17 6-3 15.2c-1 4.6 1.2 9.4 5.1 11.7z"/><path class="st3" d="M102 269.3l-4.2 20.8c-.3 1.7-.4 3.4-.4 5.1 0 .6.1 1.1.1 1.7.6 7.7 5 14.8 12 18.9l23.9 13.6c3.7 2.1 7.8 3.1 11.9 3.1 6.4 0 12.7-2.5 17.3-7.2.7-.7 1.3-1.4 1.9-2.2l18.9-24.3c.1-.1.2-.2.2-.4l1.9-2.6h.1l1.8-2.3-1.1.4c3.4-7.5 2.9-16.4-1.8-23.5l-12.8-19.2c-6.1-9.3-17.8-13.2-28.3-9.4l-17.8 6.3-8.1 2.9c-8 3.2-13.8 9.9-15.5 18.3zm25.9 6.7l3-15.2 17-6c1.2-.4 2.5-.6 3.7-.6 3.5 0 6.9 1.7 8.9 4.8l12.8 19.2c2.6 3.9 2.4 9-.5 12.7l-8.9 11.4c-2.5.5-5 .2-7.1-1L133 287.5c-3.9-2.3-6.1-7.1-5.1-11.5zm-1.5 23.1l23.8 13.6c1.3.8 2.7 1.4 4.1 1.8l-.5.6c-3.2 4.2-9.2 5.3-13.8 2.7l-23.8-13.6c-4-2.3-6.1-7-5.2-11.5l3.2-16c-.5 9 4.1 17.7 12.2 22.4z"/><path class="st3" d="M183.6 298.5c-.1.1-.2.2-.2.4l-18.9 24.3c-.6.8-1.2 1.5-1.9 2.2-4.6 4.7-10.9 7.2-17.3 7.2-4.1 0-8.1-1-11.9-3.1l-23.9-13.6c-7-4.1-11.4-11.2-12-18.9-.1-.6-.1-1.1-.1-1.7 0 .6.1 1.1.1 1.7.6 7.7 5 14.8 12 18.9l23.9 13.6c3.7 2.1 7.8 3.1 11.9 3.1 6.4 0 12.7-2.5 17.3-7.2.7-.7 1.3-1.4 1.9-2.2l18.9-24.3c.1-.1.2-.2.2-.4l1.9-2.4.1-.1h-.1l-1.9 2.5z"/><path class="st5" d="M431.5 146.1c2.6 6 8.7 9.6 15.3 9l26.1-2.5 4.6-30.2c.8-5.3-1.2-10.6-5.3-13.9l-20.4-16.9c-2.8-2.3-6.2-3.4-9.6-3.4-2.8 0-5.6.8-8 2.3h-.1l-19.3 12c-.4 2.8 0 5.7 1.1 8.2l15.6 35.4zm-57.7 178.6l-.1-.3-5.3-19.9c-2-7.2-8.4-12.5-15.8-12.9l-22.6-1.4v.1l-5.9 28.3c-.2.8-.2 1.6-.2 2.4.1 2.9 1.4 5.6 3.6 7.5.5.4 1.1.9 1.7 1.2l16.8 9.6h24.9c2.4-3 3.5-6.8 3.4-10.6 0-1.4-.2-2.7-.5-4z"/><path class="st3" d="M384.4 322l-4.4-20.2c-3.1-11.8-14.4-21.4-26.7-22l-27.4-1.7c-8.1-.6-16.1 2.4-21.9 8.2-4 4-6.6 9.9-7.7 15.3l-6.2 30.1c-.3 1.4-.5 2.9-.6 4.3v1.6c0 .6 0 1.2.1 1.7h4.1c-.1-.5-.1-1-.1-1.6 0-1.7.1-3.5.5-5.4l.2-1 6.1-29.1c2.2-10.6 11.2-18.2 22.3-18.9l8.7-.5-1.5 7.2 22.6 1.4c7.4.5 13.8 5.6 15.8 12.9l5.3 20 .1.3c.3 1.3.5 2.6.6 3.9.1 3.9-1.1 7.6-3.4 10.6h12.4c2.2-4.9 2.6-11.3 1.1-17.1z"/><path class="st3" d="M289.6 335.9c.1-1.4.3-2.9.6-4.3l6.2-30.1c1.2-5.4 3.8-10.3 7.7-14.3 5.8-5.8 13.8-8.8 21.9-8.2l27.4 1.7c12.3.7 22.6 9.3 25.7 21l5.4 20.2-5.4-20.3c-3.1-11.8-13.4-20.3-25.7-21l-27.4-1.7c-8.1-.6-16.1 2.4-21.9 8.2-4 4-6.6 8.9-7.7 14.3l-6.1 30.1c-.3 1.4-.5 2.7-.5 4.1-.2.1-.2.2-.2.3zm-.1 1.6v-1.6 1.6zm.1-1.6v-.2.2z"/><path class="st3" d="M352.6 291.5c7.4.5 13.8 5.7 15.8 12.9l5.3 19.9-5.3-20c-2-7.2-8.4-12.3-15.8-12.8L330 290l22.6 1.5zm21.7 37.1c.1 3.9-1.1 7.6-3.4 10.6 2.4-3 3.6-6.7 3.4-10.6z"/><path class="st6" d="M21.9 100.6l1.8-11.2c-.6 1.2-1 2.6-1.2 4l-4.1 26.1c-1.1 6.4 2.2 12.8 8 15.9l30.4 15.8c5.9 3.1 12.8 2 17.4-2.4-2.4-.5-4.7-1.4-6.8-2.6L37 130.5c-10.9-5.7-16.9-17.7-15.1-29.9zM177.3 5.2l36.9 11.1c5.2 1.5 10.7.2 14.6-3.4-.6-.1-1.2-.3-1.7-.5h-.1L190 1.3c-1-.3-2-.7-3.1-1.1h-17.1c2 2.3 4.5 4.1 7.5 5z"/><path class="st3" d="M173.4 18.2l37 11.1c2.7.8 5.4 1.2 8.1 1.2 9.1 0 17.9-4.3 23.4-12.1l8-11.5 4.8-6.8H187c1 .4 2.1.8 3.1 1.1l37 11.1h.1c.6.2 1.2.3 1.7.5-3.9 3.6-9.5 4.9-14.6 3.4l-37-11c-3-.9-5.5-2.7-7.4-5h-15.2c2.9 8.4 9.7 15.3 18.7 18z"/><path class="st6" d="M448 168.4c-12.3 1.1-23.8-5.7-28.8-16.9l-15.6-35.3c-.7-1.6-1.3-3.3-1.7-5.1-4.1 4.4-5.4 10.8-2.8 16.4l15.6 35.4c2.6 6 8.8 9.6 15.3 9l28.8-2.8c2.5-.2 4.8-1.1 6.8-2.4l-17.6 1.7z"/><path class="st3" d="M469.3 179.9c.1-.1.2-.1.3-.2.5-.3 1.1-.5 1.6-.8.3-.2.6-.3.9-.5l.9-.6c.5-.3 1-.7 1.5-1 .1-.1.3-.1.3-.2 1.3-1 2.8-2.2 3.8-3.4v-77l-18.3-15.1c-9.6-7.8-23-8.6-33.3-2l-6.8 4.2.1-.4-22.4 14.3c-.4.2-.7.5-1.1.7-8 5.5-12.4 14.6-12.3 23.8 0 3.8.8 7.6 2.5 11.2l15.6 35.3c.3.7.6 1.3.9 1.9 4.9 9.3 14.6 15.1 25.2 15.1.9 0 1.8-.1 2.7-.2l28.8-2.9v.1h.1c3.1-.2 6.2-1 9-2.3zm-54.6-77.3l19.3-12h.1c2.5-1.6 5.3-2.3 8-2.3 3.4 0 6.8 1.1 9.6 3.4l20.4 16.9c4.1 3.3 6.1 8.6 5.3 13.9l-4.6 30.2-26.1 2.5c-6.5.6-12.6-3-15.3-9l-15.6-35.4c-1.1-2.6-1.4-5.4-1.1-8.2zm44.1 66.5l-28.8 2.8c-6.5.6-12.6-3-15.3-9l-15.6-35.4c-2.5-5.6-1.3-12.1 2.8-16.4.4 1.7 1 3.4 1.7 5.1l15.6 35.3c4.9 11.3 16.5 18 28.8 16.9l17.5-1.7c-1.9 1.3-4.2 2.2-6.7 2.4z"/><path class="st6" d="M235.1 173.3l-15.4-30.8c-1-2-1.8-4.2-2.2-6.3-4.3 4.6-5.4 11.4-2.5 17.1l15.3 30.8c3.4 6.8 11.1 10 18.4 7.6l8.4-2.8c-9.2-1.2-17.5-6.8-22-15.6zM114.3 276.7l-3.2 16c-.9 4.5 1.2 9.2 5.2 11.5l23.8 13.6c4.6 2.6 10.5 1.4 13.8-2.7l.5-.6c-1.4-.5-2.8-1.1-4.1-1.8l-23.8-13.6c-8.2-4.7-12.8-13.4-12.2-22.4zm196.2 44.2v-1.3l-1.6 7.7-1.6 7.8c-.2.7-.2 1.5-.2 2.3 0 .8.1 1.4.2 1.9h12.6c-5.8-3.9-9.2-11.1-9.4-18.4z"/><path class="st3" d="M327.5 328.4c-2.2-1.9-3.5-4.6-3.6-7.5 0-.8 0-1.7.2-2.5L330 290l1.5-7.2-8.7-.4c-11.1.7-20 8.3-22.3 18.9l-6.1 30-.2 1c-.4 1.8-.5 3.7-.5 5.3 0 .6 0 1.1.1 1.6h13.5c-.1-.5-.2-1.2-.2-1.9 0-.8.1-1.6.2-2.4l1.6-7.7 1.6-7.8v1.4c.2 7.3 3.6 14.6 9.4 18.3H346l-16.8-9.6c-.6-.2-1.2-.7-1.7-1.1zm0 0z"/><path class="st3" d="M294.4 331.3l-.2 1c-.4 1.8-.5 3.7-.5 5.4 0-1.7.1-3.5.5-5.3l.2-1.1zm14.5-4.1l-1.6 7.7c-.2.8-.2 1.6-.2 2.4 0-.7.1-1.5.2-2.3l1.6-7.8zm1.6-6.3v-1.3 1.3z"/><path class="st7" d="M165 60.9c-.8-.8-1.8-1.2-3-1.2-1.1 0-2.2.4-3 1.2-.8.8-1.2 1.8-1.2 3 0 1.1.4 2.2 1.2 3l15.4 15.4c1.6 1.6 4.4 1.6 6 0 1.6-1.6 1.6-4.4 0-6L165 60.9z"/><path class="st3" d="M174.5 51.5c-6.9-6.9-18-6.9-24.9 0-6.9 6.9-6.9 18 0 24.9L165 91.8c3.4 3.4 7.9 5.1 12.5 5.1s9-1.7 12.5-5.1c6.9-6.9 6.9-18 0-24.9l-15.5-15.4zm5.9 30.8c-1.6 1.6-4.4 1.6-6 0L159 66.9c-.8-.8-1.2-1.8-1.2-3 0-1.1.4-2.2 1.2-3 .8-.8 1.8-1.2 3-1.2 1.1 0 2.2.4 3 1.2l15.4 15.4c1.6 1.7 1.6 4.4 0 6z"/><path class="st2" d="M142 183.2h-21.8c-2.3 0-4.2 1.7-4.2 4s1.9 4 4.2 4H142c2.3 0 4.2-1.7 4.2-4s-1.9-4-4.2-4z"/><path class="st3" d="M142 170.2h-21.8c-9.7 0-17.6 7.8-17.6 17.5s7.9 17.5 17.6 17.5H142c9.7 0 17.6-7.8 17.6-17.5s-7.9-17.5-17.6-17.5zm0 21h-21.8c-2.3 0-4.2-1.7-4.2-4s1.9-4 4.2-4H142c2.3 0 4.2 1.7 4.2 4s-1.9 4-4.2 4z"/><path class="st7" d="M246.5 260.6c-.4-1-1.3-1.8-2.4-2.3-.4-.1-.9-.3-1.6-.3-.5 0-1 .1-1.6.3-1 .5-1.9 1.3-2.3 2.4-.2.6-.6 1.8 0 3.2l8.7 20.1c.4 1 1.3 1.8 2.4 2.3.6.2 1.8.6 3.2 0 1-.5 1.9-1.3 2.3-2.4.2-.6.6-1.8 0-3.2l-8.7-20.1z"/><path class="st3" d="M258.7 255.3c-1.9-4.3-5.3-7.6-9.7-9.3-4.4-1.8-9.2-1.7-13.5.2-4.3 1.9-7.6 5.3-9.3 9.7-1.8 4.4-1.7 9.2.2 13.5l8.7 20.1c1.9 4.3 5.3 7.6 9.7 9.3 2.1.8 4.3 1.3 6.5 1.3 2.4 0 4.7-.5 7-1.5 4.3-1.9 7.6-5.3 9.3-9.7 1.8-4.4 1.7-9.2-.2-13.5l-8.7-20.1zm-3.5 28.6c-.4 1.1-1.2 1.9-2.3 2.4-1.3.6-2.6.3-3.2 0-1.1-.4-1.9-1.2-2.4-2.3l-8.7-20.1c-.6-1.4-.3-2.6 0-3.2.4-1.1 1.2-1.9 2.3-2.4.6-.2 1.1-.3 1.6-.3.7 0 1.2.2 1.6.3 1.1.4 1.9 1.2 2.4 2.3l8.7 20.1c.5 1.4.2 2.6 0 3.2z"/><path class="st2" d="M362 214.4l-.1-.1-18.6-11.5c-.7-.4-1.4-.6-2.2-.6-.3 0-.6 0-1 .1-1.1.3-2 .9-2.6 1.9-1.2 2-.6 4.5 1.4 5.7l18.6 11.5c2 1.2 4.4.6 5.7-1.3.6-1 .8-2.3.5-3.4-.2-.7-.6-1.6-1.7-2.3z"/><path class="st3" d="M368.8 202.9l-18.5-11.4c-8.2-5.1-19-2.5-24.2 5.7-5.1 8.2-2.5 19 5.7 24.2l18.6 11.5c2.9 1.8 6 2.6 9.2 2.6 5.9 0 11.7-3 15-8.3l.1-.1c2.4-4.1 3.1-9.1 2-13.6-1.2-4.6-4-8.3-7.9-10.6zm-5.6 17.2c-1.3 2-3.8 2.6-5.7 1.3L338.9 210c-2-1.3-2.6-3.8-1.4-5.7.6-1 1.5-1.7 2.6-1.9.3-.1.6-.1 1-.1.8 0 1.5.2 2.2.6l18.6 11.5.1.1c1.1.6 1.5 1.6 1.7 2.3.3 1.1.1 2.3-.5 3.3zm115.3.5c-4.3-1.9-9.1-1.9-13.5-.2-4.4 1.8-7.9 5.2-9.7 9.5l-8.5 20c-.9 2.2-1.4 4.5-1.5 6.8 0 2.3.4 4.6 1.3 6.8 1.8 4.4 5.2 7.7 9.6 9.7 2.2 1 4.7 1.3 6.9 1.3 6.3 0 12.5-3.4 15.5-9.1v-44.8h-.1zm-3.1 17.9l-8.5 20.1c-.5 1.3-1.5 1.9-2.2 2.2-1 .4-2.2.4-3.3 0-1-.4-1.8-1.2-2.3-2.3-.4-1-.4-2.1.1-3.2l8.5-20.1c.4-1 1.2-1.8 2.3-2.3 1-.4 2.1-.4 3.1 0l.1.1c1 .4 1.8 1.2 2.3 2.3.4 1 .4 2.1-.1 3.2z"/><path class="st7" d="M51.9 237.3l-18.6-11.2c-2-1.2-4.6-.6-5.8 1.4-1.1 2.1-.5 4.7 1.5 5.9l18.6 11.2c2 1.2 4.6.6 5.9-1.4 1.1-2.1.5-4.6-1.6-5.9z"/><path class="st3" d="M59 225.9l-18.7-11.3c-8.4-5-19-2.4-24.1 5.9l-.1.2c-4.8 8.3-2.2 19.1 6 24.2l18.7 11.3c2.9 1.7 6 2.5 9.1 2.5 5.9 0 11.6-3 15-8.4l.1-.1c4.9-8.5 2.3-19.1-6-24.3zm-5.6 17.3c-1.3 2-3.9 2.6-5.9 1.4L29 233.4c-2-1.2-2.6-3.9-1.5-5.9 1.3-2 3.9-2.6 5.8-1.4l18.6 11.2c2.1 1.3 2.7 3.8 1.5 5.9z"/><path class="st2" d="M308.7 41.1c-2.3 0-4 1.9-4 4.2v21.8c0 2.3 1.7 4.2 4 4.2s4-1.9 4-4.2V45.3c0-2.3-1.8-4.2-4-4.2z"/><path class="st3" d="M326.7 45.3c0-9.7-8.3-17.6-18-17.6s-18 7.9-18 17.6v21.8c0 9.7 8.3 17.6 18 17.6s18-7.9 18-17.6V45.3zm-14 21.8c0 2.3-1.7 4.2-4 4.2s-4-1.9-4-4.2V45.3c0-2.3 1.7-4.2 4-4.2s4 1.9 4 4.2v21.8z"/><path class="st2" d="M451.1 1.3c-.2.1-.5.1-.7.2-1.5.6-2.6 2.1-2.6 3.8 0 .9.3 1.6.8 2.3.1.2.3.3.4.5.4.4.8.6 1.3.8.2.1.5.2.7.2h.2c.3.1.7.1 1 .1-.3 0-.7 0-1-.1h-.2c-.3-.1-.5-.1-.7-.2-.4-.1-.7-.3-1-.5.8.8 1.8 1.3 2.9 1.3h11.1l10.5-.1h.4c1.2-.2 2.2-.8 2.8-1.8.5-.7.6-1.5.6-2.4 0 .9-.3 1.7-.8 2.4.5-.7.8-1.5.8-2.4 0-2.3-1.6-4.2-3.8-4.2H452c-.3 0-.5 0-.8.1h-.1z"/><path class="st2" d="M449.3 8.3c-.1-.1-.2-.2-.2-.3-.1-.1-.3-.3-.4-.5-.5-.7-.8-1.4-.8-2.3v.1c0 .7.2 1.3.4 1.8.1.1.2.3.3.4.2.4.4.6.7.8z"/><path class="st3" d="M434.7 5.6h-.1c.1 4.9 2 9.3 5.2 12.5 3.2 3.2 7.4 5.1 12.3 5.1h.2-.1.1L474 23c1.2 0 2.5-.1 3.7-.4.4-.1.2-.2 1.2-.3V.2h-43.2c-.7 1.7-1 3.5-1 5.4zm13-.3c0-1.4.8-2.7 2-3.4.4-.3.9-.5 1.5-.6h.1c.3 0 .5-.1.8-.1h21.8c2.3 0 3.8 1.9 3.8 4.2 0 .9-.3 1.7-.8 2.4.5-.7.8-1.5.8-2.4 0 .9-.1 1.7-.6 2.4-.7.9-1.7 1.6-2.8 1.8h-22c-1.5 0-2.8-.7-3.5-1.9-.1-.2-.3-.4-.4-.7-.5-.4-.7-.9-.7-1.7z"/><path class="st3" d="M450.4 1.5c.2-.1.4-.2.7-.2-.5.1-1 .3-1.5.6.3-.1.6-.3.8-.4zm1.6-.3c-.3 0-.5 0-.8.1.3-.1.6-.1.8-.1zm-.7.1h-.1.1zm.9 21.9h-.1.1zm-3.7-15.6c-.1-.1-.2-.3-.3-.4.1.2.2.5.4.7.8 1.1 2.1 1.8 3.5 1.9-1.1 0-2.1-.6-2.9-1.3-.2-.4-.4-.6-.7-.9z"/><path class="st3" d="M450.3 8.9c-.5-.2-.9-.5-1.3-.8.1.1.2.2.2.3.4.2.7.3 1.1.5zM449 8c-.1-.1-.3-.3-.4-.5.2.3.3.4.4.5zm3.2 1.2c-.3 0-.7 0-1-.1.3.1.6.1 1 .1z"/></svg>