<svg id="Layer_1" xmlns="http://www.w3.org/2000/svg" viewBox="-203.9 108.9 633.8 525.2"><style>.st0{fill:#f9b233}.st1{fill:#e30613}.st2{fill:#86cbed}.st3{fill:#fff}.st4{fill:#575756}.st5{fill:#1d1d1b}</style><path class="st0" d="M335.5 131.6c-35.4 0-78.6 74-78.6 109.4s42.6 106.8 78 106.8h16l.7-216.2h-16.1zM8.9 257h152v24H8.9z"/><circle class="st1" cx="208.9" cy="241" r="16"/><path class="st2" d="M48.9 313h104v96h-104z"/><path class="st1" d="M152.9 281h-136v96h-152v32h208l-16-32h-1.2l-4.5-64h101.7z"/><path class="st0" d="M-135.1 409H289v160h-424.1z"/><circle class="st1" cx="144.9" cy="481" r="24"/><path class="st3" d="M264.9 409h24v128h-24z"/><circle class="st4" cx="240.9" cy="569" r="56"/><circle class="st3" cx="240.9" cy="569" r="16"/><circle class="st4" cx="8.9" cy="529" r="96"/><circle class="st1" cx="8.9" cy="529" r="48"/><circle class="st3" cx="8.9" cy="529" r="24"/><path class="st5" d="M8.9 584.9c-30.8 0-55.9-25.1-55.9-55.9 0-30.8 25.1-55.9 55.9-55.9s55.9 25.1 55.9 55.9-25.1 55.9-55.9 55.9zm0-96c-22.1 0-40.2 18-40.2 40.2s18 40.2 40.2 40.2S49 551.2 49 529c0-22.1-18-40.1-40.1-40.1z"/><path class="st5" d="M8.9 560.9C-8.7 560.9-23 546.6-23 529c0-17.6 14.3-31.9 31.9-31.9s31.9 14.3 31.9 31.9c-.1 17.6-14.4 31.9-31.9 31.9zm0-48c-8.9 0-16.1 7.2-16.1 16.1 0 8.9 7.2 16.1 16.1 16.1S25 537.9 25 529c0-8.9-7.2-16.1-16.1-16.1zm232 80c-13.2 0-23.9-10.7-23.9-23.9s10.7-23.9 23.9-23.9 23.9 10.7 23.9 23.9-10.7 23.9-23.9 23.9zm0-32c-4.5 0-8.1 3.7-8.1 8.1 0 4.5 3.7 8.1 8.1 8.1 4.5 0 8.1-3.7 8.1-8.1.1-4.5-3.6-8.1-8.1-8.1zm48-327.8h16v15.7h-16z"/><path class="st3" d="M-15.1 401.1h16v15.7h-16zm-32 0h16v15.7h-16zm-32 0h16v15.7h-16z"/><path class="st5" d="M8.9 249.1h152v15.7H8.9z"/><path transform="rotate(44.992 88.914 344.99)" class="st3" d="M81.1 333.7h15.7v22.6H81.1z"/><path transform="rotate(45.001 108.893 365.005)" class="st3" d="M101 336.7h15.7v56.6H101z"/><path class="st5" d="M-79.3 325.7l-18.3-18.3-11.1 11.1 13.7 13.7v12.9h-8.1v15.7h32v-15.7h-8.2zm56 19.4v-19.4l-18.3-18.3-11.1 11.1 13.7 13.7v12.9h-8.1v15.7h32v-15.7z"/><path class="st5" d="M364.8 347.3V119.1h-23.9c-37 0-87.5 78.1-91.4 114h-18.1c-3.3-9.3-12.1-16-22.5-16-13.2 0-23.9 10.7-23.9 23.9 0 6.8 2.9 12.9 7.4 17.3l-31.7 126.9V273.1H9v96h-152v207.7h59.7c17.3 33.3 52.1 56 92.2 56s74.8-22.8 92.2-56h76.5c3.9 31.5 30.8 56 63.4 56 35.2 0 63.9-28.6 63.9-63.9 0-11.7-3.2-22.6-8.6-32h.6V401.1H173l34.1-136.4c.6 0 1.2.1 1.8.1 10.4 0 19.3-6.7 22.5-16h18.1c3.9 35.9 54.5 114 91.4 114l48 .4.1-15.7-24.2-.2zM152.5 482.9l3.4-13.7c3.1 2.9 5.1 7.1 5.1 11.8 0 8.9-7.2 16.1-16.1 16.1-8.9 0-16.1-7.2-16.1-16.1 0-7.4 5.1-13.7 11.9-15.6l-3.4 13.7 15.2 3.8zm-55.8 53.6l-15.5-2.7-2.7 15.5L94 552c-1.3 4.9-3.1 9.6-5.2 14.1l-13.7-7.9-7.9 13.6 13.6 7.9c-2.9 4.1-6.1 8-9.6 11.5l-10.1-12.1-12 10.1 10.1 12.1c-4.1 2.9-8.4 5.4-13 7.5L40.9 594l-14.8 5.4 5.4 14.8c-4.8 1.3-9.7 2.1-14.8 2.6v-16.5H1v16.5c-5.1-.5-10-1.3-14.8-2.6l5.4-14.8-14.8-5.4-5.4 14.8c-4.6-2.1-8.9-4.7-13-7.5l10.1-12.1-12-10.1-10.1 12.1c-3.5-3.5-6.7-7.4-9.6-11.5l13.6-7.9-7.9-13.6-13.7 7.9c-2.1-4.5-3.8-9.2-5.2-14.1l15.5-2.7-2.7-15.5-15.5 2.7a94.013 94.013 0 0 1 0-15l15.5 2.7 2.7-15.5-15.5-2.7c1.3-4.9 3.1-9.6 5.2-14.1l13.7 7.9 7.9-13.6-13.6-7.9c2.9-4.1 6.1-8 9.6-11.5l10.1 12.1 12-10.1-10.1-12.1c4.1-2.9 8.4-5.4 13-7.5l5.4 14.8 14.8-5.4-5.4-14.8c4.8-1.3 9.7-2.1 14.8-2.6V457h15.7v-15.8c5.1.4 10 1.3 14.8 2.6l-5.4 14.8 14.8 5.4 5.4-14.8c4.6 2.1 8.9 4.7 13 7.5l-10.1 12.1 12 10.1 10.1-12.1c3.5 3.5 6.7 7.4 9.6 11.5l-13.6 7.9 7.9 13.6 13.7-7.9c2.1 4.5 3.8 9.2 5.2 14.1l-15.5 2.7 2.7 15.5 15.5-2.7c.2 2.5.3 5 .3 7.5s-.2 5-.4 7.5zm176.1-119.6h8.3v102.6c-2.6-2.1-5.4-4-8.3-5.7v-96.9zm-7.4 110.7l-10 11.9 12 10.1 9.9-11.8c3.8 4.5 6.9 9.7 8.9 15.3l-15.3 2.7 2.7 15.5 15.3-2.7v.5c0 6-1.1 11.7-3.1 16.9l-13.4-7.7-7.9 13.6 13.4 7.7c-3.8 4.6-8.4 8.5-13.6 11.4l-5.3-14.5-14.8 5.4 5.3 14.6c-2.9.5-5.8.8-8.9.8s-6-.3-8.9-.8l5.3-14.6-14.8-5.4-5.3 14.5c-5.2-2.9-9.8-6.8-13.6-11.4l13.4-7.7-7.9-13.6-13.4 7.7c-2-5.3-3.1-11-3.1-16.9v-.5l15.3 2.7 2.7-15.5-15.3-2.7c2-5.7 5-10.9 8.9-15.3l9.9 11.8 12-10.1-10-11.9c5-3 10.7-5.1 16.7-6.1V537h15.7v-15.5c6.6 1 12.2 3.1 17.2 6.1zm-8.3-110.7v16.3H233v15.7h24.1v24.3H233v15.7h24.1v18.4c-5.2-1.3-10.6-2.1-16.1-2.1-32.6 0-59.5 24.5-63.4 56h-69.9c3.3-10.1 5.1-20.9 5.1-32.2 0-57.3-46.6-103.9-103.9-103.9S-95 471.7-95 529c0 11.2 1.8 22 5.1 32.1h-37.4V416.9h32.2v-15.7h-32.2v-16.3h152v-96H145v16.3H41v49.5l20 46.4H16.9v15.7h136l-8.1 32.3c-17.5.1-31.7 14.3-31.7 31.9 0 17.6 14.3 31.9 31.9 31.9 17.6 0 31.9-14.3 31.9-31.9 0-12.1-6.8-22.7-16.8-28l9-36.1h88zM145 320.8v80.3H78l-21.3-49.8v-30.5H145zm63.9-71.7c-4.5 0-8.1-3.7-8.1-8.1s3.7-8.1 8.1-8.1c4.5 0 8.1 3.7 8.1 8.1.1 4.5-3.6 8.1-8.1 8.1zm56.4-.3h15.6v-15.7h-15.6c3.8-27.3 47.3-98.3 75.6-98.3h8.1v212.4l-8.1-.1c-28.3 0-71.7-71-75.6-98.3z"/></svg>