<svg xmlns="http://www.w3.org/2000/svg" viewBox="0 0 279 342.4"><defs><style>.cls-1{fill:#00a4d4}.cls-2{fill:#00b4d7}.cls-3{fill:#0592c2}.cls-4{fill:#009ec5}.cls-5{fill:#fff}.cls-6{fill:#00abd5}.cls-7{fill:#e7eced}.cls-8{fill:#595e62}.cls-9{fill:#afb6bb}.cls-10{fill:#7e8488}.cls-11{fill:#0092ca}.cls-12{fill:#959ba0}.cls-13{fill:#707679}.cls-14{fill:#99a0a4}.cls-15{fill:#686e71}</style></defs><title>factory-pipe</title><g id="Calque_2" data-name="Calque 2"><g id="Layer_1" data-name="Layer 1"><path class="cls-1" d="M120.6 240h49.6v84.2h-49.6z"/><path class="cls-2" d="M179.8 324.2v15.3h-68.7v-15.3h68.7z"/><path class="cls-3" d="M120.6 240h25.1v84.2h-25.1z"/><path class="cls-4" d="M120.6 324.2h-9.5v15.3h34.6v-15.3h-25.1z"/><path class="cls-5" d="M130.2 285.1h30.5v5.7h-30.5zm0 13.4h7.6v5.7h-7.6zm11.5 0h7.6v5.7h-7.6zm11.4 0h7.6v5.7h-7.6z"/><path d="M175 342.4h7.6v-21h-9.5V240h-5.7v81.3h-43.9V240h-5.7v81.3h-9.6v21h7.6m-1.8-5.7V327h62.9v9.6zm7.7 5.8h47.6"/><path class="cls-6" d="M28.5 181.5h108v54h-108zm0-78h108v54h-108z"/><path class="cls-7" d="M187.5 202.5h30v60h-30zm30 0h30v60h-30z"/><path class="cls-8" d="M160.5 136.5h63v24h-63z"/><path class="cls-9" d="M235.5 4.5v24h-108v-24h108z"/><path class="cls-10" d="M223.5 28.5v108h-63v-60h-21v-48h84zm51 132v102h-27v-60h-60v60h-27v-102h114z"/><path class="cls-9" d="M160.5 160.5v102H4.5v-222l36 33v-33l36 33v-33l36 36h48v84zm-24 75v-54h-108v54zm0-78v-54h-108v54z"/><path class="cls-11" d="M49.3 103.5H28.5v54h108v-13c-37.7-3.8-69.6-19.3-87.2-41zm0 78H28.5v54h108v-13c-37.7-3.8-69.6-19.3-87.2-41z"/><path class="cls-12" d="M28.5 235.5v-54h54v-24h-54v-54h52.3L81 45l-4.5-4.5v33l-36-33v33l-36-33v222h78v-27h-54z"/><path class="cls-13" d="M160.5 160.5v102h27v-60h30v-42h-57z"/><path class="cls-14" d="M181.5 4.5h-54v24h54v-24z"/><path class="cls-15" d="M139.5 28.5v48h21v60h21v-108h-42z"/><path class="cls-5" d="M154.5 45h54v9h-54zm24 18h30v9h-30zm15 18h15v9h-15zm-12 96h36v9h-36zm60 0h12v9h-12zm-18 0h12v9h-12z"/><path d="M228 156V33h12V0H123v33h12v39h-20.6L72 29.6v33.6l-36-33v33l-36-33v236.7h279v-111h-51zm-63-15h54v15h-54v-15zM132 9h99v15h-99zm24 249H9V50.8l36 33v-33l35.9 32.7.1-32.1L110.6 81H156v177zM144 72V33h75v99h-54V72zm48 186v-51h21v51zm51 0h-21v-51h21zm27 0h-18v-60h-69v60h-18v-93h105z"/><path d="M24 162h117V99H24zm9-54h99v45H33zm-9 132h117v-63H24zm9-54h99v45H33z"/><path class="cls-5" d="M51 136.5h-9V117h49.5v9H51v10.5zm49.5-19.5h12v9h-12zM51 214.5h-9V195h49.5v9H51v10.5zm49.5-19.5h12v9h-12z"/></g></g></svg>