<svg xmlns="http://www.w3.org/2000/svg" width="467.5" height="364" viewBox="32.5 72.5 467.5 364"><path fill="#A67C52" d="M138.986 425.509h32.772l-2.316-33.123h-18.035v-4.14h-9.824z"/><path fill="#C69C6D" d="M159.547 363.685h-16.21l-1.754 24.561h9.824v-4h17.474l-1.755-25.053h-7.579z"/><path fill="#3F352F" d="M139.688 359.193l-8.702 66.386h-20.702v8.07h116.772L228.75 426l-48.782-.491L173.5 358.5m-2.444.693h.912l4.141 29.053h-2.947l2.947 41.474h-41.474l2.947-41.474h-2.947l4.14-29.053h.912"/><path fill="#3F352F" d="M151.407 392.386h18.035l2.316 33.123h-32.772l2.597-37.263h-4l-2.948 41.474h41.474l-2.947-41.474h-21.755zm-12.632-33.193l-4.14 29.053h2.948l2.105-29.053zm37.334 29.053l-4.141-29.053h-.912l2.106 29.053z"/><path fill="#3F352F" d="M168.881 384.246h-17.474v4h21.755l-2.106-29.053h-3.93zm-25.544-20.561h16.21v-4.492h-19.859l-2.105 29.053h4z"/><path fill="#B84B41" d="M371.617 401.368h14.877v23.369h-14.877z"/><path fill="#3F352F" d="M363 396.5l-.295 28.237h-49.053v8.912H444.39v-8.912h-13.474v-11.649h.07-8.912v11.649h-8.912v-17.614h-8.913v17.614h-8.912l-.587-28.237m-3.764.447v32.281h-23.79v-32.281m63.79 16.141z"/><path fill="#3F352F" d="M367.196 429.229h23.79v-32.281h-23.79v32.281zm4.421-27.861h14.877v23.369h-14.877v-23.369z"/><path fill="#B84B41" d="M221.021 407.193h12.21v19.157h-12.21z"/><path fill="#3F352F" d="M269.652 416.807zM217.372 430h19.509v-26.456h-19.509V430zm3.649-22.807h12.21v19.157h-12.21v-19.157z"/><path fill="#A67C52" d="M272.74 327.824h21.123v5.053h10.246l-1.545-22.666h-19.718v-5.404h-8.492zm-6.666 94.808h44.351l-3.158-44.843h-24.421v-5.613h-13.194z"/><path fill="#C69C6D" d="M293.863 338.842h-21.894l-2.317 33.334h13.194v-5.405h23.648l-2.385-33.894h-10.246z"/><path fill="#39B54A" d="M305.793 148.246c.07-.211.141-.422.141-.702h-1.053c.281.21.56.491.912.702z"/><path fill="#3F352F" d="M267.5 309.5l-12.443 113.132h-28v11.018h122.737v-11.018h-28.281L310.5 307.5m.205-2.693h-3.229l2.035 28.07h1.193l5.614 39.299h-4l4 56.14h-56.141l4-56.14h-4l5.614-39.299h1.193l2.035-28.07"/><path fill="#3F352F" d="M293.863 327.824H272.74l1.614-23.017h-5.333l-2.035 28.07h26.877zm-11.017 49.965h24.421l3.158 44.843h-44.351l3.578-50.456h-5.473l-4 56.139h56.14l-4-56.139h-29.473zm0-67.578h19.718l1.545 22.666h5.403l-2.035-28.07h-24.631zm-17.053 22.666l-5.614 39.299h4l2.807-39.299zm50.526 39.299l-5.614-39.299h-1.193l2.807 39.299z"/><path fill="#3F352F" d="M306.494 366.771h-23.648v5.405h29.473l-2.807-39.299h-5.403zm-34.525-27.929h21.894v-5.965h-26.877l-2.807 39.299h5.473zm16.28-191.298zm-.07 0h.07-.07zm.07 0h.07-.07z"/></svg>