<svg xmlns="http://www.w3.org/2000/svg" width="467.5" height="364" viewBox="32.5 72.5 467.5 364"><path fill="#A67C52" d="M146.775 314.28h8.421v3.509h8.983l-1.123-16.56h-7.86v-4.211h-7.228zm-2.877 41.264h15.649v3.649h7.579l-1.193-16.702h-14.526v-4h-6.316zm11.298-79.298h6.105l-1.193-17.193m-21.122 166.456h32.772l-2.316-33.123h-18.035v-4.14h-9.824z"/><path fill="#C69C6D" d="M159.547 363.685h-16.21l-1.754 24.561h9.824v-4h17.474l-1.755-25.053h-7.579zm-4.351-41.264h-8.982l-1.123 16.07h6.316v-4.14h13.965l-1.193-16.562h-8.983zm7.299-29.333l-1.193-16.773h-6.106v4.352h-6.105l-1.123 16.351h7.228v-3.93z"/><path fill="#39B54A" d="M200.39 222.491h4.842v-.07h-4.842v.07z"/><path fill="#3F352F" d="M139.688 359.193l-8.702 66.386h-20.702v8.07h90.597v-8.141h-20.913L173.5 358.5m-6.935-61.482l1.614 23.018 3.79 18.456h-2.386l1.474 20.702h.912l4.141 29.053h-2.947l2.947 41.474h-41.474l2.947-41.474h-2.947l4.14-29.053h.912l1.474-20.702h-2.386l3.719-18.456 1.614-23.018"/><path fill="#3F352F" d="M155.196 317.789v-3.509h-8.421l1.193-17.262h-3.859l-1.614 23.017.421-2.246zm4.351 37.755h-15.649l1.193-17.053h-3.929l-1.474 20.702h19.859zm-8.14 36.842h18.035l2.316 33.123h-32.772l2.597-37.263h-4l-2.948 41.474h41.474l-2.947-41.474h-21.755zm3.789-95.368v4.211h7.86l1.123 16.56h3.649l.421 2.246-1.614-23.017zm-16.421 62.175l-4.14 29.053h2.948l2.105-29.053zm37.334 29.053l-4.141-29.053h-.912l2.106 29.053z"/><path fill="#3F352F" d="M168.881 384.246h-17.474v4h21.755l-2.106-29.053h-3.93zm-25.544-20.561h16.21v-4.492h-19.859l-2.105 29.053h4zm28.631-25.194l-3.719-18.456 1.334 18.456zm-33.193 0h2.387l1.333-18.456zm7.439-16.07h8.982v-4.632h-12.28l-.421 2.246-1.333 18.456h3.929zm-3.298-25.403h1.193l.631-9.194zm24.912 0l-1.895-9.194.702 9.194zm41.403-74.597h6.246l-6.246-4.14z"/><path fill="none" d="M155.416 218.177v-.337 15.511-15.174z"/><path fill="#A67C52" d="M147.42 322.562h7.852v3.228h8.381l-1.108-15.365h-7.273v-3.904h-6.744zm-2.649 38.296h14.499v3.468h7.033l-1.06-15.558h-13.536v-3.71h-5.829zm15.077-89.645c-1.397.337-2.89.53-4.432.53-1.541 0-2.986-.193-4.431-.53l-.867 12.477h5.106v3.518h5.684l-1.06-15.995zm-19.653 154.724h30.443l-2.167-30.781h-16.764v-3.853h-9.056z"/><path fill="#C69C6D" d="M159.27 368.42h-15.029l-1.59 22.883h9.056v-3.71h16.233l-1.637-23.267h-7.033zm-3.998-38.294h-8.382l-1.012 14.932h5.829v-3.852h13.006l-1.06-15.416h-8.381zm6.744-27.264l-1.06-15.655h-5.684v4.045h-5.684l-1.06 15.269h6.744v-3.659z"/><path fill="#39B54A" d="M151.515 229.401h-3.805v5.539a18.73 18.73 0 0 1 7.707-1.637v-15.511h-3.805c0-10.646-8.67-19.365-19.364-19.365H97.612c-4.288 0-7.804 3.469-7.804 7.804h-3.709c-.048.433-.048.867-.048 1.301v2.649h46.244c10.597.048 19.22 8.622 19.22 19.22z"/><path fill="#8CC63F" d="M213.22 198.524h-34.682c-10.646 0-19.364 8.67-19.364 19.365h-3.758v15.461c2.746 0 5.347.579 7.708 1.638v-5.54h-3.806c0-10.598 8.623-19.22 19.22-19.22h46.244v-3.901h-3.758c0-4.335-3.516-7.803-7.804-7.803z"/><path fill="#39B54A" d="M197.277 237.204h4.479v-.047h-4.479v.047zm27.505-.096h-6.648l.097.049h10.501v-10.983l16.473 10.983h14.019c-1.831-10.983-11.368-19.413-22.88-19.413h-11.561v19.364h-.001zm-57.323.482c.047-.145.096-.289.096-.482h-.722c.193.144.385.338.626.482z"/><path fill="#39B54A" d="M167.555 237.108c1.734-6.6 7.708-11.513 14.836-11.513a15.297 15.297 0 0 1 14.837 11.513h4.479v-10.935l16.377 10.935h6.697v-19.364h-46.244c-6.406 0-11.657 5.203-11.657 11.657h-3.757v5.539a19.26 19.26 0 0 1 3.709 2.168h.723z"/><path fill="#8CC63F" d="M86.051 217.792H74.49c-11.513 0-21.099 8.429-22.881 19.412h14.017L82.1 226.221v10.983h10.501l.097-.047H86.05v-19.365zm23.025 19.412h4.48v-.047h-4.48v.047zm34.345.386c.193-.145.386-.289.579-.482h-.723c.049.144.097.338.144.482z"/><path fill="#8CC63F" d="M132.294 217.792H86.051v19.365h6.648l16.377-10.936v10.936h4.48c1.734-6.6 7.708-11.514 14.837-11.514s13.15 4.914 14.836 11.514h.723a19.084 19.084 0 0 1 3.71-2.168v-5.54h-3.806a11.556 11.556 0 0 0-11.562-11.657z"/><path fill="#C7B299" d="M128.441 248.766c4.287 0 7.804-3.468 7.804-7.804h-15.607c-.001 4.287 3.515 7.804 7.803 7.804zm-7.804-7.804h15.559c0-1.396-.385-2.697-1.011-3.854h-13.488a7.6 7.6 0 0 0-1.06 3.854z"/><path fill="#C7B299" d="M128.441 233.207c-2.89 0-5.395 1.59-6.744 3.951h13.488c-1.349-2.361-3.853-3.951-6.744-3.951zm53.951 15.559c4.287 0 7.804-3.468 7.804-7.804h-15.559c0 4.287 3.467 7.804 7.755 7.804zm-7.755-7.804h15.559c0-1.396-.386-2.697-1.013-3.854h-13.487c-.722 1.157-1.059 2.458-1.059 3.854z"/><path fill="#C7B299" d="M182.392 233.207c-2.89 0-5.395 1.59-6.744 3.951h13.488c-1.349-2.361-3.854-3.951-6.744-3.951z"/><path fill="#998675" d="M143.759 252.522c0 6.407 5.202 11.658 11.657 11.658a11.636 11.636 0 0 0 11.657-11.658 11.636 11.636 0 0 0-11.657-11.657c-6.406.049-11.657 5.251-11.657 11.657z"/><path fill="#3F352F" d="M98.864 194.718h40.608c8.814 0 15.943 7.129 15.943 15.945v7.177c.192-12.813 10.598-23.122 23.459-23.122h34.538c6.263 0 11.369 5.107 11.369 11.369v.192h3.806c0-8.477-6.889-15.366-15.368-15.366h-34.682c-7.804 0-14.836 3.324-19.75 8.671v-12.717h-7.562v11.898c-4.866-4.817-11.561-7.804-18.932-7.804H97.612c-8.479 0-15.367 6.888-15.367 15.367h3.854c.626-6.552 6.118-11.61 12.765-11.61z"/><path fill="#3F352F" d="M97.612 198.524h34.682c10.646 0 19.364 8.67 19.364 19.365h3.806v-7.178c0-8.815-7.129-15.944-15.945-15.944H98.864c-6.647 0-12.139 5.058-12.765 11.561h3.709c.001-4.336 3.517-7.804 7.804-7.804z"/><path fill="#3F352F" d="M213.414 194.718h-34.538c-12.861 0-23.267 10.309-23.459 23.122h3.758c0-10.646 8.67-19.365 19.364-19.365h34.682c4.288 0 7.804 3.468 7.804 7.804h3.758v-.192c-.001-6.262-5.058-11.369-11.369-11.369zm-50.29 44.461v-2.071h-7.659c2.794.049 5.395.771 7.659 2.071zm-15.415 0c2.264-1.3 4.865-2.071 7.658-2.071h-7.658v2.071z"/><path fill="#3F352F" d="M236.343 210.229h-11.561v3.806h11.561c14.885 0 26.974 12.091 26.974 26.976H244.05l-11.561-7.708v7.708h-15.414l-5.781-3.854h-5.78v3.854h-11.561a11.534 11.534 0 0 1-11.562 11.561 11.533 11.533 0 0 1-11.561-11.561h-5.202c3.179 2.841 5.202 6.937 5.202 11.561 0 8.525-6.889 15.414-15.415 15.414s-15.414-6.889-15.414-15.414c0-4.624 2.023-8.719 5.203-11.561h-5.203c0 6.406-5.154 11.561-11.561 11.561s-11.561-5.154-11.561-11.561h-11.561v-3.854h-5.78l-5.781 3.854H78.344v-7.708l-11.561 7.708H47.515c0-14.885 12.091-26.976 26.976-26.976h11.561v-3.806H74.49c-16.956 0-30.781 13.776-30.781 30.781v3.805h24.182l6.647-4.431v4.431h20.328l6.647-4.479v4.43h12.042c1.686 6.648 7.708 11.562 14.885 11.562 2.891 0 5.54-.771 7.852-2.168.482 5.491 3.227 10.356 7.37 13.535l-11.031 158.24H113.41v7.563h84.25v-7.563h-19.413l-11.031-158.24c4.143-3.227 6.937-8.044 7.37-13.535 2.312 1.396 4.962 2.168 7.852 2.168 7.178 0 13.2-4.914 14.885-11.562h12.042v-4.43l6.647 4.43h20.329v-4.43l6.648 4.43h24.181v-3.805c-.046-16.956-13.871-30.732-30.827-30.732zm-65.512 134.829h-2.216l1.396 19.269h.82l3.854 26.977h-2.746l2.746 38.536h-38.536l2.745-38.536h-2.745l3.854-26.977h.819l1.396-19.269h-2.216l3.419-17.147 1.542-21.436h-1.108l1.734-8.575 2.12-29.962h15.414l2.119 29.962 1.735 8.575h-1.108l1.542 21.436 3.42 17.147z"/><path fill="#3F352F" d="M155.272 325.79v-3.228h-7.852l1.108-16.041h-3.564l-1.543 21.389.435-2.12zm0-38.583v-3.518h-5.155l.867-12.477a18.94 18.94 0 0 0 4.431.53 19.25 19.25 0 0 0 4.432-.53l1.108 15.994h2.167l2.119 10.692-2.119-29.962h-15.414l-2.12 29.962 2.12-10.692h7.564v.001zm3.998 73.651h-14.499l1.107-15.8h-3.66l-1.397 19.268h18.449zm-7.563 34.298h16.764l2.167 30.781h-30.443l2.456-34.634h-3.757l-2.746 38.536h38.537l-2.746-38.536h-20.232zm3.565-88.635v3.904h7.273l1.108 15.365h3.325l.433 2.12-1.542-21.389zm-3.565 42.247h13.536l1.06 15.558h3.708l-1.396-19.268h-16.908zm-11.705 15.558l-3.854 26.977h2.746l1.927-26.977zm34.683 26.977l-3.854-26.977h-.82l1.928 26.977z"/><path fill="#3F352F" d="M167.94 387.593h-16.233v3.71h20.232l-1.928-26.977h-3.708zm-23.699-19.173h15.029v-4.094h-18.449l-1.927 26.977h3.757zm26.59-23.362l-3.42-17.148 1.204 17.148zm-30.829 0h2.216l1.203-17.148z"/><path fill="#3F352F" d="M146.89 330.126h8.382v-4.336h-11.416l-.435 2.12-1.203 17.148h3.66zm16.763-4.336l1.06 15.416h-13.006v3.852h16.908l-1.204-17.148-.433-2.12zm-19.797-19.269h1.108l.626-8.574zm23.122 0l-1.735-8.574.626 8.574z"/><path fill="#3F352F" d="M149.588 291.252h5.684v-4.045h-7.563l-2.119 10.74-.626 8.574h3.564zm11.368-4.045l1.06 15.655h-6.744v3.659h10.597l-.626-8.574-2.119-10.74zm-5.588-50.099h.048v-3.757c-2.746 0-5.347.579-7.707 1.638v2.168h7.658v-.049zm-55.829 0h5.78v-3.854zm32.755-23.122c8.527 0 15.415 6.888 15.415 15.415h3.805c0-10.598-8.623-19.22-19.22-19.22H86.051v3.805h46.243zm73.22 23.122h5.78l-5.78-3.854zm-50.049 0h7.659v-2.168a18.73 18.73 0 0 0-7.708-1.637v3.757c0 .048.049.048.049.048zm3.902-7.707h3.804c0-8.527 6.889-15.415 15.415-15.415h46.244v-3.805h-46.244c-10.646.048-19.219 8.622-19.219 19.22zm76.976-11.609c11.512 0 21.1 8.429 22.88 19.412h-14.019l-16.473-10.983v10.983H218.23l-.097-.047h-6.84l5.781 3.854h15.414v-7.708l11.561 7.708h19.268c0-14.885-12.089-26.976-26.974-26.976h-11.561v3.805h11.561v-.048zm-34.587 19.412h-4.479v-.047h-3.95c.434 1.204.674 2.504.674 3.854h11.561v-3.854h-3.805v.047z"/><path fill="#3F352F" d="M167.555 237.108c-.048.144-.096.29-.096.482a5.044 5.044 0 0 1-.579-.482h-3.757v2.071c.867.531 1.734 1.109 2.505 1.783h5.202c0-1.348.241-2.648.674-3.854h-3.949zm-4.431-7.707h3.806c0-6.407 5.202-11.657 11.656-11.657h46.244v-3.806h-46.244c-8.575.048-15.462 6.985-15.462 15.463z"/><path fill="#3F352F" d="M182.392 225.644c-7.128 0-13.15 4.914-14.836 11.514h3.95c1.59-4.48 5.877-7.708 10.887-7.708 5.01 0 9.298 3.227 10.887 7.708h3.95a15.3 15.3 0 0 0-14.838-11.514zm-15.559 11.464a19.26 19.26 0 0 0-3.709-2.168v2.168h3.709zm34.923-10.887v10.887h3.758v-3.854l5.78 3.854h6.84zm-54.047 10.887H144a5.22 5.22 0 0 0-.579.482c-.047-.145-.096-.289-.096-.482h-3.95c.433 1.205.674 2.505.674 3.854h5.202a15.922 15.922 0 0 1 2.505-1.783v-2.071h-.047zm-55.107.096H82.101v-10.983l-16.474 10.983H51.609c1.83-10.983 11.368-19.412 22.881-19.412h11.561v-3.806H74.49c-14.885 0-26.976 12.091-26.976 26.976h19.269l11.561-7.708v7.708h15.414l5.781-3.854h-6.84l-.097.096zm21.002-.096v.049h-4.479v-.049h-3.806v3.854h11.561c0-1.348.241-2.648.674-3.854h-3.95zm34.105 0v-2.168a19.2 19.2 0 0 0-3.709 2.168h3.709z"/><path fill="#3F352F" d="M132.294 217.792c6.407 0 11.657 5.203 11.657 11.658h3.758c0-8.526-6.888-15.415-15.415-15.415H86.051v3.805h46.244v-.048z"/><path fill="#3F352F" d="M128.441 225.644a15.297 15.297 0 0 0-14.837 11.514h3.95c1.59-4.48 5.877-7.708 10.887-7.708s9.296 3.227 10.887 7.708h3.95a15.297 15.297 0 0 0-14.837-11.514zm-19.365.577l-16.377 10.887h6.84l5.78-3.854v3.854h3.757zm19.365 22.545c-4.288 0-7.804-3.468-7.804-7.804h-3.757c0 6.406 5.154 11.561 11.561 11.561s11.561-5.154 11.561-11.561h-3.806c0 4.287-3.468 7.804-7.755 7.804z"/><path fill="#3F352F" d="M121.697 237.108h-4.143a11.388 11.388 0 0 0-.674 3.854h3.757a7.6 7.6 0 0 1 1.06-3.854zm13.488 0c.674 1.157 1.011 2.458 1.011 3.854h3.806c0-1.348-.242-2.648-.674-3.854h-4.143zm-6.744-7.707c-5.01 0-9.297 3.227-10.887 7.707h4.143c1.349-2.36 3.854-3.95 6.744-3.95 2.891 0 5.395 1.59 6.744 3.95h4.143c-1.591-4.48-5.877-7.707-10.887-7.707zm53.951 19.365c-4.287 0-7.804-3.468-7.804-7.804h-3.757a11.534 11.534 0 0 0 11.561 11.561 11.534 11.534 0 0 0 11.562-11.561h-3.757c-.001 4.287-3.518 7.804-7.805 7.804z"/><path fill="#3F352F" d="M175.648 237.108h-4.143a11.388 11.388 0 0 0-.674 3.854h3.806c0-1.396.337-2.697 1.011-3.854zm13.488 0c.674 1.157 1.011 2.458 1.011 3.854h3.758c0-1.348-.241-2.648-.675-3.854h-4.094zm-6.744-7.707c-5.01 0-9.296 3.227-10.887 7.707h4.143c1.349-2.36 3.854-3.95 6.744-3.95 2.891 0 5.396 1.59 6.744 3.95h4.143c-1.59-4.48-5.829-7.707-10.887-7.707zm-19.268 9.778c-2.264-1.3-4.865-2.071-7.659-2.071h-.097c-2.793 0-5.395.771-7.658 2.071v1.783h-2.505c-3.18 2.843-5.203 6.938-5.203 11.561 0 8.527 6.888 15.415 15.414 15.415s15.415-6.888 15.415-15.415c0-4.623-2.023-8.718-5.202-11.561h-2.505v-1.783zm3.949 13.343c0 6.407-5.202 11.658-11.657 11.658a11.636 11.636 0 0 1-11.657-11.658 11.636 11.636 0 0 1 11.657-11.657c6.407.049 11.657 5.251 11.657 11.657zm-11.657-15.414zm-.048 0h.048-.048zm.048 0h.049-.049z"/><path fill="#3F352F" d="M163.124 240.962h2.505a15.922 15.922 0 0 0-2.505-1.783v1.783zm-15.415-1.783c-.868.531-1.735 1.109-2.505 1.783h2.505v-1.783z"/><path fill="#51AA5B" d="M448.39 331.193h-61.193v-8.913h55.509l-5.684-8.912h-67.58v-8.842h96.773l-35.298-50.456h-43.72v-8.912H424.6l-6.245-8.912h-48.982v-8.912h71.228l-61.543-78.598-61.475 78.667h40v8.913h-17.754l-47.719 68.21h65.472v8.912h-36.42l-50.457 79.088h216.771l-39.086-61.333zM321.302 293.72l-7.298-5.123 29.053-41.544 7.298 5.123-29.053 41.544zm-22.597 87.859l-7.509-4.772 33.474-52.421 7.509 4.772-33.474 52.421z"/><path fill="#95E49C" d="M343.12 247.039l7.303 5.11-29.09 41.576-7.303-5.11z"/><path fill="#B84B41" d="M371.617 401.368h14.877v23.369h-14.877z"/><path fill="#95E49C" d="M324.672 324.377l7.512 4.795-33.45 52.405-7.511-4.794z"/><path fill="#3F352F" d="M430.986 413.088h-8.912v11.649h-8.912v-17.614h-8.913v17.614h-8.912v-23.369h108.351l-56.141-88h35.58l-53.965-77.122h29.613l-79.719-101.965-79.72 102.035h29.614l-53.965 77.122h35.578l-56.14 87.93h108.28v23.369H313.65v8.912h130.738v-8.912h-13.474v-11.649h.072zm-40 16.141h-23.79v-32.281H262.564l56.141-88h-35.158l53.965-77.123H308.53l70.598-90.386 70.596 90.386H420.74l53.965 77.123h-35.158l56.141 88H390.986v32.281zm40-16.141z"/><path fill="#3F352F" d="M439.477 308.947h35.158l-53.965-77.123h28.982l-70.596-90.315-70.598 90.386h28.982l-53.965 77.123h35.158l-56.141 88h233.053l-56.068-88.071zm-76.702 83.579h-92.07l50.457-79.088h36.42v-8.912h-65.543l47.719-68.21h17.754v-8.913h-40l61.545-78.667 61.473 78.667h-71.228v8.913h48.982l6.245 8.912h-37.333v8.912h43.649l35.299 50.456h-96.773v8.912h67.649l5.684 8.912h-55.509v8.772h61.193l39.157 61.333h-124.77z"/><path fill="#3F352F" d="M367.196 429.229h23.79v-32.281h-23.79v32.281zm4.421-27.861h14.877v23.369h-14.877v-23.369z"/><path fill="#5DC660" d="M283.898 349.649h-50.176v-7.299h45.544l-4.632-7.298h-55.438v-7.299h79.298l-28.982-41.403h-35.789v-7.298h30.667l-5.123-7.299h-40.07v-7.228h58.457l-50.456-64.562-50.526 64.562h32.772v7.298h-14.526l-39.158 55.93h53.685v7.299h-29.824l-41.404 64.842h177.825l-32.144-50.245zm-104.21-30.737l-5.965-4.21 23.86-34.105 5.965 4.21-23.86 34.105zm-18.457 72l-6.175-3.93 27.438-43.018 6.176 3.93-27.439 43.018z"/><path fill="#95E49C" d="M197.6 280.595l5.98 4.184-23.857 34.096-5.98-4.185z"/><path fill="#B84B41" d="M221.021 407.193h12.21v19.157h-12.21z"/><path fill="#95E49C" d="M182.492 343.964l6.152 3.927-27.447 43-6.151-3.925z"/><path fill="#3F352F" d="M269.652 416.807h-7.298v9.614h-7.298v-14.526h-7.299v14.456h-7.298v-19.157h88.842l-46.035-72.141h29.192l-44.28-63.229h24.28l-65.333-83.719-65.404 83.648h24.281l-44.281 63.229h29.193l-46.035 72.141h88.842v19.157h-40.21v7.369h107.227v-7.299H269.65v-9.543zM236.881 430h-19.509v-26.456h-85.825l46.035-72.141H148.74l44.281-63.228h-23.79l57.895-74.105 57.895 74.105h-23.79l44.28 63.228H276.6l46.035 72.141h-85.754V430zm32.771-13.193z"/><path fill="#3F352F" d="M276.6 331.403h28.842l-44.279-63.228h23.789l-57.825-74.105-57.895 74.105h23.79l-44.281 63.228h28.842l-46.035 72.141h191.088L276.6 331.403zm-62.877 68.492h-75.509l41.404-64.842h29.824v-7.299h-53.685l39.158-55.93h14.526v-7.298h-32.772l50.456-64.562 50.456 64.562h-58.456v7.298h40.14l5.123 7.299h-30.667v7.298h35.789l28.982 41.403h-79.295v7.299h55.438l4.632 7.298h-45.544v7.299h50.176l32.07 50.315H213.723v-.14z"/><path fill="#3F352F" d="M217.372 430h19.509v-26.456h-19.509V430zm3.649-22.807h12.21v19.157h-12.21v-19.157z"/><path fill="none" d="M288.249 119.965v-.491 22.597-22.106z"/><path fill="#A67C52" d="M276.6 272.035h11.439v4.702h12.21l-1.614-22.385h-10.596v-5.686h-9.825zm-3.86 55.789h21.123v5.053h10.246l-1.545-22.666h-19.718v-5.404h-8.492zm21.965-130.595c-2.035.49-4.211.771-6.456.771s-4.351-.281-6.456-.771l-1.264 18.175h7.439v5.123h8.28l-1.543-23.298zm-28.631 225.403h44.351l-3.158-44.843h-24.421v-5.613h-13.194z"/><path fill="#C69C6D" d="M293.863 338.842h-21.894l-2.317 33.334h13.194v-5.405h23.648l-2.385-33.894h-10.246zm-5.824-55.789h-12.211l-1.474 21.754h8.492v-5.614h18.947l-1.544-22.456h-12.21zm9.824-39.719l-1.544-22.808h-8.28v5.895h-8.281l-1.544 22.245h9.825v-5.332z"/><path fill="#39B54A" d="M282.564 136.316h-5.543v8.069a27.292 27.292 0 0 1 11.228-2.386v-22.597h-5.544c0-15.509-12.631-28.21-28.211-28.21h-50.456c-6.246 0-11.368 5.053-11.368 11.369h-5.404c-.07.631-.07 1.263-.07 1.895v3.86h67.368c15.44.07 28 12.561 28 28z"/><path fill="#8CC63F" d="M372.459 91.333h-50.525c-15.509 0-28.211 12.631-28.211 28.21h-5.474v22.526c4 0 7.79.842 11.228 2.386v-8.07h-5.543c0-15.438 12.561-28 28-28h67.368v-5.684h-5.474c0-6.315-5.123-11.368-11.369-11.368z"/><path fill="#39B54A" d="M349.231 147.684h6.526v-.069h-6.526v.069zm40.071-.14h-9.685l.141.07h15.299v-16l24 16h20.42c-2.666-16-16.561-28.28-33.332-28.28h-16.843v28.21zm-83.509.702c.07-.211.141-.422.141-.702h-1.053c.281.21.56.491.912.702z"/><path fill="#39B54A" d="M305.934 147.544c2.525-9.614 11.229-16.772 21.613-16.772 10.387 0 19.158 7.088 21.615 16.772h6.525v-15.93l23.859 15.93h9.755v-28.21h-67.368c-9.334 0-16.982 7.578-16.982 16.982h-5.475v8.069a27.948 27.948 0 0 1 5.404 3.158h1.054z"/><path fill="#8CC63F" d="M187.196 119.403h-16.842c-16.772 0-30.737 12.28-33.333 28.28h20.421l24-16v16h15.298l.141-.069h-9.685v-28.211zm33.544 28.281h6.526v-.069h-6.526v.069zm50.035.562c.281-.211.562-.422.842-.702h-1.053c.071.21.141.491.211.702z"/><path fill="#8CC63F" d="M254.564 119.403h-67.368v28.211h9.685l23.859-15.931v15.931h6.526c2.526-9.614 11.228-16.772 21.614-16.772 10.386 0 19.158 7.158 21.613 16.772h1.053a27.986 27.986 0 0 1 5.404-3.158v-8.07h-5.544c.071-9.404-7.508-16.983-16.842-16.983z"/><path fill="#C7B299" d="M248.951 164.526c6.246 0 11.369-5.053 11.369-11.368h-22.737c0 6.245 5.122 11.368 11.368 11.368zm-11.368-11.368h22.667c0-2.035-.562-3.93-1.474-5.614h-19.649c-.983 1.685-1.544 3.579-1.544 5.614z"/><path fill="#C7B299" d="M248.951 141.859c-4.21 0-7.859 2.316-9.824 5.755h19.649c-1.965-3.438-5.614-5.755-9.825-5.755zm78.596 22.667c6.246 0 11.369-5.053 11.369-11.368h-22.667c0 6.245 5.053 11.368 11.298 11.368zm-11.298-11.368h22.667c0-2.035-.562-3.93-1.475-5.614h-19.648c-1.053 1.685-1.544 3.579-1.544 5.614z"/><path fill="#C7B299" d="M327.547 141.859c-4.21 0-7.859 2.316-9.824 5.755h19.649c-1.965-3.438-5.614-5.755-9.825-5.755z"/><path fill="#998675" d="M271.267 170c0 9.334 7.579 16.982 16.982 16.982s16.982-7.579 16.982-16.982-7.579-16.982-16.982-16.982c-9.333.07-16.982 7.648-16.982 16.982z"/><path fill="#3F352F" d="M205.863 85.79h59.158c12.842 0 23.228 10.386 23.228 23.228v10.456c.28-18.667 15.438-33.684 34.176-33.684h50.315c9.123 0 16.562 7.438 16.562 16.562v.281h5.544c0-12.351-10.035-22.386-22.387-22.386h-50.525c-11.369 0-21.614 4.842-28.771 12.631V74.351h-11.018v17.333c-7.088-7.018-16.843-11.368-27.58-11.368h-50.526c-12.351 0-22.386 10.035-22.386 22.386h5.614c.912-9.544 8.912-16.912 18.596-16.912z"/><path fill="#3F352F" d="M204.039 91.333h50.526c15.51 0 28.211 12.631 28.211 28.21h5.544v-10.456c0-12.842-10.386-23.228-23.228-23.228h-59.229c-9.685 0-17.685 7.368-18.597 16.842h5.404c0-6.315 5.123-11.368 11.369-11.368z"/><path fill="#3F352F" d="M372.74 85.79h-50.315c-18.737 0-33.896 15.018-34.176 33.684h5.474c0-15.509 12.632-28.21 28.211-28.21h50.525c6.246 0 11.369 5.053 11.369 11.369h5.474v-.281c0-9.124-7.368-16.562-16.562-16.562zm-73.263 64.772v-3.018H288.32c4.07.07 7.859 1.122 11.157 3.018zm-22.456 0c3.298-1.896 7.088-3.018 11.157-3.018h-11.157v3.018z"/><path fill="#3F352F" d="M406.145 108.386h-16.843v5.544h16.843c21.684 0 39.297 17.614 39.297 39.299h-28.069L400.529 142v11.229h-22.455l-8.422-5.614h-8.421v5.614H344.39a16.802 16.802 0 0 1-16.843 16.842 16.802 16.802 0 0 1-16.842-16.842h-7.578c4.631 4.14 7.578 10.105 7.578 16.842 0 12.421-10.035 22.456-22.456 22.456s-22.456-10.035-22.456-22.456c0-6.736 2.947-12.702 7.579-16.842h-7.579a16.802 16.802 0 0 1-16.842 16.842 16.802 16.802 0 0 1-16.842-16.842h-16.842v-5.614h-8.421l-8.421 5.614h-22.457V142l-16.842 11.229h-28.07c0-21.685 17.614-39.299 39.298-39.299h16.842v-5.544h-16.842c-24.702 0-44.842 20.07-44.842 44.843v5.543h35.228l9.685-6.455v6.455h29.614l9.684-6.525v6.455h17.544c2.456 9.685 11.228 16.843 21.684 16.843 4.211 0 8.071-1.123 11.439-3.158.702 8 4.702 15.088 10.737 19.72l-16.07 230.526h-28v11.018h122.737v-11.018h-28.281l-16.07-230.526c6.035-4.702 10.105-11.72 10.737-19.72 3.368 2.035 7.229 3.158 11.438 3.158 10.457 0 19.229-7.158 21.685-16.843h17.544v-6.455l9.684 6.455h29.615v-6.455l9.684 6.455h35.229v-5.543c-.073-24.703-20.213-44.773-44.914-44.773zm-95.44 196.421h-3.229l2.035 28.07h1.193l5.614 39.299h-4l4 56.14h-56.141l4-56.14h-4l5.614-39.299h1.193l2.035-28.07h-3.229l4.982-24.982 2.246-31.228h-1.614l2.526-12.491 3.088-43.649h22.455l3.088 43.649 2.527 12.491h-1.615l2.246 31.228 4.986 24.982z"/><path fill="#3F352F" d="M288.039 276.737v-4.702H276.6l1.614-23.369h-5.193l-2.246 31.158.632-3.087zm0-56.211v-5.123h-7.51l1.264-18.175c2.035.49 4.211.771 6.456.771s4.351-.281 6.456-.771l1.614 23.298h3.157l3.088 15.579-3.088-43.649h-22.455l-3.088 43.649 3.088-15.579h11.018zm5.824 107.298H272.74l1.614-23.017h-5.333l-2.035 28.07h26.877zm-11.017 49.965h24.421l3.158 44.843h-44.351l3.578-50.456h-5.473l-4 56.139h56.14l-4-56.139h-29.473zm5.193-129.123v5.686h10.596l1.614 22.385h4.843l.631 3.087-2.246-31.158zm-5.193 61.545h19.718l1.545 22.666h5.403l-2.035-28.07h-24.631zm-17.053 22.666l-5.614 39.299h4l2.807-39.299zm50.526 39.299l-5.614-39.299h-1.193l2.807 39.299z"/><path fill="#3F352F" d="M306.494 366.771h-23.648v5.405h29.473l-2.807-39.299h-5.403zm-34.525-27.929h21.894v-5.965h-26.877l-2.807 39.299h5.473zm38.736-34.035l-4.982-24.983 1.754 24.983zm-44.912 0h3.228l1.754-24.983z"/><path fill="#3F352F" d="M275.828 283.053h12.211v-6.316h-16.632l-.632 3.087-1.754 24.983h5.333zm24.421-6.316l1.544 22.456h-18.947v5.614h24.631l-1.754-24.983-.631-3.087zm-28.842-28.071h1.614l.913-12.49zm33.685 0l-2.528-12.49.913 12.49z"/><path fill="#3F352F" d="M279.758 226.421h8.281v-5.895h-11.018l-3.087 15.65-.913 12.49h5.193zm16.561-5.895l1.544 22.808h-9.824v5.332h15.438l-.913-12.49-3.087-15.65zm-8.14-72.982h.07v-5.474c-4 0-7.79.842-11.228 2.386v3.158h11.157v-.07zm-81.333 0h8.421v-5.614zm47.718-33.685c12.422 0 22.457 10.035 22.457 22.457h5.543c0-15.439-12.561-28-28-28h-67.368v5.543h67.368zm106.667 33.685h8.421l-8.421-5.614z"/><path fill="#3F352F" d="M288.319 147.544h11.157v-3.158A27.292 27.292 0 0 0 288.248 142v5.474c.001.07.071.07.071.07zm5.685-11.228h5.543c0-12.422 10.035-22.457 22.457-22.457h67.368v-5.543h-67.368c-15.51.07-28 12.561-28 28zm112.141-16.913c16.771 0 30.736 12.28 33.332 28.28h-20.42l-24-16v16h-15.299l-.141-.069h-9.965l8.422 5.614h22.455V142l16.843 11.229h28.069c0-21.685-17.613-39.299-39.297-39.299h-16.843v5.544h16.843v-.071zm-50.387 28.281h-6.526v-.069h-5.755c.633 1.754.982 3.649.982 5.614h16.843v-5.614h-5.544v.069zm-49.824-.14c-.07.21-.141.421-.141.702a7.472 7.472 0 0 1-.842-.702h-5.475v3.018c1.264.772 2.527 1.614 3.65 2.597h7.578c0-1.965.352-3.859.982-5.614h-5.752z"/><path fill="#3F352F" d="M299.477 136.316h5.545c0-9.334 7.578-16.982 16.982-16.982h67.368v-5.545h-67.368c-12.492.07-22.527 10.176-22.527 22.527z"/><path fill="#3F352F" d="M327.547 130.842c-10.385 0-19.157 7.158-21.613 16.772h5.754c2.316-6.526 8.562-11.229 15.859-11.229 7.299 0 13.545 4.702 15.86 11.229h5.755c-2.457-9.684-11.228-16.772-21.615-16.772zm-22.666 16.702a27.956 27.956 0 0 0-5.404-3.158v3.158h5.404zm50.877-15.86v15.86h5.473v-5.614l8.421 5.614h9.965zm-78.737 15.86h-5.404c-.28.21-.561.421-.842.702-.07-.211-.141-.422-.141-.702h-5.754c.631 1.755.982 3.649.982 5.614h7.578a22.912 22.912 0 0 1 3.65-2.597v-3.018h-.069zm-80.281.14h-15.298v-16l-24 16h-20.421c2.667-16 16.562-28.28 33.333-28.28h16.842v-5.544h-16.842c-21.684 0-39.298 17.614-39.298 39.299h28.07l16.842-11.229v11.229h22.457l8.421-5.614h-9.965l-.141.139zm30.597-.14v.07h-6.526v-.07h-5.544v5.614h16.842c0-1.965.351-3.859.982-5.614h-5.754z"/><path fill="#3F352F" d="M277.021 147.544v-3.158a27.978 27.978 0 0 0-5.404 3.158h5.404zm-22.457-28.141c9.334 0 16.982 7.579 16.982 16.982h5.475c0-12.421-10.035-22.456-22.457-22.456h-67.368v5.544h67.368v-.07z"/><path fill="#3F352F" d="M248.951 130.842a22.284 22.284 0 0 0-21.614 16.772h5.754c2.316-6.526 8.562-11.229 15.859-11.229 7.298 0 13.543 4.702 15.86 11.229h5.754c-2.455-9.684-11.227-16.772-21.613-16.772zm-28.211.842l-23.859 15.86h9.965l8.421-5.614v5.614h5.473zm28.211 32.842c-6.246 0-11.368-5.053-11.368-11.368h-5.474A16.802 16.802 0 0 0 248.951 170a16.802 16.802 0 0 0 16.842-16.842h-5.544c0 6.245-5.053 11.368-11.298 11.368z"/><path fill="#3F352F" d="M239.126 147.544h-6.035a16.557 16.557 0 0 0-.982 5.614h5.474c0-2.035.561-3.929 1.543-5.614zm19.649 0c.982 1.685 1.474 3.579 1.474 5.614h5.544c0-1.965-.352-3.859-.982-5.614h-6.036zm-9.824-11.228c-7.298 0-13.543 4.701-15.859 11.228h6.035c1.965-3.438 5.614-5.755 9.824-5.755 4.211 0 7.86 2.316 9.825 5.755h6.035c-2.317-6.526-8.562-11.228-15.86-11.228zm78.596 28.21c-6.245 0-11.368-5.053-11.368-11.368h-5.474A16.802 16.802 0 0 0 327.547 170a16.802 16.802 0 0 0 16.843-16.842h-5.474c0 6.245-5.123 11.368-11.369 11.368zm-9.824-16.982h-6.035a16.582 16.582 0 0 0-.982 5.614h5.544c-.001-2.035.49-3.929 1.473-5.614zm19.649 0c.982 1.685 1.474 3.579 1.474 5.614h5.474c0-1.965-.351-3.859-.982-5.614h-5.966zm-9.825-11.228c-7.298 0-13.543 4.701-15.859 11.228h6.035c1.965-3.438 5.614-5.755 9.824-5.755 4.211 0 7.86 2.316 9.825 5.755h6.035c-2.315-6.526-8.491-11.228-15.86-11.228zm-28.07 14.246c-3.298-1.896-7.087-3.018-11.157-3.018h-.14c-4.069 0-7.859 1.122-11.157 3.018v2.597h-3.649c-4.632 4.141-7.579 10.105-7.579 16.842 0 12.421 10.035 22.456 22.456 22.456s22.456-10.035 22.456-22.456c0-6.736-2.947-12.701-7.578-16.842h-3.65v-2.597zM305.231 170c0 9.334-7.579 16.982-16.982 16.982s-16.982-7.579-16.982-16.982 7.579-16.982 16.982-16.982c9.333.07 16.982 7.648 16.982 16.982zm-16.982-22.456zm-.07 0h.07-.07zm.07 0h.07-.07z"/><path fill="#3F352F" d="M299.477 153.158h3.65a22.912 22.912 0 0 0-3.65-2.597v2.597zm-22.456-2.596c-1.264.772-2.527 1.614-3.649 2.597h3.649v-2.597z"/></svg>