<svg xmlns="http://www.w3.org/2000/svg" width="467.5" height="364" viewBox="32.5 72.5 467.5 364"><path fill="#A67C52" d="M138.986 425.509h32.772l-2.316-33.123h-18.035v-4.14h-9.824z"/><path fill="#C69C6D" d="M159.547 363.685h-16.21l-1.754 24.561h9.824v-4h17.474l-1.755-25.053h-7.579z"/><path fill="#3F352F" d="M139.688 359.193l-8.702 66.386h-20.702v8.07h116.772L228.75 426l-48.782-.491L173.5 358.5m-2.444.693h.912l4.141 29.053h-2.947l2.947 41.474h-41.474l2.947-41.474h-2.947l4.14-29.053h.912"/><path fill="#3F352F" d="M151.407 392.386h18.035l2.316 33.123h-32.772l2.597-37.263h-4l-2.948 41.474h41.474l-2.947-41.474h-21.755zm-12.632-33.193l-4.14 29.053h2.948l2.105-29.053zm37.334 29.053l-4.141-29.053h-.912l2.106 29.053z"/><path fill="#3F352F" d="M168.881 384.246h-17.474v4h21.755l-2.106-29.053h-3.93zm-25.544-20.561h16.21v-4.492h-19.859l-2.105 29.053h4z"/><path fill="#51AA5B" d="M448.39 331.193h-61.193v-8.913h55.509l-5.684-8.912h-67.58v-8.842h96.773l-35.298-50.456h-43.72v-8.912H424.6l-6.245-8.912h-48.982v-8.912h71.228l-61.543-78.598-61.475 78.667h40v8.913h-17.754l-47.719 68.21h65.472v8.912h-36.42l-50.457 79.088h216.771l-39.086-61.333zM321.302 293.72l-7.298-5.123 29.053-41.544 7.298 5.123-29.053 41.544zm-22.597 87.859l-7.509-4.772 33.474-52.421 7.509 4.772-33.474 52.421z"/><path fill="#95E49C" d="M343.12 247.039l7.303 5.11-29.09 41.576-7.303-5.11z"/><path fill="#B84B41" d="M371.617 401.368h14.877v23.369h-14.877z"/><path fill="#95E49C" d="M324.672 324.377l7.512 4.795-33.45 52.405-7.511-4.794z"/><path fill="#3F352F" d="M430.986 413.088h-8.912v11.649h-8.912v-17.614h-8.913v17.614h-8.912v-23.369h108.351l-56.141-88h35.58l-53.965-77.122h29.613l-79.719-101.965-79.72 102.035h29.614l-53.965 77.122h35.578l-56.14 87.93h108.28v23.369H313.65v8.912h130.738v-8.912h-13.474v-11.649h.072zm-40 16.141h-23.79v-32.281H262.564l56.141-88h-35.158l53.965-77.123H308.53l70.598-90.386 70.596 90.386H420.74l53.965 77.123h-35.158l56.141 88H390.986v32.281zm40-16.141z"/><path fill="#3F352F" d="M439.477 308.947h35.158l-53.965-77.123h28.982l-70.596-90.315-70.598 90.386h28.982l-53.965 77.123h35.158l-56.141 88h233.053l-56.068-88.071zm-76.702 83.579h-92.07l50.457-79.088h36.42v-8.912h-65.543l47.719-68.21h17.754v-8.913h-40l61.545-78.667 61.473 78.667h-71.228v8.913h48.982l6.245 8.912h-37.333v8.912h43.649l35.299 50.456h-96.773v8.912h67.649l5.684 8.912h-55.509v8.772h61.193l39.157 61.333h-124.77z"/><path fill="#3F352F" d="M367.196 429.229h23.79v-32.281h-23.79v32.281zm4.421-27.861h14.877v23.369h-14.877v-23.369z"/><path fill="#B84B41" d="M221.021 407.193h12.21v19.157h-12.21z"/><path fill="#3F352F" d="M269.652 416.807zM217.372 430h19.509v-26.456h-19.509V430zm3.649-22.807h12.21v19.157h-12.21v-19.157z"/><path fill="none" d="M288.249 119.965v-.491 22.597-22.106z"/><path fill="#A67C52" d="M276.6 272.035h11.439v4.702h12.21l-1.614-22.385h-10.596v-5.686h-9.825zm-3.86 55.789h21.123v5.053h10.246l-1.545-22.666h-19.718v-5.404h-8.492zm21.965-130.595c-2.035.49-4.211.771-6.456.771s-4.351-.281-6.456-.771l-1.264 18.175h7.439v5.123h8.28l-1.543-23.298zm-28.631 225.403h44.351l-3.158-44.843h-24.421v-5.613h-13.194z"/><path fill="#C69C6D" d="M293.863 338.842h-21.894l-2.317 33.334h13.194v-5.405h23.648l-2.385-33.894h-10.246zm-5.824-55.789h-12.211l-1.474 21.754h8.492v-5.614h18.947l-1.544-22.456h-12.21zm9.824-39.719l-1.544-22.808h-8.28v5.895h-8.281l-1.544 22.245h9.825v-5.332z"/><path fill="#39B54A" d="M282.564 136.316h-5.543v8.069a27.292 27.292 0 0 1 11.228-2.386v-22.597h-5.544c0-15.509-12.631-28.21-28.211-28.21h-50.456c-6.246 0-11.368 5.053-11.368 11.369h-5.404c-.07.631-.07 1.263-.07 1.895v3.86h67.368c15.44.07 28 12.561 28 28z"/><path fill="#8CC63F" d="M372.459 91.333h-50.525c-15.509 0-28.211 12.631-28.211 28.21h-5.474v22.526c4 0 7.79.842 11.228 2.386v-8.07h-5.543c0-15.438 12.561-28 28-28h67.368v-5.684h-5.474c0-6.315-5.123-11.368-11.369-11.368z"/><path fill="#39B54A" d="M349.231 147.684h6.526v-.069h-6.526v.069zm40.071-.14h-9.685l.141.07h15.299v-16l24 16h20.42c-2.666-16-16.561-28.28-33.332-28.28h-16.843v28.21zm-83.509.702c.07-.211.141-.422.141-.702h-1.053c.281.21.56.491.912.702z"/><path fill="#39B54A" d="M305.934 147.544c2.525-9.614 11.229-16.772 21.613-16.772 10.387 0 19.158 7.088 21.615 16.772h6.525v-15.93l23.859 15.93h9.755v-28.21h-67.368c-9.334 0-16.982 7.578-16.982 16.982h-5.475v8.069a27.948 27.948 0 0 1 5.404 3.158h1.054z"/><path fill="#8CC63F" d="M187.196 119.403h-16.842c-16.772 0-30.737 12.28-33.333 28.28h20.421l24-16v16h15.298l.141-.069h-9.685v-28.211zm33.544 28.281h6.526v-.069h-6.526v.069zm50.035.562c.281-.211.562-.422.842-.702h-1.053c.071.21.141.491.211.702z"/><path fill="#8CC63F" d="M254.564 119.403h-67.368v28.211h9.685l23.859-15.931v15.931h6.526c2.526-9.614 11.228-16.772 21.614-16.772 10.386 0 19.158 7.158 21.613 16.772h1.053a27.986 27.986 0 0 1 5.404-3.158v-8.07h-5.544c.071-9.404-7.508-16.983-16.842-16.983z"/><path fill="#C7B299" d="M248.951 164.526c6.246 0 11.369-5.053 11.369-11.368h-22.737c0 6.245 5.122 11.368 11.368 11.368zm-11.368-11.368h22.667c0-2.035-.562-3.93-1.474-5.614h-19.649c-.983 1.685-1.544 3.579-1.544 5.614z"/><path fill="#C7B299" d="M248.951 141.859c-4.21 0-7.859 2.316-9.824 5.755h19.649c-1.965-3.438-5.614-5.755-9.825-5.755zm78.596 22.667c6.246 0 11.369-5.053 11.369-11.368h-22.667c0 6.245 5.053 11.368 11.298 11.368zm-11.298-11.368h22.667c0-2.035-.562-3.93-1.475-5.614h-19.648c-1.053 1.685-1.544 3.579-1.544 5.614z"/><path fill="#C7B299" d="M327.547 141.859c-4.21 0-7.859 2.316-9.824 5.755h19.649c-1.965-3.438-5.614-5.755-9.825-5.755z"/><path fill="#998675" d="M271.267 170c0 9.334 7.579 16.982 16.982 16.982s16.982-7.579 16.982-16.982-7.579-16.982-16.982-16.982c-9.333.07-16.982 7.648-16.982 16.982z"/><path fill="#3F352F" d="M205.863 85.79h59.158c12.842 0 23.228 10.386 23.228 23.228v10.456c.28-18.667 15.438-33.684 34.176-33.684h50.315c9.123 0 16.562 7.438 16.562 16.562v.281h5.544c0-12.351-10.035-22.386-22.387-22.386h-50.525c-11.369 0-21.614 4.842-28.771 12.631V74.351h-11.018v17.333c-7.088-7.018-16.843-11.368-27.58-11.368h-50.526c-12.351 0-22.386 10.035-22.386 22.386h5.614c.912-9.544 8.912-16.912 18.596-16.912z"/><path fill="#3F352F" d="M204.039 91.333h50.526c15.51 0 28.211 12.631 28.211 28.21h5.544v-10.456c0-12.842-10.386-23.228-23.228-23.228h-59.229c-9.685 0-17.685 7.368-18.597 16.842h5.404c0-6.315 5.123-11.368 11.369-11.368z"/><path fill="#3F352F" d="M372.74 85.79h-50.315c-18.737 0-33.896 15.018-34.176 33.684h5.474c0-15.509 12.632-28.21 28.211-28.21h50.525c6.246 0 11.369 5.053 11.369 11.369h5.474v-.281c0-9.124-7.368-16.562-16.562-16.562zm-73.263 64.772v-3.018H288.32c4.07.07 7.859 1.122 11.157 3.018zm-22.456 0c3.298-1.896 7.088-3.018 11.157-3.018h-11.157v3.018z"/><path fill="#3F352F" d="M406.145 108.386h-16.843v5.544h16.843c21.684 0 39.297 17.614 39.297 39.299h-28.069L400.529 142v11.229h-22.455l-8.422-5.614h-8.421v5.614H344.39a16.802 16.802 0 0 1-16.843 16.842 16.802 16.802 0 0 1-16.842-16.842h-7.578c4.631 4.14 7.578 10.105 7.578 16.842 0 12.421-10.035 22.456-22.456 22.456s-22.456-10.035-22.456-22.456c0-6.736 2.947-12.702 7.579-16.842h-7.579a16.802 16.802 0 0 1-16.842 16.842 16.802 16.802 0 0 1-16.842-16.842h-16.842v-5.614h-8.421l-8.421 5.614h-22.457V142l-16.842 11.229h-28.07c0-21.685 17.614-39.299 39.298-39.299h16.842v-5.544h-16.842c-24.702 0-44.842 20.07-44.842 44.843v5.543h35.228l9.685-6.455v6.455h29.614l9.684-6.525v6.455h17.544c2.456 9.685 11.228 16.843 21.684 16.843 4.211 0 8.071-1.123 11.439-3.158.702 8 4.702 15.088 10.737 19.72l-16.07 230.526h-28v11.018h122.737v-11.018h-28.281l-16.07-230.526c6.035-4.702 10.105-11.72 10.737-19.72 3.368 2.035 7.229 3.158 11.438 3.158 10.457 0 19.229-7.158 21.685-16.843h17.544v-6.455l9.684 6.455h29.615v-6.455l9.684 6.455h35.229v-5.543c-.073-24.703-20.213-44.773-44.914-44.773zm-95.44 196.421h-3.229l2.035 28.07h1.193l5.614 39.299h-4l4 56.14h-56.141l4-56.14h-4l5.614-39.299h1.193l2.035-28.07h-3.229l4.982-24.982 2.246-31.228h-1.614l2.526-12.491 3.088-43.649h22.455l3.088 43.649 2.527 12.491h-1.615l2.246 31.228 4.986 24.982z"/><path fill="#3F352F" d="M288.039 276.737v-4.702H276.6l1.614-23.369h-5.193l-2.246 31.158.632-3.087zm0-56.211v-5.123h-7.51l1.264-18.175c2.035.49 4.211.771 6.456.771s4.351-.281 6.456-.771l1.614 23.298h3.157l3.088 15.579-3.088-43.649h-22.455l-3.088 43.649 3.088-15.579h11.018zm5.824 107.298H272.74l1.614-23.017h-5.333l-2.035 28.07h26.877zm-11.017 49.965h24.421l3.158 44.843h-44.351l3.578-50.456h-5.473l-4 56.139h56.14l-4-56.139h-29.473zm5.193-129.123v5.686h10.596l1.614 22.385h4.843l.631 3.087-2.246-31.158zm-5.193 61.545h19.718l1.545 22.666h5.403l-2.035-28.07h-24.631zm-17.053 22.666l-5.614 39.299h4l2.807-39.299zm50.526 39.299l-5.614-39.299h-1.193l2.807 39.299z"/><path fill="#3F352F" d="M306.494 366.771h-23.648v5.405h29.473l-2.807-39.299h-5.403zm-34.525-27.929h21.894v-5.965h-26.877l-2.807 39.299h5.473zm38.736-34.035l-4.982-24.983 1.754 24.983zm-44.912 0h3.228l1.754-24.983z"/><path fill="#3F352F" d="M275.828 283.053h12.211v-6.316h-16.632l-.632 3.087-1.754 24.983h5.333zm24.421-6.316l1.544 22.456h-18.947v5.614h24.631l-1.754-24.983-.631-3.087zm-28.842-28.071h1.614l.913-12.49zm33.685 0l-2.528-12.49.913 12.49z"/><path fill="#3F352F" d="M279.758 226.421h8.281v-5.895h-11.018l-3.087 15.65-.913 12.49h5.193zm16.561-5.895l1.544 22.808h-9.824v5.332h15.438l-.913-12.49-3.087-15.65zm-8.14-72.982h.07v-5.474c-4 0-7.79.842-11.228 2.386v3.158h11.157v-.07zm-81.333 0h8.421v-5.614zm47.718-33.685c12.422 0 22.457 10.035 22.457 22.457h5.543c0-15.439-12.561-28-28-28h-67.368v5.543h67.368zm106.667 33.685h8.421l-8.421-5.614z"/><path fill="#3F352F" d="M288.319 147.544h11.157v-3.158A27.292 27.292 0 0 0 288.248 142v5.474c.001.07.071.07.071.07zm5.685-11.228h5.543c0-12.422 10.035-22.457 22.457-22.457h67.368v-5.543h-67.368c-15.51.07-28 12.561-28 28zm112.141-16.913c16.771 0 30.736 12.28 33.332 28.28h-20.42l-24-16v16h-15.299l-.141-.069h-9.965l8.422 5.614h22.455V142l16.843 11.229h28.069c0-21.685-17.613-39.299-39.297-39.299h-16.843v5.544h16.843v-.071zm-50.387 28.281h-6.526v-.069h-5.755c.633 1.754.982 3.649.982 5.614h16.843v-5.614h-5.544v.069zm-49.824-.14c-.07.21-.141.421-.141.702a7.472 7.472 0 0 1-.842-.702h-5.475v3.018c1.264.772 2.527 1.614 3.65 2.597h7.578c0-1.965.352-3.859.982-5.614h-5.752z"/><path fill="#3F352F" d="M299.477 136.316h5.545c0-9.334 7.578-16.982 16.982-16.982h67.368v-5.545h-67.368c-12.492.07-22.527 10.176-22.527 22.527z"/><path fill="#3F352F" d="M327.547 130.842c-10.385 0-19.157 7.158-21.613 16.772h5.754c2.316-6.526 8.562-11.229 15.859-11.229 7.299 0 13.545 4.702 15.86 11.229h5.755c-2.457-9.684-11.228-16.772-21.615-16.772zm-22.666 16.702a27.956 27.956 0 0 0-5.404-3.158v3.158h5.404zm50.877-15.86v15.86h5.473v-5.614l8.421 5.614h9.965zm-78.737 15.86h-5.404c-.28.21-.561.421-.842.702-.07-.211-.141-.422-.141-.702h-5.754c.631 1.755.982 3.649.982 5.614h7.578a22.912 22.912 0 0 1 3.65-2.597v-3.018h-.069zm-80.281.14h-15.298v-16l-24 16h-20.421c2.667-16 16.562-28.28 33.333-28.28h16.842v-5.544h-16.842c-21.684 0-39.298 17.614-39.298 39.299h28.07l16.842-11.229v11.229h22.457l8.421-5.614h-9.965l-.141.139zm30.597-.14v.07h-6.526v-.07h-5.544v5.614h16.842c0-1.965.351-3.859.982-5.614h-5.754z"/><path fill="#3F352F" d="M277.021 147.544v-3.158a27.978 27.978 0 0 0-5.404 3.158h5.404zm-22.457-28.141c9.334 0 16.982 7.579 16.982 16.982h5.475c0-12.421-10.035-22.456-22.457-22.456h-67.368v5.544h67.368v-.07z"/><path fill="#3F352F" d="M248.951 130.842a22.284 22.284 0 0 0-21.614 16.772h5.754c2.316-6.526 8.562-11.229 15.859-11.229 7.298 0 13.543 4.702 15.86 11.229h5.754c-2.455-9.684-11.227-16.772-21.613-16.772zm-28.211.842l-23.859 15.86h9.965l8.421-5.614v5.614h5.473zm28.211 32.842c-6.246 0-11.368-5.053-11.368-11.368h-5.474A16.802 16.802 0 0 0 248.951 170a16.802 16.802 0 0 0 16.842-16.842h-5.544c0 6.245-5.053 11.368-11.298 11.368z"/><path fill="#3F352F" d="M239.126 147.544h-6.035a16.557 16.557 0 0 0-.982 5.614h5.474c0-2.035.561-3.929 1.543-5.614zm19.649 0c.982 1.685 1.474 3.579 1.474 5.614h5.544c0-1.965-.352-3.859-.982-5.614h-6.036zm-9.824-11.228c-7.298 0-13.543 4.701-15.859 11.228h6.035c1.965-3.438 5.614-5.755 9.824-5.755 4.211 0 7.86 2.316 9.825 5.755h6.035c-2.317-6.526-8.562-11.228-15.86-11.228zm78.596 28.21c-6.245 0-11.368-5.053-11.368-11.368h-5.474A16.802 16.802 0 0 0 327.547 170a16.802 16.802 0 0 0 16.843-16.842h-5.474c0 6.245-5.123 11.368-11.369 11.368zm-9.824-16.982h-6.035a16.582 16.582 0 0 0-.982 5.614h5.544c-.001-2.035.49-3.929 1.473-5.614zm19.649 0c.982 1.685 1.474 3.579 1.474 5.614h5.474c0-1.965-.351-3.859-.982-5.614h-5.966zm-9.825-11.228c-7.298 0-13.543 4.701-15.859 11.228h6.035c1.965-3.438 5.614-5.755 9.824-5.755 4.211 0 7.86 2.316 9.825 5.755h6.035c-2.315-6.526-8.491-11.228-15.86-11.228zm-28.07 14.246c-3.298-1.896-7.087-3.018-11.157-3.018h-.14c-4.069 0-7.859 1.122-11.157 3.018v2.597h-3.649c-4.632 4.141-7.579 10.105-7.579 16.842 0 12.421 10.035 22.456 22.456 22.456s22.456-10.035 22.456-22.456c0-6.736-2.947-12.701-7.578-16.842h-3.65v-2.597zM305.231 170c0 9.334-7.579 16.982-16.982 16.982s-16.982-7.579-16.982-16.982 7.579-16.982 16.982-16.982c9.333.07 16.982 7.648 16.982 16.982zm-16.982-22.456zm-.07 0h.07-.07zm.07 0h.07-.07z"/><path fill="#3F352F" d="M299.477 153.158h3.65a22.912 22.912 0 0 0-3.65-2.597v2.597zm-22.456-2.596c-1.264.772-2.527 1.614-3.649 2.597h3.649v-2.597z"/></svg>