<svg xmlns="http://www.w3.org/2000/svg" viewBox="0 0 512 512" width="512" height="512"><path d="M444.943 347.699c-4.394-3.522-10.815-2.815-14.337 1.582a223.174 223.174 0 0 1-14.982 16.858c-3.95 4.016-3.895 10.475.12 14.424a10.166 10.166 0 0 0 7.151 2.927 10.17 10.17 0 0 0 7.273-3.047 243.755 243.755 0 0 0 16.356-18.406c3.523-4.397 2.815-10.815-1.581-14.338zm-40.064 42.398c-3.403-4.489-9.802-5.371-14.291-1.966-38.569 29.235-85.309 46.179-135.164 49-5.624.318-9.925 5.135-9.607 10.759.307 5.428 4.804 9.624 10.174 9.624.194 0 .389-.005.585-.017 53.918-3.051 104.52-21.416 146.335-53.11 4.489-3.403 5.37-9.8 1.968-14.29z" fill="#91DC5A"/><path d="M504.755 199.948l-.001-.002c-5.817-22.133-15.065-43.336-27.491-63.023-17.666-27.99-40.935-51.967-69.158-71.266C363.825 35.381 311.228 19.378 256 19.378a278.887 278.887 0 0 0-46.103 3.837c-42.923 7.216-83.441 24.689-117.168 50.531C43.153 111.731 11.07 164.973 2.39 223.665A221.69 221.69 0 0 0 0 256c0 42.127 12.129 83.49 35.075 119.617 22.189 34.936 53.913 64.224 91.743 84.698a.04.04 0 0 0 .009.005c21.464 11.616 44.583 20.243 68.715 25.645 19.732 4.417 40.074 6.656 60.458 6.656 49.509 0 97.548-13.086 138.924-37.842 40.419-24.183 72.565-58.22 92.963-98.427C503.888 324.811 512 291.048 512 256c0-18.902-2.438-37.76-7.245-56.052zM412.152 94.092c12.785 10.373 24.232 21.918 34.257 34.545l-20.162-4.63c-6.466-1.485-13.11.087-18.227 4.308-5.118 4.222-7.922 10.448-7.691 17.08a.79.79 0 0 1-.359.689l-14.81 9.673a.789.789 0 0 1-.824.024L363.474 143.9a4.887 4.887 0 0 1-2.325-5.33l4.694-20.037a4.861 4.861 0 0 1 4.596-3.747l17.674-.492c11.855-.33 21.723-8.987 24.039-20.202zM126.715 414.119l-2.982 20.807C59.64 394.883 20.398 327.546 20.398 256c0-6.33.308-12.715.919-19.083l13.65 2.206c3.437.556 6.949.838 10.436.838h6.914c9.584 0 19.103 3.144 26.802 8.852l10.476 7.766a4.02 4.02 0 0 1 1.599 2.792l1.42 13.137a4.011 4.011 0 0 1-3.355 4.393c-11.911 1.905-20.745 12.437-20.55 24.497l.746 46.244a24.24 24.24 0 0 0 5.002 14.415l16.623 21.78a65.2 65.2 0 0 0 30.671 22.152 7.487 7.487 0 0 1 4.964 8.13zm65.708 50.123c-17.254-4.427-33.891-10.659-49.622-18.587l4.105-28.639c1.895-13.213-5.889-25.96-18.506-30.311a44.868 44.868 0 0 1-21.105-15.244l-16.622-21.779a3.984 3.984 0 0 1-.822-2.369l-.746-46.243a4.033 4.033 0 0 1 3.378-4.027c12.844-2.055 21.81-13.795 20.412-26.728l-1.42-13.138a24.475 24.475 0 0 0-9.731-16.985l-10.476-7.766c-11.19-8.295-25.023-12.864-38.951-12.864h-6.914c-2.4 0-4.815-.194-7.181-.576l-13.932-2.252c9.889-49.492 38.323-94.217 80.844-126.797 29.971-22.964 65.793-38.765 103.851-45.846a44.82 44.82 0 0 1 13.03 18.011l.578 1.463a45.038 45.038 0 0 1 2.863 11.407l.514 4.45a45.06 45.06 0 0 1-3.5 23.25l-5.546 12.635a44.842 44.842 0 0 1-17.229 19.993l-6.91 4.351a22.952 22.952 0 0 0-10.682 20.542l.934 18.667a2.463 2.463 0 0 1-.776 1.95 2.469 2.469 0 0 1-1.983.687 2.52 2.52 0 0 1-1.983-1.316l-8.487-15.761a23.032 23.032 0 0 0-14.021-11.212l-29.996-8.372a34.893 34.893 0 0 0-23.779 1.84l-7.143 3.247c-15.028 6.831-23.241 23.464-19.529 39.547a34.8 34.8 0 0 0 9.311 16.801l19.489 19.49a44.757 44.757 0 0 1 3.133 3.478l13.361 16.479c5.9 7.277 14.647 11.446 24.013 11.445h.095l36.401-.111h.033c3.726 0 7.205 1.997 9.083 5.218a30.978 30.978 0 0 0 20.226 14.652l13.639 2.922a10.505 10.505 0 0 1 7.029 5.248l6.587 12.076a27.082 27.082 0 0 0 11.553 11.221l30.957 15.731a6.813 6.813 0 0 1 3.664 6.9 6.784 6.784 0 0 1-2.24 4.246l-11.759 10.402a27.292 27.292 0 0 0-7.444 10.818l-2.564 6.836a8.085 8.085 0 0 1-4.462 4.618l-12.525 5.193a28.384 28.384 0 0 0-17.563 26.295 8.105 8.105 0 0 1-.922 3.745l-32.012 61.069zM256 472.223a257.658 257.658 0 0 1-42.851-3.584l29.352-55.996a28.573 28.573 0 0 0 3.255-13.216 8.046 8.046 0 0 1 4.977-7.453l12.526-5.193a28.564 28.564 0 0 0 15.749-16.299l2.563-6.832a6.831 6.831 0 0 1 1.86-2.704l11.759-10.402a27.182 27.182 0 0 0 8.965-16.993c1.419-11.339-4.473-22.437-14.662-27.616l-30.958-15.731a6.76 6.76 0 0 1-2.886-2.804l-6.587-12.076a30.886 30.886 0 0 0-20.663-15.426l-13.638-2.922a10.542 10.542 0 0 1-6.881-4.984c-5.523-9.467-15.749-15.338-26.704-15.338h-.095l-36.4.111h-.033a10.47 10.47 0 0 1-8.169-3.893l-13.362-16.479a65.435 65.435 0 0 0-4.555-5.056l-19.488-19.488a14.413 14.413 0 0 1-3.858-6.962c-1.538-6.667 1.866-13.561 8.094-16.392l7.143-3.247a14.467 14.467 0 0 1 9.857-.763l29.996 8.372a2.538 2.538 0 0 1 1.543 1.234l8.488 15.762a22.88 22.88 0 0 0 18.009 11.951 22.907 22.907 0 0 0 18.013-6.249 22.907 22.907 0 0 0 7.054-17.714l-.934-18.667a2.526 2.526 0 0 1 1.176-2.261l6.91-4.351a65.168 65.168 0 0 0 25.039-29.055l5.546-12.635a65.477 65.477 0 0 0 5.086-33.789l-.514-4.45a65.416 65.416 0 0 0-4.16-16.575l-.579-1.464a65.498 65.498 0 0 0-7.515-13.834h.013c7.483-.654 15.01-.983 22.52-.983 49.28 0 96.25 13.738 136.193 39.782l.076 9.449c.021 2.626-2.098 4.822-4.723 4.896l-17.673.492c-11.454.318-21.278 8.332-23.89 19.487l-4.694 20.035c-2.534 10.816 2.438 22.211 12.09 27.708l20.861 11.881a21.18 21.18 0 0 0 10.492 2.792c4.031 0 8.053-1.16 11.581-3.463l14.81-9.673c6.172-4.03 9.846-11.11 9.59-18.475a.733.733 0 0 1 .287-.638c.304-.249.578-.183.68-.161l22.874 5.253c.568.131 1.149.239 1.733.322l16.17 2.321c7.032 11.706 12.847 23.961 17.384 36.627l-15.799-3.819a25.346 25.346 0 0 0-1.915-.386l-17.252-2.782a57.904 57.904 0 0 0-50.941 17.026l-2.596 2.7a57.783 57.783 0 0 0-15.059 28.884l-6.578 33.245a57.628 57.628 0 0 0 3.683 34.281c8.211 18.921 26.041 32.128 46.531 34.466l3.196.365a58.173 58.173 0 0 0 26.085-3.017l10.879-3.897a4.866 4.866 0 0 1 5.416 1.52l1.428 1.763a4.897 4.897 0 0 1 1.082 2.917l.516 17.729C429.455 424.098 346.343 472.223 256 472.223zm226.538-156.591l-1.189-1.47a25.288 25.288 0 0 0-19.652-9.364c-2.844 0-5.717.481-8.497 1.477l-10.879 3.896a37.666 37.666 0 0 1-16.893 1.954l-3.195-.365c-13.27-1.515-24.817-10.068-30.134-22.32a37.313 37.313 0 0 1-2.387-22.2l6.578-33.245a37.408 37.408 0 0 1 9.753-18.705l2.596-2.7a37.496 37.496 0 0 1 32.99-11.025l17.25 2.782c.122.02.245.044.368.074L486.472 211a200.085 200.085 0 0 1 5.129 44.999c.001 20.428-3.038 40.381-9.063 59.633z" fill="#91DC5A"/></svg>