<svg id="Layer_1" xmlns="http://www.w3.org/2000/svg" viewBox="-268.4 145 712.5 512"><style>.st0{fill:none}.st1{fill:#a67c52}.st2{fill:#c69c6d}.st3{fill:#39b54a}.st4{fill:#8cc63f}.st5{fill:#c7b299}.st6{fill:#998675}.st7{fill:#3f352f}.st8{fill:#51aa5b}.st9{fill:#95e49c}.st10{fill:#b84b41}.st11{fill:#5dc660}</style><path class="st0" d="M-76.4 327v-.5 23.7V327z"/><path class="st1" d="M-88.6 486.9h12v5h12.8l-1.6-23.6h-11.2v-6h-10.3zm-4.1 58.8h22.3v5.2h10.8l-1.7-23.8H-82v-5.7h-9zm23.1-137.5c-2.2.5-4.4.8-6.8.8-2.3 0-4.6-.3-6.8-.8l-1.3 19.1h7.9v5.4h8.7l-1.7-24.5zm-30.1 237.2H-53l-3.3-47.2H-82v-5.9h-14z"/><path class="st2" d="M-70.4 557.3h-23.1l-2.5 35h14v-5.7h24.9l-2.5-35.7h-10.8zm-6.2-58.8h-12.8l-1.6 22.9h9v-5.9h19.9l-1.7-23.6h-12.8zm10.4-41.8l-1.7-23.9h-8.7v6.2h-8.7l-1.6 23.3h10.3v-5.6z"/><path class="st3" d="M-82.4 344.1h-5.8v8.5c3.6-1.6 7.6-2.5 11.8-2.5v-23.7h-5.8c0-16.4-13.3-29.7-29.7-29.7H-165c-6.6 0-11.9 5.4-11.9 11.9h-5.7c-.1.6-.1 1.3-.1 2v4h70.9c16.2.1 29.4 13.3 29.4 29.5z"/><path class="st4" d="M12.3 296.8h-53.2c-16.4 0-29.7 13.3-29.7 29.7h-5.8v23.7c4.2 0 8.2.9 11.8 2.5v-8.5h-5.8c0-16.2 13.2-29.4 29.4-29.4h71v-6h-5.8c0-6.7-5.4-12-11.9-12z"/><path class="st3" d="M-12.2 356.1h6.9v-.1h-6.9v.1zM30 356H19.8l.2.1h16v-16.9l25.3 16.9h21.5c-2.8-16.9-17.5-29.8-35.1-29.8H30V356zm-87.9.7c.1-.2.1-.5.2-.7h-1.1c.3.2.6.4.9.7z"/><path class="st3" d="M-57.8 356c2.6-10.1 11.8-17.6 22.8-17.6 10.9 0 20.1 7.5 22.8 17.6h6.9v-16.7L19.8 356H30v-29.7h-70.9c-9.8 0-17.8 8-17.8 17.8h-5.8v8.5c2 .9 3.9 2 5.7 3.3h1z"/><path class="st4" d="M-182.7 326.3h-17.7c-17.6 0-32.3 12.9-35.1 29.8h21.5l25.3-16.9v16.9h16.1l.2-.1h-10.2v-29.7zm35.3 29.8h6.9v-.1h-6.9v.1zm52.6.6c.3-.2.6-.5.9-.7H-95c.1.2.2.4.2.7z"/><path class="st4" d="M-111.8 326.3h-70.9V356h10.2l25.1-16.7V356h6.9c2.6-10.1 11.8-17.6 22.8-17.6 10.9 0 20.1 7.5 22.8 17.6h1.1c1.8-1.3 3.7-2.4 5.7-3.3v-8.5H-94c0-9.9-8-17.9-17.8-17.9z"/><path class="st5" d="M-117.7 373.8c6.6 0 11.9-5.4 11.9-11.9h-23.9c.1 6.5 5.4 11.9 12 11.9zm-11.9-11.9h23.9c0-2.2-.6-4.2-1.6-5.9H-128c-1.1 1.7-1.6 3.7-1.6 5.9zm11.9-12c-4.4 0-8.3 2.4-10.3 6h20.7c-2.1-3.5-6-6-10.4-6zm82.7 23.9c6.6 0 11.9-5.3 11.9-11.9H-47c.1 6.5 5.4 11.9 12 11.9zm-11.9-11.9H-23c0-2.2-.6-4.2-1.6-5.9h-20.7c-1.1 1.7-1.6 3.7-1.6 5.9zm11.9-12c-4.4 0-8.3 2.4-10.3 6h20.7c-2.1-3.5-6-6-10.4-6z"/><path class="st6" d="M-94.2 379.6c0 9.8 8 17.8 17.8 17.8s17.8-8 17.8-17.8-8-17.8-17.8-17.8-17.8 8-17.8 17.8z"/><path class="st7" d="M-163 291h62.2c13.5 0 24.4 10.9 24.4 24.4v11c.3-19.6 16.3-35.5 36-35.5h52.9c9.6 0 17.4 7.8 17.4 17.4v.3h5.8c0-13-10.6-23.5-23.5-23.5H-41c-12 0-22.7 5.1-30.3 13.3v-19.5h-11.6v18.2c-7.5-7.4-17.7-12-29-12H-165c-13 0-23.5 10.6-23.5 23.5h5.9c1-9.9 9.4-17.6 19.6-17.6z"/><path class="st7" d="M-165 296.8h53.2c16.4 0 29.7 13.3 29.7 29.7h5.8v-11c0-13.5-10.9-24.4-24.4-24.4H-163c-10.2 0-18.6 7.8-19.6 17.7h5.7c0-6.7 5.3-12 11.9-12zM12.6 291h-52.9c-19.7 0-35.7 15.8-36 35.5h5.8c0-16.4 13.3-29.7 29.7-29.7h53.2c6.6 0 11.9 5.4 11.9 11.9H30v-.3c0-9.6-7.8-17.4-17.4-17.4zm-77.1 68.1V356h-11.7c4.2 0 8.2 1.1 11.7 3.1zm-23.7 0c3.5-2 7.5-3.2 11.7-3.2h-11.7v3.2z"/><path class="st7" d="M47.7 314.7H30v5.8h17.7c22.8 0 41.4 18.5 41.4 41.4H59.5l-17.7-11.8v11.8H18.2L9.3 356H.4v5.9h-17.7c0 9.8-7.9 17.7-17.7 17.7-9.8 0-17.7-7.9-17.7-17.7h-8c4.9 4.3 8 10.7 8 17.7 0 13.1-10.6 23.6-23.6 23.6-13.1 0-23.6-10.6-23.6-23.6 0-7.1 3.1-13.4 8-17.7h-8c0 9.8-7.9 17.7-17.7 17.7-9.8 0-17.7-7.9-17.7-17.7H-153V356h-8.9l-8.9 5.9h-23.6v-11.8l-17.7 11.8h-29.5c0-22.8 18.5-41.4 41.4-41.4h17.7v-5.8h-17.7c-26 0-47.2 21.2-47.2 47.2v5.8h37.1l10.2-6.8v6.8h31.2l10.2-6.8v6.8h18.4c2.6 10.2 11.8 17.7 22.8 17.7 4.4 0 8.5-1.2 12-3.3.7 8.4 5 15.9 11.3 20.8l-16.9 242.6h-29.5V657h129.1v-11.6h-29.8l-16.9-242.6c6.3-4.9 10.6-12.3 11.3-20.8 3.5 2.1 7.6 3.3 12 3.3 11 0 20.2-7.5 22.8-17.7H6.2v-6.8l10.2 6.8h31.2v-6.8l10.2 6.8h37.1v-5.8c0-25.9-21.2-47.1-47.2-47.1zM-52.7 521.4h-3.4l2.1 29.5h1.3l5.9 41.4H-51l4.2 59.1h-59.1l4.2-59.1h-4.2l5.9-41.4h1.3l2.1-29.5h-3.4l5.3-26.3 2.3-32.8h-1.7l2.6-13.1 3.3-46h23.6l3.3 46 2.6 13.1h-1.7l2.3 32.8 5.4 26.3z"/><path class="st7" d="M-76.6 491.9v-5h-12l1.7-24.6h-5.5l-2.3 32.8.6-3.2zm0-59.1v-5.4h-7.9l1.3-19.1c2.2.5 4.4.8 6.8.8 2.3 0 4.6-.3 6.8-.8l1.7 24.5h3.3l3.3 16.4-3.3-46h-23.6l-3.3 46 3.3-16.4h11.6zm6.2 112.9h-22.3l1.7-24.3h-5.6l-2.1 29.5h28.3zM-82 598.2h25.7l3.3 47.2h-46.7l3.7-53.1h-5.7l-4.2 59.1h59.1l-4.2-59.1h-31zm5.4-135.9v6h11.2l1.6 23.6h5.2l.6 3.2-2.3-32.8zm-5.4 64.8h20.7l1.7 23.8h5.6l-2.1-29.5H-82zm-18 23.8l-5.9 41.4h4.2l3-41.4zm53.2 41.4l-5.9-41.4H-54l3 41.4z"/><path class="st7" d="M-57.1 586.6H-82v5.7h31l-3-41.4h-5.6zm-36.4-29.3h23.1v-6.4h-28.3l-3 41.4h5.7zm40.8-35.9l-5.3-26.3 1.9 26.3zm-47.3 0h3.4l1.9-26.3z"/><path class="st7" d="M-89.4 498.5h12.8v-6.6h-17.5l-.6 3.2-1.9 26.3h5.6zm25.6-6.6l1.7 23.6H-82v5.9h25.9l-1.9-26.3-.6-3.2zm-30.3-29.6h1.7l.9-13.1zm35.5 0l-2.7-13.1 1 13.1zM-85.3 439h8.7v-6.2h-11.6l-3.3 16.4-.9 13.1h5.5zm17.4-6.2l1.7 23.9h-10.4v5.6h16.3l-1-13.1-3.2-16.4zm-8.5-76.8l.1-5.8c-4.2 0-8.2.9-11.8 2.5v3.3h11.7zm-85.6 0h8.8v-5.9zm50.2-35.5c13.1 0 23.6 10.6 23.6 23.6h5.8c0-16.2-13.2-29.4-29.4-29.4h-70.9v5.8h70.9zM.4 356h8.9l-8.9-5.9z"/><path class="st7" d="M-76.3 356h11.7v-3.3c-3.6-1.6-7.6-2.5-11.8-2.5l.1 5.8zm6-11.9h5.8c0-13.1 10.6-23.6 23.6-23.6H30v-5.8h-70.9c-16.2 0-29.4 13.2-29.4 29.4z"/><path class="st7" d="M47.7 326.3c17.6 0 32.3 12.9 35.1 29.8H61.3L36 339.2v16.9H19.9l-.2-.1H9.3l8.9 5.9h23.6v-11.8l17.7 11.8H89c0-22.8-18.5-41.4-41.4-41.4H30v5.8h17.7zm-53 29.8h-6.9v-.1h-6.1c.7 1.8 1 3.8 1 5.9H.4V356h-5.8v.1zm-52.5-.1c-.1.2-.1.5-.2.7-.3-.2-.6-.5-.9-.7h-5.7v3.2c1.4.8 2.6 1.7 3.8 2.7h8c0-2.1.4-4.1 1-5.9h-6z"/><path class="st7" d="M-64.5 344.1h5.8c0-9.8 8-17.8 17.8-17.8H30v-5.8h-70.9c-13.1 0-23.6 10.6-23.6 23.6z"/><path class="st7" d="M-35 338.3c-10.9 0-20.1 7.5-22.8 17.6h6c2.4-6.9 9-11.8 16.7-11.8 7.7 0 14.3 4.9 16.7 11.8h6.1c-2.6-10.1-11.8-17.6-22.7-17.6zM-58.9 356c-1.8-1.3-3.7-2.4-5.7-3.3v3.3h5.7zm53.6-16.8V356H.4v-5.9l8.9 5.9h10.5zM-88.2 356h-5.7c-.3.2-.6.5-.9.7-.1-.2-.1-.5-.2-.7h-6c.7 1.8 1 3.8 1 5.9h8c1.2-1 2.4-2 3.8-2.7V356zm-84.5.1h-16.1v-16.9l-25.3 16.9h-21.5c2.8-16.9 17.5-29.8 35.1-29.8h17.7v-5.8h-17.7c-22.8 0-41.4 18.5-41.4 41.4h29.5l17.7-11.8v11.8h23.6l8.9-5.9h-10.5v.1zm32.2-.1v.1h-6.9v-.1h-5.8v5.9h17.7c0-2.1.4-4.1 1-5.9h-6zm52.3 0v-3.3c-2 .9-3.9 2-5.7 3.3h5.7z"/><path class="st7" d="M-111.8 326.3c9.8 0 17.8 8 17.8 17.8h5.8c0-13.1-10.6-23.6-23.6-23.6h-70.9v5.8h70.9z"/><path class="st7" d="M-117.7 338.3c-10.9 0-20.1 7.5-22.8 17.6h6.1c2.4-6.9 9-11.8 16.7-11.8 7.7 0 14.3 4.9 16.7 11.8h6c-2.6-10.1-11.8-17.6-22.7-17.6zm-29.7.9l-25.1 16.8h10.5l8.8-5.9v5.9h5.8zm29.7 34.6c-6.6 0-11.9-5.3-11.9-11.9h-5.8c0 9.8 7.9 17.7 17.7 17.7 9.8 0 17.7-7.9 17.7-17.7h-5.8c0 6.5-5.3 11.9-11.9 11.9zm-10.4-17.8h-6.4c-.7 1.8-1 3.8-1 5.9h5.8c.1-2.2.6-4.2 1.6-5.9zm20.7 0c1 1.7 1.6 3.8 1.6 5.9h5.8c0-2.1-.4-4.1-1-5.9h-6.4z"/><path class="st7" d="M-117.7 344.1c-7.7 0-14.3 4.9-16.7 11.8h6.4c2.1-3.6 5.9-6 10.3-6s8.3 2.4 10.3 6h6.4c-2.4-6.8-9-11.8-16.7-11.8zm82.7 29.7c-6.6 0-11.9-5.3-11.9-11.9h-5.8c0 9.8 7.9 17.7 17.7 17.7 9.8 0 17.7-7.9 17.7-17.7h-5.8c0 6.5-5.3 11.9-11.9 11.9zM-45.4 356h-6.4c-.7 1.8-1 3.8-1 5.9h5.8c.1-2.2.6-4.2 1.6-5.9zm20.7 0c1 1.7 1.6 3.8 1.6 5.9h5.8c0-2.1-.4-4.1-1-5.9h-6.4zM-35 344.1c-7.7 0-14.3 4.9-16.7 11.8h6.4c2.1-3.6 5.9-6 10.3-6s8.3 2.4 10.3 6h6.4c-2.4-6.8-9-11.8-16.7-11.8zm-29.5 15c-3.5-2-7.5-3.2-11.7-3.2h-.2c-4.3 0-8.3 1.2-11.7 3.2v2.7H-92c-4.9 4.3-8 10.7-8 17.7 0 13.1 10.6 23.6 23.6 23.6 13.1 0 23.6-10.6 23.6-23.6 0-7.1-3.1-13.4-8-17.7h-3.8v-2.7zm6 20.5c0 9.8-8 17.8-17.8 17.8s-17.8-8-17.8-17.8 8-17.8 17.8-17.8 17.8 8 17.8 17.8zM-76.4 356zm0 0c.1 0 .1 0 0 0z"/><path class="st7" d="M-64.5 361.9h3.8c-1.2-1-2.4-2-3.8-2.7v2.7zm-23.7-2.8c-1.4.8-2.6 1.7-3.8 2.7h3.8v-2.7z"/><path class="st8" d="M341.2 511H254v-12.7h79.1l-8.1-12.7h-96.3V473h137.9l-50.3-71.9H254v-12.7h53.3l-8.9-12.7h-69.8V363h101.5l-87.7-112-87.6 112.1h57v12.7h-25.3l-68 97.2h93.3v12.7h-51.9L88 598.4h308.9L341.2 511zm-181.1-53.4l-10.4-7.3 41.4-59.2 10.4 7.3-41.4 59.2zm-32.2 125.2l-10.7-6.8 47.7-74.7 10.7 6.8-47.7 74.7z"/><path transform="rotate(-145.021 175.63 424.375)" class="st9" d="M169.3 388.3H182v72.3h-12.7z"/><path class="st10" d="M231.8 611H253v33.3h-21.2z"/><path transform="rotate(-147.451 146.46 542.044)" class="st9" d="M140.1 497.7h12.7v88.6h-12.7z"/><path class="st7" d="M316.4 627.7h-12.7v16.6H291v-25.1h-12.7v25.1h-12.7V611H420l-80-125.4h50.7l-76.9-109.9H356L242.4 230.4 128.8 375.8H171L94.1 485.7h50.7L64.8 611h154.3v33.3h-69.9V657h186.3v-12.7h-19.2v-16.6zm-57 23h-33.9v-46H76.4l80-125.4h-50.1l76.9-109.9h-41.3l100.6-128.8 100.6 128.8h-41.3l76.9 109.9h-50.1l80 125.4H259.4v46z"/><path class="st7" d="M328.5 479.3h50.1l-76.9-109.9H343L242.4 240.7 141.8 369.5h41.3l-76.9 109.9h50.1l-80 125.4h332.1l-79.9-125.5zM219.2 598.4H88l71.9-112.7h51.9V473h-93.4l68-97.2h25.3v-12.7h-57L242.4 251 330 363.1H228.5v12.7h69.8l8.9 12.7H254v12.7h62.2l50.3 71.9H228.6v12.7H325l8.1 12.7H254V511h87.2l55.8 87.4H219.2z"/><path class="st7" d="M225.5 650.7h33.9v-46h-33.9v46zm6.3-39.7H253v33.3h-21.2V611z"/><path class="st11" d="M106.8 537.3H35.3v-10.4h64.9l-6.6-10.4h-79v-10.4h113l-41.3-59h-51v-10.4H79l-7.3-10.4H14.6V416h83.3L26 324l-72 92H.7v10.4H-20l-55.8 79.7H.7v10.4h-42.5l-59 92.4h253.4l-45.8-71.6zm-148.5-43.8l-8.5-6 34-48.6 8.5 6-34 48.6zM-68 596.1l-8.8-5.6 39.1-61.3 8.8 5.6-39.1 61.3z"/><path transform="rotate(-145.021 -28.922 466.214)" class="st9" d="M-34.1 436.6h10.4v59.3h-10.4z"/><path class="st10" d="M17.2 619.3h17.4v27.3H17.2z"/><path transform="rotate(-147.451 -52.858 562.727)" class="st9" d="M-58 526.4h10.4v72.7H-58z"/><path class="st7" d="M86.5 633H76.1v13.7H65.7V626H55.3v20.6H44.9v-27.3h126.6l-65.6-102.8h41.6l-63.1-90.1H119L25.9 307.1l-93.2 119.2h34.6l-63.1 90.1h41.6l-65.6 102.8H6.8v27.3h-57.3V657h152.8v-10.4H86.5V633zm-46.7 18.8H12v-37.7h-122.3l65.6-102.8h-41.1l63.1-90.1h-33.9l82.5-105.6 82.5 105.6H74.5l63.1 90.1H96.4L162 614.1H39.8v37.7z"/><path class="st7" d="M96.4 511.3h41.1l-63.1-90.1h33.9L25.9 315.6l-82.5 105.6h33.9l-63.1 90.1h41.1l-65.6 102.8H162L96.4 511.3zM6.8 608.9h-107.6l59-92.4H.7v-10.4h-76.5l55.8-79.7H.7V416H-46l71.9-92 71.9 92H14.5v10.4h57.2l7.3 10.4H35.3v10.4h51l41.3 59h-113v10.4h79l6.6 10.4H35.3v10.4h71.5l45.7 71.7H6.8z"/><path class="st7" d="M12 651.8h27.8v-37.7H12v37.7zm5.2-32.5h17.4v27.3H17.2v-27.3z"/><path class="st0" d="M113 210v-.7 32.2V210z"/><path class="st1" d="M96.4 426.7h16.3v6.7h17.4l-2.3-31.9h-15.1v-8.1h-14zm-5.5 79.5H121v7.2h14.6l-2.2-32.3h-28.1v-7.7H93.2zm31.3-186.1c-2.9.7-6 1.1-9.2 1.1s-6.2-.4-9.2-1.1L102 346h10.6v7.3h11.8l-2.2-33.2zM81.4 641.3h63.2l-4.5-63.9h-34.8v-8H86.5z"/><path class="st2" d="M121 521.9H89.8l-3.3 47.5h18.8v-7.7H139l-3.4-48.3H121zm-8.3-79.5H95.3l-2.1 31h12.1v-8h27l-2.2-32h-17.4zm14-56.6l-2.2-32.5h-11.8v8.4h-11.8l-2.2 31.7h14v-7.6z"/><path class="st3" d="M104.9 233.3H97v11.5c4.9-2.2 10.3-3.4 16-3.4v-32.2h-7.9c0-22.1-18-40.2-40.2-40.2H-7c-8.9 0-16.2 7.2-16.2 16.2h-7.7c-.1.9-.1 1.8-.1 2.7v5.5h96c22 .1 39.9 17.9 39.9 39.9z"/><path class="st4" d="M233 169.2h-72c-22.1 0-40.2 18-40.2 40.2H113v32.1c5.7 0 11.1 1.2 16 3.4v-11.5h-7.9c0-22 17.9-39.9 39.9-39.9h96v-8.1h-7.8c0-9-7.3-16.2-16.2-16.2z"/><path class="st3" d="M199.9 249.5h9.3v-.1h-9.3v.1zm57.1-.2h-13.8l.2.1h21.8v-22.8l34.2 22.8h29.1c-3.8-22.8-23.6-40.3-47.5-40.3h-24v40.2zm-119 1c.1-.3.2-.6.2-1h-1.5c.4.3.8.7 1.3 1z"/><path class="st3" d="M138.2 249.3c3.6-13.7 16-23.9 30.8-23.9s27.3 10.1 30.8 23.9h9.3v-22.7l34 22.7H257v-40.2h-96c-13.3 0-24.2 10.8-24.2 24.2H129v11.5c2.7 1.2 5.3 2.7 7.7 4.5h1.5z"/><path class="st4" d="M-31 209.2h-24c-23.9 0-43.8 17.5-47.5 40.3h29.1l34.2-22.8v22.8h21.8l.2-.1H-31v-40.2zm47.8 40.3h9.3v-.1h-9.3v.1zm71.3.8c.4-.3.8-.6 1.2-1h-1.5c.1.3.2.7.3 1z"/><path class="st4" d="M65 209.2h-96v40.2h13.8l34-22.7v22.7h9.3c3.6-13.7 16-23.9 30.8-23.9s27.3 10.2 30.8 23.9h1.5c2.4-1.8 5-3.3 7.7-4.5v-11.5H89c.1-13.4-10.7-24.2-24-24.2z"/><path class="st5" d="M57 273.5c8.9 0 16.2-7.2 16.2-16.2H40.8c0 8.9 7.3 16.2 16.2 16.2zm-16.2-16.2h32.3c0-2.9-.8-5.6-2.1-8H43c-1.4 2.4-2.2 5.1-2.2 8z"/><path class="st5" d="M57 241.2c-6 0-11.2 3.3-14 8.2h28c-2.8-4.9-8-8.2-14-8.2zm112 32.3c8.9 0 16.2-7.2 16.2-16.2h-32.3c0 8.9 7.2 16.2 16.1 16.2zm-16.1-16.2h32.3c0-2.9-.8-5.6-2.1-8h-28c-1.5 2.4-2.2 5.1-2.2 8z"/><path class="st5" d="M169 241.2c-6 0-11.2 3.3-14 8.2h28c-2.8-4.9-8-8.2-14-8.2z"/><path class="st6" d="M88.8 281.3c0 13.3 10.8 24.2 24.2 24.2s24.2-10.8 24.2-24.2-10.8-24.2-24.2-24.2c-13.3.1-24.2 10.9-24.2 24.2z"/><path class="st7" d="M-4.4 161.3h84.3c18.3 0 33.1 14.8 33.1 33.1v14.9c.4-26.6 22-48 48.7-48h71.7c13 0 23.6 10.6 23.6 23.6v.4h7.9c0-17.6-14.3-31.9-31.9-31.9h-72c-16.2 0-30.8 6.9-41 18V145h-15.7v24.7c-10.1-10-24-16.2-39.3-16.2H-7c-17.6 0-31.9 14.3-31.9 31.9h8c1.3-13.6 12.7-24.1 26.5-24.1z"/><path class="st7" d="M-7 169.2h72c22.1 0 40.2 18 40.2 40.2h7.9v-14.9c0-18.3-14.8-33.1-33.1-33.1H-4.4c-13.8 0-25.2 10.5-26.5 24h7.7c0-9 7.3-16.2 16.2-16.2z"/><path class="st7" d="M233.4 161.3h-71.7c-26.7 0-48.3 21.4-48.7 48h7.8c0-22.1 18-40.2 40.2-40.2h72c8.9 0 16.2 7.2 16.2 16.2h7.8v-.4c0-13-10.5-23.6-23.6-23.6zM129 253.6v-4.3h-15.9c5.8.1 11.2 1.6 15.9 4.3zm-32 0c4.7-2.7 10.1-4.3 15.9-4.3H97v4.3z"/><path class="st7" d="M281 193.5h-24v7.9h24c30.9 0 56 25.1 56 56h-40l-24-16v16h-32l-12-8h-12v8h-24c0 13.3-10.7 24-24 24s-24-10.7-24-24h-10.8c6.6 5.9 10.8 14.4 10.8 24 0 17.7-14.3 32-32 32s-32-14.3-32-32c0-9.6 4.2-18.1 10.8-24H81c0 13.3-10.7 24-24 24s-24-10.7-24-24H9v-8H-3l-12 8h-32v-16l-24 16h-40c0-30.9 25.1-56 56-56h24v-7.9h-24c-35.2 0-63.9 28.6-63.9 63.9v7.9h50.2l13.8-9.2v9.2h42.2L1.1 256v9.2h25c3.5 13.8 16 24 30.9 24 6 0 11.5-1.6 16.3-4.5 1 11.4 6.7 21.5 15.3 28.1L65.7 641.3H25.8V657h174.9v-15.7h-40.3l-22.9-328.5c8.6-6.7 14.4-16.7 15.3-28.1 4.8 2.9 10.3 4.5 16.3 4.5 14.9 0 27.4-10.2 30.9-24h25V256l13.8 9.2H281V256l13.8 9.2H345v-7.9c-.1-35.2-28.8-63.8-64-63.8zM145 473.4h-4.6l2.9 40h1.7l8 56h-5.7l5.7 80H73l5.7-80H73l8-56h1.7l2.9-40H81l7.1-35.6 3.2-44.5H89l3.6-17.8 4.4-62.2h32l4.4 62.2 3.6 17.8h-2.3l3.2 44.5 7.1 35.6z"/><path class="st7" d="M112.7 433.4v-6.7H96.4l2.3-33.3h-7.4l-3.2 44.4.9-4.4zm0-80.1V346H102l1.8-25.9c2.9.7 6 1.1 9.2 1.1s6.2-.4 9.2-1.1l2.3 33.2h4.5l4.4 22.2-4.4-62.2H97l-4.4 62.2 4.4-22.2h15.7zm8.3 152.9H90.9l2.3-32.8h-7.6l-2.9 40H121zm-15.7 71.2h34.8l4.5 63.9H81.4l5.1-71.9h-7.8l-5.7 80h80l-5.7-80h-42zm7.4-184v8.1h15.1l2.3 31.9h6.9l.9 4.4-3.2-44.4zm-7.4 87.7h28.1l2.2 32.3h7.7l-2.9-40h-35.1zM81 513.4l-8 56h5.7l4-56zm72 56l-8-56h-1.7l4 56z"/><path class="st7" d="M139 561.7h-33.7v7.7h42l-4-56h-7.7zm-49.2-39.8H121v-8.5H82.7l-4 56h7.8zm55.2-48.5l-7.1-35.6 2.5 35.6zm-64 0h4.6l2.5-35.6z"/><path class="st7" d="M95.3 442.4h17.4v-9H89l-.9 4.4-2.5 35.6h7.6zm34.8-9l2.2 32h-27v8h35.1l-2.5-35.6-.9-4.4zm-41.1-40h2.3l1.3-17.8zm48 0l-3.6-17.8 1.3 17.8zm-36.1-31.7h11.8v-8.4H97l-4.4 22.3-1.3 17.8h7.4zm23.6-8.4l2.2 32.5h-14v7.6h22l-1.3-17.8-4.4-22.3zm-11.6-104h.1v-7.8c-5.7 0-11.1 1.2-16 3.4v4.5h15.9zm-115.9 0H9v-8zm68-48c17.7 0 32 14.3 32 32h7.9c0-22-17.9-39.9-39.9-39.9h-96v7.9h96zm152 48h12l-12-8zm-103.9 0H129v-4.5c-4.9-2.2-10.3-3.4-16-3.4v7.8c0 .1.1.1.1.1zm8.1-16h7.9c0-17.7 14.3-32 32-32h96v-7.9h-96c-22.1.1-39.9 17.9-39.9 39.9zM281 209.2c23.9 0 43.8 17.5 47.5 40.3h-29.1l-34.2-22.8v22.8h-21.8l-.2-.1H229l12 8h32v-16l24 16h40c0-30.9-25.1-56-56-56h-24v7.9h24zm-71.8 40.3h-9.3v-.1h-8.2c.9 2.5 1.4 5.2 1.4 8h24v-8h-7.9v.1zm-71-.2c-.1.3-.2.6-.2 1-.4-.3-.8-.6-1.2-1H129v4.3c1.8 1.1 3.6 2.3 5.2 3.7H145c0-2.8.5-5.5 1.4-8h-8.2z"/><path class="st7" d="M129 233.3h7.9c0-13.3 10.8-24.2 24.2-24.2h96v-7.9h-96c-17.8.1-32.1 14.5-32.1 32.1z"/><path class="st7" d="M169 225.5c-14.8 0-27.3 10.2-30.8 23.9h8.2c3.3-9.3 12.2-16 22.6-16 10.4 0 19.3 6.7 22.6 16h8.2c-3.5-13.8-16-23.9-30.8-23.9zm-32.3 23.8c-2.4-1.8-5-3.3-7.7-4.5v4.5h7.7zm72.5-22.6v22.6h7.8v-8l12 8h14.2zM97 249.3h-7.7c-.4.3-.8.6-1.2 1-.1-.3-.2-.6-.2-1h-8.2c.9 2.5 1.4 5.2 1.4 8h10.8c1.6-1.4 3.3-2.6 5.2-3.7v-4.3zm-114.4.2h-21.8v-22.8l-34.2 22.8h-29.1c3.8-22.8 23.6-40.3 47.5-40.3h24v-7.9h-24c-30.9 0-56 25.1-56 56h40l24-16v16h32l12-8h-14.2l-.2.2zm43.6-.2v.1h-9.3v-.1H9v8h24c0-2.8.5-5.5 1.4-8h-8.2zm70.8 0v-4.5c-2.7 1.2-5.3 2.7-7.7 4.5H97z"/><path class="st7" d="M65 209.2c13.3 0 24.2 10.8 24.2 24.2H97c0-17.7-14.3-32-32-32h-96v7.9h96z"/><path class="st7" d="M57 225.5c-14.8 0-27.3 10.1-30.8 23.9h8.2c3.3-9.3 12.2-16 22.6-16 10.4 0 19.3 6.7 22.6 16h8.2c-3.5-13.8-16-23.9-30.8-23.9zm-40.2 1.2l-34 22.6H-3l12-8v8h7.8zM57 273.5c-8.9 0-16.2-7.2-16.2-16.2H33c0 13.3 10.7 24 24 24s24-10.7 24-24h-7.9c0 8.9-7.2 16.2-16.1 16.2z"/><path class="st7" d="M43 249.3h-8.6c-.9 2.5-1.4 5.2-1.4 8h7.8c0-2.9.8-5.6 2.2-8zm28 0c1.4 2.4 2.1 5.1 2.1 8H81c0-2.8-.5-5.5-1.4-8H71zm-14-16c-10.4 0-19.3 6.7-22.6 16H43c2.8-4.9 8-8.2 14-8.2s11.2 3.3 14 8.2h8.6c-3.3-9.3-12.2-16-22.6-16zm112 40.2c-8.9 0-16.2-7.2-16.2-16.2H145c0 13.3 10.7 24 24 24s24-10.7 24-24h-7.8c0 8.9-7.3 16.2-16.2 16.2zm-14-24.2h-8.6c-.9 2.5-1.4 5.2-1.4 8h7.9c0-2.9.7-5.6 2.1-8zm28 0c1.4 2.4 2.1 5.1 2.1 8h7.8c0-2.8-.5-5.5-1.4-8H183zm-14-16c-10.4 0-19.3 6.7-22.6 16h8.6c2.8-4.9 8-8.2 14-8.2s11.2 3.3 14 8.2h8.6c-3.3-9.3-12.1-16-22.6-16zm-40 20.3c-4.7-2.7-10.1-4.3-15.9-4.3h-.2c-5.8 0-11.2 1.6-15.9 4.3v3.7h-5.2c-6.6 5.9-10.8 14.4-10.8 24 0 17.7 14.3 32 32 32s32-14.3 32-32c0-9.6-4.2-18.1-10.8-24H129v-3.7zm8.2 27.7c0 13.3-10.8 24.2-24.2 24.2s-24.2-10.8-24.2-24.2 10.8-24.2 24.2-24.2c13.3.1 24.2 10.9 24.2 24.2zm-24.3-32zm.1 0z"/><path class="st7" d="M129 257.3h5.2c-1.6-1.4-3.3-2.6-5.2-3.7v3.7zm-32-3.7c-1.8 1.1-3.6 2.3-5.2 3.7H97v-3.7z"/></svg>