<svg id="Calque_1" data-name="Calque 1" xmlns="http://www.w3.org/2000/svg" viewBox="0 0 150.21 342.5"><defs><style>.cls-1{fill:#bbd3df}.cls-2{fill:#8eb6ca}.cls-3{fill:#3f352f}</style></defs><title>jean</title><path class="cls-1" d="M232.09 441.19H232l1.2 15.7h40.6l1.2-15.7h-42.9z" transform="translate(-217.39 -122.39)"/><path class="cls-2" d="M267 154.49a4 4 0 0 1-8 0V151h-4.9v12.3a11.42 11.42 0 0 1-3.5 8.3c-5.1 5-15.1 6.4-23.5 6.5-.9 15-1.6 36.8-1.6 67.9 0 12.8.3 26.5.7 40.3h34.7a4 4 0 0 1 3.9 4.6l-2 14.8a4.08 4.08 0 0 1-4 3.5H227c2.6 55.9 7.4 109.9 8.7 124.2h35.2c.5-9.9 2-37.9 4.3-71.7H250a4 4 0 0 1-4-4v-14.8a4 4 0 0 1 4-4h26.8c3-41.5 7.1-87.3 11.8-118.4v-.3h-21.5a4 4 0 0 1 0-8h21.5v-6.1h-39.3a4 4 0 0 1 0-8h39.3v-47H267z" transform="translate(-217.39 -122.39)"/><path class="cls-1" d="M254.09 353.49h21.7c.2-2.2.3-4.5.5-6.8h-22.2zm2.2-59.2h-29.9c.1 2.2.2 4.5.3 6.8h28.6z" transform="translate(-217.39 -122.39)"/><path class="cls-2" d="M12.9 8h28.7v12.6H12.9zm36.7 0h21.6v12.6H49.6z"/><path class="cls-1" d="M246.09 163.29V151h-16.5c-.5 3.1-1.3 9.1-2.1 19.1 8.5-.2 14.9-1.7 17.4-4.2a3.52 3.52 0 0 0 1.2-2.6zm64.4 277.9h-.1l1.2 15.7h40.6l1.2-15.7h-42.9z" transform="translate(-217.39 -122.39)"/><path class="cls-2" d="M334.69 171.59a11.26 11.26 0 0 1-3.5-8.3V151h-4.9v3.5a4 4 0 0 1-8 0V151H313v29.7c0 7.2-1.5 13-4.3 17.3H336a4 4 0 0 1 0 8h-39.3v6.1h21.5a4 4 0 0 1 0 8h-21.5v.3c9.6 63.6 16.4 189.4 17.6 212.9h35.2c1.1-12.3 4.9-54.4 7.6-101.8h-27.3a4.08 4.08 0 0 1-4-3.5l-2-14.8a4.17 4.17 0 0 1 .9-3.2 4.05 4.05 0 0 1 3-1.4h30.5c1-21.4 1.6-43 1.6-62.7 0-31.1-.7-52.9-1.6-67.9-8.5-.1-18.4-1.4-23.5-6.4z" transform="translate(-217.39 -122.39)"/><path class="cls-2" d="M305 180.59v-29.7h-8.4v46.6a9.78 9.78 0 0 0 4.1-2.4c2.8-2.7 4.3-7.8 4.3-14.5z" transform="translate(-217.39 -122.39)"/><path class="cls-1" d="M333.19 323.39h24.3c.1-2.2.2-4.5.3-6.8h-25.6zm6-160.1a3.41 3.41 0 0 0 1.1 2.6c2.5 2.5 8.9 4 17.4 4.2-.8-10-1.5-16-2.1-19.1h-16.5v12.3z" transform="translate(-217.39 -122.39)"/><path class="cls-2" d="M108.9 8h28.7v12.6h-28.7z"/><path class="cls-2" d="M318.29 130.39h-21.6V143h21.6zm-11.5 9.1a4.2 4.2 0 0 1-2.8 1.2 3.63 3.63 0 0 1-2.8-1.2 4.2 4.2 0 0 1-1.2-2.8 3.63 3.63 0 0 1 1.2-2.8 4.2 4.2 0 0 1 2.8-1.2 3.78 3.78 0 0 1 2.8 1.2 4.2 4.2 0 0 1 1.2 2.8 3.78 3.78 0 0 1-1.2 2.8z" transform="translate(-217.39 -122.39)"/><path class="cls-3" d="M304 132.69a3.63 3.63 0 0 0-2.8 1.2 4.2 4.2 0 0 0-1.2 2.8 3.78 3.78 0 0 0 1.2 2.8 4.2 4.2 0 0 0 2.8 1.2 3.78 3.78 0 0 0 2.8-1.2 4.2 4.2 0 0 0 1.2-2.8 3.63 3.63 0 0 0-1.2-2.8 3.78 3.78 0 0 0-2.8-1.2z" transform="translate(-217.39 -122.39)"/><path class="cls-3" d="M362.89 146.49v-20.1a4 4 0 0 0-4-4h-132.6a4 4 0 0 0-4 4v20.1c-.8 3.7-4.9 25.7-4.9 99.4 0 71.1 8.3 166 10.3 187.3h-.4a4 4 0 0 0-3.7 4.3l1.8 23.7a4 4 0 0 0 4 3.7h48a4 4 0 0 0 4-3.7l1.8-23.7a4 4 0 0 0-3.7-4.3h-.6c1.1-20.8 6.2-115.2 13.6-181.4 7.4 66.2 12.6 160.5 13.6 181.4h-.6a4 4 0 0 0-3.7 4.3l1.8 23.7a4 4 0 0 0 4 3.7h48a4 4 0 0 0 4-3.7l1.8-23.7a4 4 0 0 0-3.7-4.3h-.4c2-21.3 10.3-116.2 10.3-187.3.2-73.7-3.8-95.6-4.7-99.4zm-132.6-16.1H259V143h-28.7zm-.7 20.6h16.5v12.3a3.41 3.41 0 0 1-1.1 2.6c-2.5 2.5-8.9 4-17.4 4.2.7-10.1 1.5-16 2-19.1zm-3.2 143.3h29.8l-.9 6.8h-28.6c-.1-2.3-.2-4.6-.3-6.8zm47.3 162.6h-40.6l-1.2-15.7h42.9zm2.1-103.4h-21.7v-6.8h22.2c-.2 2.3-.3 4.5-.5 6.8zm12.8-155.6h-39.3a4 4 0 0 0 0 8h39.3V212h-21.5a4 4 0 0 0 0 8h21.5v.3c-4.7 31-8.7 76.9-11.8 118.4H250a4 4 0 0 0-4 4v14.8a4 4 0 0 0 4 4h25.2c-2.3 33.9-3.8 61.9-4.3 71.7h-35.2c-1.3-14.2-6.1-68.3-8.7-124.2h31.8a4.08 4.08 0 0 0 4-3.5l2-14.8a4.17 4.17 0 0 0-.9-3.2 4.05 4.05 0 0 0-3-1.4h-34.7c-.5-13.8-.7-27.5-.7-40.3 0-31.1.7-52.9 1.6-67.9 8.5-.1 18.4-1.5 23.5-6.5a11.26 11.26 0 0 0 3.5-8.3v-12.3h4.9v3.5a4 4 0 0 0 8 0v-3.5h21.6zm0-54.9H267v-12.6h21.6zm69.1 27.1c-8.5-.2-14.9-1.7-17.4-4.2a3.41 3.41 0 0 1-1.1-2.6V151h16.5c.4 3.1 1.2 9 2 19.1zm-31.4-39.7H355V143h-28.7zm-29.7 0h21.6V143h-21.6zm0 20.6H305v29.7c0 6.7-1.5 11.8-4.3 14.6a9.78 9.78 0 0 1-4.1 2.4zm55.5 305.9h-40.6l-1.2-15.7h42.9zm5.4-133.5h-24.3l-.9-6.8h25.6c-.2 2.3-.3 4.6-.4 6.8zm.7-14.7h-30.5a4 4 0 0 0-3.9 4.6l2 14.8a4.08 4.08 0 0 0 4 3.5h27.3c-2.7 47.3-6.4 89.4-7.6 101.8h-35.2c-1.2-23.5-8-149.2-17.6-212.9v-.3h21.5a4 4 0 0 0 0-8h-21.5v-6.1H336a4 4 0 0 0 0-8h-27.3c2.9-4.3 4.3-10.1 4.3-17.3v-29.7h5.3v3.5a4 4 0 0 0 8 0v-3.5h4.9v12.3a11.42 11.42 0 0 0 3.5 8.3c5.1 5 15.1 6.4 23.5 6.5.9 15 1.6 36.8 1.6 67.9 0 19.6-.6 41.2-1.6 62.6z" transform="translate(-217.39 -122.39)"/></svg>