<svg xmlns="http://www.w3.org/2000/svg" width="464" height="512" viewBox="0 0 464 512"><defs><style>.cls-1{fill:none}.cls-2{fill:#a67c52}.cls-3{fill:#c69c6d}.cls-4{fill:#39b54a}.cls-5{fill:#8cc63f}.cls-6{fill:#c7b299}.cls-7{fill:#998675}.cls-8{fill:#3f352f}</style></defs><title>Fichier 2</title><g id="Calque_2" data-name="Calque 2"><g id="Calque_1-2" data-name="Calque 1"><path class="cls-1" d="M208 88a23.89 23.89 0 0 0-24-24v.2A23.9 23.9 0 0 1 208 88zm40 20.6c.9.5 1.8 1.2 2.7 1.7-.9-.6-1.8-1.2-2.7-1.7zm-36.4 121.6L216 208l-4.4 22.2L208 248l1.8-8.8 1.8-9zM207 105.1a.37.37 0 0 0-.1-.3c.1.1.1.1.1.3zM37.3 72.3c-.6.4-1.1.7-1.6 1.1a49.51 49.51 0 0 0-19.2 31.5 49.54 49.54 0 0 1 20.8-32.6zM64 64a47.18 47.18 0 0 0-26.7 8.3c.4-.3.8-.5 1.2-.8A47.36 47.36 0 0 1 64 64zm200 72.1a30.33 30.33 0 0 1-1.8 10.4 29.52 29.52 0 0 0 1.8-10.4zm19.9-39.6a14.1 14.1 0 0 1 4.1-.7 15.81 15.81 0 0 1 9.1 2.8 15 15 0 0 1 4.9 5.4 16.05 16.05 0 0 0-28 0 10.59 10.59 0 0 1 1-1.2 16 16 0 0 1 8.9-6.3zM264 136.2zm-11.6 94l1.8 9 1.8 8.8-3.6-17.8L248 208l4.4 22.2zM274 104c-.3.6-.6 1.1-.8 1.6a2.19 2.19 0 0 1 .3-.5 3.7 3.7 0 0 0 .5-1.1zm65.5-14.9L328 81.6l4 2.7 7.4 4.8 22.7 14.9-6-4-16.6-10.9zM198.6 104a37.63 37.63 0 0 1 1.4 7.6 27.27 27.27 0 0 0-1.4-7.6zm-.4-.9a23.05 23.05 0 0 0-9.7-11.4 24.41 24.41 0 0 1 9.7 11.4zm-5.1-17.6c.8.6 1.7 1.2 2.5 1.8a32.76 32.76 0 0 1 11.2 16.7 32.59 32.59 0 0 0-13.7-18.5zm6.9 50.6a10.87 10.87 0 0 1 .1-1.8v-.1a32.56 32.56 0 0 1 10.6-22.2 32.69 32.69 0 0 0-10.7 24.1zm53.2-24.1c-.8-.5-1.6-1.1-2.5-1.7.1.1.2.2.3.2a21.65 21.65 0 0 0 2.2 1.5zm-61.6-3.6a13.61 13.61 0 0 1 .5 3.6c0-3-.7-5-2.1-8a13.36 13.36 0 0 1 .7 1.8 11.42 11.42 0 0 1 .9 2.6zm15.2-4.4v.3h1.1a.37.37 0 0 0 .1-.3zm34.6 73.9l-.2-3 2.2 33.1-2-30.1zm-139.7-73.4l-.1.5.2-.5v-.1l-.1.1zm0-.5v.4l.1-.1h.1v-.2l-.2-.1zm98.3 32.2a31.85 31.85 0 0 0 20.9 30h-.1a32 32 0 0 1-20.8-30zm-52.7-37.9a.35.35 0 0 1 .1-.2.35.35 0 0 1-.1.2z"/><path class="cls-1" d="M203.3 150.3a32.12 32.12 0 0 1-3.3-14.1 32.63 32.63 0 0 1 10.8-24.2 32.25 32.25 0 0 0-10.7 22.2v.1c0 .6-.1 1.2-.1 1.8v.1a31.8 31.8 0 0 0 3.3 14.1zM88.8 36.5a21.36 21.36 0 0 0-.6 3.5 19.68 19.68 0 0 1 .6-3.5zM280 24a40.16 40.16 0 0 0-40.2 40A40.22 40.22 0 0 1 280 24zm-38.1 11.5c.8-1 1.6-2 2.5-3-.9 1-1.7 2-2.5 3a50.53 50.53 0 0 0-5.9 10 51.73 51.73 0 0 0-3.3 11 51.73 51.73 0 0 1 3.3-11 55.89 55.89 0 0 1 5.9-10zM280 49a39.59 39.59 0 0 0-28.2 11.2C259 53 269 48 280.1 48a40.12 40.12 0 0 0-40 40 39.84 39.84 0 0 1 11.7-28.2A39.75 39.75 0 0 0 240.2 88a38.58 38.58 0 0 1 11.6-27.7A39.67 39.67 0 0 1 280 49zm-96-1c22 1 39.9 18 39.9 40a41.48 41.48 0 0 0-1.9-12.2c-5.2-15.8-20.2-27-38-27.8zm71.7 56c0 .1.1.2.1.3h1.4v-.3zM96 23.9a26.41 26.41 0 0 1 18.6-7.9A26.41 26.41 0 0 0 96 23.9zm-2.3 2.6c.2-.3.4-.5.6-.8a29.19 29.19 0 0 0-5.1 9.1 25.72 25.72 0 0 1 4.5-8.3zm187-10.5a51.45 51.45 0 0 0-9.7 1.1 5.73 5.73 0 0 0-1.4.4c.5-.1 1-.3 1.4-.4a51.45 51.45 0 0 1 9.7-1.1zm94.2 16.9a23.3 23.3 0 0 1 1.1 7A23.84 23.84 0 0 0 352.4 16a23.73 23.73 0 0 1 22.5 16.9zm-117.7 71.5zm-49-16.4a23.58 23.58 0 0 0-5.9-15.6A23.79 23.79 0 0 1 208 88zM48 112l24-15.6v-.1L48 112zm336-30.4v.1l34.4 23.3h29.1v-1h-29.1zM362.4 104h-.2l.2 1H384v-1h-21.6zM288 80.1c-14.8 0-27.2 10.9-30.8 23.9 3.6-13 16-23.8 30.8-23.9S315.3 91 318.8 104c-3.5-13-16-23.9-30.8-23.9zm40 1.6l4 2.6-4-2.7v.1zM208 248l1.8-8.8-1.8 8.8zm2.3 0l-1.6 22.2 1.6-22.2zm13.8-184a37.85 37.85 0 0 0-2.5-14 40 40 0 0 1 2.5 14zm7.9 48.1a24.16 24.16 0 0 0-24.2 24.2 24.35 24.35 0 0 1 24.2-24.2zm-24.2 24.2a24.16 24.16 0 0 0 24.2 24.2 24.22 24.22 0 0 1-24.2-24.2zm49.1 156.1l-3.2-44.4 3.2 44.4zm7.1-156.2a30.33 30.33 0 0 1-1.8 10.4 32.29 32.29 0 0 1-19.2 19.7 32 32 0 0 0 21-30.1zM256 248l-1.8-8.8 1.8 8.8zm54.6-144h-.1a30.58 30.58 0 0 1 1.4 8h.2a27.49 27.49 0 0 0-1.5-8zm-119.9 1.8a16.14 16.14 0 0 1 .9 2.6 11.42 11.42 0 0 0-.9-2.6zM176 95.9a15.66 15.66 0 0 1 13.9 8.1h.1a16.05 16.05 0 0 0-28 0h.1a15.66 15.66 0 0 1 13.9-8.1zM159.5 85a33.11 33.11 0 0 0-12.1 13.1.35.35 0 0 1-.1.2 28 28 0 0 0-2.2 5.7h.1a33.05 33.05 0 0 1 14.3-19zM216 99.9a38.9 38.9 0 0 1 16-3.4v-.1a37.43 37.43 0 0 0-16 3.5z"/><path class="cls-1" d="M220.8 166.2a32.45 32.45 0 0 1-17.5-15.9 31.48 31.48 0 0 1-3.3-14.1 32 32 0 0 0 20.8 30zm76.3-67.6a17 17 0 0 1 4.9 5.4h.1a17.27 17.27 0 0 0-5-5.4zm-13.2-2.1a16.52 16.52 0 0 0-8.9 6.2 19.37 19.37 0 0 1 8.9-6.2zm-10.4 8.6a2.19 2.19 0 0 1-.3.5c-.3.8-.6 1.5-.8 2.2.3-.8.7-1.7 1.1-2.7zm-74.8-1.1a31.06 31.06 0 0 1 1.3 7.6v.4h.1a30.58 30.58 0 0 0-1.4-8zm41.4-16h.1a39.75 39.75 0 0 1 11.6-28.2A39.84 39.84 0 0 0 240.1 88zm31.8 24h-.1a16.2 16.2 0 0 0 16.2 16.2 16.11 16.11 0 0 1-16.1-16.2zM96 23.9c-.6.6-1.1 1.2-1.7 1.8a14.48 14.48 0 0 1 1.7-1.8zm-6.7 10.9a10.93 10.93 0 0 0-.5 1.7 8.45 8.45 0 0 1 .5-1.7zM243.5 208l-2.1-30.1 2 30.1h.1z"/><path class="cls-2" d="M215.4 282H232v6h17.1l-2.3-31H232v-9h-14.3l-2.3 34zm-5.5 79H240v7h14.6l-2.2-32H224v-8h-11.8l-2.3 33zm31.3-186.1a40 40 0 0 1-9.2 1.3 39.94 39.94 0 0 0 9.2-1.1 39 39 0 0 1-18.4 0L221 201h11v7h11.4z"/><path class="cls-2" d="M232 176.2a39.29 39.29 0 0 0 9.2-1.1 39.94 39.94 0 0 1-9.2 1.1zM200.4 496h63.2l-4.5-64H224v-8h-18.5l-5.1 72z"/><path class="cls-3" d="M240 377h-31.2l-3.3 47H224v-7h34l-3.4-49H240v9zm-8-80h-17.7l-2.1 31H224v-8h27.3l-2.2-32H232v9zm-12.1-80l-2.2 31H232v-7h13.7l-2.2-33H232v9h-12.1z"/><path class="cls-4" d="M223.9 87.9a40.31 40.31 0 0 0-1.9-12.1 40.47 40.47 0 0 1 1.9 12.2H216v11.8a38.9 38.9 0 0 1 16-3.4V64h-7.9a40 40 0 0 0-2.5-14 43.08 43.08 0 0 0-2.2-4.9A40.81 40.81 0 0 0 193.2 25c-.3-.1-.5-.1-.8-.2h-.1a38.37 38.37 0 0 0-8.3-.9h-72a16 16 0 0 0-16.2 16h-7.7c-.1 1-.1 2.1-.1 2.9v5.1h96a40.1 40.1 0 0 1 39.9 40zM88.1 40.4v-.2zm0 0v-.2z"/><path class="cls-5" d="M352 24h-72a40.22 40.22 0 0 0-40.2 40H232v32.4a38.9 38.9 0 0 1 16 3.4V88h-7.9a40.12 40.12 0 0 1 40-40H376v-8h-7.8A16 16 0 0 0 352 24z"/><path class="cls-4" d="M319 105h9v-1h-9zm57-1h8V81.6l34.4 22.4h29.1c-3.7-22-23.6-39.8-47.5-39.8V64h-24v40zm-120.1.4l.4.4a6.37 6.37 0 0 0 .7.2v-.1c0-.2.1-.4.1-.6l-1.2.1zm-.1-.4h1.4c3.6-13 16-23.9 30.8-23.9S315.3 91 318.8 104h9.2V81.6l11.5 7.5 16.7 10.9-16.6-11.1 22.7 15.1H376V64h-95.9a24.24 24.24 0 0 0-24.2 24H248v11.8c2.7 1.2 5.3 3.2 7.8 4.2z"/><path class="cls-5" d="M101.6 104.5l.1-.5H88V64H64a47.36 47.36 0 0 0-25.5 7.5A48.08 48.08 0 0 1 64 64.2a47.8 47.8 0 0 0-26.7 8.1A49.51 49.51 0 0 0 16.5 105h29.1l.1-.2 34.3-23V105h21.6v-.5zm-56 0l34.2-22.8zm0 0l34.2-22.8zm162.4-.1h-1.1c0 .2.1.4.1.6a2.23 2.23 0 0 0 1-.6z"/><path class="cls-5" d="M215.9 88H208a23.9 23.9 0 0 0-24-23.8V64H88v40h13.7l.2.1v-.1h-.1l34-22.6-33.9 22.6L136 81.7V104h9.1a35.42 35.42 0 0 1 2.2-5.7.35.35 0 0 1 .1-.2 32.56 32.56 0 0 1 14-14.2 30.42 30.42 0 0 1 31.7 1.6 33.25 33.25 0 0 1 13.7 18.5h1.5c2.4-1 4.7-3 7.7-4.2V88.4a.6.6 0 0 0-.1-.4zm.1.3V88zm0-.3z"/><path class="cls-5" d="M159.5 85a18.58 18.58 0 0 1 1.9-1.1 32.56 32.56 0 0 0-14 14.2A33.11 33.11 0 0 1 159.5 85zm-12.2 13.3a28 28 0 0 0-2.2 5.7 30.49 30.49 0 0 1 2.2-5.7zm59.6 6.1h1.1a.1.1 0 0 1 .1-.1l-1.2.1z"/><path class="cls-6" d="M192.1 112.1v-.1zm0 0v-.1h-32.3a16.15 16.15 0 1 0 32.3.1zm0-.1v.1-.1zm-2.1-7.7a10.09 10.09 0 0 1 .7 1.5c-.2-.6-.5-1.1-.7-1.8h-28c-1.4 3-2.2 5-2.2 8h32.3a16.71 16.71 0 0 0-2.1-7.7z"/><path class="cls-6" d="M192.1 112a19.82 19.82 0 0 0-.4-3.6 22 22 0 0 1 .4 3.6z"/><path class="cls-6" d="M191.6 108.4a13.38 13.38 0 0 0-.9-2.6c-.2-.5-.5-1-.7-1.5a16.71 16.71 0 0 1 2.1 7.7 14.87 14.87 0 0 0-.5-3.6zM176 95.9a15.66 15.66 0 0 0-13.9 8.1H190a15.93 15.93 0 0 0-14-8.1zm96 16.1a16.1 16.1 0 1 0 32.2 0H272zm2.1-8c0 .1-.1.1-.1.2a5.58 5.58 0 0 1-.5.8 16.12 16.12 0 0 0-1.6 6.9h32.2c0-3-.7-5-2.1-8h-27.9z"/><path class="cls-6" d="M274 104a9.74 9.74 0 0 0-.5 1.1 5.36 5.36 0 0 0 .5-1.1zm-1.8 4.9a14.16 14.16 0 0 0-.3 3.1 15.52 15.52 0 0 1 .3-3.1z"/><path class="cls-6" d="M274 104.2c0-.1.1-.1.1-.2h-.1c-.2.4-.3.7-.5 1.1.2-.3.3-.6.5-.9zm-.5.9c-.4 1-.8 1.9-1.1 2.8-.1.4-.2.7-.3 1.1a15.53 15.53 0 0 0-.3 3.1 17.17 17.17 0 0 1 1.7-7zm23.6-6.5a16.51 16.51 0 0 0-9.1-2.7 14 14 0 0 0-4.1.6 19.68 19.68 0 0 0-8.9 6.2 8.34 8.34 0 0 0-.8 1.2H302a17.74 17.74 0 0 0-4.9-5.3z"/><path class="cls-6" d="M274.1 104l.9-1.2a4.7 4.7 0 0 0-.9 1.2zm23-5.4a15.81 15.81 0 0 0-9.1-2.8 11.41 11.41 0 0 0-4.1.7 14 14 0 0 1 4.1-.6 16.51 16.51 0 0 1 9.1 2.7z"/><path class="cls-7" d="M232 112.1a24.2 24.2 0 1 0 24.2 24.2 24.35 24.35 0 0 0-24.2-24.2z"/><path class="cls-8" d="M96 23.8a26.32 26.32 0 0 1 18.6-7.8A26.15 26.15 0 0 0 96 23.8zM88.1 40a19.68 19.68 0 0 1 .6-3.5A19.72 19.72 0 0 0 88 40zm114.2-23.8h-.6c.2-.1.4 0 .6 0z"/><path class="cls-8" d="M89.2 34.8a27.32 27.32 0 0 1 5.1-9.1 26.27 26.27 0 0 1 20.3-9.7H199a36 36 0 0 1 9.3 1.3.9.9 0 0 0 .5.1c.1 0 .1 0 .2.1a32.88 32.88 0 0 1 13.4 8.1 32.88 32.88 0 0 0-13.4-8.1c-.1 0-.1 0-.2-.1a.9.9 0 0 0-.5-.1 35.89 35.89 0 0 0-5.7-1.1 34 34 0 0 1 19.8 9.6 33.25 33.25 0 0 1 9.6 23.6v12.4a25.21 25.21 0 0 1 .6-4.8c0-.1.1-.2.1-.4a51.73 51.73 0 0 1 3.3-11 49.67 49.67 0 0 1 5.9-10c.8-1 1.6-2 2.5-3a57.34 57.34 0 0 1 5.6-5.4 49.71 49.71 0 0 1 11.9-7.2 32.93 32.93 0 0 1 4.4-1.6c1-.3 2.1-.6 3.2-.9.5-.1 1-.3 1.4-.4a51.45 51.45 0 0 1 9.7-1.1h71.7a23.84 23.84 0 0 1 23.6 23.9v.1h7.9c0-17-14.3-32-31.9-32h-72a55.84 55.84 0 0 0-41 18.4V0h-16v24.7c-10-10-23.7-15.7-39-15.7h-72C94.3 9 80 23 80 40h7.9v-.1c.4-1.7.8-3.5 1.3-5.1z"/><path class="cls-8" d="M208.3 17.3a.9.9 0 0 0 .5.1.9.9 0 0 1-.5-.1zm-6-1.1h.2a33.84 33.84 0 0 1 5.7 1.1 31.68 31.68 0 0 0-9.3-1.3 24.37 24.37 0 0 1 2.7.1c.3 0 .5.1.7.1zM89.2 34.8a23.57 23.57 0 0 0-1.2 5.1v.1c.2-1.2.4-2.4.7-3.5a15.43 15.43 0 0 0 .5-1.7zM209 17.6a34 34 0 0 1 13.4 8.1 32.88 32.88 0 0 0-13.4-8.1zm-.2-.1c.1 0 .1 0 .2.1-.1-.1-.1-.1-.2-.1zM96 23.8a26.15 26.15 0 0 1 18.6-7.8 26.27 26.27 0 0 0-20.3 9.7 15.37 15.37 0 0 1 1.7-1.9zm-7.9 16.4v.2-.2zm144 24.1c-.1 0-.1.1 0 0zM93.7 26.5c.2-.3.4-.5.6-.8a5.54 5.54 0 0 0-.6.8zm-4.4 8.3a28.77 28.77 0 0 1 4.4-8.3 23.71 23.71 0 0 0-4.4 8.3z"/><path class="cls-8" d="M232 49.5a36.16 36.16 0 0 0-1.3-9.4.9.9 0 0 1-.1-.5c0-.1 0-.1-.1-.2a34 34 0 0 0-8.1-13.4 32.88 32.88 0 0 1 8.1 13.4c0 .1 0 .1.1.2a.9.9 0 0 1 .1.5c.2.8.4 1.6.6 2.5A33.49 33.49 0 0 0 198.9 16h-84.3A26.41 26.41 0 0 0 96 23.9a28.35 28.35 0 0 0-7.2 12.6 21.36 21.36 0 0 0-.6 3.5h7.7a16 16 0 0 1 16.2-16h72a40.25 40.25 0 0 1 40.2 40h7.8V49.5z"/><path class="cls-8" d="M231.3 42.8v.3c.1-.2 0-.2 0-.3zm-9.7 7.2a37.5 37.5 0 0 1 2.6 14 39.19 39.19 0 0 0-4.9-19 45.22 45.22 0 0 1 2.3 5zM94.3 25.7c-.2.3-.4.5-.6.8a28.77 28.77 0 0 0-4.4 8.3 10.93 10.93 0 0 0-.5 1.7A28.76 28.76 0 0 1 96 23.9a14.48 14.48 0 0 0-1.7 1.8z"/><path class="cls-8" d="M184 24a36.8 36.8 0 0 1 8.2.9h.1c.3.1.5.1.8.2a40.19 40.19 0 0 1 26.2 20.1 30.62 30.62 0 0 1 2.2 4.9 44.58 44.58 0 0 0-2.2-5A40.1 40.1 0 0 0 184 24zm47.3 18.6v.5a33.87 33.87 0 0 1 .6 6.4 33.85 33.85 0 0 0-9.6-23.6 32.9 32.9 0 0 0-19.8-9.6h-.8a26.2 26.2 0 0 0-2.8-.1 33 33 0 0 1 23.4 9.9 31.51 31.51 0 0 1 9 16.5zM199 16a24.37 24.37 0 0 1 2.7.1 24.37 24.37 0 0 0-2.7-.1zm3.6.2z"/><path class="cls-8" d="M193.1 25.1a40.5 40.5 0 0 1 26.2 20.1 39.88 39.88 0 0 0-26.2-20.1zm0 0c-.3-.1-.5-.1-.8-.2a2.35 2.35 0 0 1 .8.2zm-9.2-1.1a37.7 37.7 0 0 1 8.3.9 37 37 0 0 0-8.3-.9zm46.6 15.6c0-.1 0-.1-.1-.2.1.1.1.1.1.2zm-.1-.2a32.88 32.88 0 0 0-8.1-13.4 32.88 32.88 0 0 1 8.1 13.4zm.3.7c0-.2-.1-.3-.1-.5a.9.9 0 0 0 .1.5zm.6 2.7v-.2c-.2-.8-.4-1.7-.6-2.5a32.35 32.35 0 0 1 1.3 9.4 34.93 34.93 0 0 0-.6-6.5c0-.1-.1-.1-.1-.2zm0-.2z"/><path class="cls-8" d="M232 49.5v-.1a33.87 33.87 0 0 0-.6-6.4 34.93 34.93 0 0 1 .6 6.5zm144-9.6a23.64 23.64 0 0 0-23.6-23.6 23.5 23.5 0 0 1 22.5 16.6A23.83 23.83 0 0 0 352.4 16h-71.7a51.45 51.45 0 0 0-9.7 1.1 5.73 5.73 0 0 0-1.4.4c-1.1.3-2.1.7-3.2 1-1.5.5-3 1-4.4 1.6a50 50 0 0 0-17.6 12.5 36.12 36.12 0 0 0-2.5 3 52.6 52.6 0 0 0-5.9 10 46.54 46.54 0 0 0-3.3 11c0 .1-.1.2-.1.4a26.26 26.26 0 0 0-.6 4.8V64h7.8A40.16 40.16 0 0 1 280 24h72a16 16 0 0 1 16.2 16h7.8v-.1zM232.7 57a48.47 48.47 0 0 1 3.4-11.4 44.18 44.18 0 0 0-3.4 11.4zm9.2-21.5a44.94 44.94 0 0 1 8-8.3 52.21 52.21 0 0 0-8 8.3zm24.4-17c-1.5.5-3 1-4.4 1.6a32.93 32.93 0 0 1 4.4-1.6 39 39 0 0 1 4.6-1.2 39 39 0 0 0-4.6 1.2z"/><path class="cls-8" d="M249.9 27.2a48.44 48.44 0 0 1 12-7.2c1.4-.6 2.9-1.1 4.4-1.6 1-.3 2.1-.7 3.2-1l-3.2.9c-1.5.5-3 1-4.4 1.6a52 52 0 0 0-12 7.3 46.81 46.81 0 0 0-5.6 5.3c1.8-1.8 3.6-3.6 5.6-5.3zm-17.2 29.4c0 .1-.1.2-.1.4a26.26 26.26 0 0 0-.6 4.8 25.21 25.21 0 0 1 .6-4.8c0-.2.1-.3.1-.4zM376 39.9a23.3 23.3 0 0 0-1.1-7 23.3 23.3 0 0 1 1.1 7z"/><path class="cls-8" d="M352.4 16.3A23.64 23.64 0 0 1 376 39.9a23.75 23.75 0 0 0-23.6-23.6zM232 61.8zm16 46.8V104h-15.9a32 32 0 0 1 15.9 4.6zm-31.9-4.6h-.1v4.5c4-2.3 8.6-3.5 13.5-4.5zM200 328.2v-.2.2z"/><path class="cls-8" d="M400 49h-24v7h24c30.9 0 56 26 56 56h-40l-24-15.6V112h-32l-12-8h-12v8h-24c0 14-10.7 24-24 24s-24-10-24-24h-10.7a32.64 32.64 0 0 1 10.7 24v.2a32 32 0 0 1-22.1 30.4 33.76 33.76 0 0 1-6.3 1.4H248l4.4 62.2L256 248h-2.3l3.2 44.4L264 328h-4.6l2.9 40h1.7l8 56h-5.7l5.7 80h-80l5.7-80H192l8-56h1.7l2.9-40h-4.5l-.1.4.1-.4 7.1-35.6 3.2-44.4H208l3.6-17.8L216 168h12.5a32.39 32.39 0 0 1-7.6-1.8 31.85 31.85 0 0 1-20.9-30v-.2a32.86 32.86 0 0 1 10.7-24.1H200v.1a14.77 14.77 0 0 1-.1 2.1 23.38 23.38 0 0 1-17.1 20.9 24.82 24.82 0 0 1-6.8 1c-13.3 0-24-10-24-24h-24v-8h-12l-12 8H72V96.4L48 112H8a56 56 0 0 1 56-56h24v-7H64C28.8 49 0 77.1 0 112.4v7.6h50.3l13.7-8.9v8.9h42.3l13.7-9v9h25.1a31.74 31.74 0 0 0 30.9 24.1 31.1 31.1 0 0 0 16.3-4.4 39.51 39.51 0 0 0 15.3 28L184.7 496H145v16h175v-16h-40.6l-22.9-328.4a39.35 39.35 0 0 0 15.3-28 31.1 31.1 0 0 0 16.3 4.4 31.74 31.74 0 0 0 30.9-24.1h25v-9l13.8 9H400v-9l13.8 9H464v-7.7c-.1-35.1-28.8-63.2-64-63.2zM210.3 248l-3.2 44.4 1.6-22.2 1.6-22.2z"/><path class="cls-8" d="M243.1 166.2c-.4.1-.8.3-1.2.4a31.76 31.76 0 0 0 22.1-30.4 31.85 31.85 0 0 1-20.9 30zM200 112.1a14.77 14.77 0 0 1-.1 2.1 14.77 14.77 0 0 0 .1-2.1zm-48-.1c0 14 10.7 24 24 24a22.4 22.4 0 0 0 6.8-1 24.83 24.83 0 0 1-6.8.9c-13.3.1-24-9.9-24-23.9zm63.4 170l2.3-34h-7.4l-1.6 22.2-1.6 22.1.9-4.3h24v-6h-16.6z"/><path class="cls-8" d="M208.7 270.2l-1.6 22.2v-.1l1.6-22.1zM228.5 168H216l-4.4 62.2L216 208h16v-7h-11l1.8-25.9a37.38 37.38 0 0 0 18.4-.1l.2 3-.2-3.1 2.3 33.2h4.5l4.4 22.2L248 168h-12.5c-1.2.1-2.3.2-3.5.2s-2.4-.1-3.5-.2z"/><path class="cls-8" d="M241.2 174.8l.2 3.1 2.1 30.1-2.3-33.2zm-9.2 1.4a40 40 0 0 0 9.2-1.3 45.35 45.35 0 0 1-9.2 1.3 45.43 45.43 0 0 1-9.2-1.1L221 201l1.8-25.9a39.94 39.94 0 0 0 9.2 1.1z"/><path class="cls-8" d="M232 176.2a39.94 39.94 0 0 1-9.2-1.1 39.29 39.29 0 0 0 9.2 1.1zm-27.4 152.2l-2.9 39.6H240v-7h-30.1l2.3-33h-7.6l-2.9 40 2.9-39.6zM224 432h35.1l4.5 64h-63.2l5.1-72h-7.8l-5.7 80h80l-5.7-80H224v8zm8-184v9h14.8l2.3 31h6.9l.9 4.4-3.2-44.4H232zm-8 88h28.4l2.2 32h7.7l-2.9-40H224v8zm-24 32l-8 56h5.7l4-56H200zm72 56l-8-56h-1.7l4 56h5.7z"/><path class="cls-8" d="M258 417h-34v7h42.3l-4-56h-7.7l3.4 49zm-49.2-40H240v-9h-38.3v.4-.4l-4 56h7.8l3.3-47zm55.2-49l-7.1-35.6 2.5 35.6h4.6zm-56.9-35.4L200 328h.1l7-35v-.4z"/><path class="cls-8" d="M200.1 328h4.5l2.5-35-7 35zm7-35.6L200 328l7.1-35.4v-.2z"/><path class="cls-8" d="M214.3 297H232v-9h-24l-.9 4.3v.7-.2.2l-2.5 35h7.6l2.1-31zm-7.2-4.5v-.2.3-.1zm42-4.5l2.2 32H224v8h35.4l-2.5-35.6-.9-4.4h-6.9zm-37.5-57.4L208 248h2.3l1.3-17.4zm-1.8 8.6l1.8-8.8v-.2l-1.8 9z"/><path class="cls-8" d="M211.6 230.4l-1.8 8.8-1.8 8.8 3.6-17.4v-.2zm42.1 17.6h2.3l-3.6-17.4 1.3 17.4zm.5-8.8l-1.8-9v.2l1.8 8.8z"/><path class="cls-8" d="M252.4 230.4v.2L256 248l-1.8-8.8-1.8-8.8zm-40.8 0v-.1l4.4-22-4.4 22.1v.2l-1.3 17.4h7.4l2.2-31H232v-9h-16l-4.4 22.2v.2z"/><path class="cls-8" d="M216 208.3l-4.4 22v.3-.2l4.4-22.1zm16 32.7v7h21.7l-1.3-17.4v-.2l-4.4-22.3 4.4 22.2v.1-.2L248 208h-4.5l2.2 33H232z"/><path class="cls-8" d="M248 208.1l4.4 22.3v.2-.3l-4.4-22.2zM229.5 104h2.5v-7.5a38.9 38.9 0 0 0-16 3.4v4.1h13.5zM116 104h12v-7.7l-12 7.7zm68-48a32.24 32.24 0 0 1 30.4 22.1A29.78 29.78 0 0 1 216 88h7.9c0-22-17.9-39-39.9-40H88v8z"/><path class="cls-8" d="M212.2 73.2A32 32 0 0 0 184 56a32.25 32.25 0 0 1 28.2 17.2z"/><path class="cls-8" d="M212.2 73.2a42.48 42.48 0 0 1 2.1 4.9A32 32 0 0 0 183.9 56a31.91 31.91 0 0 1 28.3 17.2z"/><path class="cls-8" d="M222 75.8A40 40 0 0 0 184 48c17.8.8 32.8 12 38 27.8z"/><path class="cls-8" d="M222 75.8a39.82 39.82 0 0 1 1.9 12.1A40 40 0 0 0 184 48a40 40 0 0 1 38 27.8zM336 104h12l-12-7.7v7.7zm-104-7.5v7.5h16v-4.1a38.9 38.9 0 0 0-16-3.4z"/><path class="cls-8" d="M248 99.9a37.43 37.43 0 0 0-16-3.5v.1a38.9 38.9 0 0 1 16 3.4zm3.8-39.6A38.58 38.58 0 0 0 240.2 88h7.8a32.44 32.44 0 0 1 32.1-32H376v-7h-96a39.67 39.67 0 0 0-28.2 11.3z"/><path class="cls-8" d="M251.8 60.2A39.59 39.59 0 0 1 280 49h96v-1h-95.9c-11.1 0-21.1 5-28.3 12.2zM376 56v8h24c23.9 0 43.7 18 47.5 40v1h-29.1L384 81.7V105h-21.6l-.2-1H348l12 8h32V96.4l24 15.6h40c0-30-25.1-56-56-56z"/><path class="cls-8" d="M447.5 104c-3.8-22-23.6-40-47.5-40v.2a48.57 48.57 0 0 1 47.5 39.8zM328 104v1h-9v-1h-8.3a30.58 30.58 0 0 1 1.4 8H336v-8h-8zm-70.8 0v.6a1.42 1.42 0 0 1-.2.6 5.55 5.55 0 0 1-.8-.6s0-.2-.1-.2-.3-.5-.4-.5h.1s-.1.1-.1 0H248v4.6a17.77 17.77 0 0 1 2.7 1.7c.9.6 1.7 1.2 2.5 1.7H264a30.58 30.58 0 0 1 1.4-8h-8.2z"/><path class="cls-8" d="M257 105a1.85 1.85 0 0 0-.7-.2 3 3 0 0 0 .7.5v-.3zm-1.2-.7c.1.1.1 0 0 0zm.1.1c.1.1.1.2.2.2l.1.1.1.1c-.1-.2-.3-.3-.4-.4z"/><path class="cls-8" d="M256.2 104.7c.3.2.5.4.8.6-.2-.2-.5-.3-.7-.5a.1.1 0 0 0-.1-.1zm-.3-.3l-.1-.1h-.1c.1.1.3.2.4.3-.1 0-.1-.1-.2-.2zm1.1.5c0-.1.1-.1.1-.2v-.4a1.27 1.27 0 0 1-.1.6z"/><path class="cls-8" d="M257 105.3c.1-.2.1-.4.2-.6 0 .1-.1.1-.1.2a.6.6 0 0 0-.1.4zM248.1 88h7.7A24.31 24.31 0 0 1 280 64h96v-8h-95.9c-17.7 0-32 15-32 32z"/><path class="cls-8" d="M280.1 64a24.33 24.33 0 0 0-24.3 24h.1a24.24 24.24 0 0 1 24.2-24zm95.9-7.7h.1v.1h-.1z"/><path class="cls-8" d="M280.1 56A32.44 32.44 0 0 0 248 88h.1c0-17 14.3-32 32-32zm95.9.2h.1v.1h-.1zm-88 24c-14.8 0-27.2 10.8-30.8 23.8h8.1a24 24 0 0 1 45.2 0h8.2c-3.4-13-15.9-23.8-30.7-23.8zM248 104h7.7c-2.4-1-5-3-7.7-4.2v4.2zm91.4-14.9l-7.4-4.8 7.4 4.9-11.4-7.5V104h8v-7.7l12 7.7h14.1l-22.7-14.9z"/><path class="cls-8" d="M339.4 89.2l-7.4-4.9-4-2.6 11.4 7.5zm22.7 14.8h.1l-6.1-4 6 4zm-6-4l6.1 4-22.7-15.1 16.6 11.1zM216 108.6V104h-7.8c0 .1-.1 0-.1 0h.2c-.4 1-.7.8-1.1 1.1v.1a.35.35 0 0 0-.1-.2v.2-.1a.75.75 0 0 0-.1-.5c0-.1-.1.4-.1-.6H199a30.58 30.58 0 0 1 1.4 8h10.7a58.29 58.29 0 0 1 4.9-3.4z"/><path class="cls-8" d="M208 104.4a2.13 2.13 0 0 1-.9.6.37.37 0 0 0 .1.3 8.7 8.7 0 0 1 1.1-.9h-.3z"/><path class="cls-8" d="M208.2 104.4l.1-.1h-.3a.1.1 0 0 1-.1.1z"/><path class="cls-8" d="M207.1 105.3c.4-.3.7-.6 1.1-.9a8.7 8.7 0 0 0-1.1.9zm-.2-.9v.4c0 .1.1.2.1.3 0-.3-.1-.5-.1-.7z"/><path class="cls-8" d="M206.8 104.4c0 .1.1.2.1.4a.76.76 0 0 0-.1-.4zm.2.6c0 .1.1.2.1.3 0-.1-.1-.2-.1-.3zm1.2-.6l.1-.1-.1.1zm0 0l.1-.1-.1.1zm-1.3-.1c-.1 0-.1.1 0 0zm9.1 0h.1v.1h-.1zm-114.1-.4l-.1.3v.2l-.2.6H80V81.7L45.6 105H16.5a49.26 49.26 0 0 1 19.2-31.5 48.15 48.15 0 0 0-19.2 31 48.12 48.12 0 0 1 20.8-32.2A47.42 47.42 0 0 1 64 64h24v-8H64a56 56 0 0 0-56 56h40l24-15.7V112h32l12-8h-13.9z"/><path class="cls-8" d="M45.6 105L80 81.7l-34.3 23.1-.1.2zm56.3-.9l.2-.1h-.2v.1zm-.1.3h-.1v.1l.1-.1zm-.1.1v-.1l-.1.1h.1zm-63.2-33c-.4.3-.8.5-1.2.8s-1.1.7-1.6 1.1a15.26 15.26 0 0 1 1.6-1.1 8.34 8.34 0 0 0 1.2-.8z"/><path class="cls-8" d="M64 64.2a48.08 48.08 0 0 0-25.5 7.3c-.4.3-.8.5-1.2.8A47.8 47.8 0 0 1 64 64.2zm-47.5 40.3a48.15 48.15 0 0 1 19.2-31 15.26 15.26 0 0 1 1.6-1.1 47.69 47.69 0 0 0-20.8 32.1zm85.2-.1h.1l.1-.1h-.1l-.1.1zm.2-.1l-.1.1.1-.1z"/><path class="cls-8" d="M64 56a56 56 0 0 0-56 56 56 56 0 0 1 56-56zm81.2 48l-.2.4v.6h-9v-1h-8v8h24a30.58 30.58 0 0 1 1.4-8zm-9.3.4h-.1v-.1l.1.1zm9.3 0z"/><path class="cls-8" d="M145.1 104c0 .1 0 .1-.1.2v.2l.2-.4zm0 0l-.1.2c0-.1 0-.1.1-.2zm-.1 0h-9v1h9v-1zm-9.2.3h.1v.1h-.1zm72.5-.3h7.7v-4.1c-3 1.2-5.3 3.1-7.7 4.1z"/><path class="cls-8" d="M216 99.8c-3 1.2-5.3 3.2-7.7 4.2 2.4-1 4.7-2.9 7.7-4.2zm0-11.8a33.09 33.09 0 0 0-1.6-9.9A32.58 32.58 0 0 1 216 88z"/><path class="cls-8" d="M184 64a24.37 24.37 0 0 1 18.3 8.4 24.05 24.05 0 0 0-18.3-8.6A24.48 24.48 0 0 1 208.2 88h7.8a33.75 33.75 0 0 0-3.7-14.8A32.18 32.18 0 0 0 184.1 56h-96v8H184z"/><path class="cls-8" d="M216 88a32.58 32.58 0 0 0-1.6-9.9 42.48 42.48 0 0 0-2.1-4.9A33.75 33.75 0 0 1 216 88zm-32-24.2a24.05 24.05 0 0 1 18.3 8.6 23.58 23.58 0 0 1 5.9 15.6A24.48 24.48 0 0 0 184 63.8zm7.2 20.6a31.31 31.31 0 0 0-15.2-4v.1l-.1.1a31.59 31.59 0 0 0-30.6 23.6h8.1a24.47 24.47 0 0 1 22.6-16 23.82 23.82 0 0 1 12.6 3.7 24.49 24.49 0 0 1 9.7 11.4 3.55 3.55 0 0 0 .4.9h8a32.63 32.63 0 0 0-15.5-19.8z"/><path class="cls-8" d="M175.9 80.3a31.79 31.79 0 0 0-13.1 2.9 31.56 31.56 0 0 1 5.9-2 43 43 0 0 1 7.2-.9zm15.3 4.1a32.35 32.35 0 0 1 4.3 2.9c-.8-.6-1.6-1.2-2.5-1.8a29.19 29.19 0 0 0-10.4-4.4 27.93 27.93 0 0 1 8.6 3.3z"/><path class="cls-8" d="M168.7 81.2a33.59 33.59 0 0 1 7.1-.8.1.1 0 0 0 .1-.1 43 43 0 0 0-7.2.9zm0 0a34.06 34.06 0 0 0-5.9 2 26.85 26.85 0 0 0-3.3 1.8 33.05 33.05 0 0 0-14.3 19 33 33 0 0 1 23.5-22.8z"/><path class="cls-8" d="M175.9 80.1V80v.3a32.16 32.16 0 0 1 17.2 5.2 31.58 31.58 0 0 0-17.2-5.4 32.56 32.56 0 0 0-14.5 3.8 10 10 0 0 0 1.4-.8 31.86 31.86 0 0 1 13.1-3z"/><path class="cls-8" d="M162.8 83.2a9.14 9.14 0 0 0-1.4.7c-.7.4-1.3.7-1.9 1.1zm32.8 4.1a32.58 32.58 0 0 1 11.1 16.7h.1a32.76 32.76 0 0 0-11.2-16.7z"/><path class="cls-8" d="M195.6 87.3a29.48 29.48 0 0 0-4.3-2.9 32.64 32.64 0 0 1 15.4 19.6 33.21 33.21 0 0 0-11.1-16.7zm-19.6-7a30.33 30.33 0 0 1 15.2 4.1 31.29 31.29 0 0 0-8.5-3.3 29.27 29.27 0 0 0-6.7-.8z"/><path class="cls-8" d="M182.7 81a30.15 30.15 0 0 0-6.8-.8v.1a36.39 36.39 0 0 1 6.8.7zm24 23.3l.1.1v-.1zM136 104V81.7L102.1 104H116l12-7.7v7.7h8z"/><path class="cls-8" d="M102.1 104L136 81.7 101.9 104h.2zm-.3 0h.1l33.9-22.6-34 22.6zm90.4 8a16.2 16.2 0 0 1-32.4 0H152c0 14 10.7 24 24 24a25.91 25.91 0 0 0 6.8-.9 23.8 23.8 0 0 0 17.1-20.9 15.48 15.48 0 0 0 .1-2.2h-7.8zm-32.4.3a16.26 16.26 0 0 0 16.2 16.2 16.2 16.2 0 0 1-16.2-16.2z"/><path class="cls-8" d="M159.8 112.3a16.2 16.2 0 0 0 16.2 16.2 16.26 16.26 0 0 1-16.2-16.2zm23 22.8a23.26 23.26 0 0 0 17.1-20.9 23.94 23.94 0 0 1-17.1 20.9zm9.3-23a16.09 16.09 0 0 1-16.1 16.1 16.2 16.2 0 0 0 16.2-16.2h-.1zm0 .2v-.2zM162 104h-8.6a30.58 30.58 0 0 0-1.4 8h7.8c0-3 .8-5 2.2-8zm-8.6.4z"/><path class="cls-8" d="M198.6 104H190c1.4 3 2.1 5 2.1 8h7.9v-.4a31.72 31.72 0 0 0-1.4-7.6zm0 .4zm1.4 7.6zm-24-16.2a15.9 15.9 0 0 1 14 8.2h8.6a24.85 24.85 0 0 0-15.4-14.8 23.68 23.68 0 0 0-20 2.7 24.82 24.82 0 0 0-9.7 12h8.6a15.74 15.74 0 0 1 13.9-8.1z"/><path class="cls-8" d="M163.1 92a23.68 23.68 0 0 1 20-2.7 23.68 23.68 0 0 0-20 2.7zm35.5 12l-.3-.9a23.94 23.94 0 0 0-9.7-11.4 25 25 0 0 0-5.5-2.5 25 25 0 0 1 15.5 14.8zm-35.5-12a24.27 24.27 0 0 0-9.7 12 24.82 24.82 0 0 1 9.7-12z"/><path class="cls-8" d="M163.1 92a23.35 23.35 0 0 1 20-2.8 22.72 22.72 0 0 1 5.5 2.5A23.82 23.82 0 0 0 176 88a24.47 24.47 0 0 0-22.6 16 24.37 24.37 0 0 1 9.7-12zm35.5 12a3.55 3.55 0 0 0-.4-.9 3.55 3.55 0 0 1 .4.9zm105.6 8a16.2 16.2 0 1 1-32.4 0H264c0 14 10.7 24 24 24s24-10 24-24h-7.8zM288 128.5a16.26 16.26 0 0 0 16.2-16.2 16.2 16.2 0 0 1-16.2 16.2z"/><path class="cls-8" d="M288 128.5a16.2 16.2 0 0 0 16.2-16.2 16.26 16.26 0 0 1-16.2 16.2zM271.9 112a15.82 15.82 0 0 1 .3-3.2 19.66 19.66 0 0 1 1-3.2c.2-.5.5-1.1.7-1.6h-8.6a30.58 30.58 0 0 0-1.4 8h8zm-6.5-7.6z"/><path class="cls-8" d="M273.3 105.6a11.91 11.91 0 0 0-1 3.2c.1-.3.1-.6.2-.9a12.67 12.67 0 0 1 .8-2.3zm-1.1 3.2a15.82 15.82 0 0 0-.3 3.2 15.53 15.53 0 0 1 .3-3.1z"/><path class="cls-8" d="M272.5 107.9a2.92 2.92 0 0 0-.2.9v.1a3.55 3.55 0 0 1 .2-1zm31.7 4.1h7.7a30.58 30.58 0 0 0-1.4-8h-8.4c1.3 3 2.1 5 2.1 8z"/><path class="cls-8" d="M302 104c1.4 3 2.1 5 2.1 8h.1c0-3-.8-5-2.2-8zm-14-15.9a24.48 24.48 0 0 0-22.6 15.9h8.6a16.05 16.05 0 0 1 28 0h8.6A24.48 24.48 0 0 0 288 88.1z"/><path class="cls-8" d="M288 88a24.47 24.47 0 0 0-22.6 16 24 24 0 0 1 45.2 0A24.36 24.36 0 0 0 288 88zm-67.2 78.2h.1a31.32 31.32 0 0 0 8.7 1.8 31.28 31.28 0 0 1-8.8-1.8zm11.2-62c0 .1.1.1 0 0a33 33 0 0 1 16 4.4 32 32 0 0 0-15.9-4.6s-.1.3-.1.2z"/><path class="cls-8" d="M232 104c-1 0-1.7-.1-2.5-.1a45.81 45.81 0 0 0-13.5 4.6.1.1 0 0 1-.1.1h.1v3.5h-5.2a32.63 32.63 0 0 0-10.8 24.2 31.48 31.48 0 0 0 3.3 14.1 32.06 32.06 0 0 0 58.9-3.7 32.93 32.93 0 0 0 1.8-10.4 32.42 32.42 0 0 0-10.8-24.1h-.4a1.38 1.38 0 0 0 .4.3 1.38 1.38 0 0 0-.4-.3H248v-3.4a30.37 30.37 0 0 0-16-4.8zm24.2 32.3a24.2 24.2 0 1 1-24.2-24.2 24.16 24.16 0 0 1 24.2 24.2z"/><path class="cls-8" d="M232 168h2.4a31.46 31.46 0 0 0 27.9-21.5A32 32 0 0 1 232 168zm-28.7-17.7a32.12 32.12 0 0 0 17.5 15.9 28.73 28.73 0 0 0 8.8 1.8h2.4a32 32 0 0 1-28.7-17.7z"/><path class="cls-8" d="M220.9 166.2a31.25 31.25 0 0 0 7.6 1.8h1.1a30.59 30.59 0 0 1-8.7-1.8zm14.6 1.8a26.22 26.22 0 0 0 6.3-1.4 36.83 36.83 0 0 1-7.5 1.4z"/><path class="cls-8" d="M234.4 168a31.09 31.09 0 0 0 7.5-1.4c.4-.1.8-.3 1.2-.4a32.09 32.09 0 0 1-8.7 1.8zm-2.4.1c-.8 0-1.6-.1-2.4-.1h-1.1c1.2.1 2.3.2 3.5.2s2.4-.1 3.5-.2h-1.1c-.8 0-1.6.1-2.4.1z"/><path class="cls-8" d="M229.6 168c.8 0 1.6.1 2.4.1s1.6-.1 2.4-.1h-4.8zm2.5-64l-.1.2c0 .1.1-.2.1-.2zm24.1 32.3a24.16 24.16 0 0 0-24.2-24.2 24.35 24.35 0 0 1 24.2 24.2zM232 160.5a24.16 24.16 0 0 0 24.2-24.2 24.22 24.22 0 0 1-24.2 24.2zm16-51.9a31.79 31.79 0 0 0-15.9-4.3 32.85 32.85 0 0 1 15.9 4.3zm-47.9 25.6a32.67 32.67 0 0 1 10.7-22.2h-.1a32.56 32.56 0 0 0-10.6 22.2zm0 .1a10.87 10.87 0 0 1-.1 1.8 10.28 10.28 0 0 1 .1-1.8zm63.9 1.8a32.69 32.69 0 0 0-10.7-24.1h-.1a32.42 32.42 0 0 1 10.8 24.1zm0 0v.1-.1z"/><path class="cls-8" d="M264 136.1a32.69 32.69 0 0 0-10.7-24.1 32.69 32.69 0 0 1 10.7 24.1z"/><path class="cls-8" d="M264 136.1a32.42 32.42 0 0 0-10.8-24.1 32.58 32.58 0 0 1 10.8 24.1zM229.5 104c.8 0 1.5.3 2.5.3v-.3h-2.5zm-13.5 4.7a.1.1 0 0 0 .1-.1v-.1c0 .1-.1.1-.1.2zm36.8 3.3h.4c-.7-.4-1.4-.9-2.2-1.4a8.62 8.62 0 0 1 1.8 1.4z"/><path class="cls-8" d="M252.8 112c-.7-.6-1.4-1.1-2.2-1.7s-1.8-1.2-2.7-1.7v3.4z"/><path class="cls-8" d="M251 110.6c-.1-.1-.2-.2-.3-.2-.9-.6-1.8-1.2-2.7-1.7.9.5 1.8 1.1 2.7 1.7.1 0 .2.1.3.2zm-3-2a17.77 17.77 0 0 1 2.7 1.7 17.77 17.77 0 0 0-2.7-1.7zm5.2 3.7a1.38 1.38 0 0 0-.4-.3 1.38 1.38 0 0 1 .4.3zm-2.5-2c.7.5 1.5 1.1 2.2 1.7a22 22 0 0 0-1.8-1.4 1.38 1.38 0 0 1-.4-.3zM216 112v-3.3c-1.9 1.1-3.5 2.3-5.1 3.3z"/><path class="cls-8" d="M216 108.7c-1.8 1-3.6 2.3-5.2 3.3h.1c1.6-1 3.2-2.3 5.1-3.3z"/></g></g></svg>