<svg id="Layer_1" xmlns="http://www.w3.org/2000/svg" viewBox="-143 145 512 512"><style>.st0{fill:#51aa5b}.st1{fill:#95e49c}.st2{fill:#b84b41}.st3{fill:#3f352f}</style><path class="st0" d="M312.3 594.2l-96.1-150.4h60.2l-92.3-131.9h49.7L113 157.3-7.8 311.9h49.7l-92.3 131.9H9.8l-96.1 150.4z"/><path transform="rotate(34.979 32.816 377.805)" class="st1" d="M25.2 334.4h15.2v86.8H25.2z"/><path class="st2" d="M92.7 594.2h40.6v55.2H92.7z"/><path transform="rotate(32.549 -2.207 519.023)" class="st1" d="M-9.8 465.8H5.4v106.4H-9.8z"/><path class="st3" d="M201.7 621.8h-15.2v20h-15.2v-30.1h-15.2v30.1h-15.2v-40h185.2l-96-150.5H291l-92.3-131.9h50.6L113 145-23.3 319.5h50.6L-65 451.4h60.9l-96 150.5H85.1v40H1.2V657h223.6v-15.2h-23.1v-20zm-274.1-35.2l86.3-135.3h62.3v-15.2h-112l81.6-116.7h30.4v-15.2H7.9L113 169.7l105.2 134.6H96.4v15.2h83.7l10.6 15.2h-64v15.2h74.6l60.4 86.3H96.4v15.2H212l9.7 15.2h-94.9v15.2h104.6l66.9 104.9H85.1l-157.5-.1zm172.7 55.2v-40h25.4v40h-25.4z"/></svg>