<svg id="Layer_1" xmlns="http://www.w3.org/2000/svg" viewBox="-143 145 512 512"><style>.st0{fill:#3f352f}.st1{fill:none}.st2{fill:#81d135}.st3{font-family:&amp;apos;Riffic&amp;apos;}.st4{font-size:72px}.st5{letter-spacing:14}.st6,.st7{fill:#fff;stroke:#fff;stroke-width:14;stroke-miterlimit:10}.st7{fill:#3f352f}.st8{fill:#fff}</style><path class="st0" d="M235.8 342l-59.3-25.4c-11.4-5.7-12.3-16.2-12.3-26.5v-42.7c9.4 0 17.1-7.7 17.1-17.1v-34.1c0-9.4-7.7-17.1-17.1-17.1h-17.1v-25.6c0-4.7-3.8-8.5-8.5-8.5H87.4c-4.7 0-8.5 3.8-8.5 8.5v25.6H61.8c-9.4 0-17.1 7.7-17.1 17.1v34.1c0 9.4 7.7 17.1 17.1 17.1v42.7c0 10.3-.9 20.8-11.9 26.3l-60.2 25.8c-19.6 9.8-30.3 27.6-30.3 50.3v221.9c0 23.5 19.1 42.7 42.7 42.7H224c23.5 0 42.7-19.1 42.7-42.7V392.5c-.1-22.7-10.9-40.6-30.9-50.5zM95.9 162.1H130v17.1H95.9v-17.1zm153.6 409.6H2.1c-4.7 0-8.5 3.8-8.5 8.5s3.8 8.5 8.5 8.5h247.5v25.6c0 14.1-11.5 25.6-25.6 25.6H2.1c-14.1 0-25.6-11.5-25.6-25.6V452.2H224c4.7 0 8.5-3.8 8.5-8.5s-3.8-8.5-8.5-8.5H-23.5v-42.7c0-16.1 7.2-28.2 20.4-34.8l60.2-25.8c21.8-10.9 21.8-32.5 21.8-41.8v-42.7h42.7c4.7 0 8.5-3.8 8.5-8.5s-3.8-8.5-8.5-8.5H61.8v-34.1h102.4v34.1h-8.5c-4.7 0-8.5 3.8-8.5 8.5v51.2c0 9.2 0 30.9 22.2 42l59.3 25.4c13.7 6.8 20.9 19 20.9 35l-.1 179.2z"/><path class="st0" d="M219.2 372c-.3-.1-.5-.2-.8-.3l-34.1-12.8c-4.4-1.6-9.3.6-11 5-1.6 4.4.6 9.3 5 11l33.2 12.4c1 .9 4 4.4 4 13.7 0 4.7 3.8 8.5 8.5 8.5s8.5-3.8 8.5-8.5c0-21.7-11.9-28.3-13.3-29z"/><path class="st1" d="M40 488h189v111H40z"/><text transform="translate(40 541.783)" class="st2 st3 st4 st5">OIL</text><path class="st6" d="M113 467.8c-8.8 0-16.7-3.8-22.2-9.9V476h44.3v-18.1c-5.4 6-13.3 9.9-22.1 9.9zm0-93.6c1.5 0 2.8.9 3.4 2.2 5.4 11.6 13 25.2 18.7 37.3V367H90.8v46.8c5.7-12.2 13.4-25.7 18.7-37.3.7-1.4 2-2.3 3.5-2.3z"/><path class="st6" d="M111.7 458.3c2.2 0 4-1.8 4-4s-1.8-4-4-4c-6.6 0-12-5.4-12-12 0-2.2-1.8-4-4-4s-4 1.8-4 4c.1 11.1 9 20 20 20z"/><path class="st7" d="M113 467.8c8.8 0 16.7-3.8 22.2-9.9 4.7-5.3 7.6-12.2 7.6-19.8 0-6.3-3.2-14.9-7.6-24.3-5.7-12.2-13.4-25.7-18.7-37.3-.6-1.3-2-2.2-3.4-2.2-1.5 0-2.8.9-3.4 2.2-5.4 11.6-13 25.2-18.7 37.3-4.4 9.4-7.6 18-7.6 24.3 0 7.6 2.9 14.6 7.6 19.8 5.3 6 13.2 9.9 22 9.9zm-17.2-33.4c2.2 0 4 1.8 4 4 0 6.6 5.4 12 12 12 2.2 0 4 1.8 4 4s-1.8 4-4 4c-11 0-19.9-8.9-19.9-19.9-.1-2.3 1.7-4.1 3.9-4.1z"/><path class="st8" d="M113.7 468c-8.8 0-16.7-3.8-22.2-9.9v18.1h44.3v-18.1c-5.4 6-13.3 9.9-22.1 9.9zm0-93.6c1.5 0 2.8.9 3.4 2.2 5.4 11.6 13 25.2 18.7 37.3v-46.8H91.5V414c5.7-12.2 13.4-25.7 18.7-37.3.7-1.4 2-2.3 3.5-2.3z"/><path class="st8" d="M112.4 458.5c2.2 0 4-1.8 4-4s-1.8-4-4-4c-6.6 0-12-5.4-12-12 0-2.2-1.8-4-4-4s-4 1.8-4 4c.1 11.1 9 20 20 20z"/><path class="st0" d="M113.7 468c8.8 0 16.7-3.8 22.2-9.9 4.7-5.3 7.6-12.2 7.6-19.8 0-6.3-3.2-14.9-7.6-24.3-5.7-12.2-13.4-25.7-18.7-37.3-.6-1.3-2-2.2-3.4-2.2-1.5 0-2.8.9-3.4 2.2-5.4 11.6-13 25.2-18.7 37.3-4.4 9.4-7.6 18-7.6 24.3 0 7.6 2.9 14.6 7.6 19.8 5.3 6 13.2 9.9 22 9.9zm-17.2-33.4c2.2 0 4 1.8 4 4 0 6.6 5.4 12 12 12 2.2 0 4 1.8 4 4s-1.8 4-4 4c-11 0-19.9-8.9-19.9-19.9-.1-2.3 1.7-4.1 3.9-4.1z"/></svg>