<svg xmlns="http://www.w3.org/2000/svg" viewBox="0 0 237.4 442.3"><defs><style>.cls-1{fill:#839bc6}.cls-2{fill:#275893}.cls-3{fill:#fff}.cls-4{fill:#262626}</style></defs><title>smartphone</title><g id="Calque_2" data-name="Calque 2"><g id="Calque_1-2" data-name="Calque 1"><path class="cls-1" d="M202.2 65H8.6v310.4h221.1V65h-27.5z"/><path class="cls-2" d="M8.7 333.3v52.1h222.7v-52.1H8.7z"/><path class="cls-3" d="M35.2 157.5c-5.8 0-6.4 4.7-6.4 10.4v149.4c0 5.8.7 10.4 6.4 10.4s6.4-4.7 6.4-10.4V167.9c.1-5.7-.6-10.4-6.4-10.4zm0-64.2c-5.8 0-6.4 3.7-6.4 9.4v23.7c0 5.8.7 9.4 6.4 9.4s6.4-3.7 6.4-9.4v-23.7c.1-5.7-.6-9.4-6.4-9.4z"/><path class="cls-4" d="M189.2 442.3a48.33 48.33 0 0 0 48.2-48.4V48.4A48.31 48.31 0 0 0 189.3 0H48.1A48.31 48.31 0 0 0 0 48.4v345.5a48.31 48.31 0 0 0 48.1 48.4h141.1zm38.3-43.4c0 15.2-18.2 33.5-33.2 33.5H43.1c-15 0-33.2-18.3-33.2-33.5v-13.3h217.6zm-2-231.6v206.5H10.9V66.2h214.6zm3-113H9.9v-9c0-15.2 17.2-35.5 32.2-35.5h152.1c15 0 34.2 18.3 34.2 33.5l.1 11z"/><path d="M117.5 391.6a17.5 17.5 0 1 0 17.4 17.5 17.43 17.43 0 0 0-17.4-17.5zm.6 28.1c-8.5 0-11-5.5-11-11a10 10 0 0 1 10-10c8.2 0 11 5.5 11 11a10 10 0 0 1-10 10z"/><path class="cls-4" d="M158 38.2H82a5 5 0 0 1 0-10h76a5 5 0 0 1 0 10z"/></g></g></svg>