<svg xmlns="http://www.w3.org/2000/svg" viewBox="0 0 237.4 442.3"><defs><style>.cls-1{fill:#fff}.cls-2{fill:#3f352f}</style></defs><title>Fichier 1</title><g id="Calque_2" data-name="Calque 2"><g id="Calque_1-2" data-name="Calque 1"><path class="cls-1" d="M39.6 3.2L12.7 21.3 5.3 48.1v344.1l5.7 28.3 23.7 17.7 162.5 1.1 21.9-10 12.6-27.5V46.2l-6.1-25.1-21.4-14.9L194 4 39.6 3.2z"/><path class="cls-1" d="M35.2 157.5c-5.8 0-6.4 4.7-6.4 10.4v149.4c0 5.8.7 10.4 6.4 10.4s6.4-4.7 6.4-10.4V167.9c.1-5.7-.6-10.4-6.4-10.4zm0-64.2c-5.8 0-6.4 3.7-6.4 9.4v23.7c0 5.8.7 9.4 6.4 9.4s6.4-3.7 6.4-9.4v-23.7c.1-5.7-.6-9.4-6.4-9.4z"/><path class="cls-2" d="M189.2 442.3a48.33 48.33 0 0 0 48.2-48.4V48.4A48.31 48.31 0 0 0 189.3 0H48.1A48.31 48.31 0 0 0 0 48.4v345.5a48.31 48.31 0 0 0 48.1 48.4h141.1z"/></g></g></svg>